<?xml version="1.0" standalone="no"?>
<!DOCTYPE svg PUBLIC "-//W3C//DTD SVG 1.1//EN" "http://www.w3.org/Graphics/SVG/1.1/DTD/svg11.dtd" >
<svg xmlns="http://www.w3.org/2000/svg">
<metadata></metadata>
<defs>
<font id="dimuthu_bold" horiz-adv-x="0" >
<font-face units-per-em="2048" ascent="1638" descent="-410" />
<missing-glyph horiz-adv-x="931" />
<glyph horiz-adv-x="2048" />
<glyph horiz-adv-x="2048" />
<glyph unicode="&#xd;" horiz-adv-x="931" />
<glyph unicode=" "  horiz-adv-x="931" />
<glyph unicode="&#x09;" horiz-adv-x="931" />
<glyph unicode="&#xa0;" horiz-adv-x="931" />
<glyph unicode="!" horiz-adv-x="688" d="M16 762q0 162 107 282h129q-70 -84 -92 -133q-29 -66 -29 -157q0 -154 74 -154q49 0 45 78q-90 25 -90 129q0 90 64.5 165t154.5 75q285 0 285 -467q0 -213 -62 -367q-88 -221 -276 -221q-117 0 -183.5 65.5t-66.5 182.5q0 20 2 45l112 6q0 -170 119 -170q111 0 144 201 q14 86 14 288q0 125 -6 166q-18 117 -82 117q-88 0 -88 -76q113 -6 112 -149q0 -90 -50 -146.5t-140 -56.5q-197 0 -197 297z" />
<glyph unicode="&#x22;" horiz-adv-x="391" d="M45 125q0 59 41 101t100 42q152 0 152 -186q0 -182 -221 -313l-47 73q127 84 143 170q-35 -16 -59 -16q-49 0 -79 39t-30 90z" />
<glyph unicode="#" horiz-adv-x="391" d="M27 215q0 68 48 115t115 47q68 0 114 -47t46 -115t-48 -114t-116 -46t-113.5 46t-45.5 114zM27 633q0 68 47 115t114 47q68 0 115 -47.5t47 -114.5q0 -68 -47 -115t-115 -47t-114.5 47t-46.5 115zM106 215q0 -33 25 -56.5t57 -23.5q33 0 57.5 23.5t24.5 56.5 q0 35 -24.5 58.5t-59.5 23.5t-57.5 -23.5t-22.5 -58.5zM106 633q0 -35 23 -58.5t57 -23.5q35 0 59.5 23.5t24.5 58.5t-24.5 58.5t-59.5 23.5q-33 0 -56.5 -24.5t-23.5 -57.5z" />
<glyph unicode="$" horiz-adv-x="651" d="M53 -436l365 1847h164l-371 -1847h-158z" />
<glyph unicode="%" horiz-adv-x="18" d="M-1219 14q0 37 9 74h118q6 -53 9 -63q8 -37 26 -60q55 -68 420 -67q174 0 242 20q119 37 139 170l119 -10q2 -25 2 -47q0 -199 -164 -299q-135 -82 -346 -82q-219 0 -371 69q-203 94 -203 295z" />
<glyph unicode="&#x26;" horiz-adv-x="540" d="M59 -158q145 68 185 334q14 96 14 408q0 309 -14 407q-39 270 -185 334v111q264 -70 353 -344q53 -166 53 -508t-53 -508q-89 -278 -353 -346v112z" />
<glyph unicode="'" horiz-adv-x="380" d="M45 139q0 59 44 98t106 39q57 0 96 -43t39 -100t-42.5 -98t-99.5 -41q-61 0 -102 42t-41 103z" />
<glyph unicode="(" horiz-adv-x="399" d="M57 115q0 61 39 102t101 41q61 0 101 -41t40 -102q0 -55 -43 -98.5t-98 -43.5t-97.5 43t-42.5 99zM57 764q0 55 42 98t98 43q55 0 98 -43t43 -98q0 -59 -41 -99t-100 -40t-99.5 40t-40.5 99z" />
<glyph unicode=")" horiz-adv-x="727" d="M66 393l86 201h514l-93 -201h-507z" />
<glyph unicode="*" horiz-adv-x="1359" d="M37 451q0 539 422 538q164 0 248 -106q70 102 223 102q193 0 293 -156q86 -131 86 -333q-1 -522 -361 -510l-57 2v131q154 6 215 112q47 80 47 248q0 250 -199 250q-96 0 -143 -82q-39 -66 -39 -170q0 -41 6 -82h-188q4 150 -15 219q-35 135 -155 136q-117 0 -180 -107 q-53 -90 -54 -213q0 -141 74 -225q78 -92 217 -84v-133q-41 -4 -63 -4q-193 0 -291 143q-86 123 -86 324z" />
<glyph unicode="+" d="M-547 -43l119 100h203l-103 -67l68 -39q-145 -10 -146 -80q0 -49 84 -49q78 0 78 61q0 20 -8 45h102q14 -37 15 -65q0 -84 -61.5 -132t-147.5 -48q-84 0 -141.5 46t-57.5 130q0 55 41 94z" />
<glyph unicode="," horiz-adv-x="1349" d="M37 348q0 315 176 504q180 197 494 197q268 0 428 -129q176 -139 176 -402q0 -197 -121 -321.5t-316 -124.5q-172 0 -286 86q-127 96 -127 264q0 123 67 199h-90v131h523v-134l-70 3q-127 4 -180 -17q-88 -33 -88 -149q0 -90 82 -140q68 -39 163 -39q129 0 209 62 q88 66 88 190q0 197 -133 297q-119 88 -321 88q-219 0 -340 -168q-106 -150 -107 -376q0 -231 115 -392q129 -180 350 -180q414 0 453 312h116l2 -33q12 -203 -192 -326q-172 -104 -387 -104q-299 0 -491.5 200.5t-192.5 501.5z" />
<glyph unicode="-" horiz-adv-x="716" d="M66 393l86 201h514l-93 -201h-507z" />
<glyph unicode="." horiz-adv-x="1507" d="M41 520q0 233 109 367q119 145 346 145q29 0 71 -4v-127l-51 2q-152 6 -236.5 -87t-84.5 -247q0 -152 102 -251t256 -99q299 0 299 199q0 113 -61 112q-61 0 -62 -45q0 -12 8 -26h-131q-59 78 -59 186q0 184 119 291q113 102 299 102q512 0 512 -571q0 -231 -140.5 -356 t-373.5 -125q-45 0 -84 4v116q-135 -115 -340 -114q-225 0 -365 153q-133 147 -133 375zM698 649l4 2q35 31 93 31q215 0 215 -283q0 -174 -121 -282q418 0 418 342q0 168 -97.5 265t-265.5 97q-256 0 -246 -172z" />
<glyph unicode="/" horiz-adv-x="1832" d="M31 514q0 174 94 315q98 150 260 197q84 25 170 82q109 72 109 137q0 16 -9 31l168 2l80 -2q-23 -129 -205 -240q238 -6 373 -133q143 -133 143 -366q0 -272 -162.5 -418t-437.5 -146q-240 0 -407 150q-176 154 -176 391zM188 557q0 -164 140 -260q121 -84 293 -84 q190 0 305 74q137 88 137 268q0 174 -135 272q-121 88 -301 88q-178 0 -301 -88q-137 -98 -138 -270zM1202 340q0 430 354 793h-290v143h530l-4 -148q-303 -193 -412 -614q-12 -47 -12 -86q0 -74 33 -133q39 -72 106 -72q168 0 154 193h139q6 -49 6 -84q0 -145 -75 -242 q-83 -106 -224 -106q-154 0 -233 104q-72 92 -72 252z" />
<glyph unicode="0" horiz-adv-x="1112" d="M41 631q0 264 121 446q139 211 389 211q252 0 389 -211q119 -182 119 -446q0 -266 -119 -445q-137 -211 -389 -211q-250 0 -391 215q-119 182 -119 441zM272 631q0 -213 47 -342q70 -190 232 -191q276 0 276 533q0 538 -276 538q-162 0 -232 -202q-47 -135 -47 -336z" />
<glyph unicode="1" horiz-adv-x="782" d="M70 1085v89q43 4 213 43q135 31 219 26v-1069q0 -63 71 -84q35 -10 138 -14v-101h-627v101q94 6 125 14q76 20 76 86v785q0 133 -135 133q-35 0 -80 -9z" />
<glyph unicode="2" horiz-adv-x="1071" d="M55 135q285 197 430 342q244 242 244 449q0 109 -64.5 170t-172.5 61q-74 0 -144 -39q-82 -45 -82 -112q0 -20 29 -65.5t29 -74.5q0 -49 -36 -79.5t-85 -30.5q-129 0 -129 159q0 168 149 271q131 88 307 88q172 0 297 -90q139 -102 140 -269q0 -279 -648 -753h351 q119 0 176 47t94 164l100 -27l-92 -362h-876z" />
<glyph unicode="3" horiz-adv-x="1013" d="M12 281q0 59 33 99t92 40q117 0 117 -111q0 -14 -8 -41.5t-8 -42.5q0 -68 88 -100q61 -23 145 -23q129 0 201.5 70t72.5 199q0 281 -311 280q-49 0 -106 -6v107q23 2 51 0q31 -2 43 -2q119 0 190 51q82 59 82 174q0 213 -221 213q-59 0 -125 -33q-76 -37 -76 -90 q0 -12 15.5 -50t15.5 -59q0 -45 -32.5 -73.5t-77.5 -28.5q-119 0 -119 129q0 147 143 238q123 76 281 75q164 0 284 -77q139 -90 140 -246q0 -182 -230 -264q295 -72 295 -326q0 -201 -178 -309q-152 -92 -365 -92q-141 0 -274 73q-158 88 -158 226z" />
<glyph unicode="4" horiz-adv-x="1097" d="M14 414q274 342 602 831h193v-790h268l-53 -140h-215v-141q0 -82 94 -94q12 0 78 -4v-101h-553v101q43 2 123 16q47 18 47 76v147h-537zM193 455h405v557q-137 -184 -405 -557z" />
<glyph unicode="5" horiz-adv-x="1052" d="M31 274q0 55 34.5 95.5t90.5 40.5q51 0 85.5 -31t34.5 -82q0 -14 -8 -44t-8 -44q0 -100 199 -100q143 0 224 94t81 239q0 135 -80 221.5t-215 86.5q-152 0 -268 -168l-101 32q16 254 17 674h528q63 0 86 8q37 14 64 60h94l-45 -242h-592q0 -145 -6 -323q135 92 297 92 q190 0 321 -113q137 -119 137 -307q0 -229 -159 -354q-145 -113 -381 -113q-143 0 -271 63q-160 80 -159 215z" />
<glyph unicode="6" horiz-adv-x="1034" d="M18 623q0 283 136 471q152 215 424 215q125 0 241 -56q150 -72 150 -190q0 -106 -111 -107q-76 0 -102 56q-14 29 -23 121q-35 61 -168 61q-301 0 -313 -489q141 141 321 141q184 0 310.5 -114t126.5 -296q0 -205 -148 -327q-139 -115 -346 -115q-254 0 -385 194 q-113 168 -113 435zM260 416q0 -133 57 -209q66 -88 195 -88q133 0 203 86q66 80 65 217q0 127 -63 207q-72 88 -195 88q-127 0 -196 -90q-66 -80 -66 -211z" />
<glyph unicode="7" horiz-adv-x="1042" d="M31 922l59 333h895l23 -127q-227 -299 -342 -534q-152 -311 -166 -610h-269q84 516 592 1095h-454q-106 0 -155.5 -37.5t-92.5 -140.5z" />
<glyph unicode="8" horiz-adv-x="1042" d="M12 348q0 217 260 316q-195 86 -194 270q0 176 145 274q127 86 312 86q166 0 282 -71q139 -84 139 -240q0 -184 -223 -262q276 -104 277 -320q0 -197 -160 -315q-145 -106 -348 -106q-190 0 -328 86q-162 102 -162 282zM205 344q0 -123 88 -190q82 -63 207 -64 q131 0 215 53q100 63 100 181q0 92 -160 192q-143 90 -241 94q-96 -27 -152.5 -97.5t-56.5 -168.5zM272 993q0 -100 117 -157q59 -29 205 -66q186 68 186 221q0 96 -78 154q-67 51 -167 51q-102 0 -177 -49q-86 -55 -86 -154z" />
<glyph unicode="9" horiz-adv-x="1052" d="M39 852q0 205 147 328q137 115 346 114q244 0 377 -192q117 -168 117 -416q0 -299 -125 -485q-145 -221 -430 -221q-135 0 -246 51q-145 68 -145 192q0 111 108 111q66 0 93 -39q12 -20 28 -88q14 -59 42 -86t130 -27q299 0 312 490q-137 -139 -320 -140q-188 0 -311 111 t-123 297zM268 864q0 -129 62 -207q66 -84 192 -84q131 0 203 93q63 82 63 217q0 127 -61 204q-69 84 -192 84q-135 0 -201 -85t-66 -222z" />
<glyph unicode=":" horiz-adv-x="1222" d="M33 500q0 442 444 442q61 0 144 -10v-144q-80 12 -136 13q-303 0 -303 -258q0 -322 391 -322q201 0 314 88q129 96 129 291q0 174 -76 313q-82 154 -231 220q-78 -111 -267 -111q-90 0 -172 29q-111 39 -110 110q0 33 12 62h-37v133q80 6 141 6q416 0 650 -186 q258 -205 258 -611q0 -246 -173 -412.5t-419 -166.5q-252 0 -402 129q-158 137 -157 385zM303 1190q0 -43 133 -43q92 0 133 45q-78 29 -176 29h-71q-18 -12 -19 -31z" />
<glyph unicode=";" horiz-adv-x="1452" d="M20 434l156 166q-51 8 -83 51t-32 97q0 115 79 184t196 69q133 0 201 -98q164 143 401 144q236 0 369 -164q121 -152 120 -394q0 -223 -110 -360q-123 -152 -340 -143l-59 2l-7 141q158 -4 243 86t85 250q0 154 -98 266q-104 119 -254 119q-78 0 -158 -39 q317 -68 318 -371q0 -217 -150 -342q-139 -119 -360 -118q-158 0 -273 71q-133 82 -133 232q0 27 4 55h-67zM250 821q4 0 10 -2l10 -8q37 -29 37 -92l-2 -8l119 102q-25 63 -90 64q-27 0 -55.5 -15.5t-28.5 -40.5zM262 477h25l10 -104q-18 -8 -18 -51q0 -174 229 -175 q145 0 234 80t89 224q0 109 -58.5 172t-164.5 63q-90 0 -188 -72q-27 -18 -158 -137z" />
<glyph unicode="&#x3c;" horiz-adv-x="1386" d="M33 315q0 127 49 242q57 131 156 186q-2 14 -2 33q0 119 85 197t205 78q152 0 228 -93q61 92 194 93q141 0 215 -105q66 -92 66 -233q0 -37 -6 -92l-680 -5q-53 0 -84 -43t-31 -98q0 -123 98 -194q90 -66 217 -66q162 0 244 51q92 57 137 207h131q-12 -201 -165 -313 q-139 -102 -347 -103q-182 0 -309 93q-141 98 -162 272q-20 -68 -20 -137q0 -186 128 -322.5t314 -136.5q233 0 357 86q139 100 153 326h146q4 -268 -181 -431q-176 -153 -448 -153q-330 0 -506 164q-182 170 -182 497zM416 764h250q2 57 -33 98t-90 41q-115 0 -127 -139z M844 756h221q-6 143 -115 143q-111 0 -106 -143z" />
<glyph unicode="=" horiz-adv-x="18" d="M-635 -66q0 90 86 164l143 -4q-80 -68 -79 -123q0 -47 43 -82.5t92 -35.5q154 0 153 176q0 27 -26 73h98q27 -125 27 -149q0 -115 -79 -192.5t-194 -77.5q-106 0 -185 72.5t-79 178.5z" />
<glyph unicode="&#x3e;" horiz-adv-x="1359" d="M33 408q0 100 33 184q39 104 116 139q-25 41 -24 88q0 109 94 166q80 49 194 49q180 0 248 -108q57 113 240 112q106 0 177 -67.5t71 -173.5q0 -29 -8 -62q156 -100 155 -301q0 -197 -98 -319q-106 -135 -299 -135q-188 0 -248 104q-86 -102 -278 -102q-178 0 -279 127 q-94 117 -94 299zM184 428q0 -106 88 -164q76 -47 189 -47q92 0 92 43q0 14 -35 41q-43 35 -49 41q-29 37 -29 98q0 109 150 146q41 10 90 10q98 0 160 -39q78 -45 78 -137q0 -80 -74 -123q-55 -33 -56 -29q0 -53 107 -51h27q16 2 24 2q98 0 159.5 58.5t61.5 156.5 q1 178 -194 180l-594 4q-90 0 -142.5 -50t-52.5 -140zM410 758h178q6 127 -117 127q-41 0 -49 -68q-2 -26 -12 -59zM590 434q0 -12 28 -22q39 -14 58 -47q14 18 41 30q53 23 53 37q0 27 -86 27q-94 0 -94 -25zM793 762h239v12q0 127 -117 127q-127 0 -122 -139z" />
<glyph unicode="?" horiz-adv-x="1861" d="M31 514q0 174 94 315q98 150 260 197q84 25 170 82q109 72 109 137q0 16 -9 31l168 2l80 -2q-23 -129 -205 -240q238 -6 373 -133q143 -133 143 -366q0 -272 -162.5 -418t-437.5 -146q-240 0 -407 150q-176 154 -176 391zM188 557q0 -164 140 -260q121 -84 293 -84 q190 0 305 74q137 88 137 268q0 174 -135 272q-121 88 -301 88q-178 0 -301 -88q-137 -98 -138 -270zM1239 399q0 139 67.5 313.5t161.5 276.5h-221v117l125 45l-127 -2v137h508l-6 -115l-131 -59h129v-117q-152 -51 -246 -215q-84 -150 -84 -319q0 -242 174 -242 q86 0 99 90l8 80h123q8 -45 8 -80q0 -135 -72 -225q-76 -98 -209 -98q-152 0 -235 137q-72 117 -72 276z" />
<glyph unicode="@" horiz-adv-x="958" d="M45 965q0 168 141 256q117 76 295 75q190 0 307 -75q141 -88 142 -269q0 -186 -176 -276q-29 -16 -170 -86q-63 -33 -78 -135q-4 -31 -4 -166h-135q-4 246 28 295q43 66 215 174q113 72 113 207q0 98 -65.5 157.5t-165.5 59.5q-68 0 -146 -23q-102 -29 -102 -78l26 -56 q25 -56 25 -91q0 -100 -125 -100q-57 0 -91 36.5t-34 94.5zM299 111q0 55 35 92t90 37q53 0 92 -38t39 -91q0 -55 -38 -93t-93 -38q-51 0 -88 39.5t-37 91.5z" />
<glyph unicode="A" d="M-430 1522q0 51 55 51h258q162 0 162 -174q0 -178 -243 -178h-5v-187l-147 6v404q0 12 -40 32.5t-40 45.5zM-201 1339q96 0 97 52q0 61 -76 61h-21v-113z" />
<glyph unicode="B" horiz-adv-x="1239" d="M31 514q0 174 96 317q100 152 264 197q4 2 53 19q70 31 127 90q70 72 70 133v6l133 2l72 -2q-44 -162 -148 -236q238 -6 375 -135q141 -135 141 -368q0 -272 -162.5 -418t-437.5 -146q-240 0 -407 150q-176 154 -176 391zM166 1157q0 61 43 105.5t104 44.5 q63 0 107.5 -43t44.5 -107q0 -61 -43.5 -105t-104.5 -44q-63 0 -107 43t-44 106zM188 557q0 -164 140 -260q121 -84 293 -84q190 0 305 74q137 88 137 268q0 174 -135 270q-121 86 -301 86q-176 0 -299 -86q-139 -98 -140 -268zM317 1133q29 0 29 28q0 29 -29 29 q-28 0 -28 -27q0 -31 28 -30zM868 1149q0 63 42 107t106 44q63 0 108 -43t45 -106t-44 -107.5t-107 -44.5q-61 0 -105.5 44t-44.5 106zM993 1153q0 -31 27 -31q31 0 31 31q0 29 -31 29q-27 0 -27 -29z" />
<glyph unicode="C" horiz-adv-x="1138" d="M55 422q164 231 424 407q-47 31 -96 31q-10 0 -51 -4q-47 -27 -47 -47q0 -12 20 -49q23 -43 27 -53l-8 -29q-78 -84 -144 -84q-98 0 -98 121q0 264 324 264q94 0 182 -76q182 86 434 86q307 0 446 -133l-114 -86q-119 84 -293 84q-111 0 -273 -51h3q280 -117 280 -402 q0 -170 -80 -319q-51 -94 -203 -94q-170 0 -210 84q-68 -90 -220 -90q-98 0 -182 73.5t-84 169.5q0 74 53 152h-26zM264 279q0 -35 30 -62t64 -27q102 0 140 95q25 61 28 207h123q-8 -119 -8 -136q0 -166 135 -166q160 0 160 240q0 135 -85 205t-224 70q-102 0 -197 -68 q-49 -35 -154 -141l50 -7l28 -75q-90 -51 -90 -135z" />
<glyph unicode="D" horiz-adv-x="782" d="M35 332q0 156 69 252q77 110 227 110h3q78 0 166 -32q12 45 12 94q0 141 -121 141q-49 0 -83 -41t-34 -90q0 -20 7 -41h-160q-10 35 -10 66q0 117 90 186q84 63 202 63q305 0 306 -266q0 -68 -25 -203t-25 -202q0 -74 21 -195q23 -129 49 -188l-192 -6q-29 33 -41 83 q-79 -81 -186 -81h-3q-135 0 -209 112q-63 94 -63 238zM207 369q0 -154 145 -154q125 0 125 35q0 23 -8 66.5t-8 66.5q0 47 12 115q-46 32 -104 32h-4q-72 0 -115 -45t-43 -116z" />
<glyph unicode="E" horiz-adv-x="651" d="M29 309q0 117 69 240q66 113 164 188h-207v119l123 43l-125 -2v137h506l-4 -112l-131 -60h127v-119q-328 -170 -328 -387q0 -137 135 -137q94 0 111 82q4 23 10 82h123q8 -45 8 -80q0 -135 -71 -225q-76 -98 -209 -98q-129 0 -217 102q-84 96 -84 227z" />
<glyph unicode="F" horiz-adv-x="1042" d="M-4 426l154 172q-51 8 -89 62.5t-38 109.5q0 115 98 184q88 61 203 62q123 0 215 -94q229 110 404 110h3q160 0 248 -106q-18 -57 -20 -150q-119 72 -271 72q-111 0 -201 -45q295 -76 295 -416q0 -141 -88 -264q-94 -129 -229 -148q-147 -20 -193 -20q-178 0 -279.5 92 t-101.5 268q0 12 3 29l2 8h-66zM203 465l61 -21q6 -37 8 -77q-55 -12 -55 -107q0 -76 80 -119q66 -37 147 -37q160 0 254.5 94.5t94.5 254.5q0 243 -285 243q-66 0 -305 -231zM223 829q53 -61 53 -110l-2 -6l121 110q-43 54 -90 54q-45 0 -82 -48z" />
<glyph unicode="G" horiz-adv-x="1277" d="M20 422q0 221 101 348q111 137 328 137q55 0 131 -12v-123q-74 6 -119 6q-299 0 -299 -315q0 -109 47 -172q55 -74 160 -74q176 0 176 238q0 29 -2 59l166 4q-6 -41 -7 -74q0 -221 181 -221q202 0 202 341q0 185 -98 364q-113 203 -276 211q-51 -98 -112.5 -137 t-172.5 -39q-74 0 -141 32q-80 41 -80 107q0 12 4 22l-37 -2l-20 107q204 67 378 67h5q704 0 704 -811q0 -503 -373 -503q-158 0 -229 129q-68 -129 -240 -129q-190 0 -288 129q-88 115 -89 311zM336 1133q0 -49 74 -50q133 0 161 74q-35 4 -84 4q-96 0 -149 -16 q-2 -6 -2 -12z" />
<glyph unicode="H" horiz-adv-x="1042" d="M23 139q0 352 184 471q33 18 121 72q49 39 49 102q0 84 -82 84q-127 0 -127 -170q0 -27 2 -53h-133q-10 53 -10 94q0 121 73.5 199t194.5 78q80 0 148.5 -41t93.5 -113q43 158 245 158q106 0 175 -61.5t69 -165.5q0 -59 -39 -108.5t-96 -49.5q-12 0 -27 2 q160 -90 160 -297q0 -176 -121 -274q-113 -88 -293 -89q-92 0 -195.5 49.5t-117.5 49.5q-61 0 -111 -92h-149zM178 197q45 51 119 51q53 0 149.5 -43t145.5 -43q88 0 141 50t53 138t-57 133q-39 23 -117 68q-68 41 -84 129q-20 -66 -69 -109q-25 -23 -117 -73 q-76 -43 -109 -88q-53 -74 -55 -213zM682 770q0 -39 47 -68q8 -3 82 -38q-45 37 -45 84q0 59 70 112q-23 20 -70 21q-84 0 -84 -111z" />
<glyph unicode="I" horiz-adv-x="1320" d="M18 442q0 217 132 289q-27 37 -27 100q0 94 100 156q88 53 189 53q182 0 254 -120q47 112 210 112h3q291 0 290 -280q66 -31 99 -125q28 -75 28 -158v-6q0 -475 -606 -475q-672 0 -672 454zM182 455q0 -119 183 -191q147 -57 297 -57q180 0 309 61q172 78 172 238 q0 98 -45 98l14 10q-12 -53 -61.5 -90t-106.5 -41q23 -31 23 -75q0 -164 -275 -164q-123 0 -205 32q-119 47 -118 150q0 172 223 188h-295q-115 0 -115 -159zM342 756h215q-2 57 -29 98q-31 49 -84 49q-61 0 -77 -26q-14 -18 -15 -84q0 -23 -10 -37zM524 436q0 -55 170 -55 q119 0 119 33q0 45 -86 55h-143q-59 0 -60 -33zM707 614q106 -4 163 -4q59 0 74 4h-237zM768 758h242v16q0 117 -113 117q-123 0 -129 -133z" />
<glyph unicode="J" horiz-adv-x="1095" d="M49 412q0 133 55 239l113 -24l-10 -31q0 -33 65 -33q152 0 285 266q-47 49 -117 50q-84 0 -86 -62q57 -76 58 -110q0 -39 -36 -69t-75 -30q-141 0 -141 140q0 102 94 178q87 69 192 69h3q143 0 206 -84q129 90 396 90q180 0 288 -65q98 -61 199 -221l-168 -31 q-86 86 -160 121q-80 37 -194 37q-186 0 -326 -121q104 -12 242 -76q102 -47 102 -276q0 -201 -168 -301q-137 -82 -352 -82q-203 0 -330 110q-135 117 -135 316zM168 420q0 -145 94 -219q86 -68 234 -68q139 0 229 57q109 70 109 201q-1 141 -58 166q-20 4 -71 21 q-83 30 -92 30h-1q-25 0 -135 -73.5t-178 -73.5q-70 0 -127 20q-4 -29 -4 -61z" />
<glyph unicode="K" horiz-adv-x="1777" d="M0 59l182 269q-66 45 -106 143q-35 88 -35 176q0 221 158 350q147 119 372 119q70 0 117 -8l131 199l135 -66l-110 -178q96 -29 145 -84q35 78 170 78q100 0 141 -62q43 59 142 60q197 0 266 -164q45 -104 45 -328q0 -215 -76 -368q-100 -205 -301 -205q-240 0 -280 211 q-139 -211 -469 -211q-76 0 -190.5 47t-151.5 47q-88 0 -162 -96zM195 629q0 -115 67 -166l285 455h-23q-131 0 -227 -78q-102 -82 -102 -211zM297 233h8q63 0 182 -44t183 -44q154 0 244 100.5t90 256.5q0 133 -74 243q-80 121 -205 146l-96 -150q88 0 149.5 -71.5 t61.5 -161.5q0 -131 -109 -213q-98 -76 -233 -76q-98 0 -185 37zM399 383q37 -25 72 -25q6 0 10 2q-41 21 -57 64zM549 522q0 -29 20.5 -48t48.5 -19q27 0 47.5 20.5t20.5 46.5q0 29 -19.5 49.5t-48.5 20.5t-49 -20.5t-20 -49.5zM1079 883l2 -4q104 -209 105 -340 q0 -106 -27 -201l74 -2q-1 -26 -1 -48q0 -65 9 -91q25 -68 113 -68q139 0 184 190q23 96 23 302q0 127 -9 167q-23 111 -98 111q-93 0 -93 -154q0 -12 1 -26q3 -56 3 -82q0 -13 -1 -19h-145l4 181v6q0 110 -67 110h-1h-4q-68 0 -72 -32z" />
<glyph unicode="L" horiz-adv-x="1331" d="M37 510q0 213 115 348q123 141 331 141q160 0 262.5 -101t102.5 -261q0 -94 -82 -197.5t-82 -173.5q0 -12 2 -22q28 22 65 22h3q29 0 80 -22.5t75 -22.5q104 0 160 148q43 113 43 247q0 236 -131 376.5t-365 140.5q-348 0 -393 -211h-172q35 180 230 276q158 78 344 78 q315 0 489 -185.5t174 -500.5q0 -231 -61 -385q-88 -217 -285 -217q-100 0 -164 71q-25 27 -43 27t-33.5 -18.5t-15.5 -38.5q0 -12 16 -45l-147 -4q-16 16 -16 36q0 16 2 39l-13 -12q-57 -57 -159 -57q-174 0 -265 192q-67 143 -67 327v5zM184 473q0 -49 11 -102 q53 106 196 106q100 0 148 -92q8 47 94 201q16 29 16 45q0 72 -59 123t-131 51q-274 0 -275 -332zM281 227q0 -37 23.5 -62.5t60.5 -25.5q35 0 61.5 27t26.5 61q0 37 -25.5 62.5t-62.5 25.5t-60.5 -25.5t-23.5 -62.5z" />
<glyph unicode="M" horiz-adv-x="1277" d="M70 631q43 102 123 151q-6 20 -7 45q0 94 82 146q68 41 168 41q394 0 394 -288q0 -15 -1 -30l-2 -32l-454 8h-6q-91 0 -141 -60q-52 -62 -52 -161q0 -121 156 -187q121 -51 270 -51q209 0 346 106q150 119 150 322q0 131 -78 281q-82 160 -193 211q-78 -111 -266 -111 q-90 0 -172 29q-111 39 -111 110q0 35 11 62h-35v133q82 6 141 6q506 0 725 -324q127 -188 127 -409q0 -299 -151 -471q-160 -181 -455 -181q-256 0 -414 101q-192 118 -192 358q0 104 37 195zM416 803h239q-28 80 -145 80q-82 0 -88 -37q0 -14 -6 -43zM420 1194 q0 -47 133 -47q94 0 133 45q-78 29 -176 29h-70q-20 -10 -20 -27z" />
<glyph unicode="N" horiz-adv-x="1423" d="M27 377q0 158 59 231h-59l6 137l35 -2q-10 25 -11 43q0 127 80 193q74 61 203 61q109 0 167 -36.5t89 -137.5q53 98 139 140q70 32 188 32h7q225 0 354 -137q123 -135 123 -362q0 -553 -479 -553h-21l-80 2v127l43 -2q12 -1 24 0q152 0 253 96q98 94 98 272 q0 131 -86 242q-92 117 -221 117q-248 0 -274 -172q40 26 88 26h4q111 0 176 -86q61 -78 61 -192q0 -213 -151 -328q-135 -104 -355 -104q-176 0 -313 106q-147 115 -147 287zM182 436q0 -117 109 -172q84 -41 213 -41q332 0 332 203q0 45 -35 84t-80 39q-59 0 -78 -96h-113 q-25 80 -34 153h-191q-55 0 -92 -59q-31 -51 -31 -111zM291 748h192q-4 149 -101 149h-1q-37 0 -49 -23q-8 -35 -23 -92q-6 -22 -18 -34z" />
<glyph unicode="O" horiz-adv-x="1275" d="M29 440q0 502 435 502h21l76 -2v-125l-55 2h-22q-171 0 -240 -90q-61 -80 -62 -276q0 -84 54.5 -149.5t136.5 -65.5q111 0 145 112q17 59 17 181v38h180q-16 -68 -17 -127q0 -207 176 -207q199 0 199 383q0 236 -100 375q-117 162 -342 162q-162 0 -246 -25 q-135 -39 -176 -149h-139q37 162 204 242q135 65 318 65h6q645 0 645 -706q0 -227 -72 -381q-98 -213 -307 -213q-162 0 -233 125q-61 -119 -248 -119q-178 0 -272 141q-82 121 -82 307z" />
<glyph unicode="P" horiz-adv-x="1312" d="M39 440q0 188 111 273q-35 35 -35 94q0 115 80 176q72 53 190 53q174 0 260 -129q35 76 83 104.5t134 28.5q76 0 150 -36q25 12 51 67q23 45 31 82l120 -4l3 -27v-10q0 -88 -99 -186q53 -61 53 -150q0 -39 -20 -84q123 -66 123 -280q0 -225 -213 -338q-170 -90 -406 -90 q-616 0 -616 456zM190 471q0 -250 465 -250q162 0 285 45q170 63 170 189q0 96 -68 127q-45 -29 -104 -29q-96 0 -170 88q-381 0 -461 -10q-53 -6 -85 -54.5t-32 -105.5zM350 766h195q-23 127 -121 127q-63 0 -64 -84q0 -27 -10 -43zM750 772q0 72 51 129q-51 -37 -51 -119 v-10zM887 770q0 -29 21.5 -49.5t49.5 -20.5q29 0 49.5 21.5t20.5 50.5t-21.5 49.5t-50.5 20.5t-49 -21.5t-20 -50.5z" />
<glyph unicode="Q" horiz-adv-x="12" d="M-1264 -186q0 47 27 127h145q-20 -88 -20 -101q0 -43 33 -43q57 0 168.5 36t169.5 36q72 0 207 -42t204 -42q10 0 19 2v408l149 145l4 -690q-16 -3 -73 -15q-47 -10 -62 -10q-76 0 -223.5 44t-222.5 44q-63 0 -184 -37.5t-185 -37.5q-156 0 -156 176z" />
<glyph unicode="R" horiz-adv-x="1988" d="M18 383q0 102 31 190q39 113 115 146q-25 45 -25 90q0 106 94 166q80 49 193 49q182 0 250 -111q57 115 246 115q102 0 170.5 -70.5t68.5 -173.5q0 -29 -6 -59q121 -82 129 -297q16 125 93 201t200 76q80 0 168 -33q12 45 12 94q0 141 -121 141q-51 0 -83.5 -41 t-32.5 -92q0 -20 6 -39h-160q-10 35 -10 66q0 117 90 186q84 63 203 64q305 0 305 -267q0 -68 -23.5 -203t-23.5 -202q0 -68 20 -189q25 -139 51 -194l-196 -4q-29 31 -41 84q-82 -82 -189 -82q-135 0 -206 104q-59 86 -66 230q-20 -156 -117.5 -250t-251.5 -94 q-180 0 -245 98q-61 -98 -258 -98q-180 0 -285 109.5t-105 289.5zM176 428q0 -96 62.5 -152.5t158.5 -56.5q113 0 160 60q41 53 41 167q0 29 -2 66h164l-2 -84q0 -211 157 -211q217 0 218 205q0 96 -41.5 139t-137.5 43l-596 4h-4q-178 0 -178 -180zM389 745h180v12 q0 117 -118 117q-39 0 -48 -71q-2 -23 -14 -58zM774 750h240v12q0 129 -117 129q-123 0 -123 -133v-8zM1452 379q0 -154 147 -154q123 0 123 35q0 25 -7 70.5t-7 70.5q0 45 10 109q-47 33 -108 33q-72 0 -115 -46t-43 -118z" />
<glyph unicode="S" d="M-1264 1126q0 203 174 301q139 82 357 82q195 0 321 -45q190 -70 191 -227q0 -66 -46 -111t-112 -45q-73 -1 -113 47q-34 41 -35 102q0 9 1 19q-109 14 -224 15q-186 0 -245 -17q-127 -35 -146 -164l-119 -4q-4 27 -4 47zM-395 1235q0 -29 26 -29q25 0 25 25q0 26 -27 26 q-25 0 -24 -22z" />
<glyph unicode="T" horiz-adv-x="1333" d="M31 440q0 207 65 353q90 198 277 198h2q133 0 182 -76q55 92 158 93q119 0 182 -82q55 -74 55 -197q0 -131 -77.5 -201.5t-210.5 -70.5h88q4 -59 26 -164q29 -63 117 -64q227 0 227 389q0 537 -510 537q-293 0 -348 -164h-176q41 166 211 248q141 68 332 68 q672 0 672 -723q0 -227 -80 -394q-105 -215 -320 -215q-72 0 -139.5 35t-99.5 94q-65 -122 -235 -122h-3q-193 0 -299 137q-96 123 -96 321zM205 496q0 -121 55 -193q61 -80 178 -80q80 0 105 68q13 37 13 112q0 25 -1 54h109q-111 0 -199 61q-100 68 -100 174q0 68 45 139 q-8 25 -31 25q-94 0 -141 -139q-33 -98 -33 -221zM516 733q0 -88 123 -115q-96 39 -109 158q-14 -20 -14 -43zM672 807q0 -55 61 -55q53 0 53 49q0 25 -17 43t-42 18q-55 0 -55 -55z" />
<glyph unicode="U" horiz-adv-x="1302" d="M29 479q0 375 188 490h-123q27 164 201 243q135 63 323 64q655 0 656 -707q0 -223 -78 -383q-102 -211 -313 -211q-164 0 -236 125q-60 -118 -228 -118h-3q-203 0 -303 153q-84 131 -84 344zM197 539q0 -115 41 -205q51 -115 153 -115q55 0 74 4q43 10 43 47q-2 2 -41 27 q-53 35 -53 86q0 92 131 117q-188 53 -189 219q0 63 37 125q-8 20 -47 20q-84 0 -123 -129q-26 -83 -26 -188v-8zM268 991q45 16 97 17q133 0 180 -76q55 90 153 90q238 0 238 -260q0 -227 -211 -268q160 -29 160 -117q0 -49 -29 -72q-10 -10 -68 -35q-4 0 -6 -4 q0 -43 68 -43q150 0 207 119q39 82 39 264q0 522 -496 522q-266 0 -332 -137zM504 750q0 -101 147 -111q-113 29 -131 158q-16 -23 -16 -47zM608 365q31 -4 45 -27q10 16 39 24v-2q-2 12 -39 13q-39 0 -45 -8zM655 827q0 -55 62 -55q53 0 53 49q0 58 -59 58q-55 0 -56 -52z " />
<glyph unicode="V" horiz-adv-x="1302" d="M29 403q0 145 63 224h-61v153l102 -2q-6 20 -6 43q0 115 117 168q84 39 202 39q-204 33 -204 132q0 36 12 63h-35v133q82 6 141 6q436 0 666 -209q238 -219 238 -651q0 -207 -86 -352q-102 -175 -295 -175q-164 0 -236 125q-62 -118 -228 -118h-3q-180 0 -287 122 q-100 117 -100 299zM193 442q0 -84 49 -147q51 -70 133 -70q121 0 157 103q22 59 22 188q0 21 -1 43h180q-16 -68 -16 -127q0 -207 176 -207q199 0 199 312q0 186 -68 344q-82 186 -231 252q-78 -111 -267 -111h-4q229 -43 229 -314q0 -14 -1 -28l-2 -53l-404 4 q-70 0 -110.5 -58.5t-40.5 -130.5zM379 774h209q-8 45 -49 77t-88 32q-43 0 -54 -37zM387 1190q0 -43 133 -43q92 0 133 45q-78 29 -176 29h-71q-18 -12 -19 -31z" />
<glyph unicode="W" horiz-adv-x="1218" d="M10 303q0 154 58 281q70 152 196 198q-4 14 -4 33q0 137 133 209q106 57 256 57q229 -1 331 -111q99 -106 99 -324v-17l-553 4h-5q-137 0 -212 -105q-66 -92 -65 -237q0 -186 109.5 -288.5t297.5 -102.5q184 0 297 88q123 94 133 272l148 6q-8 -264 -174 -403 q-158 -131 -426 -131q-260 0 -436 153q-182 160 -183 418zM555 803h328q-14 49 -58.5 82t-95.5 33q-111 0 -133 -48q-16 -33 -41 -67z" />
<glyph unicode="X" horiz-adv-x="1341" d="M55 395q0 274 172 336q-27 23 -30 92q49 113 117.5 160t189.5 47q164 0 231 -110q41 -68 72 -269l-277 6q-172 0 -243 -49q-86 -61 -86 -225q0 -193 213 -193q27 0 65 9q55 12 96 151q6 18 43 191h113q-8 -119 -8 -160q0 -193 166 -193q129 0 194 123q51 96 52 238 q0 274 -136 430q-141 166 -411 166q-252 0 -369 -180l-131 16q158 274 512 274q203 0 404 -125q219 -139 237 -331q20 -217 21 -287q0 -137 -45 -266q-57 -164 -158.5 -216.5t-138.5 -52.5q-207 0 -263 113q-39 -51 -116.5 -82t-147.5 -31q-170 0 -260 129q-78 113 -78 289z M412 788l215 3q-19 104 -97 104q-63 0 -86 -27q-10 -12 -32 -80z" />
<glyph unicode="Y" horiz-adv-x="1462" d="M25 502q0 236 138 381t374 145v-127q-160 -16 -248 -104q-94 -92 -94 -250q0 -152 91 -239t242 -87q127 0 207 58q92 63 92 186q0 20 -22.5 52t-38.5 32q-61 0 -82 -90h-104q-57 78 -58 203q0 53 15 96q51 156 165 221q98 55 273 55q227 0 348 -153q109 -139 109 -373 q0 -244 -129 -383t-371 -139q-37 0 -74 4v121l82 4v4q0 121 47 198q57 96 168 97q49 0 98 -33q4 25 4 72q0 156 -81 264q-88 119 -240 119q-262 -1 -262 -172v-5q33 29 92 29q104 0 162 -84q47 -72 47 -182q0 -207 -125 -320.5t-334 -113.5q-215 0 -353 148.5t-138 365.5z M1069 129q84 27 135 127q-16 23 -43 23q-47 0 -71 -51q-22 -43 -22 -85q0 -7 1 -14z" />
<glyph unicode="Z" d="M-1425 492q0 156 82 311q98 186 247 186q41 0 99 -26l-62 -70q-119 -20 -180 -164q-47 -111 -47 -252q0 -209 176 -340l-14 -86q-143 47 -222 166t-79 275z" />
<glyph unicode="[" horiz-adv-x="2516" d="M41 444q51 76 164 183q-10 -2 -21 -2q-59 0 -99 53t-40 115q0 123 84 200.5t209 77.5q207 0 256 -141q84 59 268 125q237 84 393 84q127 0 224 -43q68 -31 77 -49q51 6 107 6q387 0 375 -344l-2 -60q-104 6 -209 10q-156 6 -250 -14q-127 -27 -162 -104q-27 -59 -26 -127 q0 -133 124 -205q102 -57 248 -57q184 0 344 92l33 -135q-178 -78 -303 -101q-10 -23 -10 -51q0 -133 155 -133q205 0 191 235l123 7q8 -53 8 -91q0 -315 -336 -315q-129 0 -207 57q-86 66 -86 191q0 49 13 92q-524 8 -525 410q0 221 164 319q-31 39 -31 92q0 57 31 105 q8 20 -53 32q-43 8 -74 9q-162 0 -303 -66q-18 -8 -57 -27.5t-58 -27.5q139 -20 238 -176q88 -141 88 -291q0 -160 -88 -268q-92 -117 -250 -117t-205 96q-72 -98 -223 -98q-94 0 -170 81t-76 177q0 63 35 125l-27 -8zM236 877q0 35 37.5 -35t37.5 -97q0 -14 -4 -26 q84 70 154 119q2 49 -33 75.5t-84 26.5q-29 0 -65 -18q-43 -20 -43 -45zM258 307q0 -82 109 -82q111 0 120 170q2 33 2 101h166q-12 -53 -12 -97q0 -63 27 -114q33 -59 92 -60q98 0 137 51q33 45 33 148q0 117 -90 207t-207 90q-102 0 -356 -211h34l27 -88q-82 -47 -82 -115 zM1552 784l332 -6q-41 133 -219 133q-57 0 -80 -37q-6 -8 -33 -90z" />
<glyph unicode="]" horiz-adv-x="1024" d="M49 1026q0 106 70.5 175t177.5 69q109 0 176.5 -66.5t67.5 -175.5t-67.5 -175.5t-176.5 -66.5q-106 0 -177 67t-71 173zM51 -14l721 1290h203l-715 -1299zM193 1016q0 -39 32.5 -63.5t71.5 -24.5q96 0 96 104q0 43 -34.5 67.5t-79.5 24.5q-41 0 -63.5 -32.5t-22.5 -75.5z M485 238q0 109 70 176t178 67q109 0 176.5 -66.5t67.5 -174.5q0 -109 -67.5 -176.5t-176.5 -67.5q-106 0 -177 67.5t-71 174.5zM627 225q0 -39 34.5 -63.5t75.5 -24.5t66.5 33t25.5 74q0 43 -35.5 68.5t-78.5 25.5q-41 0 -64.5 -35t-23.5 -78z" />
<glyph unicode="^" horiz-adv-x="540" d="M63 573q0 350 46 502q82 276 360 350v-110q-147 -61 -184 -332q-12 -90 -13 -410q0 -334 11 -407q37 -266 186 -332v-113q-276 70 -358 351q-47 160 -48 501z" />
<glyph unicode="_" d="M-934 1163q0 137 105 221q98 76 239 76q152 0 254 -86q106 -92 107 -241q0 -55 -19 -125h-153q23 59 22 106q0 186 -192 186q-57 0 -115 -26q-70 -31 -70 -82q0 -58 37 -66q-14 25 -14 62q0 53 49 84q41 25 98 24q150 0 150 -147q0 -180 -260 -180q-86 0 -162 55t-76 139 zM-602 1171q0 -16 14 -16q16 0 17 16q-1 15 -15 15q-16 0 -16 -15z" />
<glyph unicode="`" horiz-adv-x="559" d="M6 -2v121q88 10 117 33q53 41 70 210q6 61 8 242q2 162 -23 232q-37 109 -172 116v119q27 4 49 4q90 0 164 -35l-2 277q-2 10 -49 33q-35 16 -35 43q0 53 57 53h259q162 0 161 -174q1 -172 -237 -170v-207q70 -117 69 -297q0 -608 -366 -608q-37 0 -70 8zM367 1212 q94 0 94 54q0 59 -76 59h-18v-113z" />
<glyph unicode="a" d="M-481 1401q0 53 55 53h258q160 0 160 -174q0 -180 -246 -180v-185l-147 5v403q0 12 -40 31.5t-40 46.5zM-252 1219q96 0 96 53q0 59 -75 59h-21v-112z" />
<glyph unicode="b" horiz-adv-x="1228" d="M23 520q0 258 163 398q152 131 414 131q252 0 420 -146q174 -152 174 -401q0 -432 -305 -518q63 -43 63 -121q0 -256 -415 -256q-135 0 -248 53q-147 70 -148 195q0 106 70 163q66 51 174 52q23 0 51 -2v-140q-33 6 -47 6q-98 0 -98 -55q0 -80 280 -80q223 0 224 66 q0 77 -213 77q-25 0 -52 -1l-4 131q250 2 365 92q129 100 129 344q0 125 -131 231q-123 100 -252 101q-176 0 -301 -80q-150 -92 -150 -258q0 -270 291 -271q150 0 185 82q-42 -30 -101 -30h-4q-98 0 -162.5 65.5t-64.5 163.5q0 109 67.5 172.5t175.5 63.5q131 0 205 -82 q68 -80 68 -213q0 -166 -102.5 -271.5t-268.5 -105.5q-209 0 -330.5 117.5t-121.5 326.5zM492 520q0 -37 26.5 -62.5t63.5 -25.5q33 0 57.5 23.5t24.5 56.5q0 37 -27 63.5t-64 26.5q-33 0 -57 -24.5t-24 -57.5z" />
<glyph unicode="c" horiz-adv-x="1284" d="M20 440q0 188 111 273q-37 35 -37 96q0 113 82 174q74 53 191 53q174 0 260 -129q37 78 89 109t142 31q72 0 139 -37q27 2 52 61q20 45 26 82l121 -4q1 -17 1 -32q0 -55 -17 -89q-16 -31 -78 -88q45 -51 45 -133q0 -35 -14 -72q123 -63 122 -293q0 -238 -200 -358 q-164 -100 -418 -100q-616 0 -617 456zM180 477q0 -256 457 -256q158 0 287 47q174 63 174 187q0 162 -137 182q-29 4 -74 4h-25q-25 -2 -37 -2h-63h-246q-119 0 -225 -8q-111 -33 -111 -154zM332 766h192q-23 127 -121 127q-61 0 -61 -84q0 -27 -10 -43zM731 770h250 q4 12 4 25q0 57 -41 87.5t-100 30.5q-51 0 -83 -45q-30 -42 -30 -92v-6z" />
<glyph unicode="d" horiz-adv-x="464" d="M4 952l6 121q25 2 47 2q201 0 301 -162q84 -137 84 -348q0 -227 -71 -377q-94 -198 -295 -198q-37 0 -70 8v121q94 12 123 37q49 41 64 211q6 68 8 237v23q0 144 -23 209q-37 109 -174 116z" />
<glyph unicode="e" horiz-adv-x="651" d="M33 319q0 150 80 313t196 259h-260v143h531l-5 -143q-127 -55 -242.5 -225t-115.5 -306q0 -141 125 -141q136 0 136 167q0 14 -1 28h139q6 -47 7 -82q0 -150 -74 -244q-80 -106 -225 -106q-141 0 -222 100q-70 92 -69 237z" />
<glyph unicode="f" horiz-adv-x="1028" d="M20 514q0 236 136.5 381t371.5 145q393 0 467 -338l-112 -2q106 -98 106 -256q0 -213 -130 -335.5t-343 -122.5t-356 159q-139 154 -140 369zM190 545q0 -324 355 -324q282 0 282 198q0 56 -22 113q-29 68 -74 82q18 -43 19 -84q0 -86 -69 -143t-157 -57 q-86 0 -151.5 61.5t-65.5 145.5q0 264 297 264q146 0 248 -74q-53 170 -281 170q-381 0 -381 -352zM453 555q0 -31 23.5 -55.5t53.5 -24.5q33 0 55.5 22.5t22.5 55.5t-22.5 55.5t-55.5 22.5q-31 0 -54 -22.5t-23 -53.5z" />
<glyph unicode="g" horiz-adv-x="1265" d="M33 475q0 416 491 416q51 0 123 -6v-148q-80 8 -133 8q-305 0 -305 -241q0 -145 135 -219q109 -59 268 -60q209 0 330 107.5t121 314.5q0 231 -109 359q-115 135 -342 135q-121 0 -219 -35q-127 -45 -160 -137h-176q43 168 232 250q148 65 342 65h6q297 0 453 -180 q145 -168 145 -469q0 -293 -164 -469q-168 -184 -459 -184q-244 0 -403 120q-176 135 -176 373z" />
<glyph unicode="h" horiz-adv-x="1359" d="M27 514q0 238 102 371q114 149 343 149h3q49 0 129 -6q4 -39 4 -70q0 -27 -6 -63q-78 14 -129 14q-145 0 -223 -100q-68 -88 -68 -240q0 -133 56 -225q66 -113 188 -113q115 0 154 82q26 53 26 178v9h174q0 -160 27 -209q37 -70 166 -70q92 0 153 76q57 70 58 164 q0 98 -29 145q-37 57 -131 58h-377v27q0 169 47 243q66 102 252 102q104 0 182 -43q94 -53 95 -149q0 -35 -29 -66q145 -86 145 -323q0 -193 -102 -330q-113 -150 -301 -150q-182 0 -252 123q-71 -118 -261 -118h-3q-203 0 -307 174q-86 143 -86 360zM801 793h203 q-31 23 -56 63.5t-33 40.5q-61 0 -86.5 -22.5t-27.5 -81.5z" />
<glyph unicode="i" horiz-adv-x="1312" d="M18 371q0 178 82 272l-39 2v150h86q-6 18 -6 41q0 98 84 153q72 49 174 49q197 0 260 -120q53 116 225 116h3q125 0 208 -76q77 -70 77 -179q0 -9 -1 -19q125 -86 125 -318q0 -195 -102 -321q-113 -137 -301 -137q-162 0 -227 98q-61 -98 -258 -98q-170 0 -280 108.5 t-110 278.5zM184 414q0 -195 215 -195q111 0 158 60q41 53 41 167q0 29 -2 66h164l-2 -84q0 -211 162 -211q211 0 210 236q1 188 -159 188h-604q-90 0 -140 -72q-43 -61 -43 -155zM362 791h185q-8 129 -125 129q-31 0 -39 -58q-4 -23 -21 -71zM776 786h242q-4 51 -41 83 t-90 32q-104 0 -111 -115z" />
<glyph unicode="j" horiz-adv-x="1259" d="M14 432q0 106 19 164q25 70 94 133q-14 27 -14 59q0 119 114 185q94 55 222 55q150 0 229 -104q68 -88 68 -217q0 -12 -1 -25l-2 -47h-432q-129 0 -129 -178q0 -117 158 -183q125 -51 270 -51q213 0 334 115t121 326q0 225 -128 360t-351 135q-326 0 -379 -186h-160 q37 166 201 248q133 67 318 67h5q319 0 490.5 -168t171.5 -485q0 -291 -172 -470t-461 -179q-211 0 -385 112q-201 129 -201 334zM379 774h209q-8 45 -49 77t-88 32q-43 0 -54 -37z" />
<glyph unicode="k" horiz-adv-x="1452" d="M16 399q0 119 68 252l125 -35l-10 -30q-4 -4 -4 -8q0 -10 41 -11q72 0 180 95.5t108 164.5q0 41 -33.5 63.5t-76.5 22.5q-29 0 -66 -19.5t-37 -43.5q0 13 5 13q9 0 36 -51q41 -77 41 -103q0 -47 -38 -78t-87 -31q-61 0 -102 49t-41 113q0 125 84 206t209 81 q90 0 132 -22.5t91 -98.5q99 116 311 116h4q467 0 467 -555q0 -501 -421 -501h-23l-61 2v125q334 0 333 334q0 372 -325 372h-2q-115 0 -211 -67q12 2 24 2q145 0 230 -107q78 -96 77 -246q0 -203 -180 -321q-156 -102 -368 -102q-199 0 -334 108q-145 119 -146 311z M162 410q0 -242 315 -242q129 0 223 47q119 59 119 176q0 219 -178 219q-27 0 -63 -6q-10 -4 -33 -26q-164 -154 -301 -154q-47 0 -80 14q-2 -12 -2 -28z" />
<glyph unicode="l" horiz-adv-x="1443" d="M6 440q49 75 162 181q-10 -2 -18 -3q-59 0 -99.5 53.5t-40.5 114.5q0 123 83 202t208 79q209 0 256 -143q184 131 401 131q229 0 351 -174q106 -150 106 -389q0 -211 -86 -345q-99 -159 -299 -159h-2q-33 0 -82 6l2 76q-88 -82 -215 -82q-57 0 -117 24q-66 27 -90 72 q-70 -98 -223 -98q-94 0 -169 82t-75 178q0 61 35 123l-28 -9zM199 870q0 12 4 12q9 0 35 -46q38 -70 38 -95q0 -14 -4 -28q82 70 154 121q0 47 -34 74.5t-83 27.5q-31 0 -67 -18q-43 -20 -43 -48zM221 303q0 -84 109 -84q113 0 123 170q1 16 1 41.5t-1 61.5h165 q-12 -53 -12 -99q0 -63 29 -112q33 -59 92 -60q96 0 135 51q35 45 35 146q0 119 -90 209t-207 90q-104 0 -356 -211l35 -2l26 -88q-84 -45 -84 -113zM745 840q137 -20 236 -176q88 -141 88 -289q0 -146 -74 -252h6q244 0 244 319q0 82 -10 148q-18 123 -141 198 q-109 68 -240 68q-57 0 -109 -16z" />
<glyph unicode="m" horiz-adv-x="1300" d="M10 442q0 219 131 289q-27 37 -26 100q0 94 100 156q86 53 186 53q184 0 256 -120q49 124 229 124h3q285 0 285 -288q57 -31 88 -129q24 -75 24 -154v-6q0 -485 -606 -485q-281 0 -449 90q-221 115 -221 370zM174 473q0 -133 180 -201q133 -49 310 -49q178 0 301 53 q168 72 168 226q0 108 -109 108l-735 4q-115 0 -115 -141zM332 756h215q-6 147 -115 147q-59 0 -74.5 -23.5t-15.5 -86.5q0 -23 -10 -37zM770 762h234v13q0 45 -24 81q-28 41 -79 41q-127 0 -131 -135z" />
<glyph unicode="n" horiz-adv-x="1294" d="M18 451q0 231 119 378q131 160 357 160q158 0 262 -88t104 -244q0 -74 -29 -129q-18 -35 -77 -102q-43 -49 -43 -92q0 -53 55 -86q47 -29 102 -29q100 0 154 150q39 109 39 231q0 238 -115 377q-122 149 -353 149h-3q-287 0 -361 -208h-131q0 184 181 282q139 76 325 76 q317 0 492 -184q168 -180 168 -500q0 -221 -82 -391q-107 -219 -312 -219q-96 0 -159.5 24.5t-126.5 91.5q-63 -68 -97 -86q-45 -26 -127 -26h-6q-164 0 -258 161q-78 135 -78 304zM172 463q0 -41 12 -82q57 113 201 113q107 0 162 -86q8 33 65 112q53 72 54 119 q0 188 -197 188q-143 0 -225 -114q-72 -100 -72 -250zM274 242q0 -37 29 -63.5t66 -26.5t64.5 27.5t27.5 64.5q0 39 -27.5 65.5t-66.5 26.5t-66 -27.5t-27 -66.5z" />
<glyph unicode="o" horiz-adv-x="1181" d="M29 403q0 223 161 320q-29 39 -28 92q0 127 127 189q96 45 239 45q375 0 375 -326v-21l-2 -59q-102 4 -205 10q-29 1 -55 1q-120 0 -197 -15q-129 -27 -158.5 -95.5t-29.5 -135.5q0 -135 125 -205q100 -57 248 -58q182 0 342 95l33 -136q-178 -80 -304 -102 q-10 -23 -10 -49q0 -135 156 -135q191 0 191 204q0 15 -1 31l125 6q6 -53 6 -90q0 -315 -336 -315q-129 0 -206 57q-86 66 -86 191q0 51 12 94q-522 8 -522 407zM418 778l332 -4q-42 131 -218 131q-70 0 -86 -39q-14 -45 -28 -88z" />
<glyph unicode="p" horiz-adv-x="1247" d="M35 449q0 117 45 186h-41v153l104 -2q-6 23 -6 45q0 111 113 166q86 43 209 43q158 0 235 -106q66 -92 66 -229v-23l-2 -45h-439q-112 0 -112 -169q0 -128 145 -189q106 -45 252 -46q209 0 329 105.5t120 310.5q0 238 -128 371t-364 133q-289 0 -340 -174h-168 q72 315 537 315q633 0 633 -673q0 -289 -166 -459t-453 -170q-221 0 -385 114q-184 129 -184 343zM389 784h207q-8 43 -49 76t-86 33t-53 -37q-16 -66 -19 -72z" />
<glyph unicode="q" d="M-1241 -238q0 55 33 138h114q-27 -84 -26 -103q0 -29 28 -28q70 0 205 28.5t205 28.5q61 0 181 -27.5t182 -27.5q31 0 45 6v430l139 149v-718h-975q-49 0 -90 37.5t-41 86.5z" />
<glyph unicode="r" horiz-adv-x="1247" d="M31 524q0 174 97 320.5t259 191.5q33 8 57 19q59 23 125 71q94 72 95 129q0 16 -9 31l168 2l80 -2q-23 -130 -205 -239q238 -6 373 -134q143 -133 143 -366q0 -279 -172 -426q-160 -139 -442 -139q-233 0 -401 155.5t-168 386.5zM188 565q0 -164 140 -258 q123 -84 295 -84q188 0 303 74q137 86 137 266q0 174 -135 273q-121 88 -301 88q-178 0 -301 -88q-137 -98 -138 -271z" />
<glyph unicode="s" d="M-1235 1092q0 199 164 299q135 82 346 82q227 0 377 -72q198 -94 198 -293q0 -37 -8 -72h-118q-4 29 -9.5 63t-25.5 58q-55 68 -396 68h-36q-190 0 -238 -13q-117 -31 -123 -161l-127 -9q-4 27 -4 50z" />
<glyph unicode="t" horiz-adv-x="1239" d="M29 440q0 106 51 191h-43v139l115 -2q-2 12 -2 27q0 92 81 141q68 41 166 41q-114 39 -114 109q0 34 12 61h-35v133q86 6 148 6q344 0 557 -147q243 -169 243 -497q0 -302 -151 -474q-160 -180 -455 -180q-244 0 -395 100q-178 121 -178 352zM197 440q0 -111 137 -172 q104 -45 233 -45q199 0 338 101q154 113 154 305q0 125 -58 245q-66 137 -167 183q-70 -97 -240 -107q200 -68 200 -260q0 -13 -1 -26l-2 -33l-455 4h-3q-136 0 -136 -195zM379 766h239q-28 78 -147 78q-80 0 -86 -33q0 -16 -6 -45zM428 1114q0 -43 131 -43q92 0 135 47 q-82 27 -176 27h-72q-18 -10 -18 -31z" />
<glyph unicode="u" horiz-adv-x="1275" d="M96 829q84 139 242 140q131 0 178 -74q55 94 154 94q119 0 188.5 -73.5t69.5 -194.5q0 -154 -84 -245t-236 -91q-113 0 -197.5 82t-84.5 195q0 78 47 151q-6 23 -51 23q-70 0 -107 -105q-27 -76 -27 -160q0 -164 144 -262q127 -86 299 -86q211 0 328.5 115t117.5 326 q0 225 -128 358t-353 133q-326 0 -375 -186h-164q41 166 203 248q133 67 319 67h5q319 0 490 -167t171 -486q0 -291 -172 -470t-461 -179q-264 0 -422 149q-163 151 -163 411q0 171 69 287zM463 694q0 -61 55 -98q49 -33 115 -33q82 0 110 43q-32 -18 -61 -18 q-82 0 -137.5 46t-57.5 126q-25 -31 -24 -66zM614 786q0 -67 70 -67h2q68 0 68 67q0 70 -72 70q-68 0 -68 -70z" />
<glyph unicode="v" horiz-adv-x="1302" d="M29 403q0 145 63 224h-61v153l102 -2q-6 20 -6 43q0 92 80 148h-119q37 160 207 241q137 66 323 66q643 0 644 -707q0 -227 -72 -381q-98 -213 -307 -213q-162 0 -236 125q-62 -118 -228 -118h-3q-180 0 -287 122q-100 117 -100 299zM193 442q0 -84 49 -147 q51 -70 133 -70q121 0 157 103q22 59 22 188q0 21 -1 43h180q-16 -68 -16 -127q0 -207 176 -207q199 0 199 385q0 236 -101 375q-115 158 -342 158q-156 0 -237 -23q-131 -35 -176 -135q86 45 213 45q154 0 233 -104q68 -89 68 -224v-22l-2 -53l-404 4q-70 0 -110.5 -58.5 t-40.5 -130.5zM379 774h209q-8 45 -49 77t-88 32q-43 0 -54 -37z" />
<glyph unicode="w" horiz-adv-x="1294" d="M8 401q0 98 45 193.5t123 148.5q-43 39 -43 86q0 229 365 230q270 0 372 -168q47 141 217 141q53 0 111 -14v-84q-43 -25 -43 -57q0 -4 4 -15q102 -113 103 -225q0 -82 -56.5 -139.5t-138.5 -57.5q-37 0 -66 15v-262q47 20 111 67v-156q-47 -41 -113 -71q1 -81 1 -141 q0 -121 -3 -160h-174l2 262q-121 -35 -260 -35q-233 0 -383 100q-174 119 -174 342zM250 412q0 -147 108 -228q93 -69 244 -69h4q111 0 211 37v495h-383q-86 0 -139 -78q-45 -68 -45 -157zM385 788h365q-6 63 -78 97q-57 26 -131 26q-94 0 -113.5 -43t-42.5 -80zM997 700 q0 -37 2 -84q24 -24 50 -24h2q20 0 37.5 18.5t17.5 38.5q0 18 -14 43q-76 104 -76 160q-18 -25 -19 -115v-37z" />
<glyph unicode="x" horiz-adv-x="706" d="M37 500q0 129 91 221t220 92q131 0 223.5 -91t92.5 -220t-91.5 -221.5t-220.5 -92.5q-131 0 -223 91.5t-92 220.5zM227 537q0 -55 39 -93t94 -38t93.5 38.5t38.5 94.5q0 55 -39.5 94t-94.5 39t-93 -40t-38 -95z" />
<glyph unicode="y" horiz-adv-x="1462" d="M145 715q-47 29 -47 78q0 247 269 247h2q109 0 167 -37.5t89 -136.5q92 172 331 172q227 0 353.5 -134t126.5 -363q0 -555 -479 -555h-21l-80 2v90q-135 -94 -340 -94q-201 0 -342 114q-151 124 -151 319q0 196 122 298zM184 455q0 -117 101 -179q84 -53 207 -53 q162 0 243 31q127 47 127 172q0 45 -33.5 84t-78.5 39q-59 0 -78 -96h-115q-27 90 -35 153h-188q-150 0 -150 -151zM317 748h193q-2 149 -99 149h-1q-37 0 -52 -23q-8 -33 -22 -92q-6 -23 -19 -34zM692 668q40 26 88 26h4q111 0 177 -86q61 -78 61 -190q0 -190 -123 -305 q178 2 276.5 97t98.5 271q0 131 -86 242q-92 117 -221 117q-250 0 -275 -172z" />
<glyph unicode="{" horiz-adv-x="2299" d="M25 465q0 225 104 383q121 182 336 182q283 0 283 -217v-2q92 225 389 225q207 0 309 -47q94 41 233 41q387 0 375 -346l-2 -59q-104 6 -209 10q-156 6 -250 -12q-129 -29 -161 -107q-25 -57 -25 -127q0 -137 123 -207q100 -55 248 -55q184 0 344 94l32 -135 q-178 -80 -303 -102q-10 -23 -10 -50q0 -135 156 -135q207 0 188 236l127 6q6 -53 6 -92q0 -313 -336 -314q-129 0 -206 58q-86 66 -86 190q0 49 12 92q-522 8 -522 410q0 223 161 320q-25 35 -24 81q-86 41 -178 41q-106 0 -181 -39q-94 -51 -90 -149l2 2q31 31 95 31 q213 0 213 -283q0 -188 -144 -303q-133 -104 -327 -104q-201 0 -334 131l2 -97l-33 -2q-160 -10 -250 156q-68 125 -67 295zM176 412q0 -220 166 -267q-100 119 -100 283q0 111 47 186q-76 -43 -94.5 -77.5t-18.5 -124.5zM344 678q37 33 203 98q45 18 45 39q0 37 -38 59.5 t-79 22.5q-84 0 -106 -35q-14 -23 -15 -106q0 -47 -10 -78zM432 463q0 -143 90 -201q70 -43 223 -43q276 0 277 189q0 113 -61 112q-61 0 -62 -45q0 -12 6 -26h-129q-61 80 -61 188q0 41 6 80q-31 -45 -174 -117q-115 -57 -115 -137zM1569 760l332 -4q-44 131 -218 131 q-63 0 -84 -35q0 -2 -30 -92z" />
<glyph unicode="|" horiz-adv-x="1396" d="M23 446q0 293 152.5 449t445.5 156q502 0 487 -373l-2 -53q-508 4 -549 -13q-106 -41 -106 -215q0 -137 122 -207q100 -55 248 -55q184 0 344 94l31 -135q-156 -78 -301 -102q-10 -23 -10 -53q0 -133 153 -134q209 0 191 238l127 4q6 -53 6 -90q0 -313 -336 -313 q-127 0 -205 57q-88 66 -88 188q0 49 12 95q-225 2 -358 88v-95l-41 -2q-162 -8 -252 164q-72 135 -71 307zM182 440q0 -259 152 -329q-113 104 -113 282q0 115 51 207q55 100 156 141q-8 4 -45 25q-20 14 -49 14q-78 0 -121 -139q-31 -98 -31 -201zM606 766h338 q-42 131 -235 131q-55 0 -70 -45q-23 -74 -33 -86z" />
<glyph unicode="}" horiz-adv-x="1107" d="M70 229v170h981v-170h-981zM70 627v170h981v-170h-981z" />
<glyph unicode="~" horiz-adv-x="1546" d="M12 459q0 170 51 299q68 162 203 209q35 12 74 16q41 162 207 242q135 66 323 65q643 0 643 -706q0 -227 -71 -381q-98 -213 -307 -213q-162 0 -234 125q-63 -121 -233 -121q-178 0 -285 125q-102 119 -102 299q0 145 61 221h-59v154q-111 -86 -111 -338q0 -125 41 -215 q53 -113 162 -131v-115l-43 -2q-162 -8 -250 162q-70 133 -70 305zM283 793l104 -2q0 6 2 18v4q-16 6 -29 6q-45 0 -77 -26zM444 453q0 -82 50 -146q53 -70 133 -69q119 0 155 102q27 72 23 231h180q-16 -68 -16 -127q0 -207 176 -206q199 0 198 383q0 236 -100 374 q-117 162 -342 162q-160 0 -239 -22q-132 -38 -177 -140q129 49 215 49q158 0 236 -106q72 -100 65 -252l-2 -47l-403 6q-70 2 -113 -63q-39 -57 -39 -129zM631 786h207q-8 43 -49.5 76t-86.5 33t-53 -37q-16 -66 -18 -72z" />
<glyph unicode="&#xa0;" horiz-adv-x="1769" d="M35 436q0 293 151.5 447.5t444.5 154.5q498 0 485 -366l-2 -58q-123 4 -242 4h-26q-33 2 -68 3q-137 2 -194 -17q-125 -39 -125 -217q0 -135 125 -205q100 -57 247 -57q182 0 343 94l32 -135q-178 -80 -303 -102q-10 -23 -10 -50q0 -135 156 -135q205 0 190 236l125 6 q6 -53 6 -90q0 -16 -2 -31q18 68 90 119h-82v82l29 12h-29v96h316l-4 -80l-48 -22h46v-96q-188 -49 -189 -158q0 -74 74 -74q41 0 53 23q14 16 18 74h93q6 -33 6 -56q0 -84 -49.5 -138t-132.5 -54q-84 0 -140.5 60.5t-56.5 143.5v7q-47 -224 -328 -224q-129 0 -207 58 q-86 66 -86 190q0 51 13 94q-227 2 -359 86v-92l-43 -2q-164 -8 -250 162q-68 133 -67 307zM193 430q-1 -262 151 -330q-113 102 -113 283q0 113 52 207q55 104 153 143q-10 2 -45 25q-23 14 -49 14q-76 0 -119 -141q-31 -100 -30 -201zM614 758h338q-38 129 -235 129 q-55 0 -68 -45q-18 -66 -35 -84z" />
<glyph unicode="&#xa2;" horiz-adv-x="1396" d="M35 436q0 293 151.5 447.5t444.5 154.5q498 0 485 -366l-2 -58q-123 4 -242 4h-26q-33 2 -68 3q-137 2 -194 -17q-125 -39 -125 -217q0 -135 125 -205q100 -57 247 -57q182 0 343 94l32 -135q-178 -80 -303 -102q-10 -23 -10 -50q0 -135 156 -135q205 0 190 236l125 6 q6 -53 6 -90q0 -316 -336 -316q-129 0 -207 58q-86 66 -86 190q0 51 13 94q-227 2 -359 86v-92l-43 -2q-164 -8 -250 162q-68 133 -67 307zM193 430q-1 -262 151 -330q-113 102 -113 283q0 113 52 207q55 104 153 143q-10 2 -45 25q-23 14 -49 14q-76 0 -119 -141 q-31 -100 -30 -201zM209 1024q0 160 133 242q111 66 281 65q182 0 301 -57q160 -76 159 -238q0 -30 -8 -59h-106q-10 88 -78 121q-47 23 -146 24h-53h-51q-152 0 -195 -10q-104 -25 -112 -125l-121 -6q-4 25 -4 43zM614 758h338q-38 129 -235 129q-55 0 -68 -45 q-18 -66 -35 -84z" />
<glyph unicode="&#xa3;" horiz-adv-x="1331" d="M16 436q0 403 279 541h-47q-4 23 -4 37q0 164 139 243q113 66 289 66q145 0 256 -41q158 -57 157 -180q0 -53 -39.5 -90t-93.5 -37q-8 0 -16 2q170 -88 162 -305l-2 -58q-123 4 -242 4h-27q-33 2 -67 3q-137 2 -195 -17q-125 -39 -125 -217q0 -135 125 -205 q100 -57 248 -57q182 0 342 94l33 -135q-178 -80 -303 -102q-10 -23 -11 -50q0 -135 156 -135q205 0 191 236l125 6q6 -53 6 -90q0 -316 -336 -316q-129 0 -207 58q-86 66 -86 190q0 51 12 94q-227 2 -358 86v-92l-43 -2q-164 -8 -250 162q-68 133 -68 307zM174 430 q0 -262 152 -330q-113 102 -113 283q0 113 51 207q55 104 154 143q-10 2 -45 25q-23 14 -49 14q-76 0 -119 -141q-31 -100 -31 -201zM354 999q111 39 258 39q154 0 260 -34q-39 35 -38 106q-88 10 -179 10q-141 0 -194 -14q-87 -23 -107 -107zM596 758h338q-43 129 -236 129 q-57 0 -69 -45q-18 -68 -33 -84zM946 1098q0 -16 17 -17q16 0 16 19l-2 4l-2 8q-6 2 -10 4l-15 -6q-4 -6 -4 -12z" />
<glyph unicode="&#xa4;" horiz-adv-x="1228" d="M125 432v170h405v447h172v-447h404v-170h-404v-448h-172v448h-405z" />
<glyph unicode="&#xa5;" horiz-adv-x="1038" d="M16 -174q0 47 25 127h152q-23 -82 -23 -98q0 -45 33 -45q57 0 164.5 36.5t164.5 36.5q63 0 275 -67q32 -11 61 -11v246q-152 -57 -278 -57q-561 0 -561 409q0 223 161 320q-29 39 -28 92q0 127 127 189q96 45 239 45q387 0 375 -347l-2 -59q-104 4 -207 10 q-158 6 -252 -14q-129 -27 -161 -104q-25 -57 -25 -127q0 -133 129 -199q100 -51 246 -51q201 0 379 100l-4 -600q-49 -8 -86 -8q-66 0 -190 39t-187 39t-185 -39t-186 -39q-156 0 -156 176zM418 778l332 -4q-42 131 -218 131q-70 0 -86 -39q-14 -45 -28 -88z" />
<glyph unicode="&#xa7;" horiz-adv-x="763" d="M55 1124q0 176 205 293l45 -74q-106 -68 -125 -147q39 14 60 14q49 0 79.5 -37.5t30.5 -89.5q0 -59 -42 -98t-101 -39q-152 0 -152 178zM432 1124q0 174 201 293l47 -74q-106 -70 -125 -147q41 14 61 14q47 0 78 -38.5t31 -88.5q0 -59 -42 -98t-101 -39q-74 0 -112 51.5 t-38 126.5z" />
<glyph unicode="&#xa8;" horiz-adv-x="1292" d="M10 438q0 283 180 445q172 156 457 155q274 0 436 -125q180 -139 181 -405q0 -197 -121 -322t-316 -125q-172 0 -286 86q-125 96 -125 265q0 123 67 198h-92v133h522v-135l-98 2q-121 2 -170 -22q-68 -35 -67 -142q0 -92 79 -139q66 -39 164 -39q129 0 209 60 q90 68 90 192q0 197 -133 295q-119 88 -321 88q-197 0 -319 -117.5t-122 -314.5q0 -213 170 -328q147 -100 371 -100q270 0 442 141l4 -540l-1032 -6q-51 0 -91 36.5t-40 87.5q0 55 33 138h115q-27 -84 -27 -103q0 -29 29 -28q70 0 205 28.5t204 28.5q68 0 202 -27.5 t202 -27.5q27 0 45 6v141q-135 -63 -326 -63q-303 0 -498 135q-223 158 -223 448z" />
<glyph unicode="&#xa9;" horiz-adv-x="1359" d="M27 514q0 238 102 371q115 150 346 149q49 0 129 -6q4 -39 4 -70q0 -27 -6 -63q-78 14 -129 14q-145 0 -223 -100q-68 -88 -68 -240q0 -133 56 -225q66 -113 188 -113q115 0 154 82q27 55 26 187h174q0 -160 27 -209q37 -70 166 -70q92 0 153 76q57 70 58 164 q0 98 -29 145q-37 57 -131 58h-377q-4 190 47 270q66 102 252 102q104 0 182 -43q94 -53 95 -149q0 -35 -29 -66q145 -86 145 -323q0 -193 -102 -330q-113 -150 -301 -150q-182 0 -252 123q-72 -119 -264 -118q-203 0 -307 174q-86 143 -86 360zM297 1229q0 139 104 219 q96 76 238 76q152 0 252 -86q109 -90 108 -240q0 -55 -18 -125h-135q18 51 18 92q0 94 -55 147.5t-152 53.5q-74 0 -131 -27q-76 -33 -75 -98q-1 -61 67 -67q-20 35 -20 79q0 106 145 107q152 0 152 -158q0 -86 -84 -131q-66 -35 -160 -35q-96 0 -170 47q-84 53 -84 146z M627 1237q0 -16 16 -16q14 0 14 16q0 14 -14 14q-16 0 -16 -14zM801 793h203q-31 23 -56 63.5t-33 40.5q-61 0 -86.5 -22.5t-27.5 -81.5z" />
<glyph unicode="&#xaa;" horiz-adv-x="1218" d="M35 446q0 293 151.5 449t442.5 156q500 0 487 -369l-2 -57l-186 2q-53 2 -158 6q-82 2 -154 -12q-160 -35 -159 -201q0 -262 331 -262q213 0 379 100l-6 -600q-49 -8 -86 -8q-66 0 -188.5 39t-188.5 39q-63 0 -184 -39t-184 -39q-156 0 -156 178q0 49 27 125h147 q-23 -88 -22 -100q0 -43 32 -43q57 0 165 36.5t165 36.5q63 0 275 -67q32 -11 61 -11v246q-154 -53 -291 -53q-219 0 -338 72v-93l-41 -2q-162 -8 -250 164q-70 135 -69 307zM193 438q0 -245 137 -321q-98 96 -99 276q0 115 52 207q55 100 155 141q-2 2 -45 25 q-27 14 -51 14q-76 0 -119 -139q-31 -100 -30 -203zM614 766h338q-38 131 -233 131q-55 0 -70 -45q-20 -70 -35 -86z" />
<glyph unicode="&#xab;" horiz-adv-x="2271" d="M25 465q0 225 104 383q121 182 336 182q283 0 283 -217v-2q92 225 389 225q207 0 309 -47q94 41 233 41q180 0 286 -90t99 -268l-2 -56q-131 4 -256 5h-26q-31 2 -66 2q-131 2 -188 -17q-117 -37 -117 -213q0 -135 125 -205q100 -57 246 -57q184 0 344 94l33 -135l-19 -8 q121 -66 121 -229q0 -229 -231 -230q-51 0 -103 12v136q43 -20 68 -21q96 0 96 117q0 135 -111 135q-49 0 -144 -17.5t-144 -17.5q-219 0 -355 99q-154 113 -153 323q0 219 159 316q-25 35 -24 81q-86 41 -178 41q-106 0 -181 -39q-94 -51 -90 -149l2 2q31 31 95 31 q213 0 213 -283q0 -188 -144 -303q-133 -104 -327 -104q-201 0 -334 131l2 -97l-33 -2q-160 -10 -250 156q-68 125 -67 295zM176 412q0 -220 166 -267q-100 119 -100 283q0 111 47 186q-76 -43 -94.5 -77.5t-18.5 -124.5zM344 678q37 33 203 98q45 18 45 39q0 37 -38 59.5 t-79 22.5q-84 0 -106 -35q-14 -23 -15 -106q0 -47 -10 -78zM432 463q0 -143 90 -201q70 -43 223 -43q276 0 277 189q0 113 -61 112q-61 0 -62 -45q0 -12 6 -26h-129q-61 80 -61 188q0 41 6 80q-31 -45 -174 -117q-115 -57 -115 -137zM1569 760l332 -4q-44 131 -218 131 q-63 0 -84 -35q0 -2 -30 -92z" />
<glyph unicode="&#xad;" horiz-adv-x="716" d="M66 393l86 201h514l-93 -201h-507z" />
<glyph unicode="&#xae;" d="M-1153 1380q0 53 57 54h258q160 0 160 -174q0 -181 -246 -181v-184l-147 4v404q0 12 -41 31.5t-41 45.5zM-922 1198q96 0 97 53q0 60 -76 60h-21v-113z" />
<glyph unicode="&#xaf;" horiz-adv-x="1247" d="M31 524q0 174 97 320.5t259 191.5q33 8 57 19q59 23 125 71q94 72 95 129q0 16 -9 31l168 2l80 -2q-23 -130 -205 -239q238 -6 373 -134q143 -133 143 -366q0 -279 -172 -426q-160 -139 -442 -139q-233 0 -401 155.5t-168 386.5zM178 1184q0 201 174 301q141 80 357 80 q184 0 315 -45q199 -68 199 -228q0 -66 -46 -109.5t-112 -43.5q-154 0 -150 168q-133 12 -237 12q-178 0 -238 -16q-119 -33 -137 -162l-121 -4q-4 27 -4 47zM188 565q0 -164 140 -258q123 -84 295 -84q188 0 303 74q137 86 137 266q0 174 -135 273q-121 88 -301 88 q-178 0 -301 -88q-137 -98 -138 -271zM1047 1288q0 -25 22 -24q29 0 29 24q0 27 -25 27q-27 0 -26 -27z" />
<glyph unicode="&#xb0;" horiz-adv-x="1181" d="M47 395q0 221 164 318q-31 39 -31 94q0 84 58 141h-82q-4 23 -4 39q0 164 139 244q113 66 289 65q145 0 256 -41q158 -59 157 -182q0 -53 -39 -89t-92 -36q-16 0 -31 2q96 -88 91 -258l-2 -59q-102 4 -207 10q-158 4 -252 -14q-129 -27 -162 -103q-25 -57 -25 -127 q0 -137 123 -206q100 -55 248 -56q184 0 344 94l33 -135q-164 -80 -303 -102q-10 -23 -10 -51q0 -135 155 -136q205 0 191 238l125 4q6 -53 6 -90q0 -313 -336 -313q-127 0 -205 57q-88 66 -88 188q0 51 12 95q-522 8 -522 409zM258 965q98 74 285 73q131 0 219 -43 q-23 35 -21 86q-92 10 -190 11q-139 0 -189 -15q-86 -24 -104 -112zM436 768l332 -4q-39 133 -217 133q-59 0 -82 -39q-6 -8 -33 -90zM852 1073l6 -16l8 -4l17 6q4 6 4 12q-1 16 -17 16q-2 0 -6 -2l-8 -2q-2 -6 -4 -10z" />
<glyph unicode="&#xb1;" horiz-adv-x="1536" d="M18 377q0 221 164 317q-29 37 -28 94q0 127 125 187q96 45 237 45q379 0 379 -340q0 -25 -4 -66q-104 6 -207 11q-158 6 -252 -15q-127 -27 -160 -104q-25 -59 -24 -127q0 -133 119 -203q98 -57 249 -57q184 0 347 94l30 -135q-156 -78 -301 -103q-10 -23 -10 -53 q0 -133 154 -133q209 0 190 236l123 6q8 -55 8 -94q0 -312 -334 -312q-127 0 -205 58q-88 66 -88 188q0 51 13 96q-524 8 -525 410zM408 750l333 -5q-41 132 -219 132q-59 0 -82 -37q-4 -6 -32 -90zM1161 88v117h330l-4 -121q-184 -76 -184 -225q0 -80 69 -80q63 0 64 80 q0 16 -2 37h106q4 -33 4 -56q0 -90 -47 -149q-49 -66 -137 -66q-86 0 -142.5 58.5t-56.5 144.5q0 162 121 260h-121z" />
<glyph unicode="&#xb4;" horiz-adv-x="1302" d="M14 451q0 518 351 518q133 0 180 -74q55 90 153 90q115 0 179 -80q55 -74 55 -192q0 -127 -78 -197t-207 -70q-109 0 -194 58q-98 68 -99 170q0 68 47 139q-10 23 -30 23q-104 0 -160 -121q-43 -94 -43 -213q0 -102 55 -185q63 -94 162 -94q96 0 133 33t37 127 q0 25 -2 57h172q-2 -100 20 -145q33 -66 125 -66q240 0 240 394q0 150 -59 286q-76 172 -197 172l-727 -4v144h39q-35 29 -35 79q0 131 193 197q141 47 303 47q205 0 360 -59q221 -84 221 -266q0 -90 -67 -152q145 -174 145 -453q0 -246 -76 -411q-104 -227 -327 -228 q-164 0 -236 125q-61 -119 -231 -118q-199 0 -305 139q-96 125 -97 330zM317 1290q0 -29 11 -39q39 -35 422 -28l129 2q61 0 153 -47q16 27 17 47q-1 133 -480 133q-252 0 -252 -68zM504 715q0 -82 117 -111q-92 39 -103 152q-14 -20 -14 -41zM655 791q0 -23 18.5 -40.5 t41.5 -17.5q53 0 53 49q0 60 -59 60q-53 0 -54 -51z" />
<glyph unicode="&#xb6;" horiz-adv-x="735" d="M37 1303q0 57 43 97t100 40q72 0 112 -52.5t40 -125.5q0 -185 -203 -289l-51 67q115 74 129 152q-33 -12 -62 -12q-47 0 -77.5 36.5t-30.5 86.5zM414 1303q0 59 41 98t100 39q154 0 154 -178q0 -180 -205 -289l-49 67q111 74 127 152q-33 -12 -62 -12q-49 0 -77.5 35.5 t-28.5 87.5z" />
<glyph unicode="&#xb7;" horiz-adv-x="446" d="M158 782q0 94 102 95q43 0 70.5 -31t27.5 -74q0 -37 -23.5 -65.5t-60.5 -28.5q-117 0 -116 104zM168 297q0 106 84 106q61 0 102 -102v-20q0 -103 -125 -179l-34 45q51 25 53 68q-80 14 -80 82z" />
<glyph unicode="&#xb8;" horiz-adv-x="1499" d="M63 618q0 274 190.5 466t465.5 192q274 0 465.5 -191.5t191.5 -466.5q0 -274 -191.5 -465.5t-465.5 -191.5q-276 0 -466 190.5t-190 466.5zM164 618q0 -233 160.5 -394t394.5 -161q231 0 394 162t163 393q0 229 -164 393.5t-393 164.5q-231 0 -393 -163t-162 -395z M344 236v73q82 0 94 2q31 8 31 45v541q0 41 -74 47q-8 0 -51 2v74h379q117 0 207 -41q121 -55 121 -168q0 -145 -217 -193q37 -20 112 -167q74 -139 76 -140q29 0 41 54q6 41 12 79h72q0 -223 -174 -223q-102 0 -133 70q-8 20 -23 151q-10 94 -55 129q-25 18 -137 21v-236 q0 -47 69 -49q4 0 58 2v-73h-408zM625 668q123 0 163 14q80 29 80 131q1 133 -159 133q-84 0 -84 -49v-229z" />
<glyph unicode="&#xba;" horiz-adv-x="1542" d="M23 465q0 293 150.5 448.5t442.5 155.5q502 0 488 -373l-2 -53q-506 4 -549 -12q-106 -41 -107 -215q0 -131 136 -203q111 -59 254 -59q172 0 323 88l29 -121h4q72 0 104 -53q27 61 107 61q47 0 84 -30.5t37 -78.5q0 -70 -54 -83q49 -41 50 -119q0 -80 -56.5 -125 t-136.5 -45q-39 0 -83 20.5t-52 20.5q-25 0 -47 -39h-84l-6 78q0 154 88 211h-78q-6 33 -6 49q0 39 16 67q-154 -61 -293 -61q-258 0 -399 92v-90l-41 -2q-162 -8 -250 164q-70 135 -69 307zM180 455q1 -252 144 -324q-104 104 -105 281q0 111 51 204q57 104 154 144 q-8 4 -45 24q-20 14 -49 15q-78 0 -119 -142q-31 -104 -31 -202zM602 784h338q-42 131 -235 131q-55 0 -70 -45q-23 -74 -33 -86zM1147 -57q61 37 61 63q0 20 -22 21q-45 0 -39 -84zM1151 -219q20 14 43 14q25 0 65.5 -19.5t65.5 -19.5q63 0 64 66q0 39 -39 61 q-47 29 -58 56q-14 -31 -80 -68q-55 -33 -61 -90zM1376 4q0 -12 10 -20v10q0 27 21 45q-31 0 -31 -35z" />
<glyph unicode="&#xc1;" horiz-adv-x="1462" d="M25 502q0 236 138 381t374 145v-127q-160 -16 -248 -104q-94 -92 -94 -250q0 -152 91 -239t242 -87q127 0 207 58q92 63 92 186q0 20 -22.5 52t-38.5 32q-61 0 -82 -90h-104q-57 78 -58 203q0 53 15 96q51 156 165 221q98 55 273 55q227 0 348 -153q109 -139 109 -373 q0 -244 -129 -383t-371 -139q-37 0 -74 4v121l82 4v4q0 121 47 198q57 96 168 97q49 0 98 -33q4 25 4 72q0 156 -81 264q-88 119 -240 119q-266 -1 -262 -177q33 29 92 29q104 0 162 -84q47 -72 47 -182q0 -207 -125 -320.5t-334 -113.5q-215 0 -353 148.5t-138 365.5z M205 -47q0 37 8 72h119l8 -66q10 -39 27 -59q53 -68 421 -68q176 0 242 21q117 37 137 172l121 -13q2 -25 2 -47q0 -199 -164 -299q-135 -82 -346 -82q-227 0 -377 72q-199 94 -198 297zM217 1071q0 203 174 301q139 82 357 82q184 0 313 -45q199 -70 199 -229 q0 -66 -46 -110t-112 -44q-74 0 -114 47t-34 121q-162 23 -233 23q-172 0 -242 -21q-121 -37 -139 -168l-119 -4q-4 27 -4 47zM1069 129q84 27 135 127q-16 23 -43 23q-47 0 -71.5 -50.5t-20.5 -99.5zM1083 1178q0 -27 25 -27q27 0 27 25q0 26 -25 26q-27 0 -27 -24z" />
<glyph unicode="&#xc2;" horiz-adv-x="1312" d="M39 440q0 188 111 273q-35 35 -35 94q0 115 80 176q72 53 190 53q174 0 260 -129q35 76 83 104.5t134 28.5q76 0 150 -36q25 12 51 67q23 45 31 82l120 -4l3 -27q6 -92 -99 -196q53 -61 53 -150q0 -39 -20 -84q123 -66 123 -280q0 -225 -213 -338q-170 -90 -406 -90 q-616 0 -616 456zM190 471q0 -250 465 -250q162 0 285 45q170 63 170 189q0 96 -68 127q-45 -29 -104 -29q-96 0 -170 88q-381 0 -461 -10q-53 -6 -85 -54.5t-32 -105.5zM201 1081q0 164 139 246q113 66 289 66q145 0 258 -41q158 -57 157 -183q0 -53 -39 -89t-92 -36 q-127 0 -120 136q-78 8 -193 8q-139 0 -188 -14q-90 -27 -105 -130h-102q-4 23 -4 37zM350 766h195q-23 127 -121 127q-63 0 -64 -84q0 -27 -10 -43zM750 772q0 72 51 129q-51 -37 -51 -119v-10zM887 770q0 -29 21.5 -49.5t49.5 -20.5q29 0 49.5 21.5t20.5 50.5t-21.5 49.5 t-50.5 20.5t-49 -21.5t-20 -50.5zM903 1167q0 -2 2 -6l2 -6q6 -4 13 -4q2 0 6 2l6 2q4 6 4 12q0 3 -2 7l-2 8q-6 2 -12 2q-16 0 -17 -17z" />
<glyph unicode="&#xc4;" horiz-adv-x="1294" d="M16 510q0 211 117 346q123 143 332 143q160 0 262 -101t102 -261q0 -78 -32 -133q-4 -8 -84 -107q-47 -59 -47 -131q0 -12 2 -22q27 23 67 22q29 0 80 -22.5t76 -22.5q119 0 176 146q43 109 43 258q0 170 -53 295q-72 170 -219 167l-717 -6v140h39q-29 25 -29 79 q0 137 188 201q129 43 304 43q203 0 358 -59q221 -84 221 -264q0 -92 -65 -154q66 -80 104 -213q35 -121 35 -236q0 -207 -68 -385q-94 -246 -278 -245q-106 0 -170 71q-23 27 -43 27q-18 0 -33.5 -18.5t-15.5 -38.5q0 -12 16 -45l-147 -4q-16 16 -17 36q0 16 2 39l-12 -12 q-57 -57 -160 -57q-176 0 -266 192q-68 143 -68 332zM166 473q0 -49 10 -102q53 106 195 106q100 0 149 -94q8 51 94 203q16 29 17 43q0 72 -58.5 124t-132.5 52q-274 0 -274 -332zM262 227q0 -35 24.5 -61.5t59.5 -26.5t61.5 27t26.5 61q0 35 -25.5 61.5t-60.5 26.5 q-37 0 -61.5 -25.5t-24.5 -62.5zM313 1290q0 -31 11 -39q41 -35 419 -28l129 2q61 0 156 -47q14 25 14 47q0 133 -479 133q-250 0 -250 -68z" />
<glyph unicode="&#xc5;" horiz-adv-x="1320" d="M18 514q0 211 124 348t333 137q158 0 261.5 -100t103.5 -258q0 -78 -35 -137q-6 -10 -82 -105q-49 -61 -49 -133q0 -12 2 -22q29 23 69 22q29 0 80.5 -22.5t73.5 -22.5q106 0 164 141q45 111 45 244q0 154 -55 287q-70 168 -193 174q-92 6 -293 2q-190 -4 -293 4 q-78 6 -127 54.5t-49 123.5q0 166 201 240q139 51 330 51q207 0 360 -59q219 -84 219 -266q0 -90 -65 -152q145 -174 145 -487q0 -590 -354 -590q-98 0 -164 71q-25 27 -45 27q-43 0 -43 -59q0 -20 10 -45h-143q-19 26 -21 59q-55 -57 -170 -57q-176 0 -268 194 q-72 152 -72 336zM170 500q0 -51 18 -131q53 109 191 108q102 0 149 -92q10 53 39 104l56 97q16 29 16 43q0 72 -58 124t-132 52q-279 0 -279 -305zM260 1270q0 -47 68 -49q80 -2 174 0l172 4q162 0 186 -2q100 -8 182 -47q16 27 17 53q0 141 -438 141q-360 0 -361 -100z M270 225q0 -35 24.5 -60.5t59.5 -25.5q37 0 63.5 27t26.5 63q0 35 -25.5 60.5t-60.5 25.5q-37 0 -62.5 -26.5t-25.5 -63.5z" />
<glyph unicode="&#xc6;" horiz-adv-x="1294" d="M10 438q0 283 180 445q172 156 457 155q274 0 436 -125q180 -139 181 -405q0 -197 -121 -322t-316 -125q-172 0 -286 86q-125 96 -125 265q0 123 67 198h-92v133h522v-135l-98 2q-121 2 -170 -22q-68 -35 -67 -142q0 -180 264 -180q119 0 198.5 68.5t79.5 185.5 q0 197 -133 295q-119 88 -321 88q-197 0 -319 -117.5t-122 -314.5q0 -211 160 -332q143 -111 360 -110q274 0 465 155v-532q-78 -29 -151 -29q-86 0 -251 45t-251 45q-63 0 -184 -37.5t-185 -37.5q-156 0 -155 176q0 49 26 127h148q-23 -86 -23 -101q0 -43 33 -43 q55 0 162.5 36t165.5 36q84 0 247.5 -44t247.5 -44h19l-2 137q-135 -63 -326 -63q-303 0 -498 135q-223 158 -223 448z" />
<glyph unicode="&#xc7;" horiz-adv-x="1302" d="M10 514q0 211 121 344q127 141 334 141q160 0 262 -101t102 -261q0 -106 -86 -205q-78 -88 -77 -166q0 -12 2 -22q29 23 67 22q29 0 80 -22.5t76 -22.5q111 0 166 166q39 117 39 258q0 154 -41 262q-57 154 -185 160q-78 4 -299 2q-188 -2 -305 6q-78 6 -125 52.5 t-47 121.5q0 166 205 240q137 49 330 49q190 0 350 -49q231 -72 231 -221q0 -47 -26.5 -93.5t-69.5 -62.5q80 -66 127 -246q37 -141 37 -260q0 -618 -352 -618q-102 0 -166 71q-25 27 -43 27t-33.5 -18.5t-15.5 -38.5q0 -12 16 -47h-145q-17 28 -19 59q-55 -57 -170 -57 q-176 0 -268 194q-72 152 -72 336zM160 496q0 -51 18 -127q53 109 193 108q100 0 149 -94q10 51 92 203q16 31 17 51q0 72 -56.5 120t-130.5 48q-283 0 -282 -309zM250 1264q0 -47 78 -47q74 0 215 2l215 4q68 0 116 -6q-12 25 -12 51q0 47 27 78q-66 20 -211 20 q-428 0 -428 -102zM262 227q0 -35 24.5 -61.5t59.5 -26.5t61.5 27t26.5 61q0 35 -25.5 61.5t-60.5 26.5q-37 0 -61.5 -25.5t-24.5 -62.5zM1010 1260q0 -33 32 -33q33 0 33 35q0 32 -33 32t-32 -34z" />
<glyph unicode="&#xc9;" horiz-adv-x="1259" d="M35 449q0 117 45 186h-41v153l104 -2q-6 23 -6 45q0 111 113 166q86 43 209 43q158 0 235 -106q72 -100 66 -252l-2 -45h-439q-113 0 -112 -172q0 -125 145 -186q106 -45 252 -46q199 0 318 103q127 109 127 303q0 139 -60 276q-72 166 -186 166h-727v144h35 q-33 29 -33 80q0 135 194 198q135 45 308 45q207 0 358 -59q219 -86 219 -266q0 -90 -67 -152q139 -168 139 -450q0 -283 -171 -456t-454 -173q-221 0 -385 114q-184 129 -184 343zM266 1294q0 -29 10 -39q39 -35 422 -28l129 2q57 0 154 -49q16 27 16 49q0 133 -479 133 q-252 0 -252 -68zM389 784h207q-8 43 -49 76t-86 33t-53 -37q-16 -66 -19 -72z" />
<glyph unicode="&#xcc;" horiz-adv-x="2516" d="M41 444q119 178 420 394q2 49 -33 75.5t-84 26.5q-29 0 -65 -18q-43 -20 -43 -45q0 35 37.5 -35t37.5 -97q0 -47 -40 -83.5t-87 -36.5q-59 0 -99 53t-40 115q0 123 84 200.5t209 77.5q207 0 256 -141q88 63 268 125q170 59 291 75q76 10 121 11q113 0 201 -35 q59 -25 67 -39q25 6 53 6q74 0 145.5 -37t106.5 -98q47 113 213 113q291 0 291 -279q66 -31 100 -125q27 -76 27 -164q0 -475 -606 -475q-672 0 -672 453q0 217 133 289q-27 35 -26 81q0 51 36 95q8 41 -124 41q-37 0 -86 -4q-129 -10 -238 -62q-18 -8 -57 -27.5t-58 -27.5 q139 -20 238 -176q88 -141 88 -291q0 -160 -88 -268q-92 -117 -250 -117t-205 96q-72 -98 -223 -98q-94 0 -170 81t-76 177q0 63 35 125l-27 -8zM258 307q0 -82 109 -82q111 0 120 170q2 33 2 101h166q-12 -53 -12 -97q0 -63 27 -114q33 -59 92 -60q98 0 137 51 q33 45 33 148q0 117 -90 207t-207 90q-102 0 -356 -211h34l27 -88q-82 -47 -82 -115zM1366 475q0 -121 180 -192q141 -55 297 -56q186 0 316 62q166 80 165 237q0 96 -45 97l15 12q-12 -55 -61.5 -92t-106.5 -39q23 -31 22 -76q0 -166 -274 -166q-324 0 -324 184 q1 173 224 187h-295q-113 0 -113 -158zM1524 774h215q-2 57 -29 98q-31 50 -84 50q-59 0 -75.5 -22.5t-16.5 -86.5q0 -23 -10 -39zM1706 457q0 -55 170 -56q119 0 119 33q0 43 -86 53q-8 2 -144 2q-59 0 -59 -32zM1890 635q90 -23 168 -23q53 0 68 23h-236zM1950 776h241 q9 133 -112 133q-123 0 -129 -133z" />
<glyph unicode="&#xcd;" d="M-1264 1323q0 203 174 301q139 82 357 82q182 0 313 -45q199 -70 199 -227q0 -66 -46 -111t-112 -45q-76 0 -114.5 46t-32.5 122q-137 12 -238 12q-180 0 -237 -16q-121 -35 -140 -162l-119 -4q-4 27 -4 47zM-397 1432q0 -29 26 -29q27 0 27 27q0 24 -27 24t-26 -22z" />
<glyph unicode="&#xcf;" horiz-adv-x="2312" d="M20 434l156 166q-51 8 -83 51t-32 97q0 115 79 184t196 69q135 0 201 -100q80 66 243 103q137 31 258 30q219 0 344 -94q150 -111 138 -322l-2 -36q-55 8 -93 8q-203 0 -202 -148q0 -123 135 -178q98 -41 241 -41q201 0 318 88q131 98 131 291q0 170 -84 332 q-96 186 -246 194q-47 -92 -108.5 -132t-161.5 -40q-82 0 -150 31q-86 41 -86 113q0 10 2 22l-34 -2l-21 107q217 68 379 67q336 0 508 -189.5t172 -526.5q0 -262 -165 -426t-427 -164q-217 0 -377 96q-193 115 -192 324q0 150 71 223q66 70 215 94q-45 145 -323 145 q-174 0 -293 -57q319 -68 320 -373q0 -217 -150 -342q-139 -119 -360 -118q-158 0 -273 71q-133 82 -133 232q0 27 4 55h-67zM250 821q4 0 10 -2l10 -8q37 -29 37 -92l-2 -8l119 102q-25 63 -90 64q-27 0 -55.5 -15.5t-28.5 -40.5zM262 477h25l10 -104q-18 -8 -18 -51 q0 -174 229 -175q145 0 234 80t89 224q0 109 -58.5 172t-164.5 63q-90 0 -188 -72q-27 -18 -158 -137zM1343 1130q0 -45 74 -45q133 0 162 70q-33 2 -78 2q-82 0 -155 -16q-2 -4 -3 -11z" />
<glyph unicode="&#xd1;" horiz-adv-x="1259" d="M35 440q0 115 45 187h-41v153l104 -2q-6 23 -6 45q0 109 113 164q86 43 209 43q158 0 235 -106q72 -98 66 -250l-2 -45h-439q-113 0 -112 -172q0 -125 145 -187q106 -45 252 -45q195 0 317.5 110.5t122.5 303.5q0 143 -55 266q-70 154 -186 162q-96 6 -293 3t-295 3 q-76 6 -125 54.5t-49 123.5q0 166 203 240q139 51 329 51q207 0 361 -59q219 -84 219 -266q0 -90 -66 -152q139 -168 140 -451q0 -283 -170 -457.5t-453 -174.5q-221 0 -385 114q-184 131 -184 344zM205 1270q0 -47 67 -49q80 -2 174 0l172 4q162 0 187 -2q100 -8 182 -47 q16 27 17 51q-1 143 -439 143q-360 0 -360 -100zM389 774h207q-8 45 -49 77t-88 32q-43 0 -51 -39q-14 -59 -19 -70z" />
<glyph unicode="&#xd6;" horiz-adv-x="1259" d="M35 440q0 115 45 187h-41v153l104 -2q-6 23 -6 45q0 109 99 166q80 49 196 49q166 0 251 -101t77 -263l-2 -45h-439q-113 0 -112 -172q0 -125 145 -187q106 -45 252 -45q444 0 445 424q0 156 -41 262q-57 152 -185 162q-102 8 -304 5t-302 3q-76 6 -123 52.5t-47 121.5 q0 164 207 238q137 49 330 49q186 0 348 -49q231 -70 231 -217q0 -47 -26.5 -94t-69.5 -64q82 -68 129 -248q37 -139 37 -260q0 -283 -173 -455.5t-456 -172.5q-221 0 -385 114q-184 131 -184 344zM203 1270q0 -47 82 -47h143q35 0 88 2h55q209 0 256 -4q-12 25 -12 53 q0 45 27 78q-64 18 -209 18q-430 0 -430 -100zM389 774h207q-8 45 -49 77t-88 32q-43 0 -51 -39q-14 -59 -19 -70zM963 1262q0 -29 34 -29q33 0 33 33q0 32 -35 32q-33 0 -32 -36z" />
<glyph unicode="&#xd8;" horiz-adv-x="1161" d="M53 375q0 227 158 303q-31 41 -31 90q0 113 152 166q109 39 243 39q190 0 279 -78q82 -76 121 -266q-61 -2 -160 0q-102 2 -145 2q-195 0 -275 -33q-123 -51 -123 -205q0 -147 131 -223q104 -61 265 -61q180 0 325 73l41 -90q-49 -29 -104 -49q133 -25 133 -180 q0 -74 -47 -176h-113l12 26q-39 -14 -75 -14q-113 0 -113 121q0 115 162 114q43 0 65 -4q-12 41 -104 41q-33 0 -41 -39h-68l-2 29q-2 14 6 29q-59 -10 -112 -10q-221 0 -420 102q-160 82 -160 293zM401 770q0 -12 9 -27l395 2q-59 117 -221 117q-182 0 -183 -92zM807 -182 q0 -45 63 -45q53 0 70.5 20.5t15.5 73.5l-8 2q-8 2 -14 2h-41q-86 0 -86 -53z" />
<glyph unicode="&#xd9;" horiz-adv-x="1331" d="M57 416q0 92 27 172q35 106 100 143q-27 39 -26 94q0 119 121 174q90 41 225 41q76 0 201 -53q106 -45 106 -199q0 -80 -51 -102q-25 -12 -115 -14l-328 -10q-127 -72 -127 -230q0 -86 39 -149q47 -76 129 -76q31 0 76 14q102 33 131 88q23 43 23 170q0 43 -8 82l139 4 q-6 -127 -6 -159q0 -213 153 -213q18 0 64 4q111 61 153 157q39 84 39 221q0 481 -579 482q-43 0 -383 -13l-6 105l57 10q-27 41 -27 78q0 76 148 127q119 41 217 41q250 0 377 -51q190 -78 241 -293h-110q0 121 -180 180q-125 41 -277 41q-272 0 -272 -63q0 -43 100 -43 q25 0 71 4t70 4q309 0 490 -150q193 -162 192 -465q0 -217 -77 -374q-103 -207 -308 -207q-158 0 -223 110q-31 -49 -95.5 -79.5t-123.5 -30.5q-86 0 -170 22q-96 27 -152 172q-45 117 -45 234zM377 793h59q219 0 238 6q6 2 6 16q0 61 -74 90q-55 23 -127 23q-57 0 -80 -43 q-4 -10 -22 -92z" />
<glyph unicode="&#xdb;" horiz-adv-x="1652" d="M25 465q0 225 104 383q121 182 336 182q283 0 283 -217v-6q92 223 385 223q512 0 512 -571q0 -233 -140.5 -358.5t-376.5 -125.5q-41 0 -79 5v118q-135 -117 -342 -116q-201 0 -334 131l2 -97l-33 -2q-160 -10 -250 156q-68 125 -67 295zM176 412q0 -220 166 -267 q-100 119 -100 283q0 113 47 186q-76 -43 -94.5 -77.5t-18.5 -124.5zM344 678q37 33 203 98q45 18 45 39q0 37 -38 59.5t-79 22.5q-84 0 -106 -35q-14 -23 -15 -106q0 -47 -10 -78zM432 463q0 -143 90 -201q70 -43 223 -43q276 0 277 189q0 113 -61 112q-61 0 -62 -45 q0 -12 8 -26h-131q-61 80 -61 186q0 43 6 84q-31 -49 -172 -119q-117 -57 -117 -137zM868 639q37 33 97 33q213 0 213 -283q0 -172 -119 -280q416 0 416 342q0 166 -97.5 264t-263.5 98q-254 0 -246 -174z" />
<glyph unicode="&#xdc;" horiz-adv-x="1302" d="M35 485q0 426 504 426q51 0 123 -6v-151q-82 8 -138 8q-311 0 -311 -244q0 -150 139 -225q113 -61 275 -62q201 0 333 113t132 311q0 137 -62 271q-74 162 -186 161l-727 3v143h35q-33 29 -33 78q0 133 192 198q137 47 303 47q205 0 361 -59q223 -86 223 -268 q0 -90 -68 -152q139 -164 140 -450q0 -281 -181.5 -463t-461.5 -182q-248 0 -412 124q-180 139 -180 379zM307 1300q0 -29 12 -38q41 -31 338 -31q66 0 140 2l71 2q59 2 154 -47q16 27 16 49q0 131 -479 131q-252 0 -252 -68z" />
<glyph unicode="&#xdf;" d="M-1401 1315q0 199 164 299q135 82 346 82q219 0 371 -70q203 -94 203 -295q-1 -36 -9 -71h-118q-4 29 -9.5 63.5t-25.5 58.5q-55 68 -393 68h-35q-190 0 -240 -12q-119 -29 -125 -164l-125 -8q-4 27 -4 49z" />
<glyph unicode="&#xe0;" horiz-adv-x="1257" d="M33 475q0 416 491 416q51 0 123 -6v-148q-80 8 -133 8q-305 0 -305 -241q0 -145 135 -219q109 -59 268 -60q205 0 322 109.5t117 312.5q0 158 -43 266q-59 150 -191 160q-100 8 -302 5t-302 3q-76 6 -123 54.5t-47 124.5q0 166 205 239q137 49 332 49q190 0 348 -49 q231 -72 231 -219q0 -47 -26.5 -93t-69.5 -63q82 -66 129 -247q37 -141 37 -261q0 -276 -171.5 -455t-445.5 -179q-244 0 -403 120q-176 135 -176 373zM199 1276q0 -45 77 -47q86 -2 152 0q104 2 150 2q201 0 245 -4q-12 25 -12 51q0 47 29 78q-68 20 -213 20 q-428 0 -428 -100zM958 1272q0 -33 35 -33q33 0 33 33t-35 33q-33 0 -33 -33z" />
<glyph unicode="&#xe1;" horiz-adv-x="1265" d="M33 475q0 416 491 416q51 0 123 -6v-148q-80 8 -133 8q-305 0 -305 -241q0 -145 135 -219q109 -59 268 -60q195 0 317 104.5t122 297.5q0 152 -54 274q-68 158 -188 166q-98 8 -292.5 4t-291.5 2q-78 6 -127 54.5t-49 123.5q0 166 203 240q139 51 330 51q207 0 360 -59 q219 -84 219 -264q0 -92 -65 -154q139 -168 139 -449q0 -279 -173.5 -456.5t-449.5 -177.5q-244 0 -403 120q-176 135 -176 373zM211 1270q0 -47 70 -49q78 -2 172 0l172 4q164 0 188 -2q98 -8 180 -47q16 27 17 53q-1 141 -437 141q-362 0 -362 -100z" />
<glyph unicode="&#xe2;" horiz-adv-x="1284" d="M14 772l111 4q-6 23 -6 47q0 109 112 164q86 43 209 43q158 0 236 -106q72 -98 65 -250l-2 -47q-209 18 -264 18q-297 0 -297 -209q0 -84 52.5 -147.5t134.5 -63.5q119 0 157 103q27 70 23 231h180q-16 -68 -16 -127q0 -207 176 -207q115 0 174 125q45 96 45 225 q0 158 -64 312q-80 193 -206 190l-728 -6v143h39q-35 31 -34 82q0 131 192 197q137 47 301 47q209 0 363 -59q221 -86 221 -269q0 -90 -68 -151q68 -80 109 -213q37 -123 37 -240q0 -233 -76 -403q-102 -229 -318 -230q-164 0 -233 125q-63 -119 -231 -118 q-180 0 -284 120.5t-104 303.5q0 145 62 221h-62zM297 1284q0 -29 10 -39q39 -35 422 -28l129 2q61 0 154 -48q16 27 16 50q0 131 -479 131q-252 0 -252 -68zM371 774h207q-8 45 -49.5 77t-88.5 32q-43 0 -51 -39q-14 -59 -18 -70z" />
<glyph unicode="&#xe3;" horiz-adv-x="1312" d="M29 403q0 145 63 224h-61v145l102 4q-6 23 -6 45q0 111 113 166q86 43 209 43q154 0 233 -104q74 -96 68 -246l-2 -53l-404 4q-70 0 -110.5 -58.5t-40.5 -130.5q0 -84 49 -147q51 -70 133 -70q121 0 157 103q25 68 21 231h180q-16 -68 -16 -127q0 -207 176 -207 q127 0 186 158q43 113 43 266q0 154 -47 266q-63 152 -194 158q-78 4 -299 2q-188 -2 -306 6q-78 6 -125 52.5t-47 121.5q0 164 207 238q137 49 330 49q186 0 348 -49q231 -70 232 -217q0 -47 -27 -94t-68 -64q80 -66 127 -248q37 -141 37 -260q0 -231 -84 -405 q-110 -230 -323 -230q-164 0 -236 125q-63 -119 -231 -118q-180 0 -287 122q-100 117 -100 299zM260 1270q0 -47 84 -47h141q35 0 88 2h56q211 0 256 -4q-12 25 -13 53q0 47 29 78q-68 18 -211 18q-430 0 -430 -100zM379 774h209q-8 45 -49 77t-88 32q-43 0 -54 -37z M1020 1266q0 -33 35 -33q33 0 32 33q1 32 -34 32q-33 0 -33 -32z" />
<glyph unicode="&#xe4;" horiz-adv-x="1302" d="M29 403q0 145 63 224h-61v145l102 4q-6 23 -6 45q0 111 113 166q86 43 209 43q154 0 233 -104q74 -96 68 -246l-2 -53l-404 4q-70 0 -110.5 -58.5t-40.5 -130.5q0 -84 49 -147q51 -70 133 -70q121 0 157 103q25 68 21 231h180q-16 -68 -16 -127q0 -207 176 -207 q119 0 180 150q43 111 43 252q0 143 -63 270q-76 156 -203 164q-63 4 -295 0q-168 -2 -293 6q-76 6 -125 55t-49 123q0 168 201 242q139 51 332 51q199 0 358 -61q223 -86 223 -267q0 -90 -67 -151q143 -168 143 -451q0 -229 -78 -401q-104 -232 -317 -232q-164 0 -236 125 q-63 -119 -231 -118q-180 0 -287 122q-100 117 -100 299zM252 1264q0 -47 65 -50q41 -2 166 3q78 2 166 2q168 0 195 -2q106 -8 188 -48q16 27 17 54q-1 143 -445 143q-352 0 -352 -102zM379 774h209q-8 45 -49 77t-88 32q-43 0 -54 -37z" />
<glyph unicode="&#xe5;" horiz-adv-x="1536" d="M12 440q0 203 72 342q92 174 276 183h95l18 8q121 53 227 53q158 0 236 -106q72 -100 65 -252l-2 -47l-403 6q-70 2 -113 -64q-39 -57 -39 -129q0 -84 51.5 -149.5t133.5 -65.5q117 0 155 105q25 68 21 229h180q-16 -68 -16 -127q0 -207 176 -207q203 0 203 367 q0 152 -66 299q-80 182 -205 180l-727 -6v145h39q-35 29 -35 80q0 135 195 199q135 45 307 45q207 0 358 -60q217 -86 218 -268q0 -88 -68 -149q150 -178 149 -488q0 -223 -73 -381q-98 -211 -305 -211q-162 0 -234 123q-63 -119 -233 -119q-178 0 -285 125 q-102 119 -102 299q0 145 61 222h-59v153l104 -2q2 8 2 23q-18 6 -31 6q-102 0 -151 -139q-35 -100 -35 -228q0 -125 41 -213q53 -113 162 -131v-115l-43 -2q-162 -8 -250 162q-70 133 -70 305zM541 1274q0 -29 10 -39q39 -35 422 -29l129 2q57 0 153 -49q16 27 17 49 q0 133 -479 133q-252 0 -252 -67zM631 768h207q-8 43 -49.5 76t-86.5 33t-53 -37q-16 -66 -18 -72z" />
<glyph unicode="&#xe6;" horiz-adv-x="1769" d="M2 465q0 293 151.5 448.5t444.5 155.5q502 0 487 -373l-2 -53q-506 4 -548 -12q-106 -41 -107 -215q0 -131 135 -203q111 -59 254 -59q172 0 324 88l28 -121h5q72 0 102 -53q29 61 108 61q94 0 117 -82l-8 78q31 6 55 6q190 0 191 -237q0 -100 -41 -166q-47 -80 -144 -80 q-23 0 -49 6v86q51 8 70.5 25.5t21.5 64.5q2 6 2 64q0 80 -12 104q-14 39 -84 43q2 -10 2 -21q0 -70 -53 -83q49 -41 49 -119q0 -80 -56 -125t-136 -45q-39 0 -84 20.5t-51 20.5q-25 0 -48 -39h-84l-6 78q0 154 88 211h-77q-6 33 -7 49q0 39 17 67q-154 -61 -293 -61 q-258 0 -399 92v-90l-41 -2q-162 -8 -252 164q-70 133 -70 307zM160 459q0 -256 147 -328q-106 102 -106 281q0 111 51 204q57 104 154 144q-8 4 -46 24q-20 14 -49 15q-78 0 -121 -137q-31 -98 -30 -203zM584 784h338q-43 131 -236 131q-55 0 -70 -45q-23 -74 -32 -86z M1128 -57q61 37 62 63q0 20 -23 21q-45 0 -39 -84zM1133 -219q20 14 43 14q25 0 66.5 -19.5t64.5 -19.5q61 0 61 66q0 37 -39 61q-45 27 -55 56q-14 -31 -80 -68q-55 -33 -61 -90zM1358 10q0 -16 10 -26v10q0 27 21 45q-31 0 -31 -29z" />
<glyph unicode="&#xe7;" horiz-adv-x="1536" d="M12 451q0 168 54 297q66 162 200 208q25 8 111 15l80 4l18 6q160 53 225 53q158 0 236 -106q72 -100 65 -252l-2 -47l-403 6q-70 2 -111 -58.5t-41 -132.5q0 -84 50.5 -149.5t132.5 -65.5q117 0 155 103q27 72 23 229h180q-16 -68 -16 -125q0 -207 176 -207 q205 0 205 402q0 141 -64 270q-76 160 -201 166q-92 6 -292 2q-190 -2 -293 4q-78 6 -127 54.5t-49 123.5q0 166 200 240q139 51 330 51q207 0 360 -59q219 -84 220 -266q0 -90 -66 -152q145 -172 145 -492q0 -221 -73 -380q-98 -213 -305 -213q-164 0 -234 124 q-63 -119 -233 -118q-180 0 -283.5 120.5t-103.5 303.5q0 145 61 221h-59v153h2l106 -2v23q-16 4 -29 4q-104 0 -155 -141q-35 -98 -35 -224q0 -125 41 -213q53 -113 162 -131v-116l-43 -2q-162 -8 -250 161q-70 133 -70 308zM485 1270q0 -47 68 -49q80 -2 174 0l172 4 q162 0 186 -2q100 -8 183 -47q16 27 16 53q0 141 -438 141q-360 0 -361 -100zM631 778h207q-8 45 -49.5 77t-88.5 32q-43 0 -51 -39q-14 -59 -18 -70z" />
<glyph unicode="&#xe8;" horiz-adv-x="1275" d="M18 444q0 516 463 504l72 -2v-135l-51 2q-184 8 -260 -80q-68 -80 -68 -268q0 -90 49 -156q53 -74 139 -73q111 0 146 112q23 70 18 219h181q-16 -68 -17 -127q0 -207 176 -207q123 0 183 134q45 98 45 239q0 147 -66 297q-78 178 -201 178h-733v144h37q-35 29 -35 80 q0 135 195 198q135 45 307 45q205 0 358 -59q219 -84 220 -266q0 -90 -68 -152q139 -168 139 -469q0 -244 -76 -403q-102 -213 -317 -213q-164 0 -233 125q-63 -119 -246 -119q-182 0 -277 141q-80 121 -80 311zM285 1294q0 -29 10 -39q39 -35 422 -28l129 2q57 0 153 -49 q16 27 17 49q0 133 -479 133q-252 0 -252 -68z" />
<glyph unicode="&#xe9;" horiz-adv-x="1554" d="M31 451q0 168 53 297q66 162 201 208q25 8 110 15l80 4l19 6q160 53 225 53q154 0 233 -102q74 -92 68 -250l-2 -53l-404 6q-70 2 -110.5 -58.5t-40.5 -132.5q0 -84 50 -149.5t132 -65.5q117 0 156 103q27 72 22 229h181q-16 -68 -17 -125q0 -207 176 -207q133 0 176 162 q25 90 25 271q0 145 -51 260q-66 150 -193 151q-168 0 -602 8q-76 2 -125 50.5t-49 123.5q0 164 207 238q137 49 330 49q188 0 350 -49q231 -70 231 -219q0 -47 -27.5 -93t-68.5 -63q82 -68 129 -266q37 -154 37 -279q0 -221 -74 -380q-98 -213 -305 -213q-164 0 -233 124 q-63 -119 -234 -118q-180 0 -283.5 120.5t-103.5 303.5q0 145 61 221h-59v153h2l107 -2v23q-16 4 -29 4q-102 0 -154 -141q-37 -102 -37 -222q0 -125 43 -215q53 -113 162 -131v-116l-43 -2q-162 -8 -250 161q-72 137 -71 308zM500 1270q0 -47 82 -47h61q53 2 82 2h143 q211 0 256 -4q-10 25 -10 51q0 47 27 80q-64 18 -211 18q-430 0 -430 -100zM649 778h207q-8 45 -49 77t-88 32q-43 0 -51 -39q-14 -59 -19 -70zM1262 1264q0 -31 34 -31q31 0 31 35q0 30 -35 30q-31 0 -30 -34z" />
<glyph unicode="&#xea;" horiz-adv-x="1302" d="M29 430q0 514 456 502l76 -2v-123l-51 2q-188 8 -264 -90q-63 -82 -64 -277q0 -84 54.5 -149.5t136.5 -65.5q111 0 145 113q20 68 17 219h180q-16 -68 -17 -127q0 -207 176 -207q129 0 191 140q47 104 47 251q0 154 -59 287q-74 164 -199 170q-92 4 -293 2 q-190 -2 -293 4q-78 6 -127 53.5t-49 124.5q0 166 203 240q139 51 330 51q207 0 360 -59q219 -84 219 -266q0 -90 -65 -152q133 -164 133 -469q0 -238 -80 -405q-105 -222 -328 -222q-162 0 -235 125q-61 -119 -232 -118q-186 0 -284 135q-84 119 -84 313zM254 1276 q0 -47 70 -49q78 -2 172 0l172 4q164 0 188 -2q96 -8 180 -49q16 27 17 53q-1 143 -437 143q-362 0 -362 -100z" />
<glyph unicode="&#xeb;" horiz-adv-x="1302" d="M37 434q0 510 457 498l77 -2v-123l-51 2q-182 8 -260 -84q-68 -80 -67 -268q0 -90 49 -156q53 -74 139 -74q111 0 145 113q23 70 19 219h180q-16 -68 -16 -127q0 -207 176 -207q205 0 205 404q0 162 -43 274q-59 160 -193 170q-100 8 -302 5t-302 3q-78 6 -125 52.5 t-47 121.5q0 164 207 238q137 49 329 49q188 0 351 -49q231 -70 231 -219q0 -47 -27.5 -93t-70.5 -63q84 -70 133 -274q39 -160 39 -287q0 -227 -80 -381q-105 -201 -318 -201q-164 0 -233 125q-63 -119 -231 -118q-190 0 -287 137q-84 119 -84 315zM233 1270q0 -47 82 -47 h62q53 2 82 2h143q211 0 256 -4q-10 25 -10 51q0 47 26 80q-63 18 -210 18q-430 0 -431 -100zM995 1264q0 -31 35 -31q31 0 31 35q0 30 -35 30q-31 0 -31 -34z" />
<glyph unicode="&#xec;" horiz-adv-x="1331" d="M18 461q0 238 121 387q133 162 365 162q164 0 266 -86q111 -90 111 -252q0 -78 -29 -131q-20 -39 -80 -105q-45 -51 -45 -96q0 -53 55 -86q49 -29 105 -29q113 0 176 135q53 113 53 246q0 147 -53 281q-68 168 -184 174q-94 6 -295 2q-190 -2 -293 4q-76 6 -125 54 t-49 124q0 168 200 242q139 51 330 51q207 0 361 -59q221 -86 221 -269q0 -90 -68 -151q139 -164 139 -449q0 -244 -79 -407q-109 -221 -330 -221q-98 0 -162.5 25.5t-130.5 94.5q-63 -68 -100 -88q-51 -29 -138 -28q-166 0 -262 166q-80 137 -80 309zM176 475q0 -43 12 -86 q59 115 209 115q107 0 162 -88q12 41 66.5 112.5t54.5 122.5q0 197 -201 197q-145 0 -229 -117q-74 -104 -74 -256zM279 1264q0 -47 65 -50q41 -2 166 3q76 2 168 2q168 0 194 -2q106 -8 189 -48q16 27 16 54q0 143 -446 143q-352 0 -352 -102zM281 250q0 -39 27.5 -67.5 t66.5 -28.5t67.5 29.5t28.5 68.5t-28.5 66.5t-67.5 27.5t-66.5 -28.5t-27.5 -67.5z" />
<glyph unicode="&#xed;" horiz-adv-x="1302" d="M18 451q0 231 119 378q131 160 357 160q158 0 258 -86q109 -90 108 -246q0 -74 -29 -129q-18 -35 -77 -102q-43 -49 -43 -92q0 -53 55 -86q47 -29 102 -29q100 0 174 121q66 106 66 213q0 158 -64 311q-80 193 -206 191l-727 -6v145h39q-35 29 -35 78q0 133 192 198 q137 47 301 48q207 0 361 -60q221 -86 221 -268q0 -90 -66 -152q68 -80 109 -215q37 -123 37 -239q0 -244 -78 -400q-100 -203 -322 -202q-96 0 -159.5 24.5t-126.5 91.5q-63 -68 -97 -86q-47 -27 -133 -26q-164 0 -258 161q-78 135 -78 304zM172 463q0 -41 12 -82 q57 113 201 113q107 0 162 -86q8 33 65 112q53 72 54 119q0 188 -197 188q-143 0 -225 -114q-72 -100 -72 -250zM274 242q0 -37 29 -63.5t66 -26.5t64.5 27.5t27.5 64.5q0 39 -27.5 65.5t-66.5 26.5t-66 -27.5t-27 -66.5zM301 1262q0 -29 12 -39q41 -31 338 -31q66 0 140 2 l71 2q59 2 154 -47q16 27 16 49q0 131 -479 131q-252 0 -252 -67z" />
<glyph unicode="&#xee;" horiz-adv-x="1302" d="M18 451q0 231 119 378q131 160 357 160q158 0 262 -88t104 -244q0 -74 -29 -129q-18 -35 -77 -102q-43 -49 -43 -92q0 -53 55 -86q47 -29 102 -29q115 0 183 158q53 125 53 268q0 147 -47 262q-61 152 -187 160q-98 6 -300.5 4t-305.5 4q-76 6 -123 52.5t-47 121.5 q0 166 205 240q137 49 330 49q190 0 350 -49q231 -72 231 -221q0 -47 -26.5 -93.5t-69.5 -62.5q80 -66 127 -246q37 -141 37 -260q0 -236 -82 -403q-109 -221 -326 -221q-96 0 -159.5 24.5t-126.5 91.5q-61 -66 -97 -86q-47 -27 -133 -26q-164 0 -258 161q-78 135 -78 304z M172 463q0 -41 12 -82q57 113 201 113q107 0 162 -86q8 33 65 112q53 72 54 119q0 188 -197 188q-143 0 -225 -114q-72 -100 -72 -250zM250 1264q0 -47 78 -47q74 0 215 2l215 4q68 0 116 -6q-12 25 -12 51q0 47 27 78q-66 20 -211 20q-428 0 -428 -102zM274 242 q0 -37 29 -63.5t66 -26.5t64.5 27.5t27.5 64.5q0 39 -27.5 65.5t-66.5 26.5t-66 -27.5t-27 -66.5zM1010 1260q0 -33 32 -33q33 0 33 35q0 32 -33 32t-32 -34z" />
<glyph unicode="&#xef;" horiz-adv-x="1275" d="M27 575q0 178 61 291q78 145 242 146q117 0 172 -94q63 109 200 108q127 0 201 -98q68 -88 68 -219q0 -162 -94.5 -268.5t-253.5 -106.5q-143 0 -240 86q-102 90 -102 231q0 102 61 187q-8 25 -39 24q-68 0 -96 -102q-20 -68 -21 -156q0 -176 140 -276q125 -88 307 -88 q193 0 313.5 108.5t120.5 298.5q0 139 -61 273q-74 162 -187 161h-727v144h37q-35 29 -35 80q0 133 197 198q135 45 305 45q205 0 358 -59q219 -84 220 -266q0 -90 -68 -152q139 -168 139 -448q0 -287 -161.5 -458t-448.5 -171q-281 0 -444.5 151.5t-163.5 429.5zM283 1294 q0 -29 10 -39q39 -35 422 -28l129 2q57 0 153 -49q16 27 17 49q0 133 -479 133q-252 0 -252 -68zM434 662q0 -76 80 -117q63 -33 148 -33q102 0 139 72q-47 -33 -109 -33q-88 0 -158.5 59.5t-70.5 145.5q-29 -51 -29 -94zM602 788q0 -39 30 -65.5t70 -26.5q37 0 63 27t26 63 q0 39 -29 67t-68 28t-65.5 -27t-26.5 -66z" />
<glyph unicode="&#xf1;" horiz-adv-x="1284" d="M31 569q0 178 61 293q78 145 242 146q117 0 172 -97q63 109 199 109q127 0 200 -105q66 -92 66 -221q0 -162 -82 -260q-88 -109 -246 -108q-147 0 -249.5 88t-102.5 233q0 100 63 184q-8 25 -43 25q-123 0 -123 -250q0 -180 138 -280q123 -92 309 -93q195 0 312.5 102.5 t117.5 295.5q0 145 -53 270q-68 160 -185 166q-96 6 -292.5 3t-294.5 3q-76 4 -126.5 53.5t-50.5 124.5q0 166 203 240q139 51 330 51q205 0 360 -59q221 -84 222 -266q0 -90 -68 -152q139 -168 139 -451q0 -287 -162.5 -455.5t-447.5 -168.5q-281 0 -444.5 150.5 t-163.5 428.5zM227 1270q0 -47 68 -49q80 -2 174 0l172 4q162 0 186 -2q96 -8 181 -47q18 27 18 51q0 143 -438 143q-360 0 -361 -100zM442 668q0 -72 64 -115q55 -37 131 -37q98 0 149 64q-43 -23 -98 -23q-90 0 -152.5 55.5t-66.5 143.5q-27 -47 -27 -88zM608 791 q0 -37 25.5 -63t62.5 -26t62.5 25t25.5 61q0 37 -25.5 63t-62.5 26t-62.5 -25t-25.5 -61z" />
<glyph unicode="&#xf2;" horiz-adv-x="1312" d="M29 479q0 199 63 338q86 190 273 191q133 0 180 -76q55 90 153 90q238 0 238 -260q0 -227 -211 -268q160 -29 160 -117q0 -49 -29 -72q-10 -10 -68 -35q-4 0 -6 -4q0 -43 68 -43q256 0 256 402q0 145 -59 282q-74 170 -193 170l-727 2v142h39q-35 29 -35 79 q0 131 193 197q141 47 303 47q205 0 360 -59q221 -84 221 -266q0 -90 -67 -152q139 -168 139 -449q0 -229 -80 -407q-104 -236 -317 -236q-164 0 -236 125q-61 -119 -231 -118q-203 0 -303 153q-84 131 -84 344zM197 539q0 -115 41 -205q51 -115 153 -115q55 0 74 4 q43 10 43 47q-2 2 -41 27q-53 35 -53 86q0 92 131 117q-188 53 -189 219q0 61 37 125q-8 20 -47 20q-84 0 -123 -129q-27 -86 -26 -196zM317 1290q0 -29 11 -39q39 -35 422 -28l129 2q61 0 153 -47q16 27 17 47q-1 133 -480 133q-252 0 -252 -68zM504 750q0 -101 147 -111 q-113 29 -131 158q-16 -23 -16 -47zM608 365q31 -4 45 -27q10 16 39 24v-2q-4 16 -49 17q-25 0 -35 -12zM655 827q0 -55 62 -55q53 0 53 49q0 58 -59 58q-55 0 -56 -52z" />
<glyph unicode="&#xf3;" horiz-adv-x="1284" d="M31 561q0 178 61 291q78 145 242 145q117 0 172 -94q61 109 196 109q129 0 203 -103q66 -92 66 -225q0 -160 -84 -260q-88 -106 -246 -107q-147 0 -246 86q-104 88 -104 234q0 102 63 186q-8 25 -43 25q-123 0 -123 -252q0 -180 140 -281q125 -90 311 -90 q205 0 316.5 109.5t111.5 314.5q0 152 -43 258q-57 150 -184 156q-78 4 -301 2q-188 -2 -306 6q-76 6 -123 52t-47 122q0 166 205 240q137 49 332 49q190 0 348 -49q231 -72 232 -219q0 -49 -27 -94.5t-70 -63.5q82 -63 129 -246q37 -143 37 -262q0 -285 -163.5 -452.5 t-446.5 -167.5q-281 0 -444.5 151.5t-163.5 429.5zM219 1260q0 -43 76 -46q86 -2 154 0q104 2 153 3q190 0 242 -5q-12 25 -13 52q0 47 29 77q-68 21 -213 21q-428 0 -428 -102zM442 657q0 -70 66 -112q55 -39 129 -39q98 0 149 65q-43 -24 -100 -24q-88 0 -151.5 55 t-65.5 143q-27 -47 -27 -88zM608 780q0 -37 25.5 -61.5t62.5 -24.5t62.5 24.5t25.5 61.5q0 35 -26.5 60.5t-61.5 25.5q-37 0 -62.5 -24.5t-25.5 -61.5zM979 1257q0 -35 35 -34q33 0 33 34q0 33 -37 33q-31 0 -31 -33z" />
<glyph unicode="&#xf4;" horiz-adv-x="1320" d="M29 479q0 199 63 338q86 190 273 191q133 0 180 -76q55 90 153 90q238 0 238 -260q0 -227 -211 -268q160 -29 160 -117q0 -49 -29 -72q-10 -10 -68 -35q-4 0 -6 -4q0 -43 68 -43q276 0 276 393q0 147 -65 285q-78 166 -199 172q-96 6 -291.5 3t-294.5 3q-80 4 -129 52.5 t-49 125.5q0 166 203 240q139 51 330 51q205 0 360 -59q221 -84 221 -266q0 -90 -67 -152q143 -172 143 -453q0 -227 -84 -407q-110 -236 -321 -236q-164 0 -236 125q-61 -119 -231 -118q-203 0 -303 153q-84 131 -84 344zM197 539q0 -115 41 -205q51 -115 153 -115 q55 0 74 4q43 10 43 47q-2 2 -41 27q-53 35 -53 86q0 92 131 117q-188 53 -189 219q0 61 37 125q-8 20 -47 20q-84 0 -123 -129q-27 -86 -26 -196zM262 1276q0 -47 68 -49q80 -2 174 0l172 4q162 0 186 -2q98 -8 182 -49q16 27 17 53q0 143 -438 143q-360 0 -361 -100z M504 750q0 -101 147 -111q-113 29 -131 158q-16 -23 -16 -47zM608 365q31 -4 45 -27q10 16 39 24v-2q-2 10 -43 15q-33 4 -41 -10zM655 827q0 -55 62 -55q53 0 53 49q0 58 -59 58q-55 0 -56 -52z" />
<glyph unicode="&#xf5;" horiz-adv-x="1239" d="M14 432q0 106 19 164q25 70 94 133q-14 27 -14 59q0 119 114 185q94 55 222 55q150 0 229 -104q74 -96 67 -242l-2 -47h-432q-129 0 -129 -178q0 -119 152 -183q117 -49 262 -49q440 0 440 408q0 137 -61 272q-74 162 -187 162l-729 2v143h37q-33 29 -33 78 q0 133 193 199q137 47 303 47q207 0 361 -59q221 -86 221 -267q0 -92 -66 -153q139 -164 139 -449q0 -276 -171 -451t-447 -175q-227 0 -391 108q-190 127 -191 342zM252 1280q0 -31 12 -39q37 -31 334 -31q68 0 141 2l72 2q59 2 156 -47q14 25 14 47q0 134 -477 134 q-252 0 -252 -68zM379 774h209q-8 45 -49 77t-88 32q-43 0 -54 -37z" />
<glyph unicode="&#xf6;" horiz-adv-x="1302" d="M29 479q0 199 63 338q86 190 273 191q133 0 180 -76q55 90 153 90q238 0 238 -260q0 -227 -211 -268q160 -29 160 -117q0 -49 -29 -72q-10 -10 -68 -35q-4 0 -6 -4q0 -43 68 -43q156 0 213 125q41 86 41 260q0 164 -47 287q-63 172 -199 178q-80 4 -301 2q-184 -2 -301 6 q-78 6 -126 51.5t-48 122.5q0 164 207 238q137 49 329 49q186 0 349 -49q231 -70 231 -217q0 -47 -26.5 -94t-67.5 -64q82 -68 133 -258q41 -152 41 -270q0 -238 -76 -397q-102 -218 -319 -218q-164 0 -236 125q-61 -119 -231 -118q-203 0 -303 153q-84 131 -84 344z M197 539q0 -115 41 -205q51 -115 153 -115q55 0 74 4q43 10 43 47q-2 2 -41 27q-53 35 -53 86q0 92 131 117q-188 53 -189 219q0 61 37 125q-8 20 -47 20q-84 0 -123 -129q-27 -86 -26 -196zM238 1270q0 -47 84 -47h61q53 2 80 2h143q211 0 256 -4q-10 25 -10 51q0 49 27 80 q-66 18 -211 18q-430 0 -430 -100zM504 750q0 -101 147 -111q-113 29 -131 158q-16 -23 -16 -47zM608 365q31 -4 45 -27q10 16 39 24v-2q-2 14 -39 15q-35 0 -45 -10zM655 827q0 -55 62 -55q53 0 53 49q0 58 -59 58q-55 0 -56 -52zM997 1266q0 -33 37 -33q31 0 31 37 q0 28 -35 28q-33 0 -33 -32z" />
<glyph unicode="&#xf8;" horiz-adv-x="1005" d="M18 395q0 221 164 318q-29 37 -28 94q0 127 125 186q96 45 237 45q379 0 379 -340q0 -25 -4 -65q-102 4 -207 10q-158 6 -250 -14q-129 -27 -162 -103q-25 -59 -24 -127q0 -135 125 -204q100 -57 248 -58q184 0 344 94q20 -82 20 -163q0 -424 -457 -424q-197 0 -323 71 q-158 88 -158 271q0 43 10 82l107 6l-2 -33q-8 -123 117 -174q80 -33 241 -33q119 0 205 43q113 53 119 158q-137 -51 -281 -51q-231 0 -373 88q-172 104 -172 323zM408 768l333 -4q-41 133 -219 133q-68 0 -82 -41z" />
<glyph unicode="&#xf9;" horiz-adv-x="1259" d="M14 432q0 195 113 297q-14 27 -14 59q0 119 114 185q94 55 222 55q150 0 229 -104q74 -96 67 -242l-2 -47h-432q-129 0 -129 -178q0 -119 152 -183q117 -49 262 -49q449 0 448 424q0 158 -45 271q-61 154 -192 163q-100 8 -302 5t-302 4q-78 6 -124 52t-46 122 q0 166 205 239q137 49 331 49q193 0 351 -49q229 -72 229 -221q0 -47 -26.5 -93t-69.5 -63q82 -63 131 -251q39 -147 39 -265q0 -279 -174 -454.5t-453 -175.5q-227 0 -391 108q-190 127 -191 342zM188 1280q0 -43 74 -45q86 -2 154 0q104 2 153 2q193 0 244 -4 q-12 25 -12 51q0 47 26 78q-66 20 -211 20q-428 0 -428 -102zM379 774h209q-8 45 -49 77t-88 32q-43 0 -54 -37zM948 1276q0 -33 33 -33t33 35q0 33 -37 33q-29 0 -29 -35z" />
<glyph unicode="&#xfa;" horiz-adv-x="1259" d="M14 432q0 195 113 297q-14 27 -14 59q0 119 114 185q94 55 222 55q150 0 229 -104q74 -96 67 -242l-2 -47h-432q-129 0 -129 -178q0 -119 152 -183q117 -49 262 -49q201 0 315 92q127 102 127 297q0 156 -51 281q-66 164 -188 172q-98 8 -293 4t-291 2q-78 6 -128 53.5 t-50 124.5q0 166 203 240q139 51 329 51q207 0 361 -59q219 -84 219 -266q0 -90 -66 -152q139 -168 140 -449q0 -279 -174 -456.5t-453 -177.5q-227 0 -391 108q-190 127 -191 342zM201 1270q0 -47 67 -49q80 -2 174 0l172 4q162 0 187 -2q100 -8 182 -47q16 27 16 51 q0 143 -438 143q-360 0 -360 -100zM379 774h209q-8 45 -49 77t-88 32q-43 0 -54 -37z" />
<glyph unicode="&#xff;" horiz-adv-x="1497" d="M41 434l154 162q-51 8 -82 53t-31 99q0 102 90 172q84 63 190 63q119 0 205 -90q211 94 375 94q197 0 332 -134t135 -331q0 -244 -139.5 -381t-382.5 -141v98l53 -4q131 0 219 109q86 102 86 235q0 156 -110.5 262.5t-266.5 106.5q-55 0 -108 -16q18 -8 61 -21 q94 -29 164 -154q66 -117 66 -217q0 -188 -142 -305q-133 -109 -325 -108q-430 0 -430 313q0 49 2 66h-64zM252 473l49 -8q10 -18 25 -82q-33 -6 -41 -21q-6 -37 -6 -43q0 -186 206 -186q152 0 248 80q104 86 105 236q0 241 -283 241q-66 0 -303 -217zM270 817l13 -16 q41 -55 41 -92l-2 -2l137 114q-45 41 -92 41q-53 0 -97 -45zM322 1092q0 168 180 245q131 55 321 56q186 0 312 -66q160 -84 159 -256q0 -29 -2 -41q-2 -29 -8 -51h-115q14 33 15 63q0 98 -140 144q-94 29 -221 28q-117 0 -229 -38q-154 -53 -154 -150q0 -16 6 -37l-108 4 q-16 35 -16 99z" />
<glyph unicode="&#x152;" horiz-adv-x="12" d="M-1137 -193q0 72 25 138l113 -8q-18 -61 -19 -89q0 -53 45 -53q43 0 166 37t191 37q53 0 114 -23l109 -39q35 -12 57 -12q10 0 35 4l-2 363l123 82v-553q-55 -15 -125 -15q-53 0 -156.5 35t-156.5 35q-66 0 -192 -32.5t-191 -32.5q-135 0 -136 126z" />
<glyph unicode="&#x153;" d="M-1083 -152q0 31 16 99l115 -8q-18 -61 -19 -89q0 -53 45 -53t170 37t193 37q55 0 147 -37t127 -37q10 0 35 4l-2 336l123 90v-538q-153 -5 -819 -11q-66 0 -101 56q-31 45 -30 114z" />
<glyph unicode="&#x178;" horiz-adv-x="1497" d="M55 422q164 231 424 407q-47 31 -94 31q-12 0 -53 -4q-47 -27 -47 -47q0 -16 20 -51q25 -47 27 -51l-8 -29q-78 -84 -144 -84q-98 0 -98 121q0 264 317 264q100 0 189 -76q180 86 332 86q219 0 362 -164q137 -158 137 -381q0 -215 -125 -331.5t-342 -120.5l-4 92 q141 0 232 74q96 82 96 219q0 170 -122 301t-290 131q-45 0 -73 -6q281 -117 280 -404q0 -168 -80 -317q-51 -94 -203 -94q-170 0 -210 84q-68 -90 -220 -90q-98 0 -182 73.5t-84 169.5q0 74 53 152h-26zM264 279q0 -35 30 -62t64 -27q102 0 140 95q25 61 28 207h123 q-8 -119 -8 -136q0 -166 135 -166q160 0 160 240q0 135 -85 205t-224 70q-102 0 -197 -68q-49 -35 -154 -141l50 -7l28 -75q-90 -51 -90 -135zM295 1102q0 170 176 246q127 53 324 53q193 0 315 -66q156 -84 156 -260q0 -27 -2 -37q-2 -29 -11 -49h-110q14 41 14 80 q0 86 -145 127q-100 29 -217 29q-119 0 -230 -39q-152 -53 -151 -154q0 -16 6 -35l-113 4q-12 41 -12 101z" />
<glyph unicode="&#x2000;" horiz-adv-x="853" />
<glyph unicode="&#x2001;" horiz-adv-x="1706" />
<glyph unicode="&#x2002;" horiz-adv-x="853" />
<glyph unicode="&#x2003;" horiz-adv-x="1706" />
<glyph unicode="&#x2004;" horiz-adv-x="568" />
<glyph unicode="&#x2005;" horiz-adv-x="426" />
<glyph unicode="&#x2006;" horiz-adv-x="284" />
<glyph unicode="&#x2007;" horiz-adv-x="284" />
<glyph unicode="&#x2008;" horiz-adv-x="213" />
<glyph unicode="&#x2009;" horiz-adv-x="341" />
<glyph unicode="&#x200a;" horiz-adv-x="94" />
<glyph unicode="&#x2010;" horiz-adv-x="716" d="M66 393l86 201h514l-93 -201h-507z" />
<glyph unicode="&#x2011;" horiz-adv-x="716" d="M66 393l86 201h514l-93 -201h-507z" />
<glyph unicode="&#x2012;" horiz-adv-x="716" d="M66 393l86 201h514l-93 -201h-507z" />
<glyph unicode="&#x2013;" horiz-adv-x="1275" d="M20 440q0 188 111 273q-37 35 -37 96q0 113 82 174q74 53 191 53q174 0 260 -129q61 133 202 137v316q0 10 -49 33q-33 16 -32 45q0 51 55 51h241q162 0 162 -174q0 -180 -245 -178v-103q27 -6 43 -22q41 8 65 114q2 12 4 25l2 2l121 -4q6 -78 -16 -121q-16 -31 -78 -88 q45 -51 45 -133q0 -35 -14 -72q123 -63 122 -293q0 -238 -200 -358q-164 -100 -418 -100q-616 0 -617 456zM180 477q0 -256 457 -256q158 0 287 47q174 63 174 187q0 162 -137 182q-29 4 -74 4h-25q-25 -2 -37 -2h-63h-246q-119 0 -225 -8q-111 -33 -111 -154zM332 766h192 q-23 127 -121 127q-61 0 -61 -84q0 -27 -10 -43zM731 770h250q4 12 4 25q0 57 -41 87.5t-100 30.5q-51 0 -83 -45t-30 -98zM963 1253q94 0 94 54q0 61 -76 61h-18v-115z" />
<glyph unicode="&#x2014;" d="M-928 1427q0 109 97 172q84 57 196 58q303 0 303 -225q0 -36 -14 -97h-88q16 53 16 82q0 76 -67 115q-55 33 -136 33q-61 0 -108 -23q-61 -29 -62 -82q0 -63 60 -84l-8 15q-8 43 -9 47q0 61 52 94q43 31 106 31q123 0 123 -146q0 -143 -219 -143q-84 0 -154 35 q-88 43 -88 118zM-647 1430q12 -41 45 -41h10l8 2q6 6 13 14l4 14q2 4 2 11v16l-2 6q-14 20 -37 21q-39 0 -43 -43z" />
<glyph unicode="&#x201a;" horiz-adv-x="1284" d="M20 440q0 188 111 273q-37 35 -37 96q0 113 82 174q74 53 191 53q174 0 260 -129q37 78 89 109t142 31q72 0 139 -37q27 2 52 61q20 45 26 82l121 -4q6 -78 -16 -121q-16 -31 -78 -88q45 -51 45 -133q0 -35 -14 -72q123 -63 122 -293q0 -238 -200 -358 q-164 -100 -418 -100q-616 0 -617 456zM141 1073q-8 162 129 246q115 68 287 67q184 0 305 -57q160 -78 160 -242q0 -28 -8 -59h-101q-12 96 -75 131q-45 25 -152 25h-139q-150 0 -195 -13q-94 -27 -100 -133l-109 -4zM180 477q0 -256 457 -256q158 0 287 47q174 63 174 187 q0 162 -137 182q-29 4 -74 4h-25q-25 -2 -37 -2h-63h-246q-119 0 -225 -8q-111 -33 -111 -154zM332 766h192q-23 127 -121 127q-61 0 -61 -84q0 -27 -10 -43zM731 770h250q4 12 4 25q0 57 -41 87.5t-100 30.5q-51 0 -83 -45t-30 -98z" />
<glyph unicode="&#x201c;" horiz-adv-x="1777" d="M0 59l182 269q-66 45 -106 143q-35 88 -35 176q0 221 158 350q147 119 372 119q68 0 117 -8l115 203l151 -70l-110 -178q96 -29 145 -84q18 41 72 65q47 23 98 23q94 0 141 -72q47 66 144 66q195 0 264 -168q45 -109 45 -330q0 -215 -76 -368q-100 -205 -301 -205 q-240 0 -280 211q-139 -211 -469 -211q-76 0 -190.5 47t-151.5 47q-88 0 -162 -96zM195 629q0 -115 67 -166l285 455h-23q-131 0 -227 -78q-102 -82 -102 -211zM297 233h8q63 0 182 -44t183 -44q154 0 244 100.5t90 256.5q0 133 -74 243q-80 121 -205 146l-96 -150 q88 0 149.5 -71.5t61.5 -161.5q0 -131 -109 -213q-98 -76 -233 -76q-98 0 -185 37zM399 383q37 -25 72 -25q6 0 10 2q-41 21 -57 64zM549 522q0 -29 20.5 -48t48.5 -19q27 0 47.5 20.5t20.5 46.5q0 29 -19.5 49.5t-48.5 20.5t-49 -20.5t-20 -49.5zM979 1264q0 139 102 221 q96 76 238 76q152 0 257 -88.5t105 -237.5q0 -55 -20 -127h-154q23 61 23 111q0 182 -191 182q-57 0 -114 -27q-70 -31 -70 -82q0 -57 37 -65q-12 25 -12 61q0 53 47 84q41 25 96 25q154 0 154 -148q0 -180 -263 -180q-88 0 -157 53q-78 57 -78 142zM1079 883l2 -4 q104 -209 105 -340q0 -106 -27 -201l74 -2q-4 -104 8 -139q25 -68 113 -68q139 0 184 190q23 96 23 302q0 127 -9 167q-23 111 -98 111q-100 0 -92 -180q4 -84 2 -101h-145l4 181q2 117 -68 116q-72 1 -76 -32zM1309 1272q0 -16 14 -17q16 0 16 17q0 16 -14 16 q-16 0 -16 -16z" />
<glyph unicode="&#x201d;" horiz-adv-x="1765" d="M0 59l182 269q-66 45 -106 143q-35 88 -35 176q0 221 158 350q147 119 372 119q70 0 117 -8l131 199l135 -66l-110 -178q96 -29 145 -84q35 78 170 78q100 0 141 -62q43 59 142 60q197 0 266 -164q45 -104 45 -328q0 -215 -76 -368q-100 -205 -301 -205q-240 0 -280 211 q-139 -211 -469 -211q-76 0 -190.5 47t-151.5 47q-88 0 -162 -96zM195 629q0 -115 67 -166l285 455h-23q-131 0 -227 -78q-102 -82 -102 -211zM297 233h8q63 0 182 -44t183 -44q154 0 244 100.5t90 256.5q0 133 -74 243q-80 121 -205 146l-96 -150q88 0 149.5 -71.5 t61.5 -161.5q0 -131 -109 -213q-98 -76 -233 -76q-98 0 -185 37zM346 1165q0 201 174 301q141 80 357 80q184 0 315 -45q199 -68 199 -229q0 -66 -46 -109t-112 -43q-74 0 -114 46t-36 120q-104 14 -235 14q-174 0 -240 -18q-119 -35 -139 -160l-119 -4q-4 27 -4 47z M399 383q37 -25 72 -25q6 0 10 2q-41 21 -57 64zM549 522q0 -29 20.5 -48t48.5 -19q27 0 47.5 20.5t20.5 46.5q0 29 -19.5 49.5t-48.5 20.5t-49 -20.5t-20 -49.5zM1079 883l2 -4q104 -209 105 -340q0 -106 -27 -201l74 -2q-4 -104 8 -139q25 -68 113 -68q139 0 184 190 q23 96 23 302q0 127 -9 167q-23 111 -98 111q-100 0 -92 -180q4 -84 2 -101h-145l4 181q2 117 -68 116q-72 1 -76 -32zM1214 1270q0 -27 25 -27q27 0 27 27q0 26 -25 26q-27 0 -27 -26z" />
<glyph unicode="&#x201e;" horiz-adv-x="1284" d="M20 440q0 188 111 273q-37 35 -37 96q0 113 82 174q74 53 191 53q174 0 260 -129q37 78 89 109t142 31q72 0 139 -37q27 2 52 61q20 45 26 82l121 -4q6 -78 -16 -121q-16 -31 -78 -88q45 -51 45 -133q0 -35 -14 -72q123 -63 122 -293q0 -238 -200 -358 q-164 -100 -418 -100q-616 0 -617 456zM180 477q0 -256 457 -256q158 0 287 47q174 63 174 187q0 162 -137 182q-29 4 -74 4h-25q-25 -2 -37 -2h-63h-246q-119 0 -225 -8q-111 -33 -111 -154zM201 1081q0 164 139 246q113 66 289 66q145 0 258 -41q158 -57 157 -183 q0 -53 -39 -89t-92 -36q-127 0 -120 136q-78 8 -193 8q-139 0 -188 -14q-90 -27 -105 -130h-102q-4 23 -4 37zM332 766h192q-23 127 -121 127q-61 0 -61 -84q0 -27 -10 -43zM731 770h250q4 12 4 25q0 57 -41 87.5t-100 30.5q-51 0 -83 -45t-30 -98zM903 1167q0 -2 2 -6l2 -6 q6 -4 13 -4q2 0 6 2l6 2q4 6 4 12q0 3 -2 7l-2 8q-6 2 -12 2q-16 0 -17 -17z" />
<glyph unicode="&#x2026;" horiz-adv-x="1462" d="M14 459q0 602 596 602q498 0 486 -367l-2 -57q-123 4 -242 4h-27q-33 2 -67 2q-137 2 -195 -16q-125 -39 -125 -217q0 -133 103 -203q88 -59 227 -60q166 0 324 93l49 -119l-8 -4q8 -4 14 -6l-2 882q-2 10 -49 33q-33 16 -33 45q0 51 55 51h260q162 0 162 -174 q0 -180 -246 -178l2 -899q0 -227 -229 -227q-53 0 -104 12v135q43 -20 67 -20q96 0 96 116q0 55 -53 91t-110 36q-33 0 -94.5 -13t-94.5 -13q-254 0 -399 96v-92l-43 -2q-164 -8 -250 162q-68 133 -68 307zM172 453q0 -264 154 -332q-115 104 -115 285q0 113 51 206 q55 104 154 144q-8 2 -45 24q-23 14 -49 15q-76 0 -119 -140q-31 -100 -31 -202zM594 780h338q-39 129 -236 129q-55 0 -67 -45q-18 -66 -35 -84zM1296 887q92 0 93 53q0 61 -78 61q-8 0 -15 -2v-112z" />
<glyph unicode="&#x202f;" horiz-adv-x="341" />
<glyph unicode="&#x2039;" horiz-adv-x="1228" d="M86 920l117 116l403 -403l404 403l116 -116l-403 -404l403 -403l-116 -117l-404 403l-403 -403l-115 117l401 403z" />
<glyph unicode="&#x203a;" horiz-adv-x="1124" d="M74 432v170h981v-170h-981zM422 145q0 57 41 99.5t98 42.5t100.5 -42t43.5 -100q0 -57 -43.5 -98t-100.5 -41t-98 41t-41 98zM422 885q0 57 41 99t98 42t100.5 -42t43.5 -99t-43.5 -98.5t-100.5 -41.5t-98 41t-41 99z" />
<glyph unicode="&#x205f;" horiz-adv-x="426" />
<glyph unicode="&#x2122;" horiz-adv-x="2058" d="M6 440q49 75 162 181q-10 -2 -18 -3q-59 0 -99.5 53.5t-40.5 114.5q0 123 83 202t208 79q209 0 256 -143q201 139 471 139q72 0 170 -16q123 -20 164 -56q88 39 227 39q387 0 375 -346l-2 -59q-102 4 -205 10q-158 4 -252 -14q-129 -27 -159.5 -95.5t-30.5 -136.5 q0 -156 108 -219q84 -49 250 -49q145 0 348 119l7 -607l-807 7q-53 0 -88 29.5t-35 80.5q0 55 30 141h117q-27 -84 -26 -100q0 -29 28 -29q70 0 205 29t205 29q35 0 100.5 -23.5t95.5 -23.5q16 0 33 6l2 239q-115 -43 -256 -43q-233 0 -372 86q-170 102 -170 324 q0 223 163 320q-29 37 -28 92q0 27 -142 53q-113 20 -172 20q-29 0 -159 -30q135 -25 231 -178q86 -139 86 -287q0 -160 -86 -269q-94 -119 -250 -118q-57 0 -117 24q-66 27 -90 72q-70 -98 -221 -98q-96 0 -171 82t-75 178q0 61 35 123l-28 -9zM199 870q0 35 38.5 -34.5 t38.5 -94.5q0 -14 -4 -28q82 70 154 121q0 47 -34 74.5t-83 27.5q-31 0 -67 -18q-43 -20 -43 -48zM221 303q0 -84 109 -84q113 0 123 170q2 31 0 103h165q-12 -53 -12 -99q0 -63 29 -112q33 -59 92 -60q96 0 135 51q35 45 35 146q0 119 -90 209t-207 90q-104 0 -356 -211 l35 -2l26 -88q-84 -45 -84 -113zM1479 760l333 -4q-43 131 -219 131q-70 0 -86 -39q-14 -45 -28 -88z" />
<glyph unicode="&#xe000;" horiz-adv-x="808" d="M0 0v809h809v-809h-809z" />
</font>
</defs>
</svg>
