<?xml version="1.0" standalone="no"?>
<!DOCTYPE svg PUBLIC "-//W3C//DTD SVG 1.1//EN" "http://www.w3.org/Graphics/SVG/1.1/DTD/svg11.dtd" >
<svg xmlns="http://www.w3.org/2000/svg">
<metadata></metadata>
<defs>
<font id="dl-sumudu.plain." horiz-adv-x="1404" >
<font-face units-per-em="2048" ascent="1638" descent="-410" />
<missing-glyph horiz-adv-x="667" />
<glyph horiz-adv-x="2048" />
<glyph horiz-adv-x="2048" />
<glyph unicode="&#xd;" horiz-adv-x="667" />
<glyph unicode=" "  horiz-adv-x="667" />
<glyph unicode="&#x09;" horiz-adv-x="667" />
<glyph unicode="&#xa0;" horiz-adv-x="667" />
<glyph unicode="!" horiz-adv-x="1005" d="M51 936q0 53 24.5 116.5t76 107.5t157.5 65v-187q-18 -2 -37.5 -8t-47 -16t-27.5 -68v-39v-33q0 -14 27.5 -47.5t82.5 -33.5q72 0 91.5 35.5t23.5 60.5q0 23 -31 69l-35 64l-6 39q0 61 61.5 114.5t200.5 53.5q160 0 254.5 -187.5t94.5 -334.5q0 -227 -84 -443.5 t-224 -240.5q-45 -6 -100 -13.5t-90 -7.5q-84 0 -146.5 23.5t-108.5 82t-77 128.5q-6 18 -16.5 60t-10.5 93l7 82h178q0 -113 33.5 -198t130.5 -85q125 0 198.5 136.5t73.5 298.5q0 164 -41 305t-98 141l-19 -6q-25 -12 -24 -39q0 -20 24 -74l31 -69q10 -98 -71 -186.5 t-191 -88.5h-25q-102 10 -147 45q-45 39 -80 121q-33 88 -33 164z" />
<glyph unicode="&#x22;" horiz-adv-x="434" d="M61 131q0 59 42 107.5t106 48.5q70 0 117 -44t47 -132q0 -106 -59.5 -193.5t-176.5 -87.5l53 92l31 84l-35 -6q-45 0 -86 35q-39 39 -39 96z" />
<glyph unicode="#" horiz-adv-x="407" d="M45 160q0 68 48 116t116 48q66 0 115 -48t49 -116q0 -70 -47 -117t-117 -47t-117 49t-47 115zM45 1077q0 70 47 117t117 47q66 0 115 -48t49 -116t-48.5 -116t-115.5 -48q-70 0 -117 49.5t-47 114.5zM117 1079q0 -37 24.5 -61.5t61.5 -24.5q33 0 60.5 25.5t27.5 60.5 t-26.5 61.5t-61.5 26.5t-60.5 -25.5t-25.5 -62.5zM119 160q0 -35 26.5 -61.5t61.5 -26.5q37 0 61.5 24.5t24.5 63.5q0 37 -24.5 61.5t-61.5 24.5q-33 0 -60.5 -25.5t-27.5 -60.5z" />
<glyph unicode="$" horiz-adv-x="688" d="M94 -2l324 1638h196l-323 -1638h-197z" />
<glyph unicode="%" horiz-adv-x="0" d="M-1251 -66q0 39 12 80h137q0 -139 129 -182t314 -43q158 0 296 55.5t138 159.5v19h137q14 -35 14 -80q0 -156 -184 -268.5t-401 -112.5q-246 0 -419 109.5t-173 262.5z" />
<glyph unicode="&#x26;" horiz-adv-x="600" d="M-129 1632h227q115 -125 201 -243q88 -113 153.5 -245t84.5 -241l22 -168l6 -129q0 -119 -30 -297q-16 -94 -36 -163.5t-46.5 -133t-59.5 -126t-69.5 -118t-80.5 -116t-102 -131.5h-219q119 152 195 325q35 80 61.5 156t46.5 154q35 135 43 209.5t10.5 109.5t2.5 109 q0 113 -19 241q-8 72 -22.5 133.5t-42.5 137.5q-45 137 -123 268q-70 121 -203 268z" />
<glyph unicode="'" horiz-adv-x="403" d="M59 143q0 61 43 104.5t105 43.5q59 0 104 -43.5t45 -104.5t-43 -104t-106 -43q-61 0 -104.5 43t-43.5 104z" />
<glyph unicode="(" horiz-adv-x="401" d="M72 205q0 76 59 110q16 8 30.5 12.5t35.5 4.5q74 0 100.5 -47t26.5 -78q0 -61 -42 -95t-85 -34q-63 0 -99 47q-27 33 -26 80zM80 889q0 84 51 108q27 10 43 15.5t33 7.5q86 0 110 -51q10 -25 15.5 -40.5t7.5 -33.5q0 -86 -51 -111q-43 -18 -78 -22q-86 0 -119 78 q-12 25 -12 49z" />
<glyph unicode=")" horiz-adv-x="974" d="M119 424v205h704v-205h-704z" />
<glyph unicode="*" horiz-adv-x="1495" d="M35 637q0 242 113.5 414t295.5 172q133 0 211 -72t105 -186q18 119 100 192.5t225 73.5q215 0 295 -205t80 -496q0 -139 -49 -251.5t-129 -182t-176 -86.5q-47 -6 -105.5 -10t-134.5 -4v158q131 0 199 19.5t132.5 93t64.5 265.5q0 186 -44 309.5t-149 123.5 q-135 0 -166 -129l-16 -127v-322l-80 -2h-76l-39 2h-24v332q0 94 -38 175t-167 81q-133 0 -169 -122t-36 -304q0 -121 22.5 -188.5t63.5 -115.5t113.5 -66.5t197.5 -18.5v-160q-188 0 -274 25.5t-156 78.5q-68 47 -121 168q-45 113 -63 273z" />
<glyph unicode="+" horiz-adv-x="0" d="M-561 -258q0 119 147 147l-123 123l183 191v-191l53 -53q27 -31 76 -70q-86 -37 -86 -104q0 -31 25.5 -49.5t82.5 -18.5q111 0 140 37q18 31 40 148h138l2 -31l2 -27q0 -164 -88 -218t-152 -68q-31 -6 -61.5 -10.5t-63.5 -4.5q-88 0 -162.5 24.5t-113.5 73t-39 101.5z " />
<glyph unicode="," horiz-adv-x="1513" d="M39 455q0 72 24.5 209t113.5 256.5t178 183t184 92.5q41 12 83 23.5t70 15.5l121 8q133 0 255 -44t201 -112.5t117.5 -177t38.5 -202.5t-22.5 -164t-50.5 -111l-66 -86q-35 -47 -156 -90q-74 -27 -157 -27q-59 0 -102.5 8.5t-98.5 32.5q-90 39 -145 119q-49 80 -49 170 q0 55 18 117h-90v196h608v-180h-340q4 -31 6 -45t12.5 -48t60.5 -64.5t124 -30.5q117 0 192.5 73.5t75.5 176.5v24q-12 121 -119.5 205t-296.5 84q-141 0 -283.5 -93t-179 -213t-49 -174.5t-12.5 -117.5q0 -72 15.5 -132.5t60.5 -156.5t143.5 -177t186.5 -93q49 -6 81.5 -10 t63.5 -4q109 0 204 35.5t150.5 110.5t72.5 114t17 149h168q0 -63 -2 -90t-15 -81t-58 -147t-120 -155.5t-171 -101.5q-63 -25 -160 -41q-41 -6 -82 -10.5t-80 -4.5q-55 0 -138 13.5t-152.5 36t-177 105.5t-175 205t-80.5 218l-16 131z" />
<glyph unicode="-" horiz-adv-x="817" d="M174 455v196h455v-196h-455z" />
<glyph unicode="." horiz-adv-x="1460" d="M29 590v61l2 76q0 84 30.5 174t78.5 154.5t109.5 115t172.5 70.5h172v-137l-88 -2q-35 0 -48.5 -3t-39.5 -14q-45 -18 -77 -40.5t-69 -77.5q-12 -20 -23 -44t-25.5 -65t-14.5 -108v-127q0 -23 2 -52.5t11 -74.5t40 -96.5t88 -84.5q31 -16 65 -24t87 -8q74 0 134 24.5 t94 81.5t34 135q0 55 -23.5 93t-85.5 51v-111h-149v209v45.5t4 52.5q0 49 45 153.5t137 164t279 59.5q190 0 306 -129t134 -276l19 -164l2 -47q0 -33 -2.5 -68t-7.5 -69.5t-14 -82t-28 -110.5q-31 -121 -165 -209t-324 -88v152h39h26q18 4 25 4q31 6 72 25.5t106.5 78.5 t65.5 227v41q0 84 -6 133q0 39 -27 109q-18 63 -59 113q-35 47 -93.5 70.5t-107.5 23.5q-70 0 -125 -31q-49 -31 -72.5 -61.5t-36.5 -83.5q61 0 99 -11q41 -8 84 -50t62.5 -98t19.5 -132q0 -82 -13.5 -149.5t-54.5 -143.5t-144.5 -144.5t-248.5 -68.5q-137 0 -281.5 103.5 t-167.5 244.5l-22 185z" />
<glyph unicode="/" horiz-adv-x="2093" d="M31 594q0 145 30.5 230t87 171t130 133.5t138 75t115.5 37.5l93 23l90 26l78 31q47 18 97 58t50 128h309q-39 -162 -129 -204.5t-264 -77.5q70 0 163 -38t177 -109.5t127 -190.5t43 -252q0 -63 -3 -87t-13 -71q-12 -78 -57.5 -167t-173.5 -198.5t-353 -109.5l-43 -2 q-111 0 -245 31.5t-226 105.5t-156.5 200t-64.5 257zM246 649q0 -176 140 -269t333 -93q170 0 308 105t138 267q0 180 -121.5 309.5t-308.5 129.5q-236 0 -362.5 -125t-126.5 -324zM1323 1354v157l406 -4v-147q-35 -82 -58 -152l-37 -137l-22 -170l-8 -166v-54.5t4 -64.5 l8 -129q6 -61 43 -110q18 -20 41.5 -32.5t52.5 -12.5q47 0 77 31.5t42 91.5l12 75l6 86l-4 72h170v-84v-67v-48q-4 -27 -4 -36q0 -45 -24 -129q-18 -76 -59.5 -141.5t-112 -103.5t-136.5 -38q-41 0 -81 15.5t-91 53t-88 105.5q-31 66 -48 168t-17 192q0 86 12 173l33 206 q18 127 57 242l47 154z" />
<glyph unicode="0" horiz-adv-x="1189" d="M45 815q0 377 150.5 598t398.5 221q244 0 395.5 -220t151.5 -599q0 -377 -149.5 -598t-397.5 -221q-244 0 -396.5 221t-152.5 598zM346 815q0 -166 18.5 -280.5t61.5 -229.5t166 -115q121 0 164 112t67.5 234.5t24.5 278.5q0 168 -23 272q-10 55 -26.5 115t-38.5 119 q-43 121 -168 121q-119 0 -174 -142q-29 -76 -51 -202q-8 -55 -14.5 -131t-6.5 -152z" />
<glyph unicode="1" horiz-adv-x="874" d="M45 -4v190q129 0 180 43t51 148v794q0 117 -38 150q-41 41 -193 41v160h66h24q74 0 136.5 12t93.5 39l61 61h164v-1257q0 -104 49 -147.5t190 -43.5v-190h-784z" />
<glyph unicode="2" horiz-adv-x="1169" d="M59 1176q0 188 104.5 290.5t200 135t197.5 32.5q117 0 210 -30.5t196.5 -130t103.5 -322.5q0 -197 -110.5 -344.5t-252 -278.5t-307.5 -247h304q102 0 149 36.5t72 102.5l39 106l145 -63l-82 -463h-942l-25 260l232 186l158 144q63 61 172.5 218t109.5 359q0 127 -53 195 t-148 68l-92 -7q-31 -2 -72.5 -34.5t-41.5 -90.5l22 -63q25 -53 25 -111q0 -72 -41 -125q-43 -47 -113 -47q-74 0 -119 60q-41 59 -41 164z" />
<glyph unicode="3" horiz-adv-x="1159" d="M45 399q0 90 41 143.5t115 53.5q66 0 104 -51q43 -49 43 -125q0 -29 -8 -55l-8 -35q0 -49 55 -82t139 -33q55 0 105.5 25.5t79.5 64.5q14 18 24 37.5t23 48.5q14 51 14 121q0 66 -20 113q-16 45 -71.5 101t-184.5 56h-41h-43v209l18 -2l57 -2q113 0 162 50t61.5 80 t22.5 95q2 10 2 29q0 27 -14 61.5t-56 81t-130 46.5q-68 0 -119 -36t-51 -83l12 -54q12 -43 12 -77q0 -61 -42 -106.5t-105 -45.5q-70 0 -115 51q-39 59 -39 148q0 168 136 287.5t345 119.5q215 0 349.5 -117.5t134.5 -312.5q0 -51 -10.5 -90t-17.5 -53t-26 -43 q-49 -80 -149 -129q133 -43 200.5 -136.5t67.5 -240.5q0 -223 -165 -369.5t-433 -146.5q-205 0 -340 115.5t-135 287.5z" />
<glyph unicode="4" horiz-adv-x="1189" d="M45 588q176 262 313 489q72 119 154 263.5t164 293.5h282v-991h177l2 -235h-179v-80q0 -76 33 -111q35 -31 115 -31h12v-190h-631v190q92 8 126 44t34 102v76h-541zM291 643h360v606l-88 -168l-80 -137l-80 -133q-39 -63 -112 -168z" />
<glyph unicode="5" horiz-adv-x="1429" d="M45 356q0 86 41 140.5t109 54.5t114 -49q43 -49 43 -133l-4 -45l-2 -35q0 -37 33 -72q35 -25 92 -24q55 0 103.5 24.5t82.5 73.5q29 47 45 106q6 31 10.5 67t4.5 85q0 76 -21 123q-8 25 -21 50.5t-36 59.5q-59 84 -156 84q-72 0 -131 -51q-63 -43 -110 -145l-140 47 l17 311l10 512h555q53 0 82 21l22 28l21 45h137l-49 -352h-606l-8 -174l-9 -141q78 55 154 80q16 6 63.5 16t94.5 10q211 0 334.5 -139t123.5 -381q0 -244 -142 -398.5t-384 -154.5q-217 0 -345 96.5t-128 259.5z" />
<glyph unicode="6" horiz-adv-x="1550" d="M45 825q0 205 42 336t166 302t423 171q94 0 154.5 -19.5t149.5 -88t89 -195.5q0 -84 -33 -129q-39 -45 -106 -45q-63 0 -96 33q-25 31 -54 151q-6 61 -36.5 86t-86.5 25q-129 0 -214 -136t-85 -360v-12q70 61 156 96q43 16 81 24.5t83 8.5q205 0 327.5 -144.5 t122.5 -371.5q0 -125 -47 -237.5t-160.5 -216t-363.5 -103.5q-131 0 -228.5 64.5t-167 173t-93.5 243.5q-10 61 -16.5 149.5t-6.5 194.5zM377 516q0 -135 59.5 -215t157.5 -80q100 0 155.5 79.5t55.5 231.5t-53.5 235t-153.5 83q-104 0 -162.5 -88t-58.5 -246z" />
<glyph unicode="7" horiz-adv-x="1218" d="M61 1137l62 497h1024l22 -270q-125 -170 -215 -328q-39 -72 -77.5 -158.5t-73.5 -179.5q-57 -164 -96 -348q-16 -92 -24.5 -175t-8.5 -179l-342 4q0 168 37 330t116 327q39 86 84 166t101 170q109 180 250 344h-504q-96 0 -140.5 -45t-82.5 -178z" />
<glyph unicode="8" horiz-adv-x="1165" d="M45 469q0 135 56.5 224t172.5 143q-45 27 -75.5 60.5t-61.5 92t-31 174.5q0 213 142.5 345t369.5 132q190 0 316.5 -114.5t126.5 -290.5q0 -98 -41 -178t-129 -144q59 -33 105 -73.5t89 -112.5q20 -35 30.5 -86t10.5 -127q0 -229 -148.5 -371.5t-399.5 -142.5 q-246 0 -389.5 128t-143.5 341zM285 471q0 -115 75.5 -187.5t214.5 -72.5q119 0 193 55q72 62 72 158q0 109 -328 274l-66 31q-37 -18 -69 -51l-53 -60q-39 -74 -39 -147zM399 1274q0 -109 299 -256q12 8 27.5 18.5t30.5 22.5q23 18 49 58t26 108q0 92 -62 153.5t-171 61.5 q-90 0 -131 -35t-54.5 -61.5t-13.5 -69.5z" />
<glyph unicode="9" horiz-adv-x="1165" d="M39 1077q0 254 148.5 405.5t398.5 151.5q254 0 396 -206.5t142 -579.5q0 -412 -158.5 -632t-455.5 -220q-180 0 -296 91t-116 218q0 80 40 127t104 47q61 0 93 -41t49 -126t42 -107q35 -20 84 -21q135 0 217 133q41 70 61.5 158t20.5 209v8q-76 -66 -156 -100 q-78 -31 -164 -31q-197 0 -323.5 145.5t-126.5 370.5zM367 1100q0 -152 56 -235t157 -83q100 0 157.5 86.5t57.5 225.5q0 152 -55.5 236.5t-155.5 84.5q-104 0 -160.5 -84t-56.5 -231z" />
<glyph unicode=":" horiz-adv-x="1449" d="M35 551q0 170 75.5 278.5t135 128t96.5 19.5l107 4h106v-139q-178 0 -241.5 -51.5t-63.5 -233.5q0 -88 63.5 -153.5t147.5 -94.5q90 -27 213 -26q109 0 203 20q100 18 165 70q66 47 112 113.5t58 131.5l11 107q0 123 -38 239.5t-93 184.5q-55 -68 -144.5 -98.5 t-216.5 -30.5q-104 0 -184 43q-70 41 -109 104q-31 59 -30 127q0 59 24 121h-139v146h96l98 2q301 0 431 -41q135 -37 242.5 -141.5t182 -290t74.5 -400.5v-84l-8 -53q-31 -248 -161 -369t-275.5 -153.5t-272.5 -32.5q-162 0 -299 52t-214.5 122t-114.5 170t-37 209z M608 1309q0 -31 14.5 -58.5t55.5 -58.5q35 -23 108 -23q63 0 115.5 25t77.5 84q-74 133 -340 133l-25 -57z" />
<glyph unicode=";" horiz-adv-x="1632" d="M72 434v150l217 200q-35 -12 -62 -12q-63 0 -99 47t-36 127q0 96 80 187.5t217 91.5q78 0 138.5 -19.5t97.5 -68.5l49 30l53 25q57 23 143 39q80 12 156 12l37 -2l117 -12q98 -8 221 -127t141 -201q8 -37 17.5 -98.5t11.5 -83.5q12 -98 12 -182q0 -100 -22 -181 q-18 -80 -85 -180t-181.5 -136t-303.5 -36v143l117 7q47 6 97 34.5t88 67.5t57 111q8 35 12 68.5t4 80.5q0 74 -8 126t-33 118q-37 109 -107.5 147.5t-120.5 51t-104 12.5q-27 0 -55.5 -2t-58.5 -8q-57 -6 -91 -23l-61 -23h50.5t45.5 -4q29 0 80 -22.5t83 -62.5t55.5 -96 t36 -117.5t12.5 -123.5v-53l-9 -55q0 -29 -29.5 -107.5t-78.5 -130.5q-45 -51 -123 -86q-70 -29 -160 -45l-108 -12h-37q-127 0 -205 29.5t-121 70.5t-67 88q-23 51 -23 115q0 78 39 131h-96zM199 528l90 2q-12 -35 -13 -63q0 -82 86 -137q90 -51 203 -51q174 0 252 76.5 t78 172.5q0 152 -71.5 224.5t-200.5 72.5q-18 0 -44 -2t-55 -8zM248 993l24 2q25 0 41 -10q12 -4 29 -24q14 -12 18 -29q6 -12 7 -29v-16l-5 -15q23 31 29 39q23 29 49 54q18 16 35 30.5t25 18.5q-6 25 -25.5 50.5t-77.5 25.5l-59 -9q-35 -6 -54.5 -28.5t-35.5 -59.5z" />
<glyph unicode="&#x3c;" horiz-adv-x="1509" d="M25 356q0 86 22 176q12 47 26.5 91.5t32.5 83.5q37 74 162 186q0 172 100.5 261t237.5 89q39 0 62.5 -4t50.5 -18q47 -23 67 -76q23 47 68 70.5t100 23.5q37 0 55.5 -2t51.5 -14q49 -12 140 -82t91 -312h-841q-25 -55 -25 -124q0 -100 45 -190.5t109 -127.5 q55 -31 108 -47q33 -6 49.5 -8t53.5 -2q45 0 84.5 6t82.5 22q78 29 109 74q16 23 25.5 40t25 59t15.5 92h159q0 -94 -43 -194.5t-114 -166.5q-63 -57 -166 -90q-102 -27 -193 -27q-47 0 -121.5 11.5t-127 43t-113.5 93.5q-117 117 -117 297q-39 -88 -39 -184 q0 -141 59.5 -257t184.5 -189t252 -73q156 0 274.5 41t181 126t80.5 136q16 55 17 134h163q0 -104 -36.5 -230.5t-122.5 -230.5q-74 -86 -222.5 -147.5t-295.5 -61.5q-90 0 -164 8t-131 27q-109 33 -209.5 104.5t-153.5 156.5t-84 197q-10 45 -18 105.5t-8 103.5zM465 969 l254 2q0 51 -32 86t-107 35q-47 0 -88 -43q-33 -39 -27 -80zM848 971l227 -2q0 47 -29.5 82.5t-91.5 35.5q-49 0 -77.5 -34.5t-28.5 -81.5z" />
<glyph unicode="=" horiz-adv-x="0" d="M-580 -145q0 70 31 138t80 97t135 53v-137q-37 -14 -57.5 -45t-20.5 -63q0 -55 51.5 -93t149.5 -38t133 53q16 27 24.5 61.5t8.5 89.5h139q0 -131 -28.5 -208.5t-107.5 -138t-198 -60.5t-196 51q-82 49 -113 109.5t-31 130.5z" />
<glyph unicode="&#x3e;" horiz-adv-x="1445" d="M35 502q0 63 20 137l39 106q14 33 49 70h-98v148h117q-25 35 -25 71q0 47 43 101.5t107 74.5q29 8 65.5 14.5t71.5 6.5q57 0 121 -21q68 -18 123 -84.5t55 -162.5q18 100 62 160.5t96 78.5l84 27l77 8q100 0 168 -31.5t116 -100.5t48 -151l-2 -30h-139q0 76 -50 118.5 t-134 42.5q-147 0 -172 -122h282l51 -25q29 -12 58 -41q53 -47 90 -125q12 -31 23.5 -68.5t18.5 -87t8 -68.5t1 -44q0 -55 -4 -85t-19 -106q-18 -121 -115 -215t-237 -94q-137 0 -209.5 67.5t-72.5 166.5l2 45q4 23 60 90t56 94q0 18 -25.5 60t-99.5 42h-18q-31 0 -55 -16 q-23 -10 -38.5 -33.5t-19.5 -50.5q0 -23 40 -92.5t40 -102.5q0 -123 -63 -198q-31 -35 -88.5 -55.5t-136.5 -20.5q-133 0 -227.5 88t-119 218t-24.5 196zM217 518q0 -76 25 -137q25 -53 71 -78q20 -8 47 -14t54 -6q49 0 86 12t51 45q12 25 -62.5 75t-74.5 109q0 92 88 135 q43 20 97 30.5t128 10.5q143 0 232.5 -34.5t89.5 -118.5v-17q-6 -68 -75 -114.5t-63 -67.5q14 -41 48 -52t96 -11q76 0 123 70.5t53 125.5l6 78q0 100 -47 174q-41 72 -84 78l-59 6h-21l-16 -2h-545l-31 2l-49 -6q-25 -2 -70 -35t-63 -71q-8 -20 -12 -34t-15 -53zM367 1104 q20 -20 34 -55l5 -31q0 -25 -25 -55h190q0 35 -16 59q-12 27 -43 55.5t-109 28.5z" />
<glyph unicode="?" horiz-adv-x="2093" d="M31 594q0 145 30.5 230t87 171t130 133.5t138 75t115.5 37.5l93 23l90 26l78 31q47 18 97 58t50 128h309q-39 -162 -129 -204.5t-264 -77.5q70 0 163 -38t177 -109.5t127 -190.5t43 -252q0 -63 -3 -87t-13 -71q-12 -78 -57.5 -167t-173.5 -198.5t-353 -109.5l-43 -2 q-111 0 -245 31.5t-226 105.5t-156.5 200t-64.5 257zM246 649q0 -176 140 -269t333 -93q170 0 308 105t138 267q0 180 -121.5 309.5t-308.5 129.5q-236 0 -362.5 -125t-126.5 -324zM1307 1360v151h333v-172l-90 -67l-67 -43h168v-158q-49 -123 -61.5 -233.5t-12.5 -204.5 v-42.5t4 -43.5l14 -90q8 -47 43 -95.5t105 -48.5q111 0 131 129t20 242h158l6 -53l2 -68q0 -88 -8 -160q0 -33 -4 -57t-27 -100q-18 -78 -95 -147.5t-189 -69.5q-88 0 -134.5 25.5t-88 76.5t-66.5 117q-16 53 -33 147q-12 117 -12 201l2 111l14 106q4 43 11 88q10 33 12 47 q10 49 15 67.5t26 76.5h-172v182l63 41l78 45h-145z" />
<glyph unicode="@" horiz-adv-x="972" d="M37 926q0 133 131 222t319 89q213 0 332 -88t119 -242q0 -113 -57.5 -188.5t-166 -126.5t-124.5 -80q-18 -25 -19 -82v-57h-165v127l2 57l16 47q10 27 55 72l49 45q109 90 109 192q0 86 -49 136q-25 23 -62 37t-77 14q-61 0 -112.5 -32t-51.5 -73l14 -39l8 -36l2 -23 q0 -55 -36.5 -91t-96.5 -36q-59 0 -100 39q-39 43 -39 117zM330 143q0 68 43 111t106 43q68 0 109 -47q20 -20 32.5 -47t12.5 -60q0 -61 -44 -105t-110 -44q-37 0 -57.5 7t-48.5 36q-43 43 -43 106z" />
<glyph unicode="A" horiz-adv-x="0" d="M-487 1405v231h194v-65l27 47q17 24 61 24h4h37q37 0 54.5 -7t35.5 -31q12 -16 21 -54l6 -65q0 -78 -20.5 -110t-59.5 -46q-18 -6 -36.5 -10t-41.5 -4q-53 0 -84 24v-98h-133v164h-65zM-291 1444q16 -27 53 -27q52 0 52 53q0 20 -15.5 33t-38.5 13h-51v-72z" />
<glyph unicode="B" horiz-adv-x="1460" d="M39 594q0 145 30.5 230t87 171t130 133.5t138 75t116.5 37.5l92 23l90 26l78 31q47 18 97 58t50 127h309q-39 -162 -129 -204t-264 -77q70 0 163 -38t177 -109.5t127 -190.5t43 -252q0 -63 -3 -87t-13 -71q-12 -78 -57.5 -167t-173.5 -198.5t-353 -109.5l-43 -2 q-111 0 -245 31.5t-226 105.5t-156.5 200t-64.5 257zM254 649q0 -176 140.5 -269t332.5 -93q170 0 308.5 105t138.5 267q0 180 -122 309.5t-309 129.5q-236 0 -362.5 -125t-126.5 -324zM285 1393q0 55 37.5 99t107.5 44q57 0 100 -41q43 -36 43 -104q0 -29 -6 -49.5 t-22 -38.5q-25 -31 -55.5 -44.5t-61.5 -13.5q-53 0 -98 39t-45 109zM1266 1386q0 80 65 125q16 10 35.5 16.5t42.5 6.5q78 0 125 -68q10 -16 16 -35t6 -42q0 -80 -53 -114t-92 -34q-80 0 -123 68q-10 16 -16 35.5t-6 41.5z" />
<glyph unicode="C" horiz-adv-x="1179" d="M49 948q0 94 66.5 171t134.5 85l82 6l45 2q51 0 82 -10q37 -6 67 -35q35 -27 56.5 -50t35.5 -58q82 78 246 127q76 23 139.5 35t110.5 12q109 0 175.5 -11t127.5 -48l-55 -82q-8 -16 -16.5 -32t-26.5 -40q-82 39 -199 39q-74 0 -135 -10.5t-135 -36.5q-131 -47 -166 -115 q211 0 314.5 -74.5t123.5 -199.5q6 -41 13.5 -92.5t7.5 -88.5q0 -51 -8 -86q-4 -31 -9.5 -50t-19.5 -64q-20 -72 -70.5 -134.5t-125 -86t-115.5 -23.5q-61 0 -102.5 29.5t-61.5 62.5l-37 78q-18 -70 -68.5 -112t-119.5 -48q-106 0 -178 74t-72 170l4 37l-97 -2v205l220 266 l-54 -8q-47 0 -85 22.5t-68 69.5q-27 53 -27 106zM172 446q4 -4 12.5 -6t26.5 -2l65 2l17 -2l6 -6l-10 -59q0 -39 24.5 -65.5t83.5 -26.5q86 0 105.5 59t19.5 190h162q0 -141 16.5 -192t87.5 -51h29q72 0 114 57.5t42 151.5l-2 59q0 20 -13.5 71.5t-57.5 95.5t-109 56h-207 h-97zM211 979l43 6q49 0 70.5 -35t21.5 -82q0 -51 -22 -73l153 182q0 16 -9 30.5t-29.5 34t-40 25.5t-68.5 6q-88 0 -119 -94z" />
<glyph unicode="D" horiz-adv-x="708" d="M8 305q0 33 4 60.5t19 74.5q25 80 104.5 165t247.5 85h39l63 -8v27l2 41q0 131 -30.5 244.5t-116.5 113.5q-80 0 -134 -43t-54 -164h-23h-25h-30h-27l-20 4q-2 10 -2 31q0 94 73 192q88 113 252 113q203 0 260 -176q29 -90 43.5 -200.5t14.5 -254.5v-610h-95h-30l-45 4 q2 16 2 23q0 33 -25 36l-108 -45q-47 -18 -86 -18h-25q-127 14 -187.5 104.5t-60.5 200.5zM221 338q0 -74 20.5 -132.5t57.5 -70.5q12 -6 37 -6q51 0 95 34t44 116q0 147 -32.5 205.5t-86.5 58.5l-53 -8q-33 -6 -59 -66q-10 -25 -16.5 -58.5t-6.5 -72.5z" />
<glyph unicode="E" horiz-adv-x="649" d="M4 326v62.5t8 66.5t47 113.5t84 123.5l115 105h-192v116l192 117h-205v160h484l4 -109l-4 -37l-205 -122h200v-125q-133 -18 -217 -133q-31 -47 -47 -93.5t-16 -95.5l2 -51l8 -76q6 -51 29.5 -89t50.5 -54q25 -10 55 -15q59 0 75.5 32t16.5 69t-4 49q0 16 -6 29h131 q8 -12 17.5 -39t9.5 -74q0 -76 -25.5 -148.5t-60.5 -97t-98.5 -49t-118.5 -24.5q-61 0 -113.5 22.5t-99.5 63.5q-41 43 -82 124q-35 82 -35 179z" />
<glyph unicode="F" horiz-adv-x="1042" d="M39 475v86l209 201q-27 -10 -40 -13.5t-32 -3.5q-57 0 -97 38t-40 114q0 72 62.5 168t187.5 96q88 0 131 -22.5t88 -96.5q59 61 90 82l53 33q61 37 148.5 55.5t173.5 18.5q88 0 161.5 -12.5t147.5 -40.5q138 -51 156 -129l-80 -19l-62 -20q-47 20 -113.5 32.5 t-138.5 12.5q-133 0 -206.5 -27t-121.5 -59.5t-73 -79.5q53 0 78 -8l67 -19q41 -8 91 -57q47 -41 69 -92q6 -14 18.5 -56.5t16.5 -58.5q16 -72 16 -135q0 -88 -22 -158q-20 -74 -108.5 -183.5t-293.5 -109.5l-90 -6q-135 0 -262 70q-53 23 -94 85t-41 126q0 70 55 129z M141 535l97 -64l-5 -31q0 -68 71 -112.5t183 -44.5q166 0 247 68t81 177q0 147 -89 213t-212 66l-63 -6zM199 987l2 -14q51 -6 71.5 -38t20.5 -71q0 -33 -4 -43l-6 -22l129 129q0 29 -12.5 62.5t-55.5 45.5l-51 11q-61 0 -94 -60z" />
<glyph unicode="G" horiz-adv-x="1503" d="M29 504q0 90 13 170t56 163t135.5 158.5t274.5 75.5h37l39 -4l2 -135q-141 0 -228.5 -62.5t-112 -143.5t-24.5 -159q0 -88 27.5 -152.5t85.5 -99.5q31 -16 56.5 -24t55.5 -8q72 0 125.5 45t59.5 88l4 63l2 53l-2 62v65h205q0 -154 13 -220t63.5 -109t119.5 -43l62 4 q39 6 93 67.5t75 153.5q12 61 12 131q0 123 -35 227q-31 109 -100 201v-8q0 -50 -70 -111q-76 -67 -135 -67l-55 -4q-51 0 -86 11t-76 46t-70 90q-26 57 -26 115q0 31 2 45t17 53t15 72q0 20 -10 53l-12 51l-102 86l83 111q92 -41 167 -78t139 -74q135 -76 241.5 -162 t168 -182t100.5 -232t39 -286q0 -70 -6.5 -129t-22.5 -125q-25 -119 -99.5 -202t-153.5 -118.5t-181 -35.5q-27 0 -53.5 2t-49.5 8q-37 6 -78 31q-33 25 -47 47l-37 88q-33 -59 -57 -85t-87.5 -52.5t-154.5 -26.5q-51 0 -103 12.5t-112.5 50t-103.5 100t-72 144.5 q-26 83 -26 187v8zM780 1176q0 -39 15.5 -64t58.5 -43l43 -8q49 0 82 29.5t33 70.5q0 37 -34 71t-85 62l-59 37l-37 -69q-16 -39 -17 -86z" />
<glyph unicode="H" horiz-adv-x="1200" d="M37 141v80q0 84 10 117q8 37 41 94t117 123t128 117t70 114q16 41 21.5 68t5.5 51l-8 60q-6 35 -30.5 71.5t-67.5 36.5l-39 -6q-23 -2 -44.5 -17.5t-21.5 -56.5q86 0 104.5 -48t18.5 -66q0 -43 -39 -80q-39 -33 -92 -33q-37 0 -72 14q-27 14 -59 62q-6 12 -16.5 39.5 t-10.5 62.5v25l8 65q6 47 76 111.5t164 64.5q90 0 156 -39q66 -35 96 -116l29 -76q10 -35 10 -76q0 -164 -20.5 -235.5t-55.5 -119.5t-88 -89l-78 -66l-63 -53q-12 -16 -13 -51q63 24 109 24h4l68 -6l147 -18l98 -8q84 0 149.5 24.5t105.5 75.5t40 131q0 45 -18.5 97.5 t-45 77t-77.5 36.5l-102 14l-105 4h-24l-2 158l2 49q0 23 14 74l25 80q12 23 40.5 48.5t83 42.5t99.5 17q78 0 131 -36q53 -33 79.5 -99.5t26.5 -138.5l-6 -64l-135 -4l4 41q0 68 -28.5 114t-94.5 46q-47 0 -71 -45q-20 -47 -21 -109l4 -51h125q94 -12 160 -84 q66 -66 84 -133l18 -98l4 -72q0 -80 -18.5 -155.5t-61.5 -137t-83.5 -90t-106.5 -51.5l-109 -31q-41 -8 -59 -9t-29 -1q-14 0 -39.5 2t-57.5 7t-55.5 8.5t-66.5 15.5t-87 48t-103 36q-41 0 -64 -23q-18 -25 -18 -49l4 -33l-166 2l-6 66z" />
<glyph unicode="I" horiz-adv-x="1495" d="M39 514q0 80 43 178q53 123 160 189q-47 33 -62.5 61.5t-15.5 77.5q0 86 82 152.5t168 66.5q141 0 227 -56.5t102 -203.5q12 72 55.5 141.5t118 94t154.5 24.5q109 0 189 -47q80 -43 99 -110.5t19 -98.5q0 -51 -16 -78q-12 -27 -47 -53q59 -51 95 -132t36 -181 q0 -47 -13.5 -133.5t-83 -169t-169 -136t-148.5 -69.5l-125 -25q-82 -10 -141 -10l-125 4l-102 6q-41 0 -102.5 17.5t-159 73t-153.5 133t-81 237.5q-4 29 -4 47zM221 580q0 -45 11.5 -76t54.5 -94q43 -57 170 -93t297 -36q150 0 263 27.5t166.5 80.5t72 108.5t18.5 102.5 q0 29 -4 43q0 23 -15 53q-8 31 -36 62q-25 31 -76 49l-51 -51q-25 -23 -72 -47q51 -6 79.5 -39t28.5 -90l-4 -48q-2 -23 -34.5 -55.5t-85 -55t-113.5 -32.5l-137 -6q-35 0 -69 2t-67.5 8t-64.5 14.5t-61 20.5q-53 25 -86 55.5t-33 77.5q0 63 42 109.5t83 56.5l67 8l82 2 l109 -2h100l62 33l81 63h-260h-268q-37 0 -89 -19t-87 -58t-54.5 -82t-19.5 -92zM440 971h148q2 7 2 16q0 21 -14 47q-20 38 -52 49l-47 15q-13 0 -29 -10q-9 -6 -10 -18q0 -7 4 -15q12 -18 13 -35q0 -20 -15 -49zM596 569q0 -43 60.5 -56t103.5 -13q68 0 110.5 12t42.5 61 q0 37 -48 51.5t-107 14.5q-72 0 -117 -11.5t-45 -58.5zM897 967h272q2 8 2 22q0 35 -28 70q-35 43 -117 43q-51 0 -94 -43q-35 -37 -35 -92z" />
<glyph unicode="J" horiz-adv-x="1093" d="M20 582h101q6 -37 43 -37q43 0 106.5 46t102.5 105.5t65 134.5q10 33 21.5 64t25.5 59l-8 25q0 14 -17.5 34.5t-39.5 30.5l-43 7q-49 0 -86 -23.5t-43 -73.5l49 11q45 0 68.5 -39t23.5 -84q0 -23 -19.5 -70t-119.5 -47l-39 4q-14 4 -47 31q-25 25 -42.5 62.5t-17.5 78.5 q0 102 72 194.5t172 92.5q98 0 145.5 -31t77.5 -98q43 47 80 74q18 14 39 26q6 4 51 27.5t137.5 39t184.5 15.5q59 0 117.5 -6t117.5 -21q115 -25 199 -88l-31 -61l-30 -53q-92 25 -148 30l-125 9h-78q-90 0 -203.5 -49.5t-166.5 -118.5q84 0 143 -29q63 -25 117 -94 q82 -119 82 -264q0 -188 -122 -316.5t-246 -155t-195 -26.5q-61 0 -100.5 9t-63 19.5t-58.5 30.5q-59 33 -110 78t-82 121t-47 166q-12 86 -13 160zM152 461q16 -86 104 -135q94 -45 258 -45q133 0 237.5 78.5t104.5 209.5q0 119 -72 164q-35 20 -74.5 32.5t-86.5 12.5 l-29 -2l-21 -2l-30 -82q-23 -55 -103 -119q-82 -59 -153.5 -85.5t-134.5 -26.5z" />
<glyph unicode="K" horiz-adv-x="2074" d="M35 127q0 74 18.5 137.5t77.5 114.5l111 100q-39 31 -76 107q-33 78 -33 166q0 33 8.5 83t26.5 109q37 123 176 210t313 87q121 0 211 -31q88 -27 133 -84q72 25 100.5 69t28.5 89l-2 33l-6 20l49 -4h89h75h41l4 -30q0 -23 -2 -35.5t-14 -38t-70 -68.5l-86 -55l-90 -53 q18 -25 30.5 -44.5t22.5 -43.5l29 -86q0 135 50 211.5t136 76.5q68 0 117 -61.5t49 -138.5q12 92 50 158.5t139 66.5q170 0 230.5 -183.5t60.5 -410.5q0 -113 -25 -221.5t-57 -171.5q-31 -68 -70 -107q-33 -37 -80 -61q-37 -18 -88 -29l-80 -6q-61 0 -123.5 13.5 t-107.5 78.5q-41 66 -41 189h59l70 2h24q0 -49 4.5 -66.5t23 -33t42.5 -25.5l55 -8q33 0 88 20q59 18 98.5 171t39.5 345q-10 92 -41 154q-29 67 -103 67h-2q-49 0 -69 -57q-16 -59 -17 -154v-61l2 -55h-174v39l2 51q0 135 -28 186q-25 53 -76 53q-59 0 -78 -88 q-6 -43 -10 -86t-4 -88q0 -223 -99.5 -418.5t-264.5 -214t-206 -18.5q-82 0 -170 18.5t-151 57.5l-96 51l-50 14q-20 0 -44.5 -24.5t-30.5 -57.5l-2 -53h-113l-2 68zM184 264l64 23q37 12 82 12l45 -2q16 0 39 -14q8 -2 20 -5.5t66 -11.5l127 -6q55 0 81.5 2t94.5 14 q102 14 188 119t86 226l2 45q0 170 -89 244.5t-171 99.5q-33 8 -79 14t-87 6q-68 0 -118 -13t-95 -46t-80.5 -86.5t-35.5 -108.5v-26q0 -92 42 -160t138 -68q-25 18 -37 45q-10 31 -10 64q0 41 10 69q4 14 11 28.5t24 37.5q25 31 68.5 49.5t99.5 18.5l30 -3l60 -8 q41 0 84 -63.5t43 -149.5v-24q0 -72 -40 -122t-104 -87q-33 -16 -70.5 -24.5t-92.5 -8.5q-70 0 -131.5 15.5t-98.5 46.5zM584 623q0 -35 24.5 -65t61.5 -30t62.5 29t25.5 66t-26.5 63.5t-61.5 26.5q-37 0 -61.5 -25.5t-24.5 -64.5z" />
<glyph unicode="L" horiz-adv-x="1495" d="M27 492q0 61 12 133l20 112q6 41 74 156t178.5 153.5t194.5 38.5q41 0 61.5 -2t59.5 -14q59 -12 110 -46t93 -118t42 -184l-2 -29v-18q-2 -23 -4 -33t-12 -31l-27 -55l-53 -92q-37 -61 -55 -111q86 -33 134 -42t62.5 -10t32.5 -1h53l54 10q27 6 57.5 31t61 65.5 t45.5 92.5q8 27 12 51t4 63v62v71q0 43 -4 80q0 20 -7 54t-24 104q-25 115 -113 206t-149 115.5t-135 36.5l-101 11l-45 2l-94 -6q-39 -6 -84 -29q-102 -43 -165.5 -95.5t-102.5 -146.5h-176q57 168 184 273.5t270 132.5q57 10 132 18t124 8q51 0 78 -2t72 -12 q72 -12 174 -56t181 -127t127 -191.5t64.5 -210t16.5 -199.5q0 -39 -2 -80t-8 -82q0 -35 -4 -61.5t-25.5 -123t-128 -208t-193.5 -131t-153 -19.5q-98 0 -150.5 22.5t-76.5 41.5l-58 57l-20 -43q-6 -16 -10 -55l2 -19h-86h-56l-2 25q0 31 11 51q-47 -80 -160 -80 q-94 0 -179 75t-104 171l-22 147zM190 479l3 -61l14 -62q6 57 53 93q44 38 86 38h2q78 0 134.5 -34.5t74.5 -104.5l57 119q31 67 31 133v18q0 78 -48 137.5t-89 67.5l-57 6q-98 0 -164 -65.5t-78 -136.5l-14 -105zM276 254q0 -35 23 -57.5t57 -22.5q33 0 57.5 22.5 t24.5 57.5q0 33 -24 57q-23 18 -58 23q-35 0 -57.5 -22.5t-22.5 -57.5z" />
<glyph unicode="M" horiz-adv-x="1464" d="M53 530q0 141 52.5 232.5t136.5 128.5q-35 0 -66 17.5t-44 53t-13 64.5v18l10 33q6 23 42 63t93 62q55 18 125 19q82 0 164 -35q86 -33 129 -99l-6 50l12 69l14 84q0 27 -10 58l-10 63l-84 84l84 113q223 -102 385 -228q156 -119 235.5 -260t100 -245.5t20.5 -247.5 q0 -180 -90 -319.5t-211 -205.5q-111 -59 -219 -84q-43 -8 -99 -14t-108 -6l-116 6q-29 4 -62 9t-67 14q-70 16 -159 70.5t-164 157.5t-75 275zM254 530l16 -84q12 -59 129 -113t293 -54q137 0 277.5 56t201 158.5t60.5 262.5q0 162 -76 270q0 -49 -60.5 -101.5 t-115.5 -52.5l-37 -2q-78 0 -151 50q-18 12 -46 45l19 -88q6 -43 6 -123h-393q-66 -8 -96 -66q-16 -33 -21.5 -63.5t-5.5 -61.5v-33zM330 901h276q-14 74 -78.5 122t-169.5 48q10 -14 16.5 -30.5t6.5 -34.5q0 -51 -51 -105zM829 1223q0 -57 22.5 -91t47.5 -61l49 -6 q35 0 53.5 21.5t18.5 54.5q0 29 -12 57l-68 68l-55 41l-37 -41q-18 -23 -19 -43z" />
<glyph unicode="N" horiz-adv-x="1544" d="M47 831v140h137q-31 31 -30 76q0 74 70.5 135t195.5 61q137 0 216 -74.5t79 -195.5q45 135 113.5 201.5t211.5 66.5q197 0 311.5 -127t133.5 -254l20 -164l2 -67q0 -125 -37.5 -273.5t-158.5 -253t-281 -104.5l-65 6v148l51 -5q57 0 97 18.5t63.5 36t52 53.5t45 73t29 99 t12.5 130q0 35 -2 67.5t-9.5 78t-35.5 106.5q-25 63 -76 104q-43 41 -86 48l-59 6q-78 0 -123 -29q-43 -23 -84 -80q-33 -49 -58 -119l90 -6q33 0 78 -41q39 -33 59.5 -84t20.5 -129q0 -80 -8 -131t-33 -102q-37 -88 -85 -130t-107 -69l-115 -33q-55 -12 -117 -12l-35 2 q-92 0 -153.5 17.5t-132.5 68.5q-68 53 -105 105q-31 49 -61 141q-10 33 -16.5 67.5t-6.5 75.5v47l15 95q12 78 36 118q14 25 26.5 42.5t45.5 49.5h-131zM266 569q0 -39 4 -64.5t19 -60.5q25 -57 89 -111t193 -54q86 0 157 35.5t103 103.5q10 18 13 43l2 51 q-6 57 -30.5 80.5t-65.5 30.5l-23 -78h-133l57 286h-225q-88 -25 -124 -100.5t-36 -161.5zM354 971h232q0 31 -11 53q-6 27 -40 55q-33 33 -99 33l-35 -6q12 -10 15 -45q0 -27 -13.5 -51.5t-48.5 -38.5z" />
<glyph unicode="O" horiz-adv-x="1513" d="M37 549q0 39 2 74.5t11 83t59.5 146.5t146.5 159.5t252 60.5l149 -4h146v-143h-320q-100 -16 -152 -68.5t-76 -129.5t-24 -144q0 -92 28 -166t79 -111q55 -33 113 -33q72 0 128 49.5t56 100.5v229h211l-2 -67v-64q0 -27 2 -53.5t11 -63t53 -83t118 -46.5q43 0 98.5 21.5 t98.5 84t55 140.5q6 37 10 80t4 92q0 100 -17 206t-60 190q-39 88 -89 145q-41 53 -108.5 92t-146 57.5t-158.5 18.5q-104 0 -194.5 -24.5t-164 -80t-110.5 -139.5h-168q29 96 94.5 173t186 147.5t335.5 70.5q250 0 397.5 -64.5t267.5 -283.5t120 -586q0 -184 -44 -301.5 t-106.5 -189.5t-145.5 -100.5t-171 -28.5q-49 0 -92 9t-78 32.5t-60 52.5q-8 10 -18 31q-18 37 -23 43q-49 -92 -112 -123l-101 -37l-77 -8q-47 0 -92.5 12t-109 50t-108.5 102.5t-74.5 153.5t-29.5 235z" />
<glyph unicode="P" horiz-adv-x="1484" d="M29 522q0 57 3 83t16 112t175 160q-53 35 -69.5 60.5t-16.5 74.5q0 90 81 150.5t188 60.5q143 0 228 -69t103 -173q12 84 56.5 132t101.5 75q57 23 118.5 71t94.5 97t49 94l21 63l131 -2h139q-18 -82 -38.5 -116.5t-77 -83.5t-126.5 -74l-116 -37q162 -16 210 -44 t67 -92.5t19 -98.5q0 -84 -63 -127q129 -104 129 -299v-47l-20 -111q-12 -74 -75 -155t-165 -130t-156 -61l-106 -21l-92 -12l-74 -2l-127 4l-107 6q-27 0 -53 4t-74 17q-76 18 -161.5 69.5t-149 148.5t-63.5 273zM211 592q0 -166 148.5 -238.5t353.5 -72.5q229 0 389 70.5 t160 226.5q0 55 -58 131l-61 -23q-31 -12 -66 -12l-69 8q-45 6 -74 23.5t-70 85.5h-125q-309 0 -418.5 -38t-109.5 -161zM389 1083q18 -23 35 -53q10 -23 14 -49q0 -25 -20 -51h155l2 24q0 68 -47 99.5t-108 31.5zM928 930q0 -51 43 -80t98 -29q57 0 98 31t41 92 q0 47 -34 70l-72 39q-174 0 -174 -123z" />
<glyph unicode="Q" horiz-adv-x="0" d="M-1323 -145l27 -15q18 -10 69 -10q35 0 187 33q61 14 106 23.5t93 17.5t104 8q98 0 231 -21l211 -43v373l205 160v-784h-201q-49 0 -219 34q-76 16 -134 25.5t-93 9.5q-51 0 -203 -35q-72 -16 -124 -25t-87 -9l-123 2h-49v256z" />
<glyph unicode="R" horiz-adv-x="2123" d="M25 498q0 37 2 58.5t12 70.5q18 96 61 176t105 127q-33 12 -49.5 43t-16.5 65q0 63 40 111.5t100 71.5q27 8 59.5 14t64.5 6q35 0 64 -4t65 -18q68 -20 124.5 -87t56.5 -163q31 178 142.5 222t166.5 44q76 0 161 -32t139 -122t54 -180h-98h-27q45 -31 86 -121 q23 -43 34 -76.5t20 -70.5l8 -119q0 -66 -24.5 -184.5t-121 -210.5t-168.5 -103l-96 -6q-82 0 -162 37q-72 37 -102 137q-37 -86 -117 -129t-211 -43q-139 12 -232 95t-116.5 210t-23.5 181zM209 535q0 -106 48 -178t157 -72q51 0 104 32.5t75.5 78.5t29.5 87l6 92l-2 52v51 h198v-92v-84q0 -39 13.5 -89.5t49.5 -86t111 -35.5q119 0 166 87t47 204q0 86 -37.5 154.5t-78.5 74.5l-60 6h-20l-17 -2h-544l-31 2l-51 -6q-29 -4 -70 -32.5t-59 -65.5l-25 -80q-8 -45 -9 -65.5t-1 -32.5zM356 1110q23 -16 35 -55l4 -31q0 -25 -22 -53h180l-12 47 q-8 18 -17.5 31.5t-29.5 31.5q-31 31 -109 31zM877 969h315q0 66 -50 90t-110 24q-70 0 -103.5 -25.5t-51.5 -88.5zM1427 311q0 41 4.5 59.5t18.5 69.5q25 84 104.5 167t247.5 83h39l64 -8v18v25q0 72 -6.5 130t-22.5 118q-25 111 -76 125l-63 12q-59 0 -116.5 -39 t-57.5 -121l-33 -4h-41h-27l-24 4q-1 8 -1 17q0 67 79 163q90 110 249 109q197 0 258 -182q31 -90 47.5 -199.5t16.5 -247.5v-610h-74l-96 6q1 9 1 17q0 38 -24 40l-108 -45q-47 -18 -86 -18h-25q-127 14 -188 106q-31 47 -45.5 95.5t-14.5 109.5zM1638 334 q0 -76 21.5 -131.5t56.5 -67.5q12 -6 39 -6q51 0 95 34t44 116q0 147 -32.5 205.5t-85.5 58.5q-25 0 -56 -11q-33 -6 -59 -65q-23 -57 -23 -133z" />
<glyph unicode="S" horiz-adv-x="0" d="M-1315 1245q0 96 41 160q16 31 35.5 58.5t40.5 45.5q33 35 95.5 68t191.5 47q63 6 118.5 10t106.5 4q45 0 97 -2t110 -8q49 0 92 -9t84 -24q61 -23 87 -43t58.5 -79t32.5 -125q0 -47 -18.5 -88t-63.5 -71t-90 -30q-94 0 -143 24.5t-70.5 64.5t-21.5 75q0 57 45 90l-39 12 l-54 5h-69h-80l-72 2q-70 0 -84 -3.5t-30.5 -7.5t-36 -12t-40 -14t-36.5 -16.5t-30.5 -24t-22.5 -21.5q-33 -33 -51.5 -60.5t-18.5 -80.5h-160zM-379 1284q23 -18 57 -22q31 0 58 20q18 18 22 55q0 31 -22 54q-23 18 -58 22q-35 0 -57 -22q-24 -17 -24 -51q0 -32 24 -56z " />
<glyph unicode="T" horiz-adv-x="1499" d="M16 588l2 71q0 25 6.5 57t10.5 52q14 82 35.5 131t72.5 105q47 55 119 83q29 10 68 18.5t71 8.5q66 0 105 -19.5t57.5 -44t30.5 -63.5l-21 -53l-10 -57l8 -52q6 -35 68.5 -70.5t128.5 -35.5q88 0 125 46t37 93q0 29 -13.5 56.5t-48.5 48.5l2 -21q0 -12 -13 -37.5 t-44 -38.5q-16 -6 -29.5 -8t-40.5 -2q-76 0 -110.5 49t-34.5 90q0 35 12.5 61.5t47 67.5t128.5 41q33 0 62 -6t63 -22q61 -25 95 -76q33 -45 50 -101.5t17 -95.5q0 -37 -4 -49q0 -16 -20 -70q-16 -53 -39 -81.5t-82 -67.5q-49 -29 -102.5 -43t-102.5 -14h-35h-24 q-14 4 -23.5 5t-32 7t-45.5 14q-49 16 -91 50t-62.5 85.5t-20.5 98.5q0 39 11.5 66.5t37.5 62.5q-4 10 -30 22l-43 8q-31 0 -57.5 -18t-55.5 -63q-23 -41 -36 -100.5t-13 -117.5q0 -86 22 -153q8 -25 19.5 -53.5t30 -57t57.5 -61.5q33 -25 72.5 -39t72.5 -14q39 0 82 19 t62 99q0 37 10 88h221v-63q6 -27 10 -51.5t41 -58t107 -33.5q33 0 50 4t73.5 34.5t89 171t32.5 302.5q-18 201 -120.5 370.5t-236.5 193t-169 23.5q-82 0 -151.5 -14t-149.5 -51q-145 -61 -170 -172h-174q55 143 160.5 228t257.5 130q100 27 205 27q180 0 337.5 -68.5 t240.5 -185.5t122 -217q33 -90 51 -221q8 -61 12.5 -107.5t4.5 -89.5q0 -55 -2.5 -84t-16.5 -109.5t-33.5 -132t-58.5 -110.5q-39 -68 -96.5 -111t-120 -69.5t-131.5 -26.5q-82 0 -132 29.5t-81 58.5q-23 25 -45 68q-29 -72 -111 -110t-184 -38q-135 0 -240.5 76t-142.5 170 q-10 31 -22.5 75t-22.5 92t-14.5 86t-4.5 85z" />
<glyph unicode="U" horiz-adv-x="1474" d="M14 571q0 70 23.5 221.5t129 241.5t222.5 90q86 0 131 -39q37 -29 47 -55q12 -20 23 -53l-25 -66q-6 -18 -6 -37q0 -18 4 -41.5t24.5 -49t59.5 -49t88 -23.5q102 0 132 53t30 90q0 53 -33 96q-12 -51 -48 -78.5t-77 -27.5q-80 0 -113.5 52t-33.5 95q0 70 47 111 q53 51 133 51t138.5 -46t84.5 -101q35 -59 35 -99l4 -65q0 -84 -33.5 -147.5t-87.5 -94.5q-49 -33 -94 -44t-106 -11q-109 0 -171.5 38t-94 100t-31.5 130q0 35 14 67.5t31 49.5q-47 20 -88 20q-90 0 -137.5 -97t-47.5 -230l11 -123q16 -80 51 -148q42 -69 113 -69h2 q47 0 47 16l-11 31q-10 27 -10 47l10 49q12 33 78 57.5t226 24.5q76 0 157.5 -12.5t91.5 -79.5q1 -5 1 -10q0 -23 -15 -52q-6 -12 -9 -24.5t-7 -22.5q2 -26 72 -26h5q131 0 190.5 158.5t59.5 334.5q-25 233 -110.5 387t-231 173.5t-198.5 19.5q-160 0 -298.5 -54.5 t-156.5 -156.5h-186q61 141 148 216t222 120t273 45q164 0 309 -61.5t235.5 -165t126.5 -216.5q23 -57 35.5 -114.5t18.5 -128.5q14 -123 14 -189q0 -72 -16 -180q-6 -35 -14.5 -79t-20.5 -79q-20 -57 -86 -151q-33 -47 -98.5 -93.5t-118.5 -58.5q-23 -6 -47.5 -8t-53.5 -2 q-115 0 -192.5 40t-77.5 130q6 27 55 70t49 67q0 33 -38 45q-35 16 -105 17q-72 0 -119 -18.5t-45 -47.5q6 -12 60 -59q59 -47 59 -78q0 -88 -45 -117t-102 -35l-72 -12h-25q-117 0 -214 81t-124.5 175t-35.5 160q-6 31 -8.5 67.5t-2.5 87.5z" />
<glyph unicode="V" horiz-adv-x="1486" d="M25 463q0 115 29.5 201t90.5 110h-100v160l119 -2q-33 43 -33 88q0 37 15.5 67.5t45 64.5t92 52.5t124.5 18.5l49 -2q31 0 141 -33q111 -27 168 -219v-191h-360q-63 -12 -118 -96t-55 -178q0 -63 21.5 -109.5t67.5 -81.5q48 -32 95 -32h3q68 0 132 45t71 88l4 65l2 53 l-2 62v65h204q0 -154 13.5 -220t63.5 -109t120 -43l62 4q39 6 91 65.5t74 149.5q8 37 14.5 85t6.5 87q0 98 -23.5 185t-76.5 159q-14 -51 -62 -86q-39 -29 -82 -35l-51 -6h-23q-72 0 -127 43q-49 43 -79 100q-27 59 -27 119q0 27 2 41t17.5 53t15.5 72q0 18 -10 49l-13 55 l-102 84l82 103q231 -131 385 -248q147 -111 221 -227.5t111 -247.5q16 -68 24 -130t8 -138v-68q-6 -51 -8 -76q0 -33 -8 -73.5t-20 -90.5q-18 -86 -93 -166.5t-141 -111.5q-29 -12 -54.5 -19.5t-49.5 -13.5l-86 -6q-55 0 -97.5 10t-78 36t-56 51.5t-37.5 70.5 q-33 -59 -57.5 -85t-88 -52.5t-153.5 -26.5q-51 0 -103 12.5t-112.5 50t-104.5 101t-68.5 138.5t-24.5 159zM371 1085q25 -18 32 -53l5 -33q0 -25 -25 -59h207q0 37 -7.5 58.5t-27.5 41t-59 32.5t-95 13h-30zM874 1200q0 -39 16.5 -68.5t63.5 -54.5l41 -10q31 0 51.5 20.5 t24.5 57.5q0 35 -29 63l-129 115l-26 -55q-12 -31 -13 -68z" />
<glyph unicode="W" horiz-adv-x="1474" d="M23 332q0 102 21.5 189t75.5 182.5t138 142.5q78 47 176 65q-70 25 -69 117q0 215 383 215q33 0 83 -2t113 -8q61 0 115.5 -15.5t109.5 -41.5q94 -45 121 -138q6 -23 16.5 -65.5t12.5 -59.5l4 -90h-516q-186 0 -305 -93t-154 -202l-16 -90l-6 -100q0 -84 15 -156.5 t70.5 -155.5t167 -129.5t279.5 -46.5q127 0 228.5 65t138.5 155q20 47 28.5 75.5t13.5 69.5t5 135h174v-82q0 -49 -4 -73q0 -12 -6 -41t-23 -84q-25 -102 -64.5 -158.5t-81.5 -95.5t-110 -80q-59 -35 -165.5 -61.5t-254.5 -26.5h-71q-35 6 -78 10t-119 26.5t-176 88 t-161.5 165t-85 209t-23.5 185.5zM637 1108q45 -39 45 -84q0 -39 -29 -55h477q0 80 -113.5 113.5t-256.5 33.5l-68 -2z" />
<glyph unicode="X" horiz-adv-x="1730" d="M27 690q0 43 12 143.5t104.5 184.5t190.5 84l35 -4l57 49q6 6 24.5 15t36.5 20l58 20l55 8l72 7q43 0 111.5 -17.5t130 -79t75.5 -151.5v-191h-360q-57 -14 -97 -47t-63 -92q-25 -55 -25 -129q0 -80 28 -137.5t83 -81t98 -23.5q76 0 131.5 55.5t61.5 108.5l10 90l4 70 l-2 33l-2 28h191l2 -45v-39v-77q0 -37 11 -80t55 -82t136 -39q82 0 138.5 77.5t68.5 166.5l17 124l4 99q0 33 -1 73.5t-16 98.5q-12 76 -61 170t-109 153q-55 61 -143 95l-150 47q-33 6 -65.5 10t-69.5 4q-78 0 -160.5 -24.5t-142.5 -63.5q-51 -33 -115 -111h-178 q51 92 111.5 157t137.5 103.5t173 59t191 20.5q100 0 190 -20q96 -18 187.5 -62.5t162 -117t136 -190.5t90 -235.5t24.5 -236.5v-72q0 -152 -65.5 -332t-190.5 -235t-209 -55q-78 0 -146.5 42t-98.5 124q-33 -57 -56.5 -85t-88 -53.5t-150.5 -25.5q-53 0 -91 9t-68 22.5 t-61 31.5q-59 35 -102 101q-31 53 -59 129l-25 106l-6 74q0 61 28.5 159.5t123.5 186.5l-35 19l-31 32l-10 29l-4 37q0 23 8 39q-90 0 -140.5 -76t-50.5 -201q0 -78 4.5 -128t18.5 -107q23 -98 108 -197h-122q-59 96 -92 202.5t-33 225.5zM426 942q0 -20 14.5 -34.5 t40.5 -18.5q23 0 37.5 12t18.5 41q0 23 -14.5 37t-41.5 18q-23 0 -37 -14t-18 -41zM578 1061q16 -2 34 -25l23 -45l4 -26q0 -16 -12 -45h209q0 72 -30 103.5t-69 46.5t-73 15l-46 -6q-16 -2 -40 -18z" />
<glyph unicode="Y" horiz-adv-x="1454" d="M23 602v125q0 43 6 84t22 88q31 94 68 154.5t111.5 112t139 63.5t115.5 12h37h25q16 4 22 4h33h16v-127q-106 0 -153 -8q-53 -6 -117.5 -47t-99.5 -109q-29 -66 -45 -133q-8 -59 -9 -89t-1 -46q0 -115 30.5 -203t81.5 -131q49 -37 98 -55q25 -6 48.5 -10t50.5 -4 q41 0 60.5 2t49.5 14q47 18 82 50t56.5 80t21.5 89q0 61 -17.5 97t-66.5 36h-18l-13 -106h-131l2 180l7 98q6 57 33.5 166t137 182.5t259.5 73.5q188 0 309 -133t139.5 -267.5t18.5 -189.5q0 -80 -3.5 -111.5t-15.5 -113.5t-57 -190.5t-152.5 -176t-245.5 -67.5l-36 2l-68 8 v121l80 18l65 33q-31 25 -49 74q-6 25 -10 51.5t-4 56.5q0 80 25.5 125t54.5 70q29 29 54.5 34t43.5 5q27 0 71 -14.5t60 -51.5l6 80q0 94 -49 190.5t-107.5 127t-95.5 41.5l-71 6q-61 0 -102.5 -18.5t-84.5 -63.5q-35 -41 -45 -92q80 0 136.5 -38t70.5 -85q4 -12 8 -31.5 t13 -73.5l8 -71v-23q0 -53 -6 -84l-45 -143q-37 -111 -134.5 -180.5t-218.5 -69.5q-98 0 -167.5 17.5t-133 64.5t-108.5 118.5t-74 184.5l-18 102zM1053 352q0 -37 19.5 -63.5t51.5 -28.5q23 0 47 27q21 26 21 65q0 37 -19.5 63.5t-48.5 28.5q-31 0 -51 -26.5t-20 -65.5z " />
<glyph unicode="Z" d="M53 -20v1107h172v170h1106v-1105h-170v-172h-1108zM289 205h993v993h-993v-993z" />
<glyph unicode="[" horiz-adv-x="2451" d="M20 485q0 66 6.5 128.5t22.5 138.5q27 143 82 231q25 61 95.5 138t145 95.5t115.5 18.5q84 0 136 -29q57 -25 80.5 -56.5t37.5 -72.5q88 80 232.5 120t240.5 40q203 0 285 -35q86 -31 172 -100q43 47 110.5 82t168.5 35q168 0 233.5 -25t139 -106.5t73.5 -208.5 q0 -37 -2 -57.5t-14 -67.5l-418 -4q-172 0 -263 -73t-91 -235q0 -125 45 -191.5t117.5 -97t125.5 -40.5l89 -9h59q45 6 90 10.5t93 22t145 74.5l-2 -80l-3 -45l5 -53q-76 -53 -195 -83t-188 -30q-29 -33 -29 -74q0 -47 44 -82.5t134 -35.5q76 0 132.5 28.5t56.5 98.5h38 l41 2h54h49q0 -61 -38 -120t-99.5 -95.5t-128 -52t-136.5 -15.5q-23 0 -59.5 2t-83.5 8q-90 0 -178 76q-80 66 -80 154q0 80 66 145q-158 0 -287 117t-142 211q0 31 -2 62.5t-8 43.5v37q0 182 83 315.5t214 147.5l-14 35q-4 27 -14 51q-43 29 -152 55.5t-172 26.5 q-147 0 -281.5 -35t-189.5 -108q211 0 311.5 -73t116.5 -194l16 -155l4 -78q0 -72 -28.5 -197t-129 -176t-159.5 -51q-78 0 -121 30.5t-67 79.5l-31 84q-23 -78 -75 -135t-122 -57q-115 0 -179 79t-64 183l6 49h-97v205l226 270q-41 -12 -72 -12q-119 0 -119 154 q-41 -49 -81 -180.5t-40 -223.5l2 -35h-84zM297 465q4 -4 12 -6t25 -2h33l34 2l15 -2l6 -4l-8 -31l-2 -31q0 -47 25.5 -78.5t84.5 -31.5q86 0 105.5 67.5t19.5 202.5h160q0 -141 19.5 -205.5t103.5 -64.5q80 0 124 62.5t44 168.5l-2 49q0 27 -13.5 83t-57.5 98t-110 57h-206 h-99zM319 1001l41 9q61 0 80 -26t25 -54l4 -43q0 -43 -20 -72l153 180q0 20 -9 37t-28 35q-43 33 -114 33q-41 0 -82 -25q-33 -25 -50 -74zM1831 1055q43 -31 43 -76q0 -37 -35 -72l359 4q8 72 -74 121q-86 45 -187 45q-70 0 -106 -22z" />
<glyph unicode="\" horiz-adv-x="2379" d="M49 950q0 100 70.5 180t171.5 80l41 2l35 2q23 0 45 -2t43 -8q41 -6 69 -35q57 -41 94 -110q90 80 249 129t251 49q143 0 246 -12q100 -8 162 -56q47 29 125 52q33 8 74.5 14t74.5 6q131 0 207 -19.5t136.5 -80t84 -119.5t23.5 -125l-2 -35l-2 -26l-269 2 q-262 0 -399 -54.5t-137 -287.5q0 -109 61.5 -176.5t126.5 -98.5q61 -25 117 -37q51 -8 73.5 -9t49.5 -1h63l74 14q49 6 110.5 32t114.5 73l-2 -74l-2 -31l4 -45l-57 -34l-66 -25q-6 -23 -28 -53l-41 -60q127 0 191.5 -20.5t76.5 -85.5l10 -78q0 -109 -104 -170 q-104 -55 -205 -74q-53 -8 -91 -12t-79 -4q-156 0 -277.5 48t-121.5 155h162q18 -31 69 -56q55 -23 111 -22q94 0 181 25.5t87 86.5q0 37 -33 70q-29 25 -57 29l-31 -2h-26h-37l-27 2l98 172l-84 -23l-92 -6q-94 0 -178 21q-45 10 -84 24.5t-76 34.5q-74 37 -142.5 119 t-86.5 172l-12 123q0 164 86 276.5t213 134.5q-23 16 -35 39q-6 18 -6 58q-29 10 -78 20l-121 8q-176 0 -344 -37.5t-213 -101.5q211 0 314.5 -74.5t123.5 -199.5q6 -41 13.5 -92.5t7.5 -88.5q0 -51 -8 -86q-4 -31 -9.5 -50t-19.5 -64q-20 -72 -70.5 -134.5t-125 -86 t-115.5 -23.5q-61 0 -102.5 29.5t-61.5 62.5l-37 78q-18 -70 -68.5 -112t-119.5 -48q-106 0 -178 74t-72 170l4 37l-97 2v201l220 266l-54 -8q-47 0 -85 22.5t-68 69.5q-27 53 -27 108zM172 446q4 -4 12.5 -6t26.5 -2l65 2l17 -2l6 -6l-10 -59q0 -39 24.5 -65.5t83.5 -26.5 q86 0 105.5 59t19.5 190h162q0 -141 16.5 -192t87.5 -51h29q72 0 114 57.5t42 151.5l-2 59q0 20 -13.5 71.5t-57.5 95.5t-109 56h-207h-97zM211 979l43 6q49 0 70.5 -35t21.5 -82q0 -51 -22 -73l153 182q0 16 -9 30.5t-29.5 34t-40 25.5t-68.5 6q-88 0 -119 -94zM1667 1087 q41 -16 41 -59q0 -23 -18 -53l378 -2q6 51 -91 95t-203 44q-70 0 -107 -25z" />
<glyph unicode="]" horiz-adv-x="989" d="M8 1040q0 80 53.5 138.5t151.5 58.5q92 0 145.5 -58.5t53.5 -138.5q0 -82 -54 -141q-49 -59 -145 -59q-98 0 -151.5 59t-53.5 141zM45 0l688 1245h213l-694 -1251zM109 1057q0 -37 25.5 -61.5t78.5 -24.5q43 0 68.5 25.5t25.5 62.5q0 31 -23.5 58.5t-70.5 27.5 q-49 0 -76.5 -26.5t-27.5 -61.5zM532 207q0 84 52.5 141.5t152.5 57.5q92 0 145.5 -58.5t53.5 -140.5t-53 -141q-49 -59 -146 -60q-98 0 -151.5 59.5t-53.5 141.5zM633 223q0 -37 25.5 -61.5t78.5 -24.5q43 0 68.5 25.5t25.5 64.5q0 31 -23.5 58.5t-70.5 27.5 q-49 0 -76.5 -26.5t-27.5 -63.5z" />
<glyph unicode="^" horiz-adv-x="600" d="M33 594l6 119q2 25 8 65.5t14 85.5q23 141 89.5 274.5t155.5 253t198 240.5h229q-139 -137 -219 -262q-72 -117 -125 -266q-45 -135 -63.5 -269.5t-18.5 -250.5q0 -90 15 -174q6 -49 18 -103.5t32.5 -138.5t47 -164t63.5 -160q68 -158 199 -323h-211 q-158 152 -263.5 355.5t-140 410.5t-34.5 307z" />
<glyph unicode="_" horiz-adv-x="0" d="M-956 1483q0 94 39.5 167.5t123.5 123.5q39 20 85 32.5t98 12.5q98 0 181 -29t120 -77t51 -109q6 -31 10 -58.5t4 -58.5v-31q0 -23 -12 -51.5t-37 -69.5q-43 -70 -86 -98h-100q61 31 85.5 92.5t24.5 122.5q0 35 -34.5 122t-210.5 87q-98 0 -160 -53q-66 -49 -66 -142v-36 q6 -20 10.5 -41t47.5 -51.5t100 -30.5q-47 6 -67.5 29.5t-20.5 58.5q0 29 10 56.5t37 60t98 32.5q53 0 107.5 -32.5t54.5 -127.5q0 -55 -46 -99t-95 -56l-84 -10q-66 0 -127.5 24.5t-101 94t-39.5 145.5zM-668 1409q0 -14 11 -31q6 -16 41 -16q14 0 30.5 9t16.5 42 q0 14 -8.5 28.5t-43.5 18.5l-24 -6q-23 -12 -23 -45z" />
<glyph unicode="`" horiz-adv-x="479" d="M35 1362v24q0 80 63.5 143.5t147.5 63.5q80 0 140 -62.5t60 -144.5v-24l-40 -283l-60 -403l-39 -305h-143l-33 254l-53 409zM78 129q0 68 46 114t112 46q59 0 96 -35t49 -61.5t12 -63.5q0 -66 -45 -111q-51 -45 -112 -45q-68 0 -115 45q-43 47 -43 111z" />
<glyph unicode="a" horiz-adv-x="0" d="M-487 1405v231h194v-65l27 47q17 24 61 24h4h37q37 0 54.5 -7t35.5 -31q12 -16 21 -54l6 -65q0 -78 -20.5 -110t-59.5 -46q-18 -6 -36.5 -10t-41.5 -4q-53 0 -84 24v-108l-133 2v172h-65zM-291 1444q16 -27 53 -27q52 0 52 53q0 20 -15.5 33t-38.5 13h-51v-72z" />
<glyph unicode="b" horiz-adv-x="1474" d="M31 686q0 86 24.5 165t92 167t202.5 155.5t312 67.5q219 0 365.5 -42t240.5 -141.5t137 -199.5q20 -47 30.5 -99.5t10.5 -113.5q0 -63 -8 -115.5t-33 -126.5q-37 -127 -117 -194q-72 -59 -143 -103q-59 -36 -124 -36h-3q94 -31 131 -72t37 -109l-4 -65q0 -39 -76 -98.5 t-139 -67.5l-123 -16l-111 -7q-109 0 -201 19.5t-139 58.5l-76 64q-25 25 -36 59l-19 58l-6 43q0 27 8 43h170l-4 -33l8 -43q6 -33 43 -51.5t84 -28.5l86 -10l47 -2l54 2q18 0 35.5 4t47 8t69.5 27.5t40 64.5q0 68 -104 86h-301v146h104q135 0 216 12t153 63 q72 47 119 143.5t47 202.5v54l-17 77q-10 53 -66.5 127t-146.5 107t-241 33q-39 0 -78 -2t-95.5 -10.5t-122 -37t-123 -107.5t-57.5 -177v-41l15 -68q10 -43 100 -98q43 -23 93 -37t98 -14q86 0 133 43q-84 0 -136.5 46t-52.5 134q0 39 17.5 77t41 63.5t70.5 47t99 21.5 q74 0 134 -37t81 -84q4 -8 15 -39t13 -41l6 -55q0 -41 -10 -74t-28.5 -69.5t-43 -61t-104.5 -74.5q-37 -20 -119 -41q-37 -6 -70.5 -10t-72.5 -4q-119 0 -207 34t-151.5 94.5t-94.5 154.5q-26 96 -26 178v6zM604 598q0 -39 29 -68q32 -26 71 -26h3q43 0 71.5 25.5t28.5 68.5 q0 41 -29.5 67.5t-70.5 26.5q-39 0 -71 -25.5t-32 -68.5z" />
<glyph unicode="c" horiz-adv-x="1546" d="M37 539v24q0 90 36 179t160 149q-47 33 -62 61.5t-15 77.5q0 84 80.5 148.5t187.5 64.5q156 0 242 -67.5t104 -174.5q12 84 42 118t108 87l135 92q53 35 80.5 73t35.5 75l13 61h282q-14 -66 -40.5 -105.5t-64.5 -69t-95 -52.5l-101 -39l43 4q66 0 131.5 -28.5t95 -90 t29.5 -108.5q0 -55 -19.5 -99.5t-66.5 -68.5q133 -84 133 -291q0 -47 -4 -71.5t-18 -81.5q-18 -94 -96 -185q-70 -82 -166 -133q-92 -43 -150 -55l-121 -23l-108 -12l-43 -2l-125 8l-135 8q-39 0 -58.5 4t-70.5 19q-78 25 -166 74t-150.5 162.5t-62.5 267.5zM246 602 q0 -178 143 -252q72 -33 167 -51t212 -18q233 0 378.5 83.5t145.5 253.5q0 135 -77.5 174t-260.5 39l-88 -2h-92q-309 0 -418.5 -40.5t-109.5 -186.5zM387 1118q49 -29 49 -90q0 -43 -28 -57h186q0 45 -9.5 71.5t-33.5 44.5q-49 37 -117 37zM954 971h291l6 33q0 57 -45 75 l-65 21l-39 4q-72 0 -115 -37q-33 -33 -33 -96z" />
<glyph unicode="d" horiz-adv-x="704" d="M6 340l33 2l41 -2l41 -2h24q0 -43 2.5 -63.5t15.5 -63.5t75 -43q80 0 120 141q18 72 28.5 151t10.5 173q0 158 -37.5 297t-72.5 147l-51 8q-43 0 -70 -33.5t-27 -121.5l-53 -2l-29 -2l-51 4q0 154 70.5 231.5t195.5 77.5q184 0 283.5 -193.5t99.5 -418.5 q0 -213 -65.5 -363.5t-149.5 -210.5q-82 -53 -176 -53q-80 0 -143.5 41t-89 101.5t-25.5 197.5z" />
<glyph unicode="e" horiz-adv-x="684" d="M12 303q0 20 2 62.5t9 97.5q0 53 17 108.5t52 126.5q61 121 113 189l108 133h-245v160h483l4 -107l-4 -37l-76 -92l-80 -110l-65 -115q-25 -55 -31 -101l-23 -174v-59q6 -29 10.5 -63.5t36 -88t93.5 -53.5q53 0 71 33q14 37 15 68l-2 43l-6 34h131q24 -40 24 -108 q0 -72 -24.5 -147.5t-64.5 -104.5t-92 -50.5t-103 -21.5q-61 0 -121 22.5t-107 63.5t-75.5 96.5t-49.5 194.5z" />
<glyph unicode="f" horiz-adv-x="1189" d="M25 582q0 29 2 60.5t11 83.5t28.5 113.5t44.5 102.5q86 137 172 201q78 55 178 78q96 18 188 18l105 -6q27 -4 55.5 -10t79.5 -23q86 -25 160.5 -102.5t97.5 -200.5h-141l-41 90q-31 45 -91 68q-27 12 -50 19t-62 15.5t-59.5 9.5t-32.5 1h-49l-117 -15q-45 0 -92 -29.5 t-103 -88.5q-98 -109 -98 -283q0 -113 34 -200t97 -134q57 -41 127 -59q31 -6 65.5 -10.5t75.5 -4.5q78 0 161 31t118 85t47 104.5t12 101.5t-13 83t-40 56q-18 23 -61 29q31 -66 30 -123q0 -68 -38 -122t-101 -85q-14 -6 -51 -16t-76 -10q-51 0 -112.5 21.5t-104.5 84.5 q-39 68 -39 152q0 41 18.5 113.5t96.5 126t213 53.5q246 0 354.5 -113t126.5 -295q0 -104 -12.5 -177t-40.5 -120q-49 -86 -119 -137q-61 -43 -154.5 -82t-238.5 -39q-98 0 -183.5 26.5t-173.5 92.5q-80 66 -125 145q-20 39 -35.5 81t-25.5 88t-14 82t-4 69zM500 678 q0 -59 37 -82q39 -16 65 -16q18 0 47 10q48 25 60 76q1 7 1 14q0 35 -26 66q-31 36 -82 36q-63 0 -82 -34l-18 -46z" />
<glyph unicode="g" horiz-adv-x="1474" d="M33 612q0 178 87 304t245 126l376 2v-149h-123l-102 2q-113 0 -145.5 -9t-69.5 -52q-27 -33 -47 -80q-12 -41 -12 -90l2 -60l16 -74q14 -35 38 -71.5t87.5 -82.5t140.5 -73q77 -22 171 -22h8q150 0 266 70.5t153 155.5t60 161q8 29 14 68.5t6 76.5v23q0 12 -4 41l-26 180 q-20 147 -155.5 247.5t-338.5 100.5q-193 0 -308.5 -83t-135.5 -214h-179q37 147 127 250.5t187 138.5q49 16 88 26.5t108.5 20.5t157.5 10q113 0 208 -22.5t171 -75.5q78 -49 149 -139q33 -41 61.5 -89t53.5 -108q43 -111 55 -207l11 -143q0 -190 -69 -346t-164 -244 t-232 -137q-63 -20 -128 -32.5t-122 -12.5q-133 0 -254 37t-222.5 108.5t-155.5 198.5t-54 268z" />
<glyph unicode="h" horiz-adv-x="1513" d="M39 565q0 70 21.5 249t182 305t402.5 126l105 -6v-129l-45 6l-58 4q-168 0 -301 -102.5t-133 -390.5q0 -125 49 -234.5t201 -109.5q109 0 157 56t48 128v178h209l4 -156q0 -106 58 -156t163 -50q100 0 158.5 80.5t58.5 193.5l-8 100q0 72 -71 123t-157 51h-317l-8 87 q0 143 87 234t273 91q147 0 225 -75.5t78 -198.5h-161q1 7 1 15q0 51 -37 93q-42 49 -130 49q-74 0 -125 -45q-41 -39 -41 -112h51l61 2q172 0 295.5 -72t143.5 -299q0 -213 -52.5 -353.5t-146.5 -189.5q-86 -41 -133 -51l-74 -8l-65 6q-25 6 -45.5 14.5t-32.5 14.5 q-49 25 -87 58.5t-63 109.5q-10 -18 -20 -37t-31 -43q-29 -41 -65.5 -65.5t-94.5 -43.5q-27 -6 -51 -10t-55 -4h-27h-20q-14 4 -29.5 5t-53.5 13.5t-63 20.5q-92 31 -161.5 184.5t-69.5 343.5z" />
<glyph unicode="i" horiz-adv-x="1558" d="M27 494q0 84 22.5 152.5t59 117.5t75.5 67h-116v140l114 -2q-18 4 -30.5 27.5t-12.5 58.5q0 29 6.5 47t13.5 30.5t32.5 40t93 48t145.5 20.5q55 0 99 -7t147.5 -42t128.5 -221q25 104 64.5 162.5t117.5 83t184 24.5q45 0 72 -4q41 0 88 -23q51 -18 100.5 -74.5 t49.5 -127.5l-2 -27q0 -35 -19 -63q-10 -16 -57 -48q37 -31 72 -98q29 -59 43 -127.5t14 -136.5q0 -90 -29.5 -206t-139.5 -212t-243 -96h-24q-90 0 -185.5 37t-119.5 135q-37 -88 -126.5 -129t-234.5 -41q-139 0 -243.5 86t-132 213t-27.5 195zM219 537q0 -104 50 -179 t173 -75h25q66 0 115 29.5t68.5 72.5t29.5 98l6 92l-2 50v47h246v-129v-60q0 -12 2 -31.5t10 -57.5t57 -77q50 -34 131 -34h5q133 0 187 84t54 190l-8 78q-6 57 -57 123q-45 63 -88 69l-62 7h-20l-17 -3h-643l-59 -2q-47 -6 -94 -43q-39 -31 -62.5 -69.5t-36.5 -85.5 q-8 -43 -10 -53v-41zM391 971h262q-2 33 -22.5 62.5t-38 43t-59 27.5t-84.5 14q-37 0 -56 -10q37 -12 37 -72q0 -41 -39 -65zM954 969h328q12 20 14 47q0 41 -50 70.5t-122 29.5q-68 0 -119 -43t-51 -104z" />
<glyph unicode="j" horiz-adv-x="1474" d="M29 514q0 84 52 183.5t126 111.5q-49 0 -82 33q-29 35 -29 94q0 55 43 103t107 75q61 23 182 23h33l65 -9q29 0 44.5 -2t50.5 -14q53 -12 114 -53q63 -37 99 -108.5t36 -153.5l-2 -31l-2 -25l-65 -2h-62h-37h-30h-31h-25h-86l-81 2q-86 0 -138.5 -38.5t-52.5 -116.5 q0 -143 114.5 -224t327.5 -81q188 0 352.5 116.5t182.5 261.5l16 158v23q0 121 -50 240.5t-125 188t-189 101.5q-61 16 -115.5 24.5t-122.5 8.5q-113 0 -201 -33t-114 -59q-33 -27 -86 -107h-178q18 72 97 166t203 143.5t292 49.5q133 0 252.5 -26t218.5 -87 q100 -55 198.5 -219t98.5 -365q0 -184 -16.5 -303t-79 -225.5t-160 -183t-176 -104t-171.5 -40.5q-59 -6 -82.5 -8t-74.5 -2q-127 0 -270.5 37t-257 159.5t-113.5 317.5zM340 989q20 -6 28.5 -23.5t12.5 -47.5q0 -37 -16 -44h327q0 61 -75.5 95.5t-172.5 34.5 q-35 0 -61.5 -4.5t-42.5 -10.5z" />
<glyph unicode="k" horiz-adv-x="1626" d="M31 567l6 86h113q6 -49 59 -49q41 0 94 31t95 94.5t63 114.5l49 110l-8 25q0 14 -17.5 34.5t-40.5 30.5l-43 7q-49 0 -85.5 -23.5t-43.5 -73.5l50 11q45 0 68.5 -39t23.5 -84q0 -23 -19.5 -70t-120.5 -47l-38 4q-14 4 -48 31q-25 25 -43 62.5t-18 92.5q0 113 50 173.5 t107.5 86t112.5 25.5q94 0 142 -20q51 -18 79 -78l52 43l73 41q55 29 131 43q39 6 78 10t84 4q88 0 152.5 -13t126.5 -54q61 -37 101 -81t81 -106.5t66 -136.5q18 -57 28 -137l8 -123l-6 -105q-6 -57 -34 -145q-25 -90 -110 -183t-177 -120l-139 -33l-99 -4h-35l-22 2v156 q72 0 130 13t102 39t77 56.5t54.5 74.5t29.5 103l10 103q0 123 -49 217t-110.5 138t-126.5 54l-115 11q-78 0 -140.5 -18.5t-99.5 -67.5q84 0 144 -29q63 -25 116 -94q82 -119 82 -264q0 -190 -99 -314.5t-227 -154t-225 -29.5q-31 0 -60.5 2t-69.5 10t-102 45t-115.5 80 t-86.5 116t-51 155q-6 41 -10 81.5t-4 79.5zM176 494q18 -113 136 -163t227 -50q133 0 237.5 78.5t104.5 209.5q0 119 -72 164q-35 20 -75 32.5t-87 12.5l-29 -2l-20 -2l-31 -82q-20 -55 -119.5 -131t-211.5 -76q-35 0 -60 9z" />
<glyph unicode="l" horiz-adv-x="1632" d="M53 340v152l258 307q-57 -47 -116 -47q-80 0 -107 57q-23 57 -22 111l6 71q6 31 30.5 80t103.5 98.5t165 49.5q68 0 82 -3.5t26.5 -7.5t38 -15t47.5 -30q27 -16 43 -39q76 57 164 89t250 32q201 0 342 -100.5t177 -222t46 -197.5l10 -127l-2 -63q0 -37 -20.5 -182.5 t-132 -225.5t-193.5 -102q-35 -8 -79 -14.5t-85 -6.5v152q27 0 52.5 2t48.5 8q47 12 97 56t76.5 125t26.5 167v25q0 12 -4 45l-14 86q-6 51 -53 125q-43 74 -105.5 111.5t-128.5 49.5q-61 8 -87.5 9.5t-43.5 1.5q-102 0 -169.5 -13.5t-96.5 -42.5q406 0 438.5 -213 t32.5 -258q0 -53 -7 -100t-26.5 -106.5t-66.5 -111.5t-111.5 -89t-142.5 -37q-47 0 -74 8t-65 37q-29 27 -48 53l-28 74q-25 -82 -72 -123q-43 -43 -135 -43h-29q-100 0 -159.5 65.5t-59.5 163.5q0 55 21 109h-99zM162 446l35 -4h32l35 -2l-4 -37q0 -55 28.5 -88.5 t90.5 -33.5q74 0 103.5 66.5t29.5 182.5h162q0 -129 23.5 -189t97.5 -60q76 0 121 59.5t45 163.5q0 35 -2.5 55.5t-13.5 71.5t-53 99t-110.5 62.5t-150.5 14.5l-76 -2l-55 -6zM209 981l16 2h13q47 0 71.5 -31.5t24.5 -83.5q0 -43 -19 -73l39 61l39 55l43 52l51 53 q0 18 -16 35q-12 16 -40 25t-66 9q-35 0 -66 -10q-33 -6 -54.5 -29.5t-35.5 -64.5z" />
<glyph unicode="m" horiz-adv-x="1546" d="M37 539v24q0 90 36 179t160 149q-47 33 -62 61.5t-15 77.5q0 84 80.5 148.5t187.5 64.5q156 0 242 -67.5t104 -174.5q18 84 63.5 130.5t88.5 66.5q92 43 211 43q106 0 187 -33.5t117 -92t36 -107.5t-24 -93.5t-71 -64.5q135 -86 135 -299q0 -51 -18 -146.5t-92 -184.5 t-177.5 -132t-166.5 -59l-113 -21l-98 -10l-43 -2l-125 8l-135 8q-39 0 -58.5 4t-70.5 19q-78 25 -166 74t-150.5 162.5t-62.5 267.5zM246 602q0 -178 143 -252q72 -33 167 -51t212 -18q233 0 378.5 83.5t145.5 253.5q0 135 -77.5 174t-260.5 39l-88 -2h-92 q-309 0 -418.5 -40.5t-109.5 -186.5zM387 1118q49 -29 49 -90q0 -43 -28 -57h186q0 45 -9.5 71.5t-33.5 44.5q-49 37 -117 37zM954 971h291l6 33q0 57 -45 75l-65 21l-39 4q-72 0 -115 -37q-33 -33 -33 -96z" />
<glyph unicode="n" horiz-adv-x="1503" d="M31 1094q57 166 187 275.5t245 133.5l168 33l110 6q160 0 302.5 -62.5t221 -149.5t136 -233.5t57.5 -277.5l2 -100l2 -96v-43q0 -25 -4 -54q0 -29 -25.5 -133t-94 -202.5t-144.5 -135.5t-129 -47l-102 -8q-78 0 -153 18.5t-105 47.5l-52 53l-39 65q-8 -66 -47 -110.5 t-89 -58t-93 -13.5q-117 0 -204 88t-109 191l-25 141l-4 90l2 66q0 23 6 49t10 45q12 70 30 117t73 120.5t111.5 115.5t129 54.5t130.5 12.5q119 0 218 -49.5t147 -145.5t48 -207l-2 -43l-63 -8q-25 0 -47 -23l-48 -45q-40 -50 -40 -103q0 -40 24 -93q25 -45 78 -70 q23 -8 53.5 -14t59.5 -6l63 6q104 25 167.5 163t63.5 304l-2 57q0 10 -6 48t-22 118q-25 143 -171.5 272t-441.5 129q-119 0 -246.5 -92t-154.5 -196h-182zM199 500q0 -39 4 -60l20 -53q6 33 29 57q18 25 55 50q12 8 27 14q29 12 57 12q45 0 85 -16.5t69 -46.5v11q0 30 9 64 q11 40 38 86q55 93 147 93q0 51 -31.5 87t-85 54t-112.5 18q-125 0 -217 -74.5t-92 -211.5l-2 -47v-37zM316.5 242.5q25.5 -19.5 56.5 -19.5q23 0 41 8.5t26 26.5l11 29q0 31 -21 59q-8 10 -23.5 18.5t-33.5 8.5q-33 0 -60 -27q-22 -26 -22 -56q0 -28 25.5 -47.5z" />
<glyph unicode="o" horiz-adv-x="1218" d="M31 492q0 184 99 301.5t239 136.5q-37 6 -58 35q-16 29 -16 63q0 39 30.5 91t132 89t226.5 37q121 0 205 -24.5t146.5 -89t84 -133t21.5 -167.5h-295q-219 0 -344 -53t-152 -151q-8 -39 -15 -77t-7 -61q0 -102 54 -190t130 -119q68 -23 125 -33l102 -6h74q35 6 78 10.5 t107.5 24t119.5 51.5v-37l-2 -55v-45v-20q-55 -31 -167.5 -51.5t-260.5 -20.5q-25 -25 -24 -68q0 -66 55 -127t151 -61q135 0 206 59.5t71 145.5h156q0 -92 -44.5 -174t-148.5 -156l-115 -33q-70 -16 -164 -16q-66 0 -137 13t-133 50q-61 33 -98 90.5t-37 155.5v26.5t7 41 t28 57.5l-76 14l-96 39q-70 35 -148 119t-98 195q-12 66 -12 123zM535 1081q14 -6 24 -27.5t10 -45.5q0 -20 -8 -37h402q0 66 -86 108q-90 39 -191 39q-102 0 -151 -37z" />
<glyph unicode="p" horiz-adv-x="1474" d="M25 723v123h61h61l-30 33q-12 18 -13 61q0 61 39 109q37 39 99 65q66 20 188 21q102 0 176 -17q78 -12 131.5 -54t93 -121t39.5 -159l-4 -43l-65 -2h-62h-37h-30h-31h-25h-86l-81 2q-86 0 -138.5 -38.5t-52.5 -116.5q0 -141 114.5 -222t327.5 -81q186 0 351.5 115.5 t183.5 260.5l16 158v23q0 121 -50 240.5t-123.5 187t-195.5 103.5t-241 36q-113 0 -198 -32t-119.5 -57.5t-75.5 -98.5h-172q6 66 86 153.5t209 139t291 51.5q133 0 252.5 -26t218.5 -87q100 -55 198.5 -219t98.5 -365q0 -184 -16.5 -303t-79 -225.5t-160 -183t-176 -104 t-171.5 -40.5q-59 -6 -82.5 -8t-74.5 -2q-129 0 -385 67.5t-256 450.5q0 80 34.5 131t73.5 74h-112zM340 1010q51 -12 51 -74q0 -55 -31 -62h306q-25 70 -106 108t-163 38q-39 0 -57 -10z" />
<glyph unicode="q" horiz-adv-x="0" d="M-1292 -145l983 -2v385l198 133v-750l-1181 2v232z" />
<glyph unicode="r" horiz-adv-x="1421" d="M39 594q0 145 30.5 230t87 171t130 133.5t138 75t116.5 37.5l92 23l90 26l78 31q47 18 97 58t50 127h309q-39 -162 -129 -204t-264 -77q70 0 163 -38t177 -109.5t127 -190.5t43 -252q0 -63 -3 -87t-13 -71q-12 -78 -57.5 -167t-173.5 -198.5t-353 -109.5l-43 -2 q-111 0 -245 31.5t-226 105.5t-156.5 200t-64.5 257zM254 649q0 -176 140.5 -269t332.5 -93q170 0 308.5 105t138.5 267q0 180 -122 309.5t-309 129.5q-236 0 -362.5 -125t-126.5 -324z" />
<glyph unicode="s" horiz-adv-x="0" d="M-1346 1282q0 162 168 259t451 97q268 0 417.5 -96t149.5 -223q0 -53 -26 -98h-138q6 18 11 47q0 96 -140 135q-72 18 -144.5 28.5t-154.5 10.5q-154 0 -300 -47t-146 -140q0 -23 8 -45h-147l-6 37z" />
<glyph unicode="t" horiz-adv-x="1454" d="M29 475q0 90 22.5 149.5t79.5 114.5h-96v156h164q-59 47 -60 119q0 66 44 126t83 68l66 15l59 4q88 0 178 -45q100 -53 154.5 -169t54.5 -220l-6 -56l-369 2q-82 -12 -117.5 -63t-35.5 -121q0 -49 10 -84t41 -74t138.5 -78.5t205.5 -39.5q184 0 333.5 66.5t182.5 144 t43 129t10 96.5q0 51 -3 71.5t-13 57.5q-12 63 -51 131q-25 -37 -61.5 -62.5t-92.5 -33.5l-75 -9q-70 0 -125 50q-49 49 -81 102t-32 117q0 29 13.5 78t13.5 75l-13 60l-10 65l-86 86l86 115q238 -104 394.5 -232.5t225 -279t87 -257t18.5 -241.5q0 -174 -83 -313t-198 -201 q-104 -55 -202.5 -75.5t-204.5 -20.5l-127 6q-82 8 -209 27.5t-241.5 162t-114.5 281.5zM356 895h121h129q-8 61 -78 121q-35 31 -67.5 45t-71.5 14q39 -45 39 -88q0 -25 -15.5 -46t-56.5 -46zM836 1225q0 -76 26 -111l45 -45l49 -8q41 0 58.5 22.5t17.5 59.5l-4 28l-8 29 l-62 60q-31 31 -65 51l-39 -43q-18 -23 -18 -43z" />
<glyph unicode="u" horiz-adv-x="1484" d="M39 664l6 114q6 63 25.5 130t97.5 157q33 33 82 59q18 10 41.5 16.5t46.5 6.5q55 0 101 -25.5t64.5 -57.5t24.5 -60l9 -52l2 -34q0 -29 -9 -52l-8 -41l-2 -49q0 -43 63.5 -72.5t149.5 -29.5q84 0 136.5 50t52.5 110l-7 34q-10 -51 -58 -74.5t-97 -23.5q-25 0 -47.5 2 t-42.5 8q-35 12 -59.5 35t-45.5 59q-10 31 -14 68q0 70 18.5 112t59.5 76q37 37 143 37q72 0 185.5 -49t113.5 -301q0 -84 -37 -168q-37 -76 -91 -111.5t-111.5 -49t-112.5 -13.5q-78 0 -149.5 20.5t-135.5 94.5q-31 35 -47 80t-16 100q0 35 3 48t13 40l19 55q0 18 -17.5 37 t-38.5 19q-29 0 -59 -33q-25 -31 -37 -80l-14 -74l-4 -51l2 -49q0 -16 25.5 -113.5t159.5 -191.5t304 -94q145 0 265 64.5t186.5 189.5t66.5 292q0 168 -62.5 295t-173 200t-259.5 73q-197 0 -325 -61.5t-192 -174.5h-161q6 49 32 94q14 25 26.5 42.5t41.5 54.5 q41 49 107.5 89t142.5 68.5t166 38.5l166 8h51l127 -14q96 -8 223 -96t184.5 -198.5t81.5 -233.5q10 -53 16.5 -115t6.5 -123v-78q-6 -37 -8 -55q0 -33 -8.5 -68.5t-28.5 -101.5q-25 -90 -72 -166t-107.5 -130t-174 -116.5t-304.5 -62.5q-172 0 -331.5 65.5t-237.5 175 t-105.5 219t-27.5 206.5zM682 956q0 -23 15.5 -43t47.5 -20q23 0 44.5 15t21.5 50q0 18 -13.5 41t-49.5 23q-20 0 -39 -12q-27 -20 -27 -54z" />
<glyph unicode="v" horiz-adv-x="1495" d="M33 457q0 74 24.5 163t87.5 154h-100v156h119q-14 12 -29 37l-8 47q0 74 46 118t83 60l72 22l82 9l59 -2q23 0 95.5 -19.5t137.5 -87.5q31 -33 47.5 -75t16.5 -95v-166h-360q-57 -14 -97.5 -47t-62.5 -92q-25 -55 -25 -121q0 -68 31 -127t76 -84q47 -20 88 -20 q76 0 142.5 46t66.5 105l6 215h192l2 -137q0 -109 49 -170q51 -57 144 -57h33l53 16q37 10 73.5 56.5t62.5 137.5t26 208q0 96 -22.5 197.5t-73 189.5t-104.5 145t-169 117q-59 29 -114.5 43t-123.5 14q-43 0 -85 -6t-91 -21q-88 -25 -145 -65q-51 -33 -115 -111h-178 q53 92 111.5 154.5t139.5 105.5t174 61.5t187 18.5q100 0 191 -20q98 -18 188 -66q92 -43 164 -114q68 -63 133 -174q80 -139 100.5 -269.5t20.5 -290.5q0 -178 -43 -294.5t-103.5 -182t-150.5 -106.5q-86 -35 -168 -35h-45q-23 6 -47.5 10t-80.5 38t-79 114 q-14 -39 -47 -73t-78 -52l-92 -25q-49 -8 -66.5 -9t-29.5 -1q-53 0 -100.5 12.5t-110.5 58.5t-104 104t-56 118l-16 90zM371 1085q20 -14 32 -53l5 -31q0 -41 -25 -71h215q0 41 -10 63q-6 25 -26.5 44.5t-61.5 33.5t-99 14h-30z" />
<glyph unicode="w" horiz-adv-x="1474" d="M41 489q0 41 2 61.5t13.5 72t47 121t86 108.5t119.5 61q-35 20 -51 50t-22 75q0 29 18 64t57 65.5t142 55.5q45 8 101 14t108 6q39 0 78.5 -2t78.5 -8q41 0 62.5 -5t56.5 -19.5t42 -17.5t27.5 -17.5t59.5 -52.5t52.5 -82t13.5 -68q25 6 43 39l34 65q16 35 19 60l2 43h135 l6 -48q0 -92 -80 -159q59 -12 97 -74q16 -31 24 -63.5t8 -75.5q0 -47 -19.5 -107.5t-93 -100.5t-173.5 -40v-344h194v-168h-194v-336h-179v342l-127 -6l-243 -2q-145 0 -308 73.5t-200 208t-37 211.5zM340 498q0 -76 20.5 -136.5t65.5 -105.5t127 -70.5t258 -25.5h152v671 h-80l-78 3q-135 0 -219 -19.5t-144.5 -70t-81 -115t-20.5 -131.5zM504 1100q18 -12 25.5 -29.5t11.5 -48.5q0 -35 -19 -53h441q-6 45 -33 73q-23 29 -80 56.5t-191 27.5l-86 -6q-39 -6 -69 -20zM1135 627h22q55 0 74 25.5t31 62.5q0 80 -32 98t-95 18v-204z" />
<glyph unicode="x" horiz-adv-x="923" d="M49 584q0 156 79 249t160 132t173 39q117 0 214 -59.5t143 -155t46 -201.5q0 -156 -108.5 -289t-298.5 -133q-117 0 -221 65q-86 55 -136.5 148.5t-50.5 204.5zM221 625q0 -86 62.5 -158t179.5 -72q57 0 113.5 24.5t93.5 79t37 130.5q0 90 -68 169t-190 79 q-61 0 -110.5 -26t-78.5 -75q-39 -78 -39 -151z" />
<glyph unicode="y" horiz-adv-x="1533" d="M41 508q0 27 2 58.5t11 97t54.5 129t100.5 104.5q-100 29 -100 133q0 84 75 148q37 33 89.5 49t127.5 16q135 0 218 -75.5t83 -190.5q4 23 12.5 46.5t22.5 49.5q27 51 63 91t97 60.5t147 20.5q197 0 303.5 -126t125.5 -255l20 -164l2 -69q0 -133 -38 -276.5t-157.5 -248 t-277.5 -104.5l-68 6v146l25 -2h16q57 0 104.5 20.5t69 35.5t48 50t49.5 80q16 39 26 100l11 82l2 39q0 143 -41 232q-35 86 -85.5 132t-117.5 46h-17l-71 -6q-35 -6 -70 -25.5t-71.5 -75t-59.5 -121.5q18 0 38.5 -2t45.5 -8q47 -6 105.5 -54t58.5 -194q0 -147 -41 -235 q-37 -86 -86 -129t-105 -68q-49 -16 -133 -33q-78 -12 -135 -12q-92 0 -154.5 18.5t-134 70.5t-102.5 101.5t-55 116.5l-27 111zM242 559q0 -127 90 -201.5t219 -74.5q90 0 161.5 35.5t106.5 103.5q10 18 12 43l3 51q0 57 -29 81t-66 30l-22 -78h-135l57 287h-225 q-102 -25 -140 -107q-16 -43 -24 -82t-8 -88zM315 1102q18 -2 37 -31q12 -20 17 -57q0 -33 -27 -53h240q-8 49 -29 84.5t-59 56.5q-34 22 -80 22h-4q-20 0 -42 -3t-53 -19z" />
<glyph unicode="z" d="M53 -20v1107h172v170h1106v-1105h-170v-172h-1108zM289 205h993v993h-993v-993z" />
<glyph unicode="{" horiz-adv-x="2529" d="M25 672l6 92q6 37 55 179t191.5 202.5t195.5 69t76.5 10.5t71.5 2l104 -2l111 -2v-172q-125 0 -185 -17q-66 -14 -121 -75.5t-80.5 -118t-25.5 -121.5q0 -78 6 -130t23 -93q29 -74 69.5 -123t93.5 -74q61 -20 119 -20q63 0 117.5 20t98.5 69.5t44 141.5q0 51 -22 88 q-16 35 -64 53v-106l-135 -4v202l10 97q6 49 43 140t131.5 170t221.5 79q178 0 239 -31q61 -27 127 -96q31 61 116 92t234 31q88 0 187.5 -29t152.5 -94q47 -57 66 -119q6 -31 10 -59.5t4 -67.5l-2 -51v-51l-139 -2l-115 -2q-229 0 -364 -56.5t-135 -218.5q0 -125 45 -201.5 t118.5 -111.5t122.5 -47l101 -9h32q20 0 45 5l66 6q31 0 82 18.5t147 75.5l-2 -88l-2 -49l2 -41q-74 -53 -192.5 -83t-188.5 -30q-27 -27 -26 -70q0 -53 43 -94q23 -20 53.5 -30.5t77.5 -10.5q72 0 134 35t62 105h39l47 2h54h49l2 -27q0 -49 -32 -107.5t-118 -119.5 l-110 -33q-33 -8 -70 -12t-92 -4l-65 2q-20 0 -45 6t-50.5 12t-48 13t-53.5 26q-49 27 -88 70l-27 67q-12 37 -12 80q0 35 12.5 66.5t44.5 56.5q-137 12 -275 91t-167 206l-25 160l-2 36q0 164 94.5 290t233.5 157q-53 6 -61 33l-9 51q-55 35 -120.5 61.5t-135.5 26.5 q-59 0 -117.5 -22.5t-119 -85t-82.5 -169.5q49 -8 84 -22t78 -57q41 -35 58 -95.5t17 -146.5q0 -80 -6 -129q0 -45 -47 -121q-33 -63 -71.5 -97t-100.5 -63q-49 -23 -123 -41q-59 -8 -83.5 -9t-39.5 -1q-63 0 -107 8.5t-99 32.5q-90 39 -150.5 121t-81.5 164l-24 145l-9 101 q0 72 12.5 140t41.5 140q53 139 147 203q-106 -25 -179 -125t-73 -315v-52.5t4 -45t39 -93.5h-147l-39 137zM1780 1055q41 -23 41 -70q0 -37 -29 -78l352 4q0 68 -87 118t-183 50q-57 0 -94 -24z" />
<glyph unicode="|" horiz-adv-x="1390" d="M37 434q0 74 3 102.5t13 84.5q41 223 211 380q82 78 153.5 114t135.5 36q47 47 137 72q41 10 88 16t101 6q123 0 204 -26q86 -25 146 -91q61 -59 82.5 -130.5t21.5 -166.5h-295q-217 0 -342 -53t-150.5 -148t-25.5 -141q0 -102 54.5 -190t130.5 -119q72 -23 126 -33 l101 -6h74q35 6 76.5 10.5t93 19.5t74 24.5t61.5 31.5v-37l-2 -55v-45v-20q-55 -31 -168 -51.5t-260 -20.5q-23 -27 -23 -68q0 -70 54.5 -129t150.5 -59q135 0 205.5 59.5t70.5 145.5h156q0 -90 -44 -174t-146 -156l-115 -33q-70 -16 -164 -16q-66 0 -137.5 13t-132.5 52 q-59 33 -98.5 90.5t-39.5 155.5q0 76 35 123l-73 14q-31 6 -98.5 40t-145.5 116t-96 172q-8 43 -12.5 79t-4.5 69q0 184 99.5 301.5t238.5 136.5q-33 6 -47 24.5t-18 51.5q-90 -25 -182.5 -129.5t-120.5 -188.5l-33 -145q-8 -63 -10 -78v-49q0 -98 26 -170h-53q-37 0 -60 4 q-27 59 -26 184zM727 1081q35 -12 35 -69q0 -25 -8 -41l395 -2q0 72 -84 110.5t-188 38.5q-102 0 -150 -37z" />
<glyph unicode="}" horiz-adv-x="700" d="M96 418v168h506v-168h-506zM96 752v184h510v-184h-510z" />
<glyph unicode="~" horiz-adv-x="432" d="M57 1454q0 66 42 115t110 49q72 0 124 -50t52 -136q0 -92 -68.5 -164t-173.5 -72l54 68l26 57l-37 -6q-49 0 -90 35q-39 39 -39 104z" />
<glyph d="M53 -20v1107h172v170h1106v-1105h-170v-172h-1108zM289 205h993v993h-993v-993z" />
<glyph d="M53 -20v1107h172v170h1106v-1105h-170v-172h-1108zM289 205h993v993h-993v-993z" />
<glyph d="M53 -20v1107h172v170h1106v-1105h-170v-172h-1108zM289 205h993v993h-993v-993z" />
<glyph d="M53 -20v1107h172v170h1106v-1105h-170v-172h-1108zM289 205h993v993h-993v-993z" />
<glyph d="M53 -20v1107h172v170h1106v-1105h-170v-172h-1108zM289 205h993v993h-993v-993z" />
<glyph d="M53 -20v1107h172v170h1106v-1105h-170v-172h-1108zM289 205h993v993h-993v-993z" />
<glyph d="M53 -20v1107h172v170h1106v-1105h-170v-172h-1108zM289 205h993v993h-993v-993z" />
<glyph d="M53 -20v1107h172v170h1106v-1105h-170v-172h-1108zM289 205h993v993h-993v-993z" />
<glyph unicode="&#xa0;" horiz-adv-x="2054" d="M37 434q0 74 3 102.5t13 84.5q41 223 211 380q82 78 153.5 114t135.5 36q47 47 137 72q41 10 88 16t101 6q123 0 204 -26q86 -25 146 -91q61 -59 82.5 -130.5t21.5 -166.5h-295q-217 0 -342 -53t-150.5 -148t-25.5 -141q0 -102 54.5 -190t130.5 -119q72 -23 126 -33 l101 -6h74q35 6 76.5 10.5t93 19.5t74 24.5t61.5 31.5l4 -157q-55 -31 -169 -51.5t-265 -20.5q-23 -27 -23 -68q0 -70 54.5 -129t150.5 -59q104 0 153.5 24.5t55.5 65.5h155q0 -61 -34 -115q-29 -49 -84.5 -81.5t-131 -51t-147.5 -18.5l-63 2q-20 0 -46 6t-40 10 q-59 12 -122 47t-102 92.5t-39 155.5q0 76 35 123l-73 14q-31 6 -98.5 40t-145.5 116t-96 172q-8 43 -12.5 79t-4.5 69q0 184 99.5 301.5t238.5 136.5q-33 6 -47 24.5t-18 51.5q-90 -25 -182.5 -129.5t-120.5 -188.5l-33 -145q-8 -63 -10 -78v-49q0 -98 26 -170h-53 q-37 0 -60 4q-27 59 -26 184zM727 1081q35 -12 35 -69q0 -25 -8 -41l395 -2q0 72 -84 110.5t-188 38.5q-102 0 -150 -37zM1391 104v63t7 59.5t16 56t32 67.5q37 74 84 121l112 104h-190v117l190 137h-202v140h483v-90q0 -33 -4 -50l-201 -129h201v-125q-129 -18 -191.5 -102 t-82 -134t-19.5 -103v-25q0 -43 8 -90q6 -53 38 -104.5t102 -51.5q72 0 86 36t14 69q0 37 -4 49q0 16 -6 28h131q8 -12 17 -39.5t9 -74.5q0 -72 -25.5 -146.5t-59 -98.5t-97 -48.5t-119.5 -24.5q-63 0 -115.5 22.5t-96.5 63.5t-80.5 125t-36.5 178z" />
<glyph unicode="&#xa1;" horiz-adv-x="1552" d="M61 618q0 279 195 459t510 180q313 0 513 -180t200 -459t-148.5 -413.5t-282 -179.5t-288.5 -45q-147 0 -258 33.5t-215 115.5q-98 84 -166 215q-59 131 -60 274zM135 618q0 -102 43 -209.5t105 -168.5q18 -18 43 -39q35 -31 61 -51q47 -31 123 -62t190 -31 q231 0 395.5 166t164.5 395q0 113 -45.5 219.5t-118 180.5t-183.5 119q-49 20 -103 32.5t-110 12.5q-233 0 -399 -166t-166 -398z" />
<glyph unicode="&#xa2;" horiz-adv-x="1435" d="M37 434q0 49 6 107.5t23 142.5q27 156 198 317q82 78 153.5 114t135.5 36q-82 18 -134 63.5t-52 147.5q0 135 160.5 201.5t351.5 66.5q92 0 170.5 -16.5t156.5 -54.5q147 -68 160 -154l10 -98q0 -86 -69 -136q-8 -6 -54 -34q-8 -4 -18 -13q55 -57 76.5 -127.5 t21.5 -165.5h-295q-217 0 -342 -53t-150.5 -148t-25.5 -141q0 -102 54.5 -190t130.5 -119q72 -23 126 -33l101 -6h74q35 6 76.5 10.5t93 19.5t74 24.5t61.5 31.5l4 -157q-55 -31 -169 -51.5t-265 -20.5q-23 -27 -23 -68q0 -70 54.5 -129t150.5 -59q104 0 153.5 24.5 t55.5 65.5h155q0 -61 -34 -115q-29 -49 -84.5 -81.5t-131 -51t-147.5 -18.5l-63 2q-20 0 -46 6t-40 10q-59 12 -122 47t-102 92.5t-39 155.5q0 76 35 123l-73 14q-31 6 -98.5 40t-145.5 116t-96 172q-8 43 -12.5 79t-4.5 69q0 184 99.5 301.5t238.5 136.5q-33 6 -47 24.5 t-18 51.5q-90 -25 -182.5 -129.5t-120.5 -188.5l-33 -145q-8 -63 -10 -78v-49q0 -98 26 -170h-53q-37 0 -60 4q-27 59 -26 184zM539 1319q0 -63 88 -119q47 20 114.5 32.5t137.5 12.5q94 0 141 -10q33 -4 56.5 -10t58.5 -25q29 2 53 30.5t24 63.5q0 63 -88 113.5t-284 50.5 q-147 0 -224 -41q-78 -37 -77 -98zM727 1081q35 -12 35 -69q0 -25 -8 -41l395 -2q0 72 -84 110.5t-188 38.5q-102 0 -150 -37z" />
<glyph unicode="&#xa3;" d="M37 434q0 49 6 107.5t23 142.5q27 156 198 317q82 78 153.5 114t135.5 36q-68 23 -125 85t-57 155q0 96 80 163q78 61 159 72l140 12l124 4l146 -6q57 -6 145 -30q86 -20 142 -74q55 -49 61 -96l8 -54v-20q0 -86 -57 -143.5t-135 -57.5q66 -51 107.5 -141t41.5 -189h-295 q-217 0 -342 -53t-150.5 -148t-25.5 -141q0 -102 54.5 -190t130.5 -119q72 -23 126 -33l101 -6h74q35 6 76.5 10.5t93 19.5t74 24.5t61.5 31.5l4 -157q-55 -31 -169 -51.5t-265 -20.5q-23 -27 -23 -68q0 -70 54.5 -129t150.5 -59q104 0 153.5 24.5t55.5 65.5h155 q0 -61 -34 -115q-29 -49 -84.5 -81.5t-131 -51t-147.5 -18.5l-63 2q-20 0 -46 6t-40 10q-59 12 -122 47t-102 92.5t-39 155.5q0 76 35 123l-73 14q-31 6 -98.5 40t-145.5 116t-96 172q-8 43 -12.5 79t-4.5 69q0 184 99.5 301.5t238.5 136.5q-33 6 -47 24.5t-18 51.5 q-90 -25 -182.5 -129.5t-120.5 -188.5l-33 -145q-8 -63 -10 -78v-49q0 -98 26 -170h-53q-37 0 -60 4q-27 59 -26 184zM549 1337q0 -35 22.5 -65.5t63.5 -57.5q39 12 113 23l131 8l71 -2q40 0 97 -14q-70 51 -70 135q0 53 33 92q-66 8 -104 9t-60 1q-76 0 -103.5 -3t-85 -15 t-86.5 -47q-18 -27 -22 -64zM727 1081q35 -12 35 -69q0 -25 -8 -41l395 -2q0 72 -84 110.5t-188 38.5q-102 0 -150 -37zM1085 1356q0 -33 27 -60q29 -23 68 -22q33 0 58.5 25.5t25.5 66.5q0 33 -29 58.5t-66 25.5q-33 0 -58.5 -28.5t-25.5 -65.5z" />
<glyph unicode="&#xa4;" horiz-adv-x="970" d="M39 471v164h356v344h180v-344h355v-164h-355v-344h-180v344h-356z" />
<glyph unicode="&#xa5;" horiz-adv-x="1173" d="M25 492q0 184 101 301.5t239 136.5q-35 6 -54 31q-10 23 -14 57l4 37l29 69q25 49 124 85t226 36q123 0 205 -26q86 -25 145 -91q61 -59 83 -131t22 -166h-295q-227 0 -346 -44t-149 -148t-30 -150q0 -109 54.5 -202.5t175.5 -118.5l88 -8h49h448v-557h-96l-139 -2 q-68 37 -147.5 60.5t-153.5 23.5q-78 0 -168 -43l-107 -50l-114 2l-82 3v200l65 2h95h36q61 33 142 56q78 18 149 18q76 0 166 -20q70 -14 95.5 -19.5t80.5 -21.5v186l-147 -2l-148 -2l-129 2l-122 20q-55 10 -119 38t-146 115t-100 175q-8 43 -12 79t-4 69zM528 1081 q37 -12 37 -69q0 -20 -10 -41l395 -2q0 72 -84 110.5t-188 38.5q-100 0 -150 -37z" />
<glyph unicode="&#xa6;" d="M53 -20v1107h172v170h1106v-1105h-170v-172h-1108zM289 205h993v993h-993v-993z" />
<glyph unicode="&#xa7;" horiz-adv-x="1214" d="M31 492q0 184 99 301.5t239 136.5q-29 6 -52 31q-8 12 -12 26t-4 37q0 25 3 36t13 32q18 37 48 57q-63 27 -121 86q-51 61 -51 137q0 100 84.5 173t168.5 73l129 10l130 6h83q37 -6 79 -10t126 -29q82 -18 135 -71q55 -49 70 -131l4 -43q0 -82 -49 -133.5t-121 -63.5 q53 -59 81 -142t28 -180h-295q-219 0 -344 -53t-152 -151q-8 -39 -15 -77t-7 -61q0 -102 54 -190t130 -119q68 -23 125 -33l102 -6h74q35 6 78 10.5t107.5 24t119.5 51.5v-37l-2 -55v-45v-20q-55 -31 -167.5 -51.5t-260.5 -20.5q-25 -25 -24 -68q0 -66 55 -127t151 -61 q135 0 206 59.5t71 145.5h156q0 -92 -44.5 -174t-148.5 -156l-115 -33q-70 -16 -164 -16q-66 0 -137 13t-133 50q-61 33 -98 90.5t-37 155.5v26.5t7 41t28 57.5l-76 14l-96 39q-70 35 -146.5 118t-95.5 173q-8 47 -12 79t-4 67zM385 1333q0 -35 23 -65q25 -27 63 -51 q12 4 43 11t55 11l115 6h47.5t50.5 -4q39 0 82 -16q-25 20 -44 54t-19 71l6 47q6 23 24 49q-31 8 -65.5 12t-85.5 4q-92 0 -172 -18q-76 -14 -102 -51l-15 -27q-6 -12 -6 -33zM535 1081q14 -6 24 -27.5t10 -45.5q0 -20 -8 -37l393 -2q0 72 -84 110.5t-188 38.5t-147 -37z M920 1341q0 -33 25.5 -58.5t66.5 -25.5q33 0 58.5 29t25.5 66q0 33 -26 58.5t-66 25.5q-33 0 -58.5 -29t-25.5 -66z" />
<glyph unicode="&#xa8;" horiz-adv-x="1486" d="M37 578q0 281 166 443.5t326.5 196t289.5 33.5h84q35 -6 78 -10t131 -39q90 -31 174 -95.5t129 -173.5t45 -224q0 -94 -20 -154q-18 -63 -33 -80l-45 -67q-63 -80 -164.5 -116t-181.5 -36q-109 0 -216.5 43t-157.5 124t-50 169q0 55 18 117h-90v196h608v-178l-337 -2 l14 -92q12 -41 63 -78q55 -33 136 -33q129 0 174 51q14 18 32.5 49t26.5 50q6 25 10 48t4 50l-6 90q-6 61 -123.5 136t-312.5 75q-168 0 -277.5 -74.5t-150.5 -150.5q-33 -66 -51 -127q-6 -31 -10.5 -59.5t-4.5 -67.5q0 -55 12.5 -116.5t50.5 -141.5t163 -160 q119 -72 200 -84l99 -8h45q125 0 237.5 37t214.5 127l64 -60l-2 -639l-1237 2v232l1028 -2v207q-86 -47 -193 -68q-47 -8 -101 -14t-97 -6q-115 0 -236 25.5t-226.5 90t-202.5 205.5t-97 359z" />
<glyph unicode="&#xa9;" horiz-adv-x="1523" d="M39 565q0 70 21.5 249t182 305t402.5 126l105 -6v-129l-45 6l-58 4q-168 0 -301 -102.5t-133 -390.5q0 -125 49 -234.5t201 -109.5q109 0 157 56t48 128v178h209l4 -156q0 -104 55 -157q55 -49 156 -49q104 0 165.5 79.5t61.5 198.5l-8 98q0 70 -71 121t-157 51h-317 l-8 87q0 143 87 234t273 91q147 0 225 -75.5t78 -198.5h-161q6 59 -36 108t-130 49q-74 0 -125 -45q-41 -39 -41 -112h51l61 2q172 0 295.5 -72t143.5 -299q0 -213 -52.5 -353.5t-146.5 -189.5q-86 -41 -133 -51l-74 -8l-65 6q-25 6 -45.5 14.5t-32.5 14.5q-49 25 -87 58.5 t-63 109.5q-10 -18 -20 -37t-31 -43q-29 -41 -65.5 -65.5t-94.5 -43.5q-27 -6 -51 -10t-55 -4h-27h-20q-14 4 -29.5 5t-53.5 13.5t-63 20.5q-92 31 -161.5 184.5t-69.5 343.5zM446 1499q0 86 37 160q47 84 130 130t180 46q100 0 179 -27.5t120 -81.5q35 -45 53 -102 q8 -29 12 -52t4 -56l-2 -43q0 -51 -43 -121t-90 -99h-98q57 31 82.5 90.5t25.5 122.5q0 33 -34.5 122t-210.5 89q-94 0 -160 -53t-66 -143v-25l8 -43q6 -31 49.5 -61.5t100.5 -30.5q-59 6 -71.5 31.5t-16.5 58.5q0 33 11 60.5t28.5 46t45.5 31t60 12.5q53 0 107 -35 q55 -31 55 -119q-6 -61 -49 -104t-94 -60q-51 -10 -88 -10q-63 0 -123 24.5t-103 94.5q-39 72 -39 147zM737 1423q0 -12 10.5 -28.5t43.5 -16.5q12 0 28.5 9.5t16.5 42.5q0 10 -11.5 28.5t-42.5 18.5l-24 -7q-20 -14 -21 -47z" />
<glyph unicode="&#xaa;" horiz-adv-x="1361" d="M27 430q0 53 6 112.5t22 141.5q27 152 199 317q84 78 155.5 114t135.5 36q47 47 134 70.5t189 23.5q123 0 205 -26q86 -25 146 -91q61 -59 82.5 -130.5t21.5 -166.5h-295q-217 0 -342 -53t-151 -151q-8 -39 -15.5 -77t-7.5 -61q0 -100 54.5 -186t160.5 -119 q12 -4 31.5 -8t72.5 -12l140 -4h352v-553h-131l-150 -2q-20 0 -92.5 30.5t-158.5 30.5q-109 0 -194 -30.5t-112 -30.5h-36h-31h-25h-57l-27 2v180l140 4l120 33q125 33 197 33q70 0 149 -21l105 -20l133 -4v192h-225l-94 -2h-97l-135 14q-63 6 -131 40t-143.5 116t-98.5 174 q-8 47 -12 79t-4 67q0 184 101.5 301.5t238.5 136.5q-33 6 -48.5 24.5t-19.5 51.5q-84 -20 -179 -128t-132 -221q-16 -59 -24.5 -115.5t-8.5 -123.5q0 -100 27 -172h-55l-60 4q-10 23 -20 74zM717 1081q37 -12 37 -69q0 -20 -11 -41l396 -2q0 72 -84 110.5t-189 38.5 q-100 0 -149 -37z" />
<glyph unicode="&#xab;" horiz-adv-x="2398" d="M47 692q0 63 18.5 157.5t97.5 187.5t181 137.5t195.5 55.5t214.5 11h82v-190q-125 0 -185 -17q-66 -14 -121 -75.5t-80.5 -118t-25.5 -121.5q0 -78 6 -130t23 -93q29 -74 69.5 -123t93.5 -74q61 -20 119 -20q63 0 117.5 20t98.5 69.5t44 141.5q0 51 -22 88q-16 35 -64 53 v-106h-135v198l10 97q6 49 42 140t140.5 176t233.5 85q145 0 215 -22.5t111 -73.5q51 55 130 75.5t175 20.5q113 0 200 -25.5t142 -78.5q55 -49 80.5 -118t25.5 -134l-4 -45l-266 -2q-264 0 -401.5 -54.5t-137.5 -287.5q0 -104 60.5 -173t122 -97.5t118 -39t79 -11.5 t48.5 -1h64l74 14q49 6 112.5 33t114.5 72l2 -150l-57 -30l-70 -29q-6 -23 -29 -53l-41 -60q129 0 192.5 -20.5t76.5 -85.5l12 -78q0 -109 -104 -170q-104 -55 -207 -72.5t-170 -17.5q-158 0 -278 48t-120 155h162q16 -29 69.5 -53.5t108.5 -24.5q94 0 181.5 25.5t87.5 86.5 q0 37 -33 70q-29 25 -57 29l-31 -2h-27h-37l-26 2l98 172l-82 -23l-94 -6q-94 0 -178 21q-45 12 -81 24t-77 35q-68 35 -143.5 121t-87.5 170l-13 123q0 162 89.5 277.5t211.5 133.5q-25 18 -32 41l-9 60q-25 25 -77 45t-117 20q-76 0 -144.5 -25.5t-109.5 -72.5 q-43 -43 -61 -92q-10 -25 -14.5 -38t-14.5 -61q49 -8 86 -24q31 -10 76 -52t65.5 -99.5t20.5 -131.5q0 -84 -13.5 -145.5t-42.5 -112.5q-25 -51 -77 -95t-110 -71.5t-109.5 -39t-129.5 -11.5q-106 0 -189 37t-147 113q-27 33 -48 69.5t-35 71.5q-23 70 -37 149l-15 132 q0 72 12.5 140t41.5 140q53 139 147 203q-102 -25 -180 -104.5t-78 -243.5v-42.5t4 -45.5l12 -93q6 -47 33 -102h-133l-27 131q-12 68 -12 131zM1698 1087q39 -12 39 -61q0 -25 -19 -55l391 2q0 66 -86 106.5t-186 40.5h-38t-46 -7t-55 -26z" />
<glyph unicode="&#xac;" horiz-adv-x="2281" d="M20 637q37 0 58 4l24 -2l35 -2q0 -27 22.5 -43t59.5 -16q27 0 53.5 9t80 54t83 99.5t76.5 193.5q0 31 -10 51q-6 23 -40 50.5t-81 27.5q-39 0 -66.5 -16.5t-44.5 -59.5l45 8q43 0 72 -41t29 -86q0 -29 -32 -76t-114 -47l-39 5q-31 6 -59.5 34.5t-40.5 63.5l-8 74 q0 86 49 159.5t117 92.5q35 8 60.5 12t51.5 4q84 0 139.5 -43t61.5 -100q29 35 43 49t27.5 24t38.5 25q35 20 49 29q47 25 159.5 45t229.5 20q109 0 203 -17.5t145 -52.5q49 35 129 53.5t164 18.5q119 0 205 -25.5t147 -93.5q59 -59 82 -129q10 -29 16.5 -71.5t6.5 -96.5 h-35h-31h-24h-25h-76l-80 2h-24q-219 0 -344 -53t-152 -151q-8 -39 -15 -77t-7 -61q0 -100 54 -191t126 -115.5t129 -35.5l102 -6h74q35 6 78 10.5t107.5 23.5t119.5 52v-37l-2 -55v-47v-21q-78 -41 -192.5 -55t-235.5 -14q-25 -25 -25 -70q0 -66 55.5 -127t151.5 -61 q133 0 205 60.5t72 144.5h155q0 -90 -43 -171t-149 -159l-111 -33q-33 -8 -69.5 -12t-91.5 -4l-66 2q-20 0 -46 6t-51.5 12t-51 15.5t-62.5 29.5q-63 35 -99 90.5t-36 153.5q0 78 35 125l-76 16q-12 2 -38 12.5t-60 28.5q-68 35 -145 116t-95 171q-8 43 -12 79t-4 68 q0 184 98 301t240 136q-37 6 -49.5 31.5t-12.5 62.5q-39 16 -83 24.5t-60.5 10.5t-52.5 2l-76 -4l-107 -13q-59 -6 -135 -48t-141 -111q139 0 237 -123q41 -59 61.5 -126t20.5 -141q0 -205 -143 -344t-338 -139q-203 0 -339 69.5t-179 190.5q-37 121 -49 201zM170 465 q18 -84 128 -134t218 -50q158 0 259.5 74.5t101.5 207.5q0 123 -74 169t-158 46h-20l-13 -2l-32 -69q-18 -37 -68 -99q-59 -68 -143 -108q-82 -35 -199 -35zM1640 1077q14 -6 22.5 -24.5t12.5 -48.5q0 -23 -8 -39l393 -2q0 72 -82 111.5t-190 39.5q-104 0 -148 -37z" />
<glyph unicode="&#xad;" horiz-adv-x="817" d="M174 455v196h455v-196h-455z" />
<glyph unicode="&#xae;" horiz-adv-x="0" d="M-1174 1397v239h197v-65q31 53 45 61q10 10 49 10h37q37 0 54.5 -7t35.5 -31q12 -18 19 -54l6 -65q0 -78 -20.5 -110t-59.5 -46q-18 -6 -36.5 -10t-41.5 -4q-53 0 -82 24v-184l-135 -49v291h-68zM-973 1444q14 -27 51 -27q52 0 52 53q0 20 -15.5 33t-36.5 13h-51v-72z " />
<glyph unicode="&#xaf;" horiz-adv-x="1150" d="M23 500q0 160 86 271.5t213 133.5q-51 39 -52 88l13 82q12 61 123.5 111.5t234.5 50.5q129 0 205 -23q82 -18 140 -78.5t82 -119t24 -119.5l-7 -66h-266q-139 0 -236.5 -12t-166.5 -41q-133 -53 -133 -286q0 -102 61 -177q59 -66 152 -108q94 -39 219 -39 q53 0 119.5 12.5t126 36t112.5 72.5l-2 -90l-2 -56l-57 -51l-39 -43q119 0 172 -19.5t65 -82.5l13 -78q0 -111 -105.5 -169t-185.5 -67l-96 -10l-33 -2l-43 2l-78 8v103q121 0 211 20q96 18 96 78q0 43 -28.5 71.5t-100.5 45.5l-39 -2h-26h-37h-17l99 98q-98 -33 -226 -33 q-80 0 -111.5 3t-77.5 12.5t-88 22.5t-76 31.5t-69.5 48.5t-72.5 73q-68 80 -84 170q-12 86 -12 127zM508 1083q39 -12 39 -57q0 -25 -19 -55l379 -2q6 51 -92 95t-205 44q-66 0 -102 -25z" />
<glyph unicode="&#xb0;" horiz-adv-x="1896" d="M31 492q0 184 99 301.5t239 136.5q-35 6 -54 31q-10 23 -14 57l4 37l31 69q23 47 122 84t226 37q121 0 205 -24.5t146.5 -89t84 -133t21.5 -167.5h-295q-219 0 -344 -53t-152 -151q-8 -39 -15 -77t-7 -61q0 -102 54 -190t130 -119q68 -23 125 -33l102 -6h74q35 6 78 10.5 t107.5 24t119.5 51.5v-37l-2 -55v-45v-20q-55 -31 -167.5 -51.5t-260.5 -20.5q-25 -25 -24 -68q0 -66 55 -127t151 -61q106 0 167 31.5t61 74.5h159q0 -78 -28.5 -121.5t-118.5 -109.5l-115 -33q-70 -16 -164 -16q-66 0 -137 13t-133 50q-61 33 -98 90.5t-37 155.5v26.5 t7 41t28 57.5l-76 14l-96 39q-70 35 -148 119t-98 195q-12 66 -12 123zM535 1081q14 -6 24 -27.5t10 -45.5q0 -20 -8 -37l393 -2q0 72 -84 110.5t-188 38.5t-147 -37zM1233 104v63t8 66.5t47 113.5t84 124l115 104h-193v117l193 137h-205v140h483v-88l-4 -47l-200 -134h200 v-125q-133 -18 -192.5 -100t-72.5 -138t-13 -120q0 -43 7 -92t29.5 -85t51.5 -54q23 -12 55 -17q59 0 75.5 32t16.5 69t-4 49q0 16 -6 28h131q8 -12 17.5 -38.5t9.5 -73.5q0 -76 -25.5 -148.5t-60.5 -97.5t-98.5 -49.5t-118.5 -24.5q-61 0 -114.5 22.5t-96.5 63.5t-84 125 q-35 82 -35 178z" />
<glyph unicode="&#xb1;" horiz-adv-x="1902" d="M31 492q0 184 99 301.5t239 136.5q-35 6 -54 31q-10 23 -14 57l4 37l31 69q23 47 122 84t226 37q121 0 205 -24.5t146.5 -89t84 -133t21.5 -167.5h-295q-219 0 -344 -53t-152 -151q-8 -39 -15 -77t-7 -61q0 -102 54 -190t130 -119q68 -23 125 -33l102 -6h74q35 6 78 10.5 t107.5 24t119.5 51.5v-37l-2 -55v-45v-20q-55 -31 -167.5 -51.5t-260.5 -20.5q-25 -25 -24 -68q0 -66 55 -127t151 -61q106 0 167 31.5t61 74.5h159q0 -78 -28.5 -121.5t-118.5 -109.5l-115 -33q-70 -16 -164 -16q-66 0 -137 13t-133 50q-61 33 -98 90.5t-37 155.5v26.5 t7 41t28 57.5l-76 14l-96 39q-70 35 -148 119t-98 195q-12 66 -12 123zM535 1081q14 -6 24 -27.5t10 -45.5q0 -20 -8 -37l393 -2q0 72 -84 110.5t-188 38.5t-147 -37zM1212 96q0 41 6.5 85t10.5 73q12 117 78 242q61 129 125 211l90 122h-281v140h518l4 -109l-4 -37l-73 -86 l-80 -110l-62 -111l-41 -110l-26 -89l-7 -55l7 -45l-4 -51q0 -53 30.5 -110.5t57 -70t59.5 -16.5q59 0 75.5 32t16.5 69t-4 49q0 16 -6 28h131q12 -18 18 -49l7 -63q0 -76 -24 -147.5t-60.5 -97.5t-92 -50.5t-106.5 -24.5q-63 0 -123.5 22.5t-95.5 53.5q-53 49 -90 111 q-12 25 -25.5 70.5t-28.5 123.5z" />
<glyph unicode="&#xb2;" d="M53 -20v1107h172v170h1106v-1105h-170v-172h-1108zM289 205h993v993h-993v-993z" />
<glyph unicode="&#xb3;" d="M53 -20v1107h172v170h1106v-1105h-170v-172h-1108zM289 205h993v993h-993v-993z" />
<glyph unicode="&#xb4;" horiz-adv-x="1513" d="M18 586q0 55 2.5 83.5t17.5 106.5t36 123q18 49 69 105q47 57 121 83q29 10 68 18.5t71 8.5q66 0 105 -19.5t57.5 -43t30.5 -64.5l-21 -53l-10 -57l8 -52q6 -37 65.5 -71.5t131.5 -34.5q88 0 125 46t37 91q0 29 -14 57q-12 33 -48 50l2 -21q0 -12 -13 -37.5t-44 -38.5 q-16 -6 -29.5 -8t-40.5 -2q-80 0 -112 47q-33 53 -33 92q0 35 12.5 61.5t47 67.5t128.5 41q33 0 62 -6t63 -22q61 -25 95 -76q33 -45 50 -101.5t17 -97.5l-6 -63l-12 -37q-23 -70 -45.5 -98.5t-81.5 -67.5q-49 -29 -107 -45q-53 -12 -100 -12h-35h-24q-16 4 -25.5 5t-31 7 t-42.5 14q-45 16 -89 50t-66 87q-18 53 -19 97q0 41 12 71q4 10 15.5 29t19.5 29q-4 10 -30 22l-41 8q-31 0 -57.5 -18t-55.5 -63q-23 -41 -36 -101.5t-13 -122.5q0 -78 18.5 -148.5t38 -103t64.5 -77.5q41 -37 118 -37q57 0 105.5 19.5t68.5 96.5l15 84h221v-63 q6 -27 10 -51.5t41 -58t107 -33.5q33 0 50 4t73.5 33.5t89 160.5t32.5 314q-10 109 -53 195.5t-90 135.5q-43 49 -170 75t-358 26h-396l-2 123q27 0 41 -5h35l29 3l26 2q-43 18 -84.5 48.5t-41.5 82.5q0 43 49 86q29 25 78 40t120 15q76 0 117 2q205 10 221 10 q72 0 134.5 -6t121.5 -20q113 -25 168 -66q59 -37 110.5 -110.5t51.5 -151.5l-156 -2q-25 104 -119 147t-303 43q-55 0 -131.5 -2t-97.5 -2q-76 0 -103.5 -21.5t-27.5 -37.5t27 -31l49 -24h233h129q59 0 164 -19.5t189 -71.5q80 -45 150.5 -137t89 -253.5t18.5 -243.5 q0 -27 -1 -57.5t-16 -102.5q-12 -94 -31.5 -142.5t-62.5 -118t-99.5 -113.5t-117 -68.5t-129.5 -24.5q-82 0 -149.5 37t-110.5 119q-27 -70 -109 -109t-184 -39q-135 0 -240.5 74t-142.5 172l-49 172q-6 39 -10.5 78t-4.5 86z" />
<glyph unicode="&#xb5;" horiz-adv-x="1165" d="M33 442q0 195 67.5 323t223.5 173l-31 33q-12 16 -12 39l12 73q12 57 117.5 105.5t234.5 48.5q109 0 189.5 -24.5t145 -73.5t93.5 -132t29 -176h-283q-260 0 -389 -56t-129 -283q0 -102 48 -177t129 -120t222 -45q25 0 54.5 1t83 16t134.5 60t134 97v-82l2 -64 q-111 -66 -180 -98q-29 -14 -60.5 -24.5t-64.5 -16.5q43 -10 56 -50t13 -77v-18q0 -43 -9 -68t-13 -36t-23 -36q-18 -31 -41 -47l-36 -31l-29 -24q-6 -8 -10 -31q25 12 57 12l33 -2l73 -10l48 -4q86 0 117.5 38t31.5 75q0 20 -12 61q-8 37 -47 45l-72 10l-55 2v64v27l6 41 l12 38l27 41q23 33 86 33q41 0 65.5 -22.5t30.5 -38.5l14 -51l7 -66l-68 -2q0 47 -11.5 73.5t-49.5 26.5q-18 0 -33 -20q-6 -16 -10 -51l2 -31h61q96 -12 115 -84q8 -35 12 -61.5t4 -51.5q0 -45 -10 -78q-6 -37 -31 -67q-16 -27 -43 -47q-16 -16 -49 -27l-47 -12l-41 -2h-35 q-86 0 -120 27.5t-68 27.5q-14 0 -22.5 -8t-12.5 -33l4 -18h-84l-4 63l2 47q0 47 3 63.5t22.5 45.5t58.5 63q43 31 63.5 55.5t36.5 67.5q10 31 10 66q-10 53 -69 53q-20 0 -41 -37q43 6 51 -16l10 -33q0 -29 -15 -43t-48 -18q-43 0 -57.5 26.5t-14.5 48.5q0 27 8 45l27 39 l-94 -8h-78q-31 6 -43 8q-47 8 -145.5 48t-172 149.5t-73.5 232.5zM504 1098q18 -8 32.5 -28.5t14.5 -51.5q0 -29 -16 -47l378 -2q8 57 -92 105t-211 48q-66 0 -106 -24z" />
<glyph unicode="&#xb6;" horiz-adv-x="835" d="M61 1470q0 59 44.5 111.5t109.5 52.5q74 0 124 -48t50 -136q0 -96 -70.5 -185t-166.5 -89l51 86l24 77l-37 -6q-49 0 -90 35q-39 39 -39 102zM455 1470q0 59 44 111.5t109 52.5q74 0 124 -48t50 -136q0 -96 -70.5 -185t-166.5 -89l51 86l25 77l-37 -6q-49 0 -90 35 q-39 39 -39 102z" />
<glyph unicode="&#xb7;" horiz-adv-x="409" d="M29 164q0 66 42 115t109 49q76 0 126 -47.5t50 -137.5q0 -100 -70.5 -193t-166.5 -93l43 82q23 43 31 92l-35 -6q-45 0 -87 36.5t-42 102.5zM41 897q0 70 47 117t117 47q66 0 115 -48t49 -116t-48.5 -116t-115.5 -48q-70 0 -117 49t-47 115z" />
<glyph unicode="&#xb8;" d="M53 -20v1107h172v170h1106v-1105h-170v-172h-1108zM289 205h993v993h-993v-993z" />
<glyph unicode="&#xb9;" d="M37 434q0 49 6 107.5t23 142.5q27 156 198 317q82 78 153.5 114t135.5 36q47 47 137 72q41 10 88 16t101 6q123 0 204 -26q86 -25 146 -91q61 -59 82.5 -130.5t21.5 -166.5h-295q-217 0 -342 -53t-150.5 -148t-25.5 -138q0 -98 54.5 -180.5t152.5 -118.5q104 -33 193 -33 l59 4l88 14q29 4 57.5 12.5t61.5 21.5t63.5 29.5t65.5 41.5v-140l-96 -94q119 0 172 -19.5t65 -82.5l12 -78q0 -111 -105.5 -169t-184.5 -67l-97 -10l-32 -2l-43 2l-78 8v103q121 0 211 20q96 18 96 78q0 43 -28.5 71.5t-100.5 45.5l-39 -2h-27h-36h-17l98 98 q-59 -20 -141 -33q-49 -6 -73.5 -8t-77.5 -2q-96 0 -174 13.5t-142.5 44t-141.5 112.5t-95 172q-8 43 -12.5 79t-4.5 69q0 184 99.5 301.5t238.5 136.5q-33 6 -47 24.5t-18 51.5q-90 -25 -182.5 -129.5t-120.5 -188.5l-33 -145q-8 -63 -10 -78v-49q0 -98 26 -170h-53 q-37 0 -60 4q-27 59 -26 184zM727 1081q35 -12 35 -69q0 -25 -8 -41l395 -2q0 72 -84 110.5t-188 38.5q-102 0 -150 -37z" />
<glyph unicode="&#xba;" horiz-adv-x="1193" d="M16 569q0 98 31 215t157 212.5t212 107.5q18 53 103 95t181 42q238 0 346.5 -71.5t108.5 -233.5l2 -107h-498q-98 -31 -154 -81t-73.5 -105t-17.5 -121q0 -43 4 -74.5t18 -76.5q25 -74 127.5 -137.5t227.5 -63.5q14 0 38.5 2t55.5 8q70 12 126 31.5t113 69.5v-37v-56 l-6 -32q-51 -39 -156.5 -81t-170.5 -42q63 -12 80.5 -47t17.5 -76v-72q-6 -25 -10.5 -48t-23.5 -52t-40 -43l-45 -37l-31 -27q-6 -6 -8 -28q31 12 53 12l37 -4l74 -8l51 -6q45 0 75 12t50.5 38.5t20.5 65.5q0 16 -12.5 55t-45.5 48l-65 12l-64 2v64v26l6 41l13 39l22 37 q29 37 92 37q35 0 60 -19l30 -35q6 -10 17 -59l6 -67l-66 -3q2 6 2 13.5v9.5q0 33 -16 55.5t-47 22.5q-20 0 -35 -21q-6 -16 -10 -53l2 -29h63q100 -12 115 -84l15 -79l2 -37q0 -43 -11 -74q-6 -33 -39 -78q-27 -43 -65 -57l-57 -17l-31 -2h-53q-92 0 -126 28t-61 28 q-12 0 -28 -13q-6 -10 -11 -28l6 -21h-84l-4 70v43q0 45 4.5 60.5t19.5 43t64 70.5q43 35 84 82q27 29 27 72q0 10 -5 35.5t-19.5 45t-41.5 17.5q-18 -4 -30.5 -11.5t-12.5 -27.5q41 0 54 -21l8 -28q0 -33 -23 -49q-12 -12 -41 -15q-49 0 -58 22.5t-13 55.5q0 27 8 49 q12 25 29 43q-176 0 -313.5 104.5t-162.5 219.5q-8 49 -15 95t-7 75l6 76l25 102q18 61 99 142t144 94q-23 16 -28 32l-6 41q-66 -14 -143 -76.5t-118 -158.5q-35 -92 -34 -203q0 -41 2 -63.5t11 -69.5t16.5 -68.5t25.5 -68.5h-94q-29 66 -43 137q-6 37 -10.5 73.5 t-4.5 73.5zM578 1094q31 0 50 -27t19 -57q0 -20 -12 -39h362q-6 39 -22 61q-10 23 -42 45.5t-81 34.5t-102 12q-113 0 -172 -30z" />
<glyph unicode="&#xbb;" horiz-adv-x="1327" d="M33 442q0 195 67.5 323t223.5 173l-31 33q-12 16 -12 39l12 73q12 57 117.5 105.5t234.5 48.5q109 0 189.5 -24.5t145 -73.5t93.5 -132t29 -176h-283q-260 0 -389 -56t-129 -283q0 -102 48 -177t129 -120t222 -45q25 0 54.5 1t83 16t134.5 60t134 97v-82l2 -64 q-111 -66 -180 -98q-29 -14 -60.5 -24.5t-64.5 -16.5q43 -10 56 -50t13 -77v-18q0 -43 -9 -68t-13 -36t-23 -36q-18 -31 -41 -47l-36 -31l-29 -24q-6 -8 -10 -31q25 12 57 12l33 -2l73 -10l48 -4q86 0 117.5 38t31.5 75q0 20 -12 61q-8 37 -47 45l-72 10l-55 2v64v27l6 41 l12 38l27 41q23 33 86 33q41 0 65.5 -22.5t30.5 -38.5l14 -51l7 -66l-68 -2q0 47 -11.5 73.5t-49.5 26.5q-18 0 -33 -20q-6 -16 -10 -51l2 -31h61q96 -12 115 -84q8 -35 12 -61.5t4 -51.5q0 -45 -10 -78q-6 -37 -31 -67q-16 -27 -43 -47q-16 -16 -49 -27l-47 -12l-41 -2h-35 q-86 0 -120 27.5t-68 27.5q-14 0 -22.5 -8t-12.5 -33l4 -18h-84l-4 63l2 47q0 47 3 63.5t22.5 45.5t58.5 63q43 31 63.5 55.5t36.5 67.5q10 31 10 66q-10 53 -69 53q-20 0 -41 -37q43 6 51 -16l10 -33q0 -29 -15 -43t-48 -18q-43 0 -57.5 26.5t-14.5 48.5q0 27 8 45l27 39 l-94 -8h-78q-31 6 -43 8q-47 8 -145.5 48t-172 149.5t-73.5 232.5zM504 1098q18 -8 32.5 -28.5t14.5 -51.5q0 -29 -16 -47l378 -2q8 57 -92 105t-211 48q-66 0 -106 -24zM1174 -51q0 76 34.5 110.5t98.5 34.5q92 0 141 -91t49 -204q0 -109 -31.5 -182.5t-73.5 -103 t-89 -29.5q-37 0 -70 19.5t-46 51t-13 99.5l69 4l6 -64q6 -27 41 -26q43 0 61.5 69.5t18.5 161.5q0 78 -19.5 148.5t-52.5 68.5l-41 -14q-8 -4 -16 -53h-67z" />
<glyph unicode="&#xbc;" d="M53 -20v1107h172v170h1106v-1105h-170v-172h-1108zM289 205h993v993h-993v-993z" />
<glyph unicode="&#xbd;" d="M53 -20v1107h172v170h1106v-1105h-170v-172h-1108zM289 205h993v993h-993v-993z" />
<glyph unicode="&#xbe;" horiz-adv-x="1421" d="M39 594q0 145 30.5 230t87 171t132.5 133l18 13v256h-67v239h196v-65q31 53 45 61q10 10 49 10h37q37 0 54.5 -7t35.5 -31q12 -18 19 -54l6 -65q0 -78 -20.5 -110t-59.5 -46q-18 -6 -36.5 -10t-41.5 -4q-53 0 -82 24v-129q55 23 99 31l92 23l90 26l78 31q47 18 97 58 t50 128h309q-39 -162 -129 -204.5t-264 -77.5q70 0 163 -38t177 -109.5t127 -190.5t43 -252q0 -63 -3 -87t-13 -71q-12 -78 -57.5 -167t-173.5 -198.5t-353 -109.5l-43 -2q-111 0 -245 31.5t-226 105.5t-156.5 200t-64.5 257zM254 649q0 -176 140.5 -269t332.5 -93 q170 0 308.5 105t138.5 267q0 180 -122 309.5t-309 129.5q-236 0 -362.5 -125t-126.5 -324zM440 1444q14 -27 52 -27q51 0 51 53q0 20 -15.5 33t-35.5 13h-52v-72z" />
<glyph unicode="&#xbf;" horiz-adv-x="1681" d="M27 590q0 66 24.5 209t160.5 288.5t302 145.5h62.5t62.5 -7t100 -32q63 -18 80 -39q20 -20 68 -88l53 -88l14 -76l11 -55l-13 -82l-407 2q-33 -6 -47.5 -22.5t-28.5 -49t-14 -71.5l6 -68q6 -33 24.5 -77t61.5 -85q41 -35 106 -69q61 -29 105.5 -36t122.5 -7h67h39h27 q18 4 24 4q33 6 100.5 37.5t108.5 59.5t86 90.5t68.5 139t23.5 156.5q0 152 -75 254q-23 -39 -75 -81t-89 -48l-45 -4h-15q-80 0 -143 52t-93 106.5t-30 115.5q0 37 13.5 84t13.5 74q0 23 -13 59l-10 64l-86 88l86 115q233 -104 395 -231.5t242 -264.5t105.5 -226t25.5 -177 q0 -55 -13 -176t-101 -256.5t-205 -197t-223.5 -88t-221.5 -26.5q-121 0 -237 33q-211 61 -311.5 215t-100.5 281v81q6 31 8 46q10 55 31 98q14 35 27 53q4 8 26 35q29 45 80 76q-63 0 -92 -7.5t-63 -44.5q-29 -35 -52 -88l-26 -96q0 -154 12 -247t66 -175h-148 q-14 39 -24.5 76t-22.5 90q-6 41 -10 78t-4 80zM561 920l98 2l127 2q0 14 -22 43l-41 61l-68 27l-41 10q-10 0 -10 -10q10 -33 14 -64q0 -47 -57 -71zM1016 1253q0 -59 20.5 -91t50.5 -62l52 -8q39 0 56 22t17 57l-4 29l-8 29l-61 59q-31 31 -66 51l-39 -43q-18 -23 -18 -43 z" />
<glyph unicode="&#xc0;" horiz-adv-x="1503" d="M29 504q0 90 13 170t56 163t135.5 158.5t274.5 75.5h37l39 -4l2 -135q-141 0 -228.5 -62.5t-112 -143.5t-24.5 -159q0 -88 27.5 -152.5t85.5 -99.5q31 -16 56.5 -24t55.5 -8q72 0 125.5 45t59.5 88l4 63l2 53l-2 62v65h205q0 -154 13 -220t63.5 -109t119.5 -43l62 4 q39 6 93 67.5t75 153.5q12 61 12 131q0 123 -35 227q-31 109 -100 201q6 -53 -70 -119.5t-135 -66.5l-55 -4q-51 0 -86 11t-76 46t-70 90q-27 59 -26 119q0 27 2 41t17 53t15 72q0 20 -10 53l-12 51l-102 86l83 111q92 -41 167 -78t139 -74q135 -76 241.5 -162t168 -182 t100.5 -232t39 -286q0 -70 -6.5 -129t-22.5 -125q-25 -119 -99.5 -202t-153.5 -118.5t-181 -35.5q-27 0 -53.5 2t-49.5 8q-37 6 -78 31q-33 25 -47 47l-37 88q-33 -59 -57 -85t-87.5 -52.5t-154.5 -26.5q-51 0 -103 12.5t-112.5 50t-103.5 100t-72 144.5q-27 86 -26 195z M203 1513q0 70 33 136q33 57 106 112q66 53 213 71.5t303 18.5q164 0 293 -57t174 -129.5t45 -138.5q0 -55 -27 -103h-90l-45 -2q6 18 11 47q0 90 -57.5 129t-116 51.5t-179.5 12.5h-108t-129 -8q-45 0 -82 -7.5t-58 -19.5l-59 -27q-25 -14 -42 -40.5t-17 -71.5 q0 -41 13 -85t40 -73h-148q-37 29 -55 78q-6 23 -12 51.5t-6 54.5zM780 1176q0 -39 15.5 -64t58.5 -43l43 -8q49 0 82 29.5t33 70.5q0 37 -34 71t-85 62l-59 37l-37 -69q-16 -39 -17 -86z" />
<glyph unicode="&#xc1;" horiz-adv-x="1503" d="M29 504q0 90 13 170t56 163t135.5 158.5t274.5 75.5h37l39 -4l2 -135q-141 0 -228.5 -62.5t-112 -143.5t-24.5 -159q0 -88 27.5 -152.5t85.5 -99.5q31 -16 56.5 -24t55.5 -8q72 0 125.5 45t59.5 88l4 63l2 53l-2 62v65h205q0 -154 13 -220t63.5 -109t119.5 -43l62 4 q39 6 93 67.5t75 153.5q12 61 12 131q0 123 -35 227q-31 109 -100 201q6 -53 -70 -119.5t-135 -66.5l-55 -4q-51 0 -86 11t-76 46t-70 90q-27 59 -26 119q0 27 2 41t17 53t15 72q0 20 -10 53l-12 51l-102 86l83 111q92 -41 167 -78t139 -74q135 -76 241.5 -162t168 -182 t100.5 -232t39 -286q0 -70 -6.5 -129t-22.5 -125q-25 -119 -99.5 -202t-153.5 -118.5t-181 -35.5q-27 0 -53.5 2t-49.5 8q-37 6 -78 31q-33 25 -47 47l-37 88q-33 -59 -57 -85t-87.5 -52.5t-154.5 -26.5q-51 0 -103 12.5t-112.5 50t-103.5 100t-72 144.5q-27 86 -26 195z M180 1430q0 96 41 159q16 31 35.5 58.5t40.5 46.5q33 35 95.5 67.5t191.5 46.5q63 6 118.5 10.5t106.5 4.5q45 0 97 -2t110 -9q49 0 92 -9t84 -23q61 -23 87 -43.5t58.5 -79.5t32.5 -125q0 -47 -18.5 -88t-63.5 -71t-90 -30q-94 0 -143 25t-70.5 65t-21.5 74q0 57 45 90 l-39 13l-54 4h-69h-80l-72 2q-70 0 -84 -3t-30.5 -7t-37 -12.5t-40 -14.5t-35.5 -16.5t-30.5 -23.5t-22.5 -21q-33 -33 -51.5 -60.5t-18.5 -81.5h-160zM780 1176q0 -39 15.5 -64t58.5 -43l43 -8q49 0 82 29.5t33 70.5q0 37 -34 71t-85 62l-59 37l-37 -69q-16 -39 -17 -86z M1092 1522q0 -29 24 -54q23 -18 58 -22q31 0 57 20q18 19 22 56q0 31 -22 53q-23 18 -57 22q-35 0 -58 -22q-25 -18 -24 -53z" />
<glyph unicode="&#xc2;" horiz-adv-x="1503" d="M27 522q0 125 45 215t149 140q-84 49 -84 131q0 29 2 43t15.5 49t66.5 88q53 49 182 49q145 0 229.5 -73.5t102.5 -182.5q12 88 46 132t65 67l55 37l29 16q-61 0 -93 36t-32 87q0 57 35 94l-82 8l-96 4l-97 -6q-43 -6 -84 -31.5t-41 -101.5q0 -41 17 -68h-131 q-16 20 -29 54l-8 63q0 47 16.5 84t43 70t75.5 59.5t131 38.5q92 10 197 10q68 0 123 -2t114.5 -9t103.5 -47t66.5 -78t22.5 -79q0 -47 -23 -86q55 47 68 94l18 72h88l109 2h24q0 -59 -24.5 -106t-72.5 -86t-114 -62q-35 -6 -64.5 -12t-70.5 -16q82 0 158 -41 q78 -37 95.5 -102.5t17.5 -100.5q0 -49 -17 -82q-12 -33 -53 -55q125 -100 125 -293v-49l-19 -111q-12 -74 -80.5 -164t-162.5 -135q-45 -20 -75 -32.5t-60 -20.5l-129 -21q-86 -12 -156 -12l-127 4l-102 4q-47 0 -127 23.5t-164 73t-150.5 157t-66.5 260.5zM205 600 q0 -160 153.5 -239.5t352.5 -79.5q229 0 389 70.5t160 226.5l4 32q0 31 -9.5 54.5t-37.5 48.5l-89 -23l-77 -6q-31 0 -65 7t-49 12.5t-43 19.5t-85 72l-72 -4l-194 -3q-45 0 -87 -2t-100.5 -10t-104.5 -56t-46 -120zM387 1083q20 -12 33 -36q6 -16 10 -52q0 -49 -33 -73h209 q0 84 -84 129q-59 35 -112 34q-14 0 -23 -2zM897 954q0 -55 47 -90q25 -16 51.5 -24.5t63.5 -8.5q63 0 107 29t44 88q0 53 -44 83t-87 30l-35 2q-61 0 -104 -25.5t-43 -83.5zM920 1380q0 -27 16 -49q18 -16 45 -20q25 0 45.5 15t20.5 44q0 25 -14.5 46.5t-39.5 21.5 q-33 0 -52 -13.5t-21 -44.5z" />
<glyph unicode="&#xc3;" d="M53 -20v1107h172v170h1106v-1105h-170v-172h-1108zM289 205h993v993h-993v-993z" />
<glyph unicode="&#xc4;" horiz-adv-x="1495" d="M27 492q0 61 12 133l22 112q8 43 49.5 112t98.5 127t110 73l99 22l88 8q63 0 114.5 -13t106.5 -50q55 -33 100 -119t45 -180q0 -35 -4 -53q0 -23 -14 -54l-27 -55l-53 -92q-37 -61 -55 -111q86 -33 134 -42t62.5 -10t32.5 -1h53l54 10q27 6 57.5 31t61 65.5t45.5 92.5 q8 27 12 51t4 63v119v23q0 78 -6 112q0 37 -29 99q-68 154 -179.5 201.5t-289.5 47.5h-588l-2 127h76l37 2h18q-43 18 -85 49t-42 81q0 45 54 92q29 27 82 40t141 13l309 8q154 0 260.5 -26.5t162.5 -63.5t108.5 -109.5t52.5 -152.5l-156 -2q-12 63 -59 125q-43 66 -361 65 l-217 -6q-49 0 -73.5 -6t-47 -20.5t-22.5 -30.5t27 -31l49 -25h282q258 0 394.5 -62t203 -148t93 -210t26.5 -247q0 -86 -8 -146q-4 -51 -9 -79.5t-20 -85.5q-20 -96 -126.5 -208t-193.5 -131.5t-153 -19.5q-98 0 -150.5 22.5t-76.5 41.5l-58 57l-20 -43q-6 -16 -10 -55 l2 -19h-86h-56l-2 25q0 31 11 51q-47 -80 -160 -80q-94 0 -179 75t-104 171l-22 147zM190 479l3 -61l14 -62q6 57 53 93q45 39 88 38q78 0 134.5 -34.5t74.5 -104.5l57 119q31 67 31 133v18q0 78 -48 137.5t-89 67.5l-57 6q-98 0 -164 -65.5t-78 -136.5l-14 -105zM276 254 q0 -35 23 -57.5t57 -22.5q33 0 57.5 22.5t24.5 57.5q0 33 -24 57q-23 18 -58 23q-35 0 -57.5 -22.5t-22.5 -57.5z" />
<glyph unicode="&#xc5;" horiz-adv-x="1503" d="M35 492q0 61 12 133l21 112q6 45 46 113t102.5 125t125.5 76l98 22l88 8q63 0 115 -14q57 -12 105 -47q49 -31 91 -115t42 -184l-2 -29v-18q-2 -23 -4.5 -33t-12.5 -31l-26 -55l-54 -92q-37 -61 -55 -111q86 -33 134 -42t62.5 -10t32.5 -1h54l53 10q27 6 57.5 31t61 65.5 t45.5 92.5q8 27 12 51t4 63v123q0 78 -8 117q-6 45 -33 113q-33 88 -155.5 163.5t-319.5 75.5l-88 -2h-94q-33 0 -93.5 2t-86.5 2q-76 0 -132.5 14.5t-86 53.5t-29.5 92q0 92 72.5 152.5t222 87t354.5 26.5q143 0 249.5 -28.5t172.5 -71.5q68 -39 117 -109q53 -70 53 -151 h-144q-55 90 -136 143t-304 53h-100q-133 0 -184.5 -6t-106.5 -24q-41 -18 -41 -47q0 -20 14.5 -35t40.5 -19h332q266 0 416.5 -61.5t212 -152.5t85 -201.5t23.5 -219.5q0 -39 -2 -78.5t-8 -80.5q0 -33 -4 -58.5t-25.5 -121t-128 -207t-193.5 -131t-153 -19.5 q-98 0 -150 22.5t-77 41.5l-57 57l-21 -43q-6 -16 -10 -55l2 -19h-86h-55l-2 25q0 31 10 51q-47 -80 -160 -80q-94 0 -179 75t-104 171l-22 147zM199 479l2 -61l14 -62q6 57 53 93q45 39 88 38q78 0 134.5 -34.5t74.5 -104.5l58 119q30 67 30 133v18q0 78 -48 137.5 t-89 67.5l-57 6q-98 0 -164 -65.5t-78 -136.5l-14 -105zM285 254q0 -35 22.5 -57.5t57.5 -22.5q33 0 57 22.5t24 57.5q0 33 -24 57q-23 18 -57 23q-35 0 -57.5 -22.5t-22.5 -57.5z" />
<glyph unicode="&#xc6;" horiz-adv-x="1486" d="M37 578q0 281 166 443.5t326.5 196t289.5 33.5h84q35 -6 78 -10t131 -39q90 -31 174 -95.5t129 -173.5t45 -224q0 -94 -20 -154q-18 -63 -33 -80l-45 -67q-63 -80 -164.5 -116t-181.5 -36q-109 0 -216.5 43t-157.5 124t-50 169q0 55 18 117h-90v196h608v-178l-337 -2 l14 -92q12 -41 63 -78q55 -33 136 -33q129 0 174 51q14 18 32.5 49t26.5 50q6 25 10 48t4 50l-6 90q-6 61 -123.5 136t-312.5 75q-168 0 -278.5 -75.5t-148.5 -148.5t-52.5 -125t-14.5 -110q0 -47 12.5 -105t49.5 -139t162 -161q119 -72 202 -84l99 -8h45q123 0 240.5 39 t211.5 127l93 -95v-639h-230q-29 0 -83 8.5t-126 26.5q-150 35 -205 35q-20 0 -74.5 -8t-138.5 -27q-170 -35 -225 -35h-55h-37h-27h-43l-24 2v232l26 -4l41 -2l86 6l148 24l299 52h20q125 0 230 -19q43 -8 89 -17t89 -22v221q-84 -47 -193 -69q-47 -8 -101 -14.5t-97 -6.5 q-57 0 -114.5 6.5t-123.5 20.5q-125 25 -234.5 94.5t-199.5 190.5q-45 59 -67.5 141t-22.5 195z" />
<glyph unicode="&#xc7;" horiz-adv-x="1503" d="M35 492q0 43 2 65.5t12 69.5l25 121q8 45 43 112.5t102.5 125.5t124.5 73l92 22l80 6q41 0 60.5 -2t58.5 -14q59 -12 110 -49q51 -33 93.5 -117t42.5 -184l-2 -29v-18q-2 -23 -4.5 -33t-12.5 -31l-26 -55l-54 -92q-37 -61 -55 -111q86 -33 134 -42t62.5 -10t32.5 -1h54 l53 10q27 6 57.5 31t61 65.5t45.5 92.5q8 27 12 51t4 63v72l2 66q0 76 -7 114.5t-44 128.5t-152.5 151.5t-443.5 61.5l-111 -6l-106 -6h-27q-12 0 -42.5 3t-77 19.5t-71 52.5t-24.5 85q0 94 63.5 153.5t202 90t279.5 30.5q172 0 318.5 -24.5t211 -62.5t94 -84t29.5 -91 q0 -51 -32.5 -87t-87.5 -36q70 -37 105.5 -75t66 -107.5t51 -177t20.5 -211.5q0 -84 -6 -140q0 -47 -29 -161q-20 -102 -126.5 -214t-193.5 -131.5t-153 -19.5q-98 0 -150 22.5t-77 41.5l-57 57l-21 -43q-6 -16 -10 -55l2 -19h-86h-55l-2 25q0 31 10 51q-47 -80 -160 -80 q-94 0 -179 75t-104 171l-22 147zM199 479l2 -61l14 -62q6 57 53 93q45 39 88 38q78 0 134.5 -34.5t74.5 -104.5l58 119q30 67 30 133v18q0 78 -48 137.5t-89 67.5l-57 6q-98 0 -164 -65.5t-78 -136.5l-14 -105zM285 254q0 -35 22.5 -57.5t57.5 -22.5q33 0 57 22.5t24 57.5 q0 33 -24 57q-23 18 -57 23q-35 0 -57.5 -22.5t-22.5 -57.5zM373 1389q0 -49 41 -50h112l119 2h112.5t90.5 -4q41 0 63.5 -2t81.5 -12q-10 25 -14 51q0 29 33 68l-113 26q-41 8 -96 14.5t-111 6.5q-31 0 -64.5 -2t-68.5 -8q-72 -6 -115 -23q-41 -12 -59 -31q-12 -16 -12 -36 zM1094 1372q0 -49 57 -49q49 0 49 57q0 49 -57 50q-49 0 -49 -58z" />
<glyph unicode="&#xc8;" horiz-adv-x="1198" d="M31 492q0 184 99 301.5t239 136.5q-37 6 -58.5 33.5t-21.5 66.5q0 57 53 96q-102 57 -142 95.5t-40 119.5q0 137 139 213t377 76q225 0 366.5 -63.5t141.5 -227.5q0 -74 -35 -114q-31 -41 -107 -86q39 -47 69 -132t30 -176h-295q-219 0 -344 -53t-152 -151 q-8 -39 -15 -77t-7 -61q0 -102 54 -190t130 -119q68 -23 125 -33l102 -6h74q35 6 78 10.5t107.5 24t119.5 51.5v-37l-2 -55v-45v-20q-55 -31 -167.5 -51.5t-260.5 -20.5q-25 -25 -24 -68q0 -66 55 -127t151 -61q135 0 206 59.5t71 145.5h156q0 -92 -44.5 -174t-148.5 -156 l-115 -33q-70 -16 -164 -16q-66 0 -137 13t-133 50q-61 33 -98 90.5t-37 155.5v26.5t7 41t28 57.5l-76 14l-96 39q-70 35 -146.5 118t-95.5 173q-8 47 -12 79t-4 67zM338 1296q0 -53 98 -96q45 20 111.5 32.5t136.5 12.5q41 0 76 -2t81 -9t105 -38q58 33 58 90q0 59 -86 107 q-41 20 -112 32.5t-163 12.5q-127 0 -216 -43t-89 -99zM535 1081q14 -6 24 -27.5t10 -45.5q0 -20 -8 -37h395q-12 66 -96 108q-88 39 -184 39q-98 0 -141 -37z" />
<glyph unicode="&#xc9;" horiz-adv-x="1474" d="M25 723v123h61h61l-30 33q-12 18 -13 61q0 61 39 109q37 39 99 65q66 20 188 21q102 0 176 -17q78 -12 131.5 -54t93 -121t39.5 -159l-4 -43l-65 -2h-62h-37h-30h-31h-25h-86l-81 2q-86 0 -138.5 -38.5t-52.5 -116.5q0 -141 114.5 -222t327.5 -81q229 0 377 150.5 t148 373.5q0 98 -39 184q-37 90 -84 139q-43 49 -168 81t-348 32h-398l-2 119l60 -4l71 6q-43 18 -85 49t-42 80q0 43 50 86q29 25 78 40t120 15q76 0 117 2q205 10 221 11q74 0 134.5 -6.5t121.5 -22.5q113 -25 169 -63.5t108.5 -111.5t52.5 -151l-156 -2 q-25 104 -118 147.5t-304 43.5q-55 0 -132 -2t-97 -2q-76 0 -109 -27q-18 -10 -22 -31q0 -18 27 -33l49 -22h233h131q25 0 65 -6t105 -21q115 -25 193 -78t120 -121.5t64 -181.5q6 -35 15.5 -77.5t9.5 -71.5l2 -47q0 -109 -26 -220.5t-84 -212t-154.5 -175t-175 -102 t-171.5 -40.5q-59 -6 -82.5 -8t-74.5 -2q-129 0 -385 67.5t-256 450.5q0 80 34.5 131t73.5 74h-112zM340 1010q51 -12 51 -74q0 -55 -31 -62h306q-25 70 -106 108t-163 38q-39 0 -57 -10z" />
<glyph unicode="&#xca;" horiz-adv-x="1548" d="M37 539v24q0 90 36 179t160 149q-47 33 -62 61.5t-15 77.5q0 84 80.5 148.5t187.5 64.5q160 0 246 -67.5t106 -174.5q12 78 37 115l47 58l45 34l27 19v182h-64v231h193v-65l29 45q23 27 65 27q59 0 84 -7q25 -2 47.5 -40.5t22.5 -114.5q0 -78 -20.5 -107.5t-62.5 -44 t-75 -14.5q-55 0 -84 24v-100h68q47 0 80.5 17.5t56.5 44.5l28 41q10 12 23 51l12 63h25h24h66l66 2h18q0 -115 -49 -172t-121 -78q33 -18 46 -32.5t31.5 -62.5t18.5 -101t-18.5 -99.5t-63.5 -66.5q135 -86 135 -299q0 -51 -18 -146.5t-92 -184.5t-177.5 -132t-166.5 -59 l-113 -21l-98 -10l-43 -2l-125 8l-135 8q-39 0 -58.5 4t-70.5 19q-78 25 -166 74t-150.5 162.5t-62.5 267.5zM246 602q0 -178 143 -252q72 -33 167 -51t212 -18q233 0 378.5 83.5t145.5 253.5q0 135 -77.5 174t-260.5 39l-88 -2h-92q-309 0 -418.5 -40.5t-109.5 -186.5z M387 1118q49 -29 49 -90q0 -43 -28 -57h186q0 45 -9.5 71.5t-33.5 44.5q-49 37 -117 37zM954 971h291l6 33q0 57 -45 75l-65 21l-39 4q-72 0 -115 -37q-33 -33 -33 -96zM1065 1446q16 -25 53 -25q49 1 49 52q0 47 -51 47h-51v-74z" />
<glyph unicode="&#xcb;" horiz-adv-x="1730" d="M27 690q0 23 2 59.5t11 110.5t112.5 165t203.5 91q33 0 50 -8q14 16 40 41q16 14 31 27q39 35 86 34l78 7l31 2h37l122 -33q100 -25 158 -217v-191h-360q-57 -14 -97 -47t-63 -92q-25 -55 -25 -129q0 -80 28 -137.5t83 -81t98 -23.5q76 0 131.5 55.5t61.5 108.5l10 90 l4 70l-2 33l-2 28h191l2 -45v-39v-77q0 -37 11 -80t55 -82t136 -39q82 0 138.5 77.5t68.5 166.5l17 124l4 99q0 33 -1 73.5t-16 98.5q-12 76 -61 170t-109 153q-55 61 -143 95l-150 47q-33 6 -65.5 10t-69.5 4q-78 0 -160.5 -24.5t-142.5 -63.5q-51 -33 -115 -111h-178 q51 92 111.5 157t137.5 103.5t173 59t191 20.5q100 0 190 -20q96 -18 187.5 -62.5t162 -117t136 -190.5t90 -235.5t24.5 -236.5v-72q0 -152 -65.5 -332t-190.5 -235t-209 -55q-78 0 -146.5 42t-98.5 124q-33 -57 -56.5 -85t-88 -53.5t-150.5 -25.5q-53 0 -91 9t-68 22.5 t-61 31.5q-59 35 -102 101q-33 53 -65 153q-25 92 -25 154q0 57 24.5 148.5t90.5 158.5l-95 -2v158h146v18q-2 8 -35 20.5t-57 12.5q-78 0 -131.5 -89t-53.5 -198q0 -78 4.5 -128t18.5 -107q23 -98 108 -197h-122q-59 96 -92 202.5t-33 225.5zM594 1085l24 -22 q20 -16 24.5 -27.5t4.5 -25.5q0 -12 -6 -33t-29 -43h207q0 41 -10 61q-6 23 -27.5 42.5t-61.5 33.5t-95 14h-31z" />
<glyph unicode="&#xcc;" horiz-adv-x="2654" d="M49 948q0 94 66.5 171t134.5 85l82 6l45 2q51 0 82 -10q37 -6 67 -35q35 -27 56.5 -50t35.5 -58q82 78 246 127q76 23 139.5 35t110.5 12h82t84 -8q61 -6 129 -33q66 35 119 45l71 6q113 0 187 -64.5t88 -199.5q12 72 55 141.5t118 94t155 24.5q109 0 188 -47 q80 -43 99.5 -110.5t19.5 -98.5q0 -51 -17 -78q-12 -27 -47 -53q59 -51 95 -132t36 -181q0 -47 -13 -133.5t-83 -169t-169 -136t-148 -69.5l-125 -25q-82 -10 -142 -10l-124 4l-103 6q-41 0 -102.5 17.5t-158.5 73t-153.5 133t-80.5 237.5q-4 29 -5 47q0 80 43 178 q53 123 160 189q-45 18 -61.5 45.5t-16.5 68.5q-78 23 -170 23q-127 0 -250 -37q-63 -20 -107 -39.5t-83 -48.5q207 0 313.5 -71.5t124.5 -198.5q6 -41 13.5 -92.5t7.5 -88.5q0 -51 -8 -86q-4 -31 -9.5 -50t-19.5 -64q-20 -72 -70.5 -134.5t-125 -86t-115.5 -23.5 q-61 0 -102.5 29.5t-61.5 62.5l-37 78q-18 -70 -68.5 -112t-119.5 -48q-106 0 -178 74t-72 170l4 37l-97 -2v205l220 266l-54 -8q-47 0 -85 22.5t-68 69.5q-27 53 -27 106zM172 446q4 -4 12.5 -6t26.5 -2l65 2l17 -2l6 -6l-10 -59q0 -39 24.5 -65.5t83.5 -26.5 q86 0 105.5 59t19.5 190h162q0 -141 16.5 -192t87.5 -51h29q72 0 114 57.5t42 151.5l-2 59q0 20 -13.5 71.5t-57.5 95.5t-109 56h-207h-97zM211 979l43 6q49 0 70.5 -35t21.5 -82q0 -51 -22 -73l153 182q0 16 -9 30.5t-29.5 34t-40 25.5t-68.5 6q-88 0 -119 -94zM1352 580 q0 -45 11 -76t54 -94q43 -57 170 -93t297 -36q150 0 263.5 27.5t166.5 80.5t71.5 108.5t18.5 102.5q0 29 -4 43q0 23 -14 53q-8 31 -37 62q-25 31 -76 49l-51 -51q-25 -23 -72 -47q51 -6 80 -39t29 -90l-4 -48q-2 -23 -35 -55.5t-85 -55t-114 -32.5l-137 -6q-35 0 -68.5 2 t-67.5 8t-64.5 14.5t-61.5 20.5q-53 25 -86 55.5t-33 77.5q0 63 42 109.5t83 56.5l68 8l82 2l108 -2h101l61 33l82 63h-260h-268q-37 0 -89.5 -19t-87 -58t-54 -82t-19.5 -92zM1536 1090q18 -6 32.5 -29t14.5 -47q0 -18 -12 -43h147q8 25 -11 62.5t-42 45.5l-43 15l-41 6 q-27 0 -45 -10zM1726 569q0 -43 60.5 -56t103.5 -13q68 0 111 12t43 61q0 37 -48 51.5t-108 14.5q-72 0 -117 -11.5t-45 -58.5zM2028 967h272q2 8 2 22q0 35 -29 70q-35 43 -116 43q-51 0 -95 -43q-35 -37 -34 -92z" />
<glyph unicode="&#xcd;" horiz-adv-x="1421" d="M20 1233q0 104 53.5 182t92.5 107q18 12 45 26.5t63 32.5q72 35 134 43l159 8q66 0 107 -16q43 -12 74.5 -50t50 -74t18.5 -75q0 -41 -26 -86q51 18 98 53t47 123h307q-27 -113 -117 -180q-82 -61 -270 -102q66 0 170 -42t184 -110.5t122 -184.5t42 -247q0 -100 -16 -166 q-14 -70 -65.5 -164t-183.5 -201.5t-359 -107.5l-43 -2q-111 0 -246 31.5t-225.5 107.5t-147.5 198t-57 257q0 72 8 131t27 102q35 88 102 168q-33 10 -55 25l-39 39q-16 20 -29 53l-16 53zM195 1184q0 -35 11 -54.5t46 -44.5q16 12 47 33t51 33q54 32 148 59q-53 6 -90 50 q-33 43 -33 96l2 30l14 35q-27 -10 -53 -28l-45 -33l-37 -39l-35 -45q-16 -16 -22 -45zM238 655l8 -45q31 -158 162 -240.5t311 -82.5q170 0 308 105t138 267q0 180 -121.5 309.5t-308.5 129.5q-215 0 -356 -118t-141 -292v-33zM520 1364q0 -37 24.5 -61.5t59.5 -24.5 q31 0 57.5 24.5t26.5 61.5q0 29 -24.5 55.5t-59.5 26.5t-59.5 -22.5t-24.5 -59.5z" />
<glyph unicode="&#xce;" horiz-adv-x="1486" d="M25 463q0 115 29.5 201t90.5 110h-100v160l119 -2q-33 43 -33 88q0 37 15.5 67.5t45 64.5t92 52.5t124.5 18.5l49 -2q31 0 141 -33q111 -27 168 -219v-191h-360q-63 -12 -118 -96t-55 -178q0 -63 21.5 -109.5t67.5 -81.5q49 -33 98 -32q68 0 132 45t71 88l4 65l2 53 l-2 62v65h204q0 -154 13.5 -220t63.5 -109t120 -43l62 4q39 6 91 65.5t74 149.5q8 37 14.5 85t6.5 87q0 98 -23.5 185t-76.5 159q-14 -51 -62 -86q-39 -29 -82 -35l-51 -6h-23q-72 0 -127 43q-49 43 -79 100q-27 59 -27 119q0 27 2 41t17.5 53t15.5 72q0 18 -10 49l-13 55 l-102 84l82 103q231 -131 385 -248q147 -111 221 -227.5t111 -247.5q16 -68 24 -130t8 -138v-68q-6 -51 -8 -76q0 -33 -8 -73.5t-20 -90.5q-18 -86 -93 -166.5t-141 -111.5q-29 -12 -54.5 -19.5t-49.5 -13.5l-86 -6q-55 0 -97.5 10t-78 36t-56 51.5t-37.5 70.5 q-33 -59 -57.5 -85t-88 -52.5t-153.5 -26.5q-51 0 -103 12.5t-112.5 50t-104.5 101t-68.5 138.5t-24.5 159zM160 1561q0 41 18 84q8 18 25 47q41 55 116 104q35 25 92.5 38t129.5 13t149.5 -1t153.5 -7q78 0 144.5 -20.5t141.5 -63.5q123 -68 162 -143q16 -33 23.5 -68 t7.5 -74q0 -25 -5 -43t-30 -55l-90 6l-43 2l12 47q0 51 -9 80t-34.5 51.5t-55.5 38t-64.5 26.5t-73.5 18.5t-96 7.5q-70 6 -127.5 10t-110.5 4q-104 0 -141 -14l-62 -23q-23 -10 -45 -35q-16 -25 -24 -71q0 -20 1 -40t7 -53.5t30 -68.5l-145 12q-35 31 -49 82q-8 47 -8 109z M371 1085q25 -18 32 -53l5 -33q0 -25 -25 -59h207q0 37 -7.5 58.5t-27.5 41t-59 32.5t-95 13h-30zM874 1200q0 -39 16.5 -68.5t63.5 -54.5l41 -10q31 0 51.5 20.5t24.5 57.5q0 35 -29 63l-129 115l-26 -55q-12 -31 -13 -68z" />
<glyph unicode="&#xcf;" horiz-adv-x="2412" d="M39 416v145l209 201q-27 -10 -40 -13.5t-32 -3.5q-57 0 -97 38t-40 114q0 72 62.5 168t187.5 96q88 0 131 -22.5t88 -96.5q43 47 80 68l98 47q29 10 88 29q31 8 69 17t90 15.5t93 6.5q139 0 255 -39t196 -94l106 -80v-164q-188 0 -259 -42t-71 -224q0 -92 61.5 -174 t135.5 -101l123 -24l113 -7q96 0 179 18.5t150.5 73t107.5 119t54 142.5q6 41 10 77.5t4 79.5q0 131 -31.5 232.5t-105.5 155.5q-53 -66 -148.5 -108t-191.5 -42q-98 0 -172 55.5t-92 111.5t-18 107l6 70q6 33 26 68h-139v143q272 0 468 -45t390.5 -206t194.5 -546v-47v-33 q-4 -20 -4 -28l-27 -221q-18 -184 -237.5 -322.5t-442.5 -138.5l-106 8q-35 0 -78 13.5t-99 39.5q-98 49 -172.5 120t-110.5 171t-36 213q0 172 81 293t234 121q-55 35 -136 56.5t-146 21.5q-70 0 -129.5 -11.5t-69.5 -14.5t-53 -19.5t-100.5 -48t-102.5 -66.5q53 0 78 -8 l67 -19q41 -8 91 -57q47 -41 69 -92q6 -14 18.5 -56.5t16.5 -58.5q16 -72 16 -135q0 -88 -22 -158q-20 -74 -108.5 -183.5t-293.5 -109.5l-90 -6q-135 0 -262 70q-53 23 -94 85t-41 126q0 70 55 129h-104zM127 471h111l-5 -31q0 -68 71 -112.5t183 -44.5q166 0 247 68 t81 177q0 147 -89 213t-212 66l-63 -6zM199 987l2 -14q51 -6 71.5 -38t20.5 -71q0 -33 -4 -43l-6 -22l129 129q0 29 -12.5 62.5t-55.5 45.5l-51 11q-61 0 -94 -60zM1579 1352q0 -35 18 -72q18 -31 64 -63l33 -13l55 -6q57 0 101 24t69 81q-45 47 -127 82.5t-199 35.5 q-14 -37 -14 -69z" />
<glyph unicode="&#xd0;" horiz-adv-x="1486" d="M25 463q0 115 29.5 201t90.5 110h-100v160l119 -2q-33 43 -33 88q0 37 15.5 67.5t45 64.5t92 52.5t124.5 18.5l49 -2q31 0 141 -33q111 -27 168 -219v-191h-360q-63 -12 -118 -96t-55 -178q0 -63 21.5 -109.5t67.5 -81.5q49 -33 98 -32q68 0 132 45t71 88l4 65l2 53 l-2 62v65h204q0 -154 13.5 -220t63.5 -109t120 -43l62 4q39 6 91 65.5t74 149.5q8 37 14.5 85t6.5 87q0 98 -23.5 185t-76.5 159q-14 -51 -62 -86q-39 -29 -82 -35l-51 -6h-23q-72 0 -127 43q-49 43 -79 100q-27 59 -27 119q0 27 2 41t17.5 53t15.5 72q0 18 -10 49l-13 55 l-102 84l82 103q123 -70 225 -137l-12 55q0 57 45 90l-39 12l-53 4h-70h-80l-71 2q-70 0 -84.5 -3t-31 -7t-37 -12t-39.5 -14.5t-35.5 -16.5t-31 -23.5t-22.5 -21.5q-33 -33 -51.5 -60.5t-18.5 -80.5h-159l-5 53q0 96 41 160q16 31 36 58.5t40 45.5q33 35 95.5 68t191.5 47 q63 6 118.5 10t106.5 4q45 0 97.5 -2t109.5 -8q49 0 92 -9t84 -24q61 -23 87 -43t58.5 -79.5t32.5 -125.5q0 -47 -18.5 -88t-63.5 -70.5t-90 -29.5l-71 4l8 -6q147 -111 221 -227.5t111 -247.5q16 -68 24 -130.5t8 -137.5v-68q-6 -51 -8 -76q0 -33 -8 -73.5t-20 -90.5 q-18 -86 -93 -166.5t-141 -111.5q-29 -12 -54.5 -19.5t-49.5 -13.5l-86 -6q-55 0 -97.5 10t-78 36t-56 51.5t-37.5 70.5q-33 -59 -57.5 -85t-88 -52.5t-153.5 -26.5q-51 0 -103 12.5t-112.5 50t-104.5 101t-68.5 138.5t-24.5 159zM371 1085q25 -18 32 -53l5 -33 q0 -25 -25 -59h207q0 37 -7.5 58.5t-27.5 41t-59 32.5t-95 13h-30zM874 1200q0 -39 16.5 -68.5t63.5 -54.5l41 -10q31 0 51.5 20.5t24.5 57.5q0 35 -29 63l-129 115l-26 -55q-12 -31 -13 -68zM1059 1546q0 -29 24 -53q23 -18 58 -23q31 0 57 21q19 18 23 55q0 31 -23 53 q-23 18 -57 23q-35 0 -58 -23q-25 -18 -24 -53z" />
<glyph unicode="&#xd1;" horiz-adv-x="1474" d="M25 723v123h61h61l-30 33q-12 18 -13 61q0 61 39 109q37 39 99 65q66 20 188 21q102 0 176 -17q78 -12 131.5 -54t93 -121t39.5 -159l-4 -43l-65 -2h-62h-37h-30h-31h-25h-86l-81 2q-86 0 -138.5 -38.5t-52.5 -116.5q0 -141 114.5 -222t327.5 -81q238 0 388.5 144 t150.5 364q0 109 -37 194q-33 86 -80 141q-43 55 -155.5 74t-368.5 19l-82 -2h-80h-37h-28q-20 4 -31 4q-39 0 -90 14t-82 53q-8 12 -14 27q-12 29 -13 57q0 41 18.5 84t65.5 84q41 41 178.5 71.5t280.5 30.5q80 0 152.5 -6t152.5 -20q145 -25 202.5 -62.5t121 -114.5 t63.5 -153h-143q-70 115 -168 156t-274 41h-99q-133 0 -184 -6.5t-107 -24.5q-41 -18 -41 -45q0 -20 16.5 -35.5t37.5 -19.5h372q207 0 308.5 -32t175 -111t104.5 -138t47 -156l15 -149q0 -109 -25 -225q-12 -57 -32.5 -110.5t-51.5 -104.5q-59 -100 -154.5 -174 t-174 -101.5t-171.5 -40.5q-59 -6 -82.5 -8t-74.5 -2q-129 0 -385 67.5t-256 450.5q0 80 34.5 131t73.5 74h-112zM340 1010q51 -12 51 -74q0 -55 -31 -62h306q-25 70 -106 108t-163 38q-39 0 -57 -10z" />
<glyph unicode="&#xd2;" horiz-adv-x="1449" d="M35 551q0 170 75.5 278.5t135 128t96.5 19.5l107 4h106v-139q-178 0 -241.5 -51.5t-63.5 -233.5q0 -88 63.5 -153.5t147.5 -94.5q90 -27 213 -26q109 0 203 20q100 18 165 70q66 47 112 113.5t58.5 134t12.5 124.5q0 100 -31 199.5t-78 155.5q-55 -68 -144 -98.5 t-216 -30.5q-104 0 -185 43q-70 41 -108 104q-31 59 -31 127q0 59 25 121h-140v145h97l98 2q301 0 430 -40q135 -37 241.5 -142.5t174 -263.5t67.5 -354v-72l-8 -76q-29 -240 -161 -362.5t-292.5 -163.5t-263.5 -41q-162 0 -299 52t-214.5 122t-114.5 170t-37 209zM57 1503 q0 74 27 122t52.5 74.5t87 67.5t223 59.5t337.5 18.5t319.5 -55t196.5 -133q56 -74 56 -148q0 -29 -7.5 -53t-29.5 -43q-53 -53 -123 -53q-37 0 -74 18.5t-69 51.5q-27 31 -27 67q0 72 49 107q-29 12 -55.5 19t-54.5 13l-134 9h-124l-222 -7q-76 0 -133 -26l-51 -23 q-18 -10 -38.5 -34.5t-20.5 -73.5q0 -43 15 -85t46 -73h-164q-43 27 -62.5 76t-19.5 104zM633 1260q0 -31 14.5 -58.5t54.5 -58.5q35 -23 109 -23q63 0 115.5 25t77.5 84q-74 133 -340 133l-25 -57zM1135 1513q0 -16 11 -37.5t50 -21.5q14 0 35.5 11.5t21.5 50.5v12l-12 26 q-6 18 -47 19l-25 -4q-35 -16 -34 -56z" />
<glyph unicode="&#xd3;" horiz-adv-x="1449" d="M35 551q0 170 75.5 278.5t135 128t96.5 19.5l107 4h106v-139q-178 0 -241.5 -51.5t-63.5 -233.5q0 -88 63.5 -153.5t147.5 -94.5q90 -27 213 -26q109 0 203 20q100 18 165 70q66 47 112 113.5t58.5 134t12.5 124.5q0 100 -31 199.5t-78 155.5q-55 -68 -144 -98.5 t-216 -30.5q-104 0 -185 43q-70 41 -108 104q-31 59 -31 127q0 59 25 121h-140v145h97l98 2q301 0 430 -40q135 -37 241.5 -142.5t174.5 -257.5q33 -76 49 -159t16 -183q0 -31 -2 -70.5t-8 -82.5q-29 -248 -164 -376t-283.5 -166t-265.5 -38q-162 0 -299 52t-214.5 122 t-114.5 170t-37 209zM57 1503q0 74 27 122t52.5 74.5t87 67.5t223 59.5t337.5 18.5t319.5 -55t211.5 -148q37 -54 37 -122q0 -57 -29 -103h-92l-55 -2q6 18 10 47q0 41 -23.5 78t-68.5 70q-35 23 -118 34t-151 11h-32q-51 0 -139.5 -4t-125.5 -4q-51 0 -93 -8.5t-68 -20.5 l-66 -29q-18 -10 -38.5 -34.5t-20.5 -73.5q0 -43 15 -85t46 -73h-164q-43 27 -62.5 76t-19.5 104zM633 1260q0 -31 14.5 -58.5t54.5 -58.5q35 -23 109 -23q63 0 115.5 25t77.5 84q-74 133 -340 133l-25 -57z" />
<glyph unicode="&#xd4;" horiz-adv-x="1550" d="M37 539v24q0 90 36 179t160 149q-47 33 -62 61.5t-15 77.5q0 84 80.5 148.5t187.5 64.5q156 0 242 -67.5t104 -174.5q14 90 75.5 150.5t131.5 75.5l-25 -2q-66 0 -104.5 48t-38.5 105q0 33 16 60h-61l-66 2h-55t-76 -8q-63 -6 -92 -19.5t-43 -41.5t-14 -64q0 -31 12 -62 h-143q-8 12 -13.5 20.5t-15.5 30.5l-8 58l2 39l29 71q23 53 90 94t154 59.5t184 18.5q166 0 258 -12q90 -8 149 -61q59 -49 60 -131l-7 -43q66 35 78 73l10 56h283q-16 -70 -55 -115t-84 -70l-105 -45l-131 -47l43 4q66 0 131.5 -28.5t95 -90t29.5 -108.5q0 -55 -19.5 -99.5 t-66.5 -68.5q135 -86 135 -299q0 -51 -17 -142.5t-94 -179.5t-175.5 -135t-159.5 -59l-145 -23q-94 -16 -181 -16q-37 0 -75.5 2t-81.5 8q-78 12 -168 37q-43 12 -101.5 36.5t-132.5 65.5q-145 74 -145 394zM246 602q0 -178 143 -252q72 -33 167 -51t212 -18 q233 0 378.5 83.5t145.5 253.5q0 135 -77.5 174t-260.5 39l-88 -2h-92q-309 0 -418.5 -40.5t-109.5 -186.5zM387 1118q49 -29 49 -90q0 -43 -28 -57h186q0 45 -9.5 71.5t-33.5 44.5q-49 37 -117 37zM926 1389q0 -27 16 -50q18 -16 45 -20q25 0 45.5 15t20.5 44 q0 25 -14.5 46.5t-39.5 21.5q-33 0 -52 -13.5t-21 -43.5zM954 971h291l6 33q0 57 -45 75l-65 21l-39 4q-72 0 -115 -37q-33 -33 -33 -96z" />
<glyph unicode="&#xd5;" horiz-adv-x="1691" d="M84 748v38q0 18 6 47t10 50q18 78 97 178t163 129q84 25 148 31l141 8l86 -2h94v-191q-111 0 -184.5 -23.5t-122.5 -82t-73 -129.5q-18 -66 -19 -139q0 -164 27.5 -208t103.5 -118q72 -61 178 -62q131 0 193.5 71t62.5 159q0 49 -22.5 91t-69.5 56v-112l-135 2l-2 202 l10 95q6 47 43 139t132.5 169t222.5 77q193 0 314.5 -131t141 -268.5t19.5 -196.5q0 -27 -2 -56.5t-9 -60.5q-6 -61 -37.5 -179t-149.5 -221.5t-269 -103.5l-72 6v162l53 -6q47 0 85 20.5t70 49t60 94.5q23 61 33 125l10 112q0 80 -23.5 161t-65.5 137.5t-101.5 81 t-106.5 24.5q-45 0 -87 -24.5t-74 -69.5q-25 -41 -37 -91q49 -8 79.5 -23t73.5 -60q43 -41 63.5 -101.5t20.5 -136.5q0 -92 -10 -135q-6 -49 -43 -111.5t-75 -101.5t-99 -70q-51 -23 -107 -33l-124 -4q-106 0 -179 32t-129 83q-63 61 -101 132t-50 169h-33l-39 2 q-35 53 -65 145q-25 86 -25 173zM193 709q0 -133 53 -193l-8 51l-2 58q0 131 48 252.5t144 193.5q-104 -18 -169.5 -126.5t-65.5 -235.5z" />
<glyph unicode="&#xd6;" horiz-adv-x="1474" d="M25 723v123h61h61l-30 33q-12 18 -13 61q0 61 39 109q37 39 99 65q66 20 188 21q102 0 176 -17q78 -12 131.5 -54t93 -121t39.5 -159l-4 -43l-65 -2h-62h-37h-30h-31h-25h-86l-81 2q-86 0 -138.5 -38.5t-52.5 -116.5q0 -145 115.5 -226t326.5 -81q223 0 371 147t148 365 q0 115 -42 221t-97.5 144t-110 49.5t-285.5 11.5l-109 -3h-112h-47h-37q-25 4 -37 5q-49 0 -96 14t-76 49q-27 41 -27 86q0 43 18.5 85t65.5 83q41 41 179.5 71.5t281.5 30.5q166 0 314.5 -24.5t211 -59t92 -84t29.5 -98.5q0 -57 -31.5 -93t-89.5 -30q80 -43 138.5 -142 t66.5 -196l11 -159q0 -117 -22 -220.5t-80 -204t-151.5 -172t-174 -102t-158.5 -39.5l-144 -8l-145 6q-74 6 -300 64.5t-226 441.5q0 80 34.5 131t73.5 74h-112zM340 1010q51 -12 51 -74q0 -55 -31 -62h306q-25 70 -106 108t-163 38q-39 0 -57 -10zM377 1401q0 -16 12 -33.5 t29 -19.5h139l143 2l170 -2q41 0 61.5 -2.5t63.5 -12.5l-14 47q0 14 16 41l19 31l-113 27q-41 8 -98 14t-111 6q-31 0 -64.5 -2t-68.5 -8q-70 -6 -127 -27q-57 -16 -57 -61zM1098 1382q0 -18 16 -34q14 -10 39 -15q20 0 33.5 14.5t15.5 41.5q0 20 -15.5 34.5t-39.5 14.5 q-18 0 -35 -17q-10 -14 -14 -39z" />
<glyph unicode="&#xd7;" horiz-adv-x="1200" d="M37 141v80q0 84 10 117q8 37 41 94t117 123t128 117t70 114q16 41 21.5 68t5.5 51l-8 60q-6 35 -30.5 71.5t-67.5 36.5l-39 -6q-23 -2 -44.5 -17.5t-21.5 -56.5q86 0 104.5 -48t18.5 -66q0 -43 -39 -80q-39 -33 -92 -33q-37 0 -72 14q-27 14 -59 62q-6 12 -16.5 39.5 t-10.5 62.5v25l8 65q6 47 76 111.5t164 64.5q90 0 156 -39q66 -35 96 -116l29 -76q10 -35 10 -76q0 -164 -20.5 -235.5t-55.5 -119.5t-88 -89l-78 -66l-63 -53q-12 -16 -13 -51q66 25 113 24l68 -6l147 -18l98 -8q84 0 149.5 24.5t105.5 75.5t40 131q0 45 -18.5 97.5t-45 77 t-77.5 36.5l-102 14l-105 4h-24l-2 158l2 49q0 23 14 74l25 80q12 23 40.5 48.5t83 42.5t99.5 17q78 0 131 -36q53 -33 79.5 -99.5t26.5 -138.5l-6 -64l-135 -4l4 41q0 68 -28.5 114t-94.5 46q-47 0 -71 -45q-20 -47 -21 -109l4 -51h125q94 -12 160 -84q66 -66 84 -133 l18 -98l4 -72q0 -80 -18.5 -155.5t-61.5 -137t-83.5 -90t-106.5 -51.5l-109 -31q-41 -8 -59 -9t-29 -1q-14 0 -39.5 2t-57.5 7t-55.5 8.5t-66.5 15.5t-87 48t-103 36q-41 0 -64 -23q-18 -25 -18 -49l4 -33l-166 2l-6 66zM244 1450q0 86 37 160q47 84 130 130t179 46 q100 0 179 -27.5t120 -81.5q33 -45 53 -104q8 -27 12 -53.5t4 -59.5l-2 -37q0 -51 -43 -120.5t-90 -98.5h-98q59 31 84 90.5t25 122.5q0 33 -21 80q-16 47 -79.5 89t-147.5 42q-94 0 -159 -52t-65 -144v-25l9 -43q6 -31 49 -61.5t100 -30.5q-59 6 -71.5 31.5t-16.5 58.5 q0 35 10.5 60.5t27.5 45t45 31.5t60 12q51 0 107.5 -33.5t56.5 -119.5q-6 -61 -49 -104.5t-94 -59.5q-51 -10 -88 -10q-66 0 -124 24.5t-101 94.5q-39 72 -39 147zM535 1374q0 -12 9 -28.5t42 -16.5q12 0 29.5 9t17.5 42q0 10 -11.5 28.5t-41.5 18.5l-25 -6q-20 -14 -20 -47 z" />
<glyph unicode="&#xd8;" horiz-adv-x="1169" d="M31 492q0 168 83 289.5t201 140.5q-39 33 -39 73l13 82q12 61 120.5 112.5t231.5 51.5t209 -24q84 -20 145 -82q59 -55 80 -107q8 -23 14.5 -50.5t6.5 -53.5v-33l-11 -60h-276q-254 0 -386 -62t-132 -298q0 -113 52 -167t112.5 -73.5t126.5 -31.5q61 -8 82.5 -9.5 t46.5 -1.5q53 0 127 19q31 8 65.5 20.5t63.5 26.5q59 25 106 70l33 -117l-41 -31q-27 -18 -78 -39q129 0 172 -90q20 -45 30.5 -98t10.5 -125v-295l-49 -2l-51 -2l-25 2q0 55 -22 57l-86 -35q-47 -14 -80 -14l-60 6q-37 6 -67 49q-27 47 -27 97v26l10 60q6 35 62 71 q53 31 135 31l51 -2l70 -8l2 29q0 39 -2 55t-14 47q-12 47 -60 47q-104 0 -104 -104h-135q6 57 28 86l49 53l-67 -33l-109 -31q-35 -8 -63.5 -12t-57.5 -4q-57 0 -120 14q-33 6 -67 18.5t-75 35.5q-74 39 -140.5 123.5t-82.5 172.5q-12 86 -12 130zM504 1098q37 -16 37 -68 q0 -31 -21 -59l398 -2q6 68 -88.5 111.5t-206.5 43.5q-84 0 -119 -26zM893 -291q0 -47 37 -69l35 -9q39 0 68.5 19.5t31.5 48.5q0 90 -72 90l-61 -8q-39 -10 -39 -72z" />
<glyph unicode="&#xd9;" horiz-adv-x="1490" d="M25 487q0 141 51 245t143 136q-31 12 -49 45q-8 16 -12 30.5t-4 35.5q0 80 49 123l63 53l66 19l74 14l49 4q25 0 146.5 -31t176.5 -223v-188h-360q-92 -29 -119 -45.5t-55.5 -66.5t-28.5 -122q0 -68 30.5 -121t80.5 -76q49 -18 92 -18q74 0 138.5 44t64.5 104l2 133l4 82 h194l2 -33v-35v-64v-48t5.5 -51t49.5 -82t136 -52h33l55 16q37 8 71.5 53.5t55.5 114.5l33 135q10 68 10 144q0 98 -23 180q-10 45 -29.5 88t-53 91t-85 76t-125.5 28q-72 6 -160.5 10t-201.5 4l-86 -2h-82h-68h-227q-12 0 -12 31q0 8 2 34.5t2 40.5q0 12 16 13q18 -2 27 -2 q18 0 18 14q0 10 -14 37t-14 53q0 20 20.5 50t44.5 53q43 39 180.5 69.5t280.5 30.5q74 0 147.5 -6t153.5 -21q152 -25 208 -62.5t118.5 -112.5t62.5 -152h-143q-55 90 -136 143t-305 53h-83q-141 0 -184.5 -5t-72 -8t-53 -11.5t-45 -21.5t-20.5 -30q0 -8 11 -21t21.5 -23.5 t49.5 -10.5h331q113 0 198 -10t173 -37q160 -43 227.5 -160.5t88 -248.5t20.5 -289v-23q0 -90 -10 -156.5t-42 -150.5t-94.5 -150.5t-149.5 -102.5t-169 -36h-45q-23 6 -48.5 10.5t-57.5 26.5q-37 18 -60 47q-8 10 -19.5 31.5t-21.5 44.5q-27 -49 -57 -84q-23 -29 -68 -45 l-90 -25q-33 -6 -47 -8t-47 -2q-49 0 -98.5 12.5t-158 91t-136.5 298.5zM381 1057q25 -25 33 -53l4 -37q0 -33 -23 -56h207q0 37 -7 58.5t-27.5 41t-63.5 33t-92 13.5h-31z" />
<glyph unicode="&#xda;" horiz-adv-x="1464" d="M53 530q0 141 52.5 232.5t136.5 128.5q-35 0 -66 17.5t-44 53t-13 64.5v18l10 33q6 23 42 63t93 62q55 18 125 19q82 0 164 -35q86 -33 129 -99l-6 50l12 69l14 84q0 27 -10 58l-10 63l-84 84l84 113q156 -72 283 -156q-23 41 -23 76q0 57 45 90l-39 12l-53 4h-70h-80 l-71 2q-70 0 -84.5 -3t-30.5 -7t-36.5 -12t-40 -14.5t-36 -16.5t-31 -23.5t-22.5 -21.5q-33 -33 -51 -60.5t-18 -80.5h-160l-4 53q0 96 41 160q16 31 35.5 58.5t39.5 45.5q33 35 95.5 68t191.5 47q63 6 118.5 10t106.5 4q45 0 97.5 -2t109.5 -8q49 0 92 -9t84 -24 q61 -23 87 -43t59 -79.5t33 -125.5q0 -47 -18.5 -88t-63.5 -70.5t-90 -29.5q-56 0 -103 10q152 -117 229.5 -256t98 -243.5t20.5 -247.5q0 -180 -90 -319.5t-211 -205.5q-111 -59 -219 -84q-43 -8 -99 -14t-108 -6l-116 6q-29 4 -62 9t-67 14q-70 16 -159 70.5t-164 157.5 t-75 275zM254 530l16 -84q12 -59 129 -113t293 -54q137 0 277.5 56t201 158.5t60.5 262.5q0 162 -76 270q0 -49 -60.5 -101.5t-115.5 -52.5l-37 -2q-78 0 -151 50q-18 12 -46 45l19 -88q6 -43 6 -123h-393q-66 -8 -96 -66q-16 -33 -21.5 -63.5t-5.5 -61.5v-33zM330 901h276 q-14 74 -78.5 122t-169.5 48q10 -14 16.5 -30.5t6.5 -34.5q0 -51 -51 -105zM829 1223q0 -57 22.5 -91t47.5 -61l49 -6q35 0 53.5 21.5t18.5 54.5q0 29 -12 57l-68 68l-55 41l-37 -41q-18 -23 -19 -43zM1071 1542q0 -29 25 -53q23 -18 57 -23q31 0 57 21q19 18 23 55 q0 31 -23 53q-23 18 -57 23q-35 0 -57 -23q-25 -18 -25 -53z" />
<glyph unicode="&#xdb;" horiz-adv-x="5939" d="M383 897q0 416 231.5 670t606.5 254q264 0 481 -150q227 -158 227 -371q0 -100 -33 -124q-18 -14 -94 -15q-88 0 -160 105q-125 182 -137 194q-106 104 -282 105q-260 0 -394 -209q-115 -178 -114 -459q0 -293 128 -469t353 -176q211 0 328 125q47 49 137 231 q61 125 141 125q41 0 96.5 -55t55.5 -98q0 -66 -41 -168q-68 -170 -205 -273q-193 -143 -500 -143q-416 0 -635 274q-190 240 -190 627zM2232 897q0 416 231.5 670t604.5 254q266 0 483 -150q227 -158 228 -371q0 -78 -18.5 -108.5t-110.5 -30.5q-86 0 -158 105 q-121 176 -139 194q-106 104 -283 105q-254 0 -391 -209q-119 -180 -119 -459t125 -457q133 -188 358 -188q215 0 332 125q45 49 133 231q59 125 142 125q41 0 96 -55t55 -98q0 -66 -41 -168q-68 -170 -205 -273q-193 -143 -499 -143q-416 0 -633 274q-190 240 -191 627z M4106 492q0 90 30 126.5t112 36.5q88 0 141 -104q84 -166 110 -195q96 -104 289 -104q143 0 254 65q127 76 127 201q0 174 -268 262l-500 156q-270 129 -270 401q0 221 180 352.5t479 131.5q233 0 422 -107q213 -121 213 -301q0 -76 -63 -131q-51 -45 -92 -45 q-72 0 -178.5 178t-327.5 178q-121 0 -219 -59q-111 -68 -111 -170q0 -147 274 -221q463 -127 512 -150q277 -135 277 -426t-221 -442q-188 -129 -486 -129q-268 0 -467 131q-217 143 -217 365z" />
<glyph unicode="&#xdc;" horiz-adv-x="1474" d="M33 612q0 178 87 304t245 126l376 2v-149h-141l-117 2q-96 0 -127.5 -9t-62.5 -46t-44 -79t-13 -87q0 -35 4 -64.5t16 -79.5q51 -80 146.5 -164.5t302.5 -84.5q150 0 266 70.5t154 156.5t56.5 153.5t18.5 143.5v35q0 20 -4 45l-6 45q-25 162 -143.5 234.5t-329.5 72.5 h-539l-2 113l37 -2l49 2l45 6q-43 18 -85 49t-42 80q0 43 49 86q29 25 78 40t119 15q49 0 115 4q164 10 225 10q152 0 261.5 -25.5t164.5 -66.5q27 -16 53.5 -43.5t54.5 -66.5q51 -74 52 -152l-156 -2q-25 104 -119 147.5t-303 43.5q-53 0 -129 -2t-98 -2 q-76 0 -103.5 -21.5t-27.5 -38.5q0 -16 24 -33l49 -22h236h129q47 0 154.5 -24.5t180.5 -75t134 -141.5t78 -193q6 -55 10 -94t4 -76q0 -174 -62.5 -328t-158.5 -242t-230.5 -136t-244.5 -48q-133 0 -251 36t-219.5 108.5t-158.5 199.5t-57 268z" />
<glyph unicode="&#xdd;" horiz-adv-x="1464" d="M53 530q0 141 52.5 232.5t136.5 128.5q-35 0 -66 17.5t-44 53t-13 64.5v18l10 33q6 23 42 63t93 62q55 18 125 19q82 0 164 -35q86 -33 129 -99l-6 50l12 69l14 84q0 27 -10 58l-10 63l-84 84l84 113q223 -102 385 -228q156 -119 235.5 -260t100 -245.5t20.5 -247.5 q0 -180 -90 -319.5t-211 -205.5q-111 -59 -219 -84q-43 -8 -99 -14t-108 -6l-116 6q-29 4 -62 9t-67 14q-70 16 -159 70.5t-164 157.5t-75 275zM221 1495v35q8 82 49 141.5t127 102.5q127 68 312 67h47q35 -4 51 -4q242 -23 367 -129q59 -51 86.5 -109t27.5 -124 q-4 -29 -11 -52.5t-22 -44.5l-122 11q4 10 8 24t6 23q8 94 -116 143t-263 63q-14 0 -34.5 2.5t-43.5 2.5q-45 0 -92 -6.5t-98 -20.5q-135 -33 -148 -127q-2 -18 4 -47l-133 12zM254 530l16 -84q12 -59 129 -113t293 -54q137 0 277.5 56t201 158.5t60.5 262.5q0 162 -76 270 q0 -49 -60.5 -101.5t-115.5 -52.5l-37 -2q-78 0 -151 50q-18 12 -46 45l19 -88q6 -43 6 -123h-393q-66 -8 -96 -66q-16 -33 -21.5 -63.5t-5.5 -61.5v-33zM330 901h276q-14 74 -78.5 122t-169.5 48q10 -14 16.5 -30.5t6.5 -34.5q0 -51 -51 -105zM829 1223q0 -57 22.5 -91 t47.5 -61l49 -6q35 0 53.5 21.5t18.5 54.5q0 29 -12 57l-68 68l-55 41l-37 -41q-18 -23 -19 -43z" />
<glyph unicode="&#xde;" horiz-adv-x="0" d="M-1413 1493q0 74 36 133.5t117 114.5q74 53 237 71.5t339 18.5q182 0 324.5 -56.5t192.5 -130t50 -139.5q0 -57 -28 -102h-101l-49 -2q6 18 10 47q0 90 -63.5 129t-130 51t-197.5 12q-51 0 -139 -4t-125 -4q-49 0 -91 -7t-65 -19l-65 -27q-25 -12 -45.5 -39t-20.5 -74 q0 -27 2 -41t15 -43q12 -43 43 -73h-164q-43 29 -62 77q-8 23 -14 50.5t-6 56.5z" />
<glyph unicode="&#xdf;" horiz-adv-x="1421" d="M20 1231q0 96 69 195.5t159 141.5t160 56l159 8q66 0 107 -16q43 -12 74.5 -50t50 -74t18.5 -75q0 -41 -26 -86q23 8 42 17.5t46 23.5q61 31 61 135h309q-39 -162 -129 -204.5t-264 -77.5q70 0 163 -38t177 -109.5t127 -190.5t43 -252q0 -63 -3 -87t-13 -71 q-12 -78 -57.5 -167t-173.5 -198.5t-353 -109.5l-43 -2q-111 0 -245 31.5t-226 105.5t-156.5 200t-64.5 257q0 154 33.5 241t95.5 160q-35 10 -49 23l-37 39q-12 16 -18.5 30.5t-10.5 24.5l-16 53zM182 1198q0 -78 66 -96q63 51 91 66.5t105 48.5l181 47q30 18 30 61 q0 29 -16 64.5t-45 50.5q-41 23 -102 22q-74 0 -147 -36.5t-118 -106.5q-20 -33 -32.5 -63.5t-12.5 -57.5zM246 649q0 -176 140 -269t333 -93q170 0 308 105t138 267q0 180 -121.5 309.5t-308.5 129.5q-236 0 -362.5 -125t-126.5 -324z" />
<glyph unicode="&#xe0;" horiz-adv-x="1474" d="M33 612q0 178 87 304t245 126l376 2v-149h-141l-117 2q-96 0 -127.5 -9t-62.5 -46t-44 -79t-13 -87q0 -35 4 -64.5t16 -79.5q51 -80 146.5 -164.5t302.5 -84.5q150 0 270.5 73.5t160.5 154.5t61.5 157.5t21.5 148.5q0 61 -19 129q-31 109 -56.5 142.5t-78.5 74.5 q-47 43 -134 52.5t-329 9.5l-84 -2h-80h-37h-28q-20 4 -31 4q-39 0 -90 14t-82 51q-27 41 -27 86q0 41 18.5 84t65.5 84q41 41 178.5 72t282.5 31q166 0 314.5 -25t211 -59.5t92 -83.5t29.5 -99q0 -49 -30.5 -88t-83.5 -39l-21 2q98 -55 147.5 -141t67.5 -192l15 -123l2 -49 q0 -174 -66 -332t-158 -244t-233 -131q-70 -20 -135.5 -32.5t-120.5 -12.5q-133 0 -251 36t-219.5 108.5t-158.5 199.5t-57 268zM377 1409q0 -45 41 -51h139l143 2l170 -2q41 0 61.5 -2t63.5 -13q-16 27 -16 46q0 12 14 34l23 39q-37 16 -125 31q-43 6 -90 10t-101 4h-84 q-37 -6 -79.5 -10t-101 -23.5t-58.5 -64.5zM1098 1393q0 -18 16 -35q14 -10 39 -15q20 0 33.5 14.5t15.5 41.5q0 20 -15.5 34.5t-39.5 14.5q-18 0 -35 -16q-10 -14 -14 -39z" />
<glyph unicode="&#xe1;" horiz-adv-x="1474" d="M33 612q0 178 87 304t245 126l376 2v-149h-141l-117 2q-96 0 -127.5 -9t-62.5 -46t-44 -79t-13 -87q0 -35 4 -64.5t16 -79.5q51 -80 146.5 -164.5t302.5 -84.5q152 0 273.5 70.5t164.5 166.5q16 33 29.5 67t23.5 70q18 66 18 138q0 68 -13 138.5t-30 96.5q-12 29 -67 85 t-165 74.5t-351 18.5l-82 -2h-80h-37h-29q-20 4 -30 4q-39 0 -90.5 14.5t-81.5 53.5q-8 12 -15 27q-12 29 -12 57q0 41 18.5 84t65.5 84q41 41 178 71.5t283 30.5q78 0 151.5 -6t151.5 -20q145 -25 202.5 -63t119 -115.5t61.5 -155.5h-86q-37 0 -53 4q-55 90 -136 143.5 t-305 53.5h-100q-133 0 -184.5 -6.5t-106.5 -24.5q-41 -18 -41 -45q0 -20 16.5 -37t39.5 -19h331h129q57 0 193.5 -37.5t202.5 -105.5q31 -33 55 -66.5t43 -70.5q35 -61 53 -162q8 -47 12.5 -86t4.5 -84q0 -176 -69 -330.5t-175.5 -232.5t-232.5 -122t-234 -44 q-133 0 -251 36t-219.5 108.5t-158.5 199.5t-57 268z" />
<glyph unicode="&#xe2;" horiz-adv-x="1490" d="M33 446q0 70 20.5 150t91.5 154l-100 4v155l119 -2q-35 41 -35 94q0 74 50 120t77 55.5t84 9.5l78 6l31 2h36l123 -33q100 -25 158 -217v-190h-360q-70 -18 -103 -40t-59 -79q-23 -55 -23 -117q0 -68 31 -127t76 -84q47 -20 88 -20q76 0 142.5 46t66.5 105l6 215h192 l2 -137q0 -109 49 -170q51 -57 144 -57h33l53 16q37 10 73.5 56.5t62.5 137.5t26 208q0 96 -23.5 198.5t-71 184t-197 117.5t-399.5 36h-397l-2 119l37 -2h41l29 2l24 2q-43 18 -85 49t-42 80q0 43 49 86q29 25 78 40t121 15q76 0 117 2q205 10 221 11q152 0 261.5 -26 t164.5 -67q27 -16 53.5 -43.5t54.5 -66.5q51 -74 52 -152l-156 -2q-25 104 -118 147.5t-304 43.5q-53 0 -129 -2t-98 -2q-76 0 -109 -27q-18 -10 -22 -31q0 -16 24 -33l49 -22h121h115q115 0 204 -10.5t181 -36.5q168 -45 235.5 -164t88 -248t20.5 -289q0 -178 -43 -294.5 t-103.5 -182t-150.5 -106.5q-86 -35 -168 -35h-45q-23 6 -45 10t-73.5 34t-88.5 118q-33 -57 -56.5 -85t-68.5 -46l-90 -25q-33 -6 -47 -8t-47 -2q-55 0 -105.5 12t-107.5 55t-102 106.5t-64 141.5q-8 41 -12 72t-4 65zM371 1061q25 -18 32 -53l5 -33q0 -25 -25 -60h207 q0 37 -7.5 58.5t-27.5 41t-59 33t-95 13.5h-30z" />
<glyph unicode="&#xe3;" horiz-adv-x="1490" d="M35 446q0 104 30.5 183.5t86.5 101.5l-101 2v156h117q-33 43 -33 94q0 76 50.5 120t68.5 50l88 12l82 9l29 2h36l123 -33q102 -25 160 -219v-191h-360q-70 -18 -94.5 -32.5t-58.5 -65.5t-34 -123q0 -78 37 -139.5t90 -73.5l76 -8q45 0 74.5 8t62.5 33q59 43 60 106l6 215 h192l2 -137q0 -109 49 -170q51 -57 144 -57h33l53 16q37 10 73.5 56.5t62.5 137.5t26 208q0 96 -23.5 200.5t-73.5 184.5q-45 84 -175 113.5t-402 29.5l-82 -2h-80h-37h-31q-20 4 -30 4q-18 0 -49 6t-72 17q-76 18 -76 126q0 43 18.5 84t62.5 84t181.5 74t280.5 31 q78 0 154.5 -6t160.5 -21q152 -25 214.5 -59.5t91 -78.5t28.5 -87q0 -53 -37 -91t-100 -48q117 -63 187.5 -205t70.5 -412v-26q0 -45 -2 -86t-8 -80q0 -43 -9.5 -81t-29.5 -91q-31 -82 -91.5 -147.5t-150.5 -106.5q-86 -35 -168 -35h-45q-23 6 -45 10t-73.5 34t-88.5 118 q-33 -57 -56.5 -85t-68.5 -46l-90 -25q-33 -6 -47 -8t-47 -2q-55 0 -105.5 12t-111.5 60q-61 43 -99 99t-63 150q-6 29 -10 61t-4 70zM367 1419q0 -45 41 -51h139l143 2l170 -2q41 0 61.5 -2t65.5 -12q-18 29 -18 53q0 28 37 63l-113 27q-41 8 -96.5 14.5t-110.5 6.5 q-31 0 -64.5 -2.5t-68.5 -8.5q-72 -6 -115 -22q-45 -12 -58 -26.5t-13 -39.5zM375 1042q23 -23 33 -55l4 -35q0 -33 -23 -55h205q0 35 -8 57q-6 27 -29 43q-18 18 -61 31.5t-90 13.5h-31zM1087 1403q0 -23 15.5 -36t40.5 -13q20 0 34.5 16t14.5 39q0 18 -16 35 q-14 10 -39 14q-18 0 -35 -16q-10 -14 -15 -39z" />
<glyph unicode="&#xe4;" horiz-adv-x="1490" d="M20 461q0 51 6.5 94t22.5 88q31 80 80 102l-80 5v149l119 -2q-35 41 -35 96q0 78 50 124t77 55.5t84 9.5l78 6l31 2h36l125 -33q100 -25 156 -219v-188h-360q-92 -29 -119 -45.5t-55.5 -66.5t-28.5 -122q0 -68 30.5 -121t79.5 -76q49 -18 93 -18q74 0 138 44t64 104 l2 133l4 82h195l2 -33v-35v-64v-48t5 -51t49 -82t137 -52h32l56 16q37 8 71.5 53.5t55.5 114.5l32 135q10 68 11 144q0 98 -23 180q-10 45 -29.5 88t-53.5 91t-85 76t-125 28q-72 6 -161 10t-201 4l-86 -2h-82h-68q-39 0 -70.5 8t-50.5 12q-45 12 -73 50q-27 41 -27 86 q0 41 18.5 84t63.5 82.5t182 70.5t281 31q74 0 147.5 -6t153.5 -21q152 -25 208 -62.5t118.5 -112.5t62.5 -152h-143q-55 90 -136 143t-305 53h-84q-141 0 -196.5 -6t-103.5 -23.5t-48 -48.5q0 -20 14.5 -34.5t40.5 -18.5h332q113 0 198 -10t173 -37q160 -43 227.5 -160.5 t88 -248.5t20.5 -289v-23q0 -90 -10.5 -156.5t-42 -150.5t-94 -150.5t-149.5 -102.5t-169 -36h-45q-23 6 -48.5 10.5t-58.5 26.5q-37 18 -59 47q-8 10 -19.5 31.5t-21.5 44.5q-27 -49 -57 -84q-23 -29 -68 -45l-90 -25q-33 -6 -47 -8t-47 -2q-49 0 -101.5 12.5t-110 55.5 t-102.5 106q-37 53 -65 148q-16 72 -17 135zM373 1057q25 -25 33 -53l4 -37q0 -33 -23 -56h207q0 37 -7 58.5t-27.5 41t-63.5 33t-93 13.5h-30z" />
<glyph unicode="&#xe5;" horiz-adv-x="1730" d="M35 690q0 23 2 59.5t11 110.5t112.5 165t204.5 91q33 0 49 -8q14 16 41 41q16 14 30 27q39 35 86 34l78 7l31 2h37l123 -33q100 -25 157 -217v-191h-360q-57 -14 -97 -47t-63 -92q-25 -55 -24 -129q0 -80 27.5 -137.5t82.5 -81t99 -23.5q76 0 131 55.5t61 108.5l10 90 l4 70l-2 33l-2 28h191l2 -45v-39v-77q0 -35 12 -80t53 -86q45 -39 148 -39q80 0 133 78q47 78 63 167q12 86 13 166q0 115 -24.5 215.5t-90.5 182.5q-53 72 -180 107.5t-369 35.5h-457l-2 117h76l37 2h18q-43 18 -85 49t-42 80q0 43 50 86q29 25 78 40t118 15q49 0 115 4 q164 10 225 10q152 0 261.5 -25.5t164.5 -66.5q27 -16 53.5 -43.5t55.5 -66.5q51 -74 51 -152l-156 -2q-25 104 -119 147.5t-303 43.5q-53 0 -128.5 -2t-98.5 -2q-76 0 -103.5 -21.5t-27.5 -38.5q0 -16 25 -33l49 -22h235q205 0 374 -47t254 -153.5t115.5 -251.5t30.5 -290 q0 -152 -65.5 -332t-190.5 -235t-209 -55q-78 0 -146.5 42t-98.5 124q-33 -57 -56.5 -85t-88 -53.5t-150.5 -25.5q-53 0 -91 9t-68 22.5t-60 31.5q-59 35 -103 101q-33 53 -65 153q-25 92 -25 154q0 57 24.5 148.5t90.5 158.5l-94 -2v158h145v18q-2 8 -35 20.5t-57 12.5 q-78 0 -131 -89t-53 -198q0 -78 4 -128t18 -107q23 -98 109 -197h-123q-59 96 -92 202.5t-33 225.5zM602 1085l25 -22q20 -16 24 -27.5t4 -25.5q0 -12 -6 -33t-28 -43h206q0 41 -10 61q-6 23 -27.5 42.5t-61.5 33.5t-95 14h-31z" />
<glyph unicode="&#xe6;" horiz-adv-x="1341" d="M16 569q0 98 31 215t157 212.5t212 107.5q18 53 103 95t181 42q238 0 346.5 -71.5t108.5 -233.5l2 -107h-498q-98 -31 -154 -81t-73.5 -105t-17.5 -121q0 -43 4 -74.5t18 -76.5q25 -74 127.5 -137.5t227.5 -63.5q14 0 38.5 2t55.5 8q70 12 126 31.5t113 69.5v-37v-56 l-6 -32q-51 -39 -156.5 -81t-170.5 -42q63 -12 80.5 -47t17.5 -76v-72q-6 -25 -10.5 -48t-23.5 -52t-40 -43l-45 -37l-31 -27q-6 -6 -8 -28q31 12 53 12l37 -4l74 -8l51 -6q45 0 75 12t50.5 38.5t20.5 65.5q0 16 -12.5 55t-45.5 48l-65 12l-64 2v64v26l6 41l13 39l22 37 q29 37 92 37q35 0 60 -19l30 -35q6 -10 17 -59l6 -67l-66 -3q2 6 2 13.5v9.5q0 33 -16 55.5t-47 22.5q-20 0 -35 -21q-6 -16 -10 -53l2 -29h63q100 -12 115 -84l15 -79l2 -37q0 -43 -11 -74q-6 -33 -39 -78q-27 -43 -65 -57l-57 -17l-31 -2h-53q-92 0 -126 28t-61 28 q-12 0 -28 -13q-6 -10 -11 -28l6 -21h-84l-4 70v43q0 45 4.5 60.5t19.5 43t64 70.5q43 35 84 82q27 29 27 72q0 10 -5 35.5t-19.5 45t-41.5 17.5q-18 -4 -30.5 -11.5t-12.5 -27.5q41 0 54 -21l8 -28q0 -33 -23 -49q-12 -12 -41 -15q-49 0 -58 22.5t-13 55.5q0 27 8 49 q12 25 29 43q-176 0 -313.5 104.5t-162.5 219.5q-8 49 -15 95t-7 75l6 76l25 102q18 61 99 142t144 94q-23 16 -28 32l-6 41q-66 -14 -143 -76.5t-118 -158.5q-35 -92 -34 -203q0 -41 2 -63.5t11 -69.5t16.5 -68.5t25.5 -68.5h-94q-29 66 -43 137q-6 37 -10.5 73.5 t-4.5 73.5zM578 1094q31 0 50 -27t19 -57q0 -20 -12 -39h362q-6 39 -22 61q-10 23 -42 45.5t-81 34.5t-102 12q-113 0 -172 -30zM1178 -76q0 78 34.5 112t98.5 34q92 0 142 -90t50 -205q0 -113 -33 -185q-29 -72 -73.5 -101.5t-89.5 -29.5q-37 0 -69 20.5t-46 50.5t-14 99 l71 4l6 -63q6 -25 39 -27q43 0 61.5 70t18.5 162q0 82 -18.5 152.5t-50.5 64.5l-41 -15q-12 -6 -19 -53h-67z" />
<glyph unicode="&#xe7;" horiz-adv-x="1730" d="M31 659q0 20 2 57.5t11 108t108.5 162.5t207.5 92l52 -6l67 72q27 27 84 26l64 9l55 4h33l121 -31q98 -25 159 -219v-191h-360q-76 -18 -105.5 -31.5t-60.5 -72.5q-25 -55 -25 -129q0 -80 28 -137.5t83 -81t98 -23.5q76 0 131.5 55.5t61.5 104.5l6 76v47l-6 102h201 l2 -45v-39v-77q0 -37 11 -80t55 -82t136 -39q94 0 147.5 69.5t71.5 186.5l9 147q0 178 -48.5 313.5t-124 171t-196.5 58.5q-53 8 -144.5 14t-199.5 6l-84 -2h-80h-37h-28q-20 4 -31 5q-39 0 -90 14t-82 51q-27 41 -27 86q0 41 18.5 84t65.5 84q41 41 178.5 71.5t282.5 30.5 q78 0 151.5 -6t151.5 -20q147 -25 201.5 -60.5t118 -115.5t63.5 -158h-139q-55 92 -136 146.5t-305 54.5h-98q-133 0 -184 -6.5t-107 -24.5q-41 -18 -41 -45q0 -20 16.5 -35.5t37.5 -19.5h331q219 0 401.5 -62.5t245 -177.5t87 -229.5t24.5 -233.5v-72q0 -152 -65.5 -332 t-190.5 -235t-209 -55q-78 0 -146.5 42t-98.5 124q-33 -57 -56.5 -85t-88 -53.5t-150.5 -25.5q-53 0 -91 9t-68 22.5t-61 31.5q-59 35 -102 101q-33 53 -65 153q-25 92 -25 154q0 57 18.5 127t46.5 98l54 49h-92v156h143v25q-2 12 -31 18l-43 6q-82 0 -141 -89t-59 -198 q0 -143 22.5 -236t108.5 -196h-125q-59 96 -92 205t-33 227zM598 1053l35 -31l18 -25q2 -8 2 -22q0 -12 -6 -32.5t-29 -43.5h205q0 68 -30.5 95.5t-73.5 43t-90 15.5h-31z" />
<glyph unicode="&#xe8;" horiz-adv-x="1503" d="M41 535q0 39 2 77.5t10 96t45 138.5t119 156.5t281 75.5h284v-147h-327q-98 -12 -139.5 -59.5t-70 -129t-28.5 -163.5q0 -100 34 -176t91 -99.5t104 -23.5q82 0 137.5 46t55.5 103l-2 115l-2 114h215l-2 -67v-62q0 -63 9 -111t59.5 -93t125.5 -45q29 0 83.5 14t98.5 77.5 t62 159.5q6 47 10 91.5t4 87.5q0 184 -62 291.5t-117.5 140.5t-176.5 55q-51 8 -141 14.5t-201 6.5h-395l-2 118l59 -4l72 6q-43 18 -85 49t-42 80q0 43 49 86q29 25 78 40.5t121 15.5q76 0 116 2q205 10 222 10q72 0 134 -6t122 -21q113 -25 168 -65q59 -37 110 -110.5 t51 -151.5l-155 -2q-25 104 -119 147t-303 43q-55 0 -132 -2t-98 -2q-76 0 -108 -27q-18 -10 -23 -30q0 -18 27 -33l49 -23h234h129q55 0 146 -18t155 -55q160 -92 218 -224.5t58 -388.5q0 -43 -2 -82t-8 -75q-6 -66 -31 -162q-18 -90 -83.5 -174t-146.5 -122t-175 -38 q-92 0 -144.5 33t-76.5 59q-18 25 -39 74q-27 -49 -58 -84q-25 -33 -90 -55q-61 -25 -151 -25q-51 0 -104.5 12.5t-112.5 53.5q-63 37 -99.5 93t-66.5 148q-29 96 -29 226z" />
<glyph unicode="&#xe9;" horiz-adv-x="1730" d="M47 653q0 23 2 60t11.5 111.5t111.5 165.5t205 91q33 0 49 -8q14 16 41 41q16 14 31 27q39 35 86 35l78 6l28 2h37l123 -31q98 -25 160 -219v-191h-361q-70 -18 -108.5 -40.5t-63 -80t-24.5 -130.5q0 -70 25.5 -123.5t77.5 -77t97 -23.5q76 0 131.5 55.5t61.5 108.5 l10 90l4 70l-2 33l-2 28h191l2 -45v-39v-77q0 -37 11 -80t55 -82t136 -39q82 0 138.5 77.5t68.5 161.5q6 43 10.5 86t4.5 86q0 106 -23 197q-18 98 -74 184q-49 84 -183 123t-394 39l-84 -2h-80h-37h-29q-20 4 -30 4q-39 0 -90.5 14.5t-81.5 51.5q-27 41 -27 86 q0 41 18.5 84t63.5 83t182 70.5t281 30.5q166 0 314.5 -24.5t212 -60.5t89.5 -79q6 -12 16.5 -36.5t10.5 -51.5q0 -55 -36 -96t-95 -41q117 -55 195.5 -217t78.5 -445q0 -152 -65.5 -332t-190.5 -235t-209 -55q-78 0 -146.5 42t-98.5 124q-33 -57 -56.5 -85t-88 -53.5 t-150.5 -25.5q-53 0 -106.5 12t-113.5 53q-63 39 -104 103q-37 66 -55 162l-6 55l-2 59q0 111 30.5 191t79.5 110h-94v156h143v16q-2 8 -34.5 20.5t-57.5 12.5q-76 0 -129 -89t-53 -198q0 -143 22.5 -236t108.5 -196h-125q-23 41 -47.5 95.5t-42.5 107.5q-16 59 -24.5 109.5 t-8.5 113.5zM573 1427q0 -49 41 -49h140l143 2l170 -2q41 0 61.5 -2t63.5 -12q-16 27 -16 45q0 12 14 35l22 37l-112 26q-41 8 -98.5 14.5t-110.5 6.5q-31 0 -64.5 -2t-68.5 -8q-33 -2 -61.5 -7.5t-51.5 -15.5q-41 -12 -59 -31q-12 -16 -13 -37zM612 1053l31 -29 q16 -10 20.5 -22.5t4.5 -26.5q0 -12 -6.5 -32.5t-28.5 -43.5h207q0 66 -32 96.5t-75 44t-90 13.5h-31zM1294 1413q0 -23 15.5 -36t40.5 -13q49 0 49 55q0 18 -17 35q-14 10 -39 14q-18 0 -34 -16q-10 -14 -15 -39z" />
<glyph unicode="&#xea;" horiz-adv-x="1503" d="M29 555q0 39 2 75t11 84t52 133t124 158.5t282 73.5l299 4v-151h-344q-100 -16 -152.5 -70.5t-77.5 -126.5q-8 -31 -14 -66.5t-6 -66.5q0 -106 37 -188t100 -111q61 -23 111 -22q74 0 131 43t57 102l2 119v52.5t4 61.5h191l-2 -67v-60q0 -25 2 -52t11 -68t57 -87t122 -46 q27 0 40 3t50 13q55 18 100.5 91t45.5 157q0 240 -29 337t-100.5 189t-182 111.5t-366.5 19.5l-92 -2h-88h-35h-29q-20 4 -29 4q-39 0 -85 14.5t-74 49.5q-27 41 -27 86q0 43 18.5 85t65.5 83q41 41 179 71.5t282 30.5q158 0 303 -25.5t202.5 -62.5t119 -116t61.5 -156h-86 q-37 0 -53 4q-51 90 -134.5 143t-306.5 53l-47 2l-63 2h-70t-86 -8q-68 -6 -116 -23.5t-48 -48.5q0 -20 16.5 -35.5t36.5 -19.5h332h131q57 0 194.5 -38t217.5 -124t119 -157.5t51 -210.5l14 -154v-29q0 -72 -13 -167t-40 -168q-25 -80 -86 -154t-141 -104q-84 -27 -164 -27 q-45 0 -82 8t-84 37q-39 29 -63.5 52.5t-43.5 70.5q-27 -49 -53 -78t-60 -45t-85 -27.5t-92 -11.5q-63 0 -105.5 11.5t-106 49t-108.5 102t-74.5 154t-29.5 234.5z" />
<glyph unicode="&#xeb;" horiz-adv-x="1503" d="M29 555q0 39 2 75t11 84t52 133t124 158.5t282 73.5l299 4v-151h-344q-100 -16 -152.5 -70.5t-77.5 -126.5q-8 -31 -14 -66.5t-6 -66.5q0 -106 38 -189t97 -110q57 -23 104 -22q74 0 125.5 44t57.5 89l6 65l2 53l-2 62v65h205q0 -156 15 -222t59 -109t128 -43 q37 0 89.5 11t100.5 99t48 183q0 311 -53.5 408t-125 145.5t-141 57.5t-152.5 13t-208 4l-86 -2h-82h-68q-39 0 -70.5 8.5t-49.5 12.5q-100 29 -101 135q0 41 18.5 84t63.5 83t182.5 70.5t278.5 30.5q172 0 318.5 -24.5t211.5 -61.5q59 -37 89 -84t30 -96q0 -51 -31.5 -88 t-87.5 -37l-18 2q104 -59 167.5 -165.5t81 -239t17.5 -177.5q0 -104 -13 -198t-43 -178t-89.5 -157t-134.5 -104q-80 -27 -154 -26q-16 0 -36.5 1t-56.5 10t-81 36l-68 49q-20 20 -47 80l-49 -74q-23 -27 -71 -64.5t-144 -37.5q-115 0 -206 55t-136 118.5t-74.5 153 t-29.5 234.5zM373 1389q0 -49 41 -50h112l119 2h112.5t90.5 -4q41 0 63.5 -2t81.5 -12q-18 31 -18 47q0 12 14 35l23 37l-113 26q-41 8 -96 14.5t-111 6.5q-31 0 -64.5 -2t-68.5 -8q-72 -6 -115 -23q-41 -12 -59 -31q-12 -16 -12 -36zM1094 1372q0 -49 57 -49q49 0 49 57 q0 49 -57 50q-49 0 -49 -58z" />
<glyph unicode="&#xec;" horiz-adv-x="1490" d="M35 512l2 66q0 23 6 49t10 45q12 70 29.5 117t73 120.5t112 115.5t129 54.5t129.5 12.5q119 0 218.5 -49.5t147.5 -145.5t48 -207l-2 -43l-64 -8q-25 0 -47 -23l-47 -45q-41 -51 -41 -106q0 -37 23.5 -85t81.5 -77q25 -10 54.5 -16t59.5 -6q39 0 110 19t128 136 q29 59 43 123t14 141q0 92 -23.5 178.5t-53.5 137.5q-27 51 -74 94t-172 68q-53 10 -145.5 16t-215.5 6l-92 -2h-88h-35h-28q-20 4 -29 4q-39 0 -85 14.5t-75 49.5q-27 41 -26 86q0 43 18 85t66 83q41 41 179 71.5t281 30.5q80 0 148.5 -6t148.5 -23q154 -29 215 -63 q61 -31 117.5 -106.5t56.5 -161.5h-143q-74 121 -168 160.5t-268 39.5l-47 2l-64 2h-69.5t-85.5 -8q-68 -6 -116 -23.5t-48 -48.5q0 -20 16.5 -35.5t36.5 -19.5h332h131q59 0 195.5 -28.5t216.5 -88.5q74 -53 132 -163.5t58 -231.5l8 -114l2 -58q0 -98 -30.5 -225 t-97 -222.5t-150.5 -138.5q-80 -37 -129 -49l-105 -8q-61 0 -84.5 3t-60.5 13q-66 16 -114 52.5t-83 111.5q-8 -66 -47 -110.5t-89 -58t-93 -13.5q-117 0 -204 88t-110 191l-24 141zM190 500q0 -39 5 -60l20 -53q6 33 29 57q18 25 55 50q12 8 27 14q29 12 57 12 q45 0 85 -16.5t69 -46.5q-2 35 9 75.5t38 85.5q55 93 147 93q0 51 -31.5 87t-85 54t-112.5 18q-125 0 -217 -74.5t-92 -211.5l-3 -47v-37zM283 287q0 -25 25.5 -44.5t56.5 -19.5q23 0 41 8.5t26 26.5l10 29q0 31 -20 59q-8 10 -23.5 18.5t-33.5 8.5q-33 0 -60 -27 q-23 -27 -22 -59z" />
<glyph unicode="&#xed;" horiz-adv-x="1490" d="M35 512l2 66q0 23 6 49t10 45q12 70 29.5 117t73 120.5t112 115.5t129 54.5t129.5 12.5q119 0 218.5 -49.5t147.5 -145.5t48 -207l-2 -43l-64 -8q-25 0 -47 -23l-47 -45q-41 -51 -41 -106q0 -39 24.5 -85t76.5 -71q23 -8 50.5 -14t55.5 -6q51 0 125 25.5t123 136 t49 256.5q0 86 -15.5 159.5t-41.5 116.5q-18 33 -43 61q-14 16 -47 52q-59 66 -165 94.5t-337 28.5h-395l-2 118l59 -4l72 6q-43 18 -85 49t-42 80q0 43 49 86q29 25 78 40.5t121 15.5q76 0 116 2q205 10 221 10q72 0 134.5 -6t121.5 -21q113 -25 168 -65 q59 -37 110.5 -110.5t51.5 -151.5l-155 -2q-25 104 -119 147t-303 43q-55 0 -132 -2t-98 -2q-76 0 -108 -27q-18 -10 -23 -30q0 -18 27 -33l49 -23h233h129q51 0 156 -24q53 -12 97 -30.5t87 -47.5q78 -51 148 -159.5t86 -229.5l12 -141l2 -56q0 -96 -30.5 -229t-99 -229.5 t-168 -140.5t-206.5 -44q-78 0 -147.5 18.5t-103.5 43.5l-56 51q-25 25 -43 63q-8 -66 -47 -110.5t-89 -58t-93 -13.5q-117 0 -204 88t-110 191l-24 141zM190 500q0 -39 5 -60l20 -53q6 33 29 57q18 25 55 50q12 8 27 14q29 12 57 12q45 0 85 -16.5t69 -46.5q-2 35 9 75.5 t38 85.5q55 93 147 93q0 51 -31.5 87t-85 54t-112.5 18q-125 0 -217 -74.5t-92 -211.5l-3 -47v-37zM283 287q0 -25 25.5 -44.5t56.5 -19.5q23 0 41 8.5t26 26.5l10 29q0 31 -20 59q-8 10 -23.5 18.5t-33.5 8.5q-33 0 -60 -27q-23 -27 -22 -59z" />
<glyph unicode="&#xee;" horiz-adv-x="1490" d="M35 512l2 66q0 23 6 49t10 45q12 70 29.5 117t73 120.5t112 115.5t129 54.5t129.5 12.5q119 0 218.5 -49.5t147.5 -145.5t48 -207l-2 -43l-64 -8q-25 0 -47 -23l-47 -45q-41 -51 -41 -106q0 -37 23.5 -85t77.5 -77q51 -23 106 -22q35 0 47 4l76 18q61 12 119 137 q29 63 43 131t14 154q0 59 -3 85t-13 69q-18 90 -66 147q-41 57 -104 102q-51 37 -148.5 57.5t-328.5 20.5l-86 -2h-82h-68q-39 0 -70.5 8.5t-50.5 12.5q-100 29 -100 135q0 41 18.5 84t63.5 83t182 70.5t279 30.5q172 0 318.5 -24.5t210 -61.5t91 -82t27.5 -88 q0 -53 -38 -93t-97 -40q113 -49 179 -149.5t84.5 -226t18.5 -201.5q0 -113 -31.5 -242t-100 -228.5t-144.5 -136.5t-129 -47l-103 -8q-78 0 -152.5 18.5t-105.5 47.5l-51 53l-39 65q-8 -66 -47 -110.5t-89 -58t-93 -13.5q-117 0 -204 88t-110 191l-24 141zM190 500 q0 -39 5 -60l20 -53q6 33 29 57q18 25 55 50q12 8 27 14q29 12 57 12q45 0 85 -16.5t69 -46.5q-2 35 9 75.5t38 85.5q55 93 147 93q0 51 -31.5 87t-85 54t-112.5 18q-125 0 -217 -74.5t-92 -211.5l-3 -47v-37zM283 287q0 -25 25.5 -44.5t56.5 -19.5q23 0 41 8.5t26 26.5 l10 29q0 31 -20 59q-8 10 -23.5 18.5t-33.5 8.5q-33 0 -60 -27q-23 -27 -22 -59zM356 1389q0 -49 41 -50h113l119 2h112.5t89.5 -4q41 0 64 -2t82 -12q-14 29 -14 45q0 14 8 31l24 43l-112 26q-41 8 -96.5 14.5t-110.5 6.5q-31 0 -64.5 -2t-68.5 -8q-72 -6 -115 -23 q-41 -12 -59 -31q-12 -16 -13 -36zM1077 1372q0 -49 58 -49q49 0 49 57q0 49 -58 50q-49 0 -49 -58z" />
<glyph unicode="&#xef;" horiz-adv-x="1474" d="M39 664l6 114q6 63 25.5 130t97.5 157q33 33 82 59q18 10 41.5 16.5t46.5 6.5q55 0 101 -25.5t64.5 -57.5t24.5 -60l9 -52l2 -34q0 -29 -9 -52l-8 -41l-2 -49q0 -43 63.5 -72.5t149.5 -29.5q84 0 136.5 50t52.5 110l-7 34q-10 -51 -58 -74.5t-97 -23.5q-25 0 -47.5 2 t-42.5 8q-35 12 -59.5 35t-45.5 59q-10 31 -14 68q0 70 18.5 112t59.5 76q37 37 143 37q72 0 185.5 -49t113.5 -301q0 -84 -37 -168q-37 -76 -91 -111.5t-111.5 -49t-112.5 -13.5q-78 0 -149.5 20.5t-135.5 94.5q-31 35 -47 80t-16 100q0 35 3 48t13 40l19 55q0 18 -17.5 37 t-38.5 19q-29 0 -59 -33q-25 -31 -37 -80l-14 -74l-4 -51l2 -49q0 -16 25.5 -113.5t159.5 -191.5t304 -94q152 0 271.5 64.5t162.5 144.5q20 39 32.5 67.5t29 74.5t16.5 83q0 147 -16.5 217t-70.5 146.5t-168 107.5t-390 31h-395l-2 118l59 -4l72 6q-43 18 -85 49t-42 80 q0 43 49 86q29 25 78 40.5t121 15.5q76 0 116 2q205 10 221 10q72 0 134.5 -6t121.5 -21q113 -25 168 -65q59 -37 110.5 -110.5t51.5 -151.5l-155 -2q-25 104 -119 147t-303 43q-55 0 -132 -2t-98 -2q-76 0 -108 -27q-18 -10 -23 -30q0 -18 27 -33l49 -23h233h129 q80 0 169 -19.5t149 -57.5q35 -20 57.5 -37t48.5 -41q41 -37 78 -119q31 -68 45.5 -182.5t14.5 -198.5q0 -53 -7.5 -90t-29.5 -111q-25 -92 -72 -170q-43 -80 -104.5 -137t-174 -117.5t-305.5 -60.5q-172 0 -331.5 65.5t-237.5 175t-105.5 219t-27.5 206.5zM682 956 q0 -23 15.5 -43t47.5 -20q23 0 44.5 15t21.5 50q0 18 -13.5 41t-49.5 23q-20 0 -39 -12q-27 -20 -27 -54z" />
<glyph unicode="&#xf0;" horiz-adv-x="1540" d="M37 539v24q0 90 36 179t160 149q-47 33 -62 61.5t-15 77.5q0 82 80.5 146.5t187.5 64.5q152 0 240 -67.5t106 -172.5q12 80 38 112t81 75l88 53q31 16 47 43q10 23 14 45q0 37 -33.5 69t-91.5 40l-131 10l-94 4h-56.5t-55 -6t-53 -13.5t-54.5 -23.5q-55 -29 -55 -100 q0 -37 16 -64h-143q-8 12 -13.5 20.5t-15.5 30.5l-8 58l2 39l18 49q14 29 49 71q35 37 83.5 61.5t154.5 41.5q55 8 102.5 12t104.5 4q92 0 127 -3t90 -13q94 -12 148.5 -67.5t54.5 -98.5q0 -23 -10 -45q41 20 55 48t20 54h256q0 -49 -14 -80.5t-74 -76.5q-51 -39 -119 -66 l-133 -43l43 4q66 0 131.5 -28.5t95 -90t29.5 -108.5q0 -55 -19.5 -99.5t-66.5 -68.5q135 -86 135 -299q0 -29 -6 -76t-22 -129q-27 -147 -188.5 -219t-223.5 -88l-123 -25l-92 -10l-70 -2l-135 4l-108 6q-39 0 -58.5 4t-70.5 19q-78 25 -166 74t-150.5 162.5t-62.5 267.5z M246 602q0 -178 143 -252q72 -33 167 -51t212 -18q233 0 378.5 83.5t145.5 253.5q0 135 -77.5 174t-260.5 39l-88 -2h-92q-309 0 -418.5 -40.5t-109.5 -186.5zM387 1118q49 -29 49 -90q0 -43 -28 -57h186q0 45 -9.5 71.5t-33.5 44.5q-49 37 -117 37zM954 971h291l6 33 q0 57 -45 75l-65 21l-39 4q-72 0 -115 -37q-33 -33 -33 -96z" />
<glyph unicode="&#xf1;" horiz-adv-x="1474" d="M39 664l6 114q6 63 25.5 130t97.5 157q33 33 82 59q18 10 41.5 16.5t46.5 6.5q55 0 101 -25.5t64.5 -57.5t24.5 -60l9 -52l2 -34q0 -29 -9 -52l-8 -41l-2 -49q0 -43 63.5 -72.5t149.5 -29.5q84 0 136.5 50t52.5 110l-7 34q-10 -51 -58 -74.5t-97 -23.5q-25 0 -47.5 2 t-42.5 8q-35 12 -59.5 35t-45.5 59q-10 31 -14 68q0 70 18.5 112t59.5 76q37 37 143 37q72 0 185.5 -49t113.5 -301q0 -84 -37 -168q-37 -76 -91 -111.5t-111.5 -49t-112.5 -13.5q-78 0 -149.5 20.5t-135.5 94.5q-31 35 -47 80t-16 100q0 35 3 48t13 40l19 55q0 18 -17.5 37 t-38.5 19q-29 0 -59 -33q-25 -31 -37 -80l-14 -74l-4 -51l2 -49q0 -16 25.5 -113.5t159.5 -191.5t304 -94q152 0 272.5 64.5t170 159.5t59.5 169l10 127q0 84 -13.5 145.5t-51 134t-123.5 101.5q-90 27 -248 26l-115 -2h-119l-100 -2l-96 -2l-88 2q-29 0 -75 10.5 t-72.5 49.5t-26.5 84q0 43 18 86t66 84q41 41 185 71.5t288 30.5q334 0 459.5 -57.5t177.5 -137.5q53 -76 53 -139l-2 -26h-129q0 41 -31 75.5t-85 59t-140 47.5q-84 18 -209 18l-57 2l-54 2h-69.5t-85.5 -8q-68 -6 -116 -23.5t-48 -48.5q0 -20 16.5 -35.5t36.5 -19.5h332 h160q84 0 142 -6t103 -22q84 -27 160 -96.5t115 -208t39 -308.5q0 -109 -31 -201q-14 -45 -32.5 -87t-45.5 -87q-45 -80 -106.5 -138t-174 -118.5t-305.5 -60.5q-172 0 -331.5 65.5t-237.5 175t-105.5 219t-27.5 206.5zM682 956q0 -23 15.5 -43t47.5 -20q23 0 44.5 15 t21.5 50q0 18 -13.5 41t-49.5 23q-20 0 -39 -12q-27 -20 -27 -54z" />
<glyph unicode="&#xf2;" horiz-adv-x="1490" d="M23 571q0 70 23.5 221.5t129 241.5t221.5 90q86 0 128 -35.5t50 -58.5q12 -20 23 -53l-25 -66q-6 -18 -6 -37q0 -18 4 -41.5t24.5 -49t59.5 -49t88 -23.5q102 0 132 53t30 90q0 53 -33 96q-12 -51 -48 -78.5t-76 -27.5q-80 0 -114 52t-34 95q0 70 47 111q53 51 133 51 t138.5 -46t85.5 -101q35 -59 34 -99l4 -65q0 -84 -33.5 -147.5t-86.5 -94.5q-49 -33 -94.5 -44t-106.5 -11q-109 0 -171.5 38t-94 100t-31.5 130q0 35 14.5 67.5t30.5 49.5q-47 20 -88 20q-90 0 -137 -97t-47 -230l10 -123q16 -80 51 -148q43 -70 115 -69q47 0 47 16l-10 31 q-10 27 -11 47l11 49q12 33 77.5 57.5t225.5 24.5q76 0 157.5 -12.5t92.5 -79.5q4 -27 -15 -62q-6 -12 -9 -24.5t-7 -22.5q2 -27 78 -26q119 0 181 133t62 288l-2 29l-10 103q-6 43 -18.5 87t-34.5 91q-45 96 -111 139q-49 35 -159 47q-47 8 -139.5 12t-219.5 4h-397l-2 134 l22 -5h43h27q12 4 39 5l-86 49q-41 33 -41 82q0 20 12 43.5t49 54.5q23 20 66 31.5t112 11.5q145 12 347 12q139 0 264 -27.5t157 -52.5q84 -53 140 -125q59 -68 59 -149l-137 -2q-23 96 -144.5 143t-330.5 47h-39l-150 -6q-59 0 -95 -6t-50 -16q-25 -23 -25 -35 q0 -20 25 -33l49 -22h236h172q35 0 76.5 -6.5t80.5 -16.5q84 -25 165 -84t137.5 -142t87 -209t30.5 -247q0 -86 -19.5 -188.5t-38 -155.5t-62.5 -117.5t-111.5 -113t-120.5 -60.5q-23 -6 -47.5 -8t-52.5 -2q-115 0 -193 40t-78 130q6 27 55.5 70t49.5 67q0 33 -39 45 q-35 16 -105 17q-72 0 -119 -18.5t-45 -47.5q6 -12 60 -59q59 -47 59 -78q0 -88 -45 -117t-102 -35l-72 -12h-24q-117 0 -214.5 81t-125 175t-35.5 160q-6 31 -8 67.5t-2 87.5z" />
<glyph unicode="&#xf3;" horiz-adv-x="1474" d="M39 664l6 114q6 63 25.5 130t97.5 157q33 33 82 59q18 10 41.5 16.5t46.5 6.5q55 0 101 -25.5t64.5 -57.5t24.5 -60l9 -52l2 -34q0 -29 -9 -52l-8 -41l-2 -49q0 -43 63.5 -72.5t149.5 -29.5q84 0 136.5 50t52.5 110l-7 34q-10 -51 -58 -74.5t-97 -23.5q-25 0 -47.5 2 t-42.5 8q-35 12 -59.5 35t-45.5 59q-10 31 -14 68q0 70 18.5 112t59.5 76q37 37 143 37q72 0 185.5 -49t113.5 -301q0 -84 -37 -168q-37 -76 -91 -111.5t-111.5 -49t-112.5 -13.5q-78 0 -149.5 20.5t-135.5 94.5q-31 35 -47 80t-16 100q0 35 3 48t13 40l19 55q0 18 -17.5 37 t-38.5 19q-29 0 -59 -33q-25 -31 -37 -80l-14 -74l-4 -51l2 -49q0 -16 25.5 -113.5t159.5 -191.5t304 -94q152 0 271.5 64.5t162.5 144.5q20 39 32.5 67.5t29 74.5t16.5 83v41l2 41q0 39 -2 71.5t-9 74.5t-46 127t-117 111.5t-219 26.5l-123 -2l-143 -2l-86 -2h-82h-68 q-39 0 -70.5 8.5t-50.5 12.5q-100 29 -100 135q0 41 18.5 84t63.5 83t182 70.5t279 30.5q184 0 330.5 -22.5t205.5 -59.5q61 -33 93 -79t32 -93t-33 -78q-14 -12 -33.5 -17t-54.5 -5q141 -51 184.5 -225.5t43.5 -358.5q0 -109 -31 -201q-14 -45 -32.5 -87t-45.5 -87 q-45 -80 -106.5 -138t-174 -118.5t-305.5 -60.5q-172 0 -331.5 65.5t-237.5 175t-105.5 219t-27.5 206.5zM356 1389q0 -49 41 -50l299 -2q47 0 142.5 -2t142.5 -2q-16 27 -16 43q0 12 8 29l22 37l-112 26q-41 8 -96.5 14.5t-110.5 6.5q-31 0 -64.5 -2t-68.5 -8 q-72 -6 -115 -23q-41 -12 -59 -31q-12 -16 -13 -36zM682 956q0 -23 15.5 -43t47.5 -20q23 0 44.5 15t21.5 50q0 18 -13.5 41t-49.5 23q-20 0 -39 -12q-27 -20 -27 -54zM1077 1372q0 -49 58 -49q49 0 49 57q0 49 -58 50q-49 0 -49 -58z" />
<glyph unicode="&#xf4;" horiz-adv-x="1490" d="M23 571q0 70 23.5 221.5t129 241.5t221.5 90q86 0 128 -35.5t50 -58.5q12 -20 23 -53l-25 -66q-6 -18 -6 -37q0 -18 4 -41.5t24.5 -49t59.5 -49t88 -23.5q102 0 132 53t30 90q0 53 -33 96q-12 -51 -48 -78.5t-76 -27.5q-80 0 -114 52t-34 95q0 70 47 111q53 51 133 51 t138.5 -46t85.5 -101q35 -59 34 -99l4 -65q0 -84 -33.5 -147.5t-86.5 -94.5q-49 -33 -94.5 -44t-106.5 -11q-109 0 -171.5 38t-94 100t-31.5 130q0 35 14.5 67.5t30.5 49.5q-47 20 -88 20q-90 0 -137 -97t-47 -230l10 -123q16 -80 51 -148q43 -70 115 -69q47 0 47 16l-10 31 q-10 27 -11 47l11 49q12 33 77.5 57.5t225.5 24.5q76 0 163 -13.5t87 -74.5q0 -20 -2.5 -35.5t-10.5 -34t-11 -29t-5 -14.5q2 -27 76 -26q115 0 177 133t62 288l-2 29l-10 90q-10 76 -52 170t-98.5 131t-166.5 56q-104 23 -342 22l-91 -2l-81 -2l-97 4l-116 25 q-74 25 -74 127q0 37 20 84q25 47 69 90t178 74.5t278 31.5q143 0 284.5 -27.5t209 -58t128.5 -116.5q27 -39 40 -84.5t13 -83.5h-133q-59 100 -135 149q-72 51 -301 51l-47 4h-57q-68 0 -154 -9t-129 -25.5t-43 -45.5q4 -25 19.5 -40t33.5 -15h332h131q31 0 88 -10 q14 -2 80 -16q125 -29 206 -90.5t150.5 -156.5t69.5 -251l2 -78l4 -113l-4 -73l-12 -107q-12 -68 -31.5 -125t-85.5 -151q-33 -47 -98.5 -93.5t-118.5 -58.5q-23 -6 -47.5 -8t-52.5 -2q-115 0 -193 40t-78 130q6 27 55.5 70t49.5 67q0 33 -39 45q-35 16 -105 17 q-72 0 -119 -18.5t-45 -47.5q6 -12 60 -59q59 -47 59 -78q0 -88 -45 -117t-102 -35l-72 -12h-24q-117 0 -214.5 81t-125 175t-35.5 160q-6 31 -8 67.5t-2 87.5z" />
<glyph unicode="&#xf5;" horiz-adv-x="1474" d="M29 518q0 80 52 179.5t126 111.5q-47 0 -77 32.5t-30 94.5q0 63 42 110.5t103.5 68t184.5 20.5q102 0 176 -17q78 -12 131.5 -54t93 -121t39.5 -159l-4 -43l-65 -2h-62h-37h-30h-31h-25h-86l-81 2q-86 0 -138.5 -38.5t-52.5 -116.5q0 -145 115.5 -226t326.5 -81 q201 0 360 122.5t159 389.5q0 115 -45 206q-20 45 -44 80t-53 58q-51 45 -173 74.5t-353 29.5h-397l-2 117h75l37 2h19q-43 18 -85 49t-42 80q0 43 49 86q29 25 78 40t118 15q49 0 115 4q164 10 225 10q152 0 261.5 -25.5t164.5 -66.5q27 -16 53.5 -43.5t55.5 -66.5 q51 -74 51 -152l-156 -2q-25 104 -119 147.5t-302 43.5q-53 0 -129 -2t-99 -2q-76 0 -103.5 -21.5t-27.5 -38.5q0 -16 25 -33l49 -22h235h129q51 0 165 -25.5t169 -66.5q92 -61 160 -160.5t90 -239.5l6 -69l2 -70q0 -113 -20 -209q-18 -102 -75.5 -196.5t-153 -169 t-174 -102t-171.5 -40.5q-59 -6 -82.5 -8t-74.5 -2q-129 0 -385 67.5t-256 450.5zM340 1010q51 -12 51 -74q0 -55 -31 -62h306q-25 70 -106 108t-163 38q-39 0 -57 -10z" />
<glyph unicode="&#xf6;" horiz-adv-x="1490" d="M20 571q0 49 4.5 94.5t18.5 131.5q25 143 129 235t227 92q47 0 74 -10q31 -8 55 -31q23 -16 39.5 -40.5t30.5 -65.5l-20 -53l-11 -58l6 -49q6 -35 62.5 -70.5t109.5 -35.5q41 0 80 18.5t59.5 53t20.5 73.5q0 49 -33 94q-12 -49 -49 -80q-37 -27 -75 -26q-78 0 -115 51 q-33 55 -33 96q0 70 47 111q53 53 135 53q78 0 161 -62.5t91 -144.5l8 -90v-20q0 -84 -31.5 -143.5t-81.5 -91.5t-102.5 -45t-105.5 -13q-102 0 -165.5 35.5t-100.5 101.5q-31 61 -31 131q0 78 45 117q-51 20 -88 20q-90 0 -137 -101t-47 -228q0 -20 2 -50t11 -87.5t49 -129 t114 -71.5q45 0 47 16q-6 20 -10 31q-10 27 -11 47q0 20 11.5 55t95.5 55q39 8 94 14.5t113 6.5q113 0 172 -16q66 -14 78 -76q4 -27 -9 -62l-12 -43q0 -31 82 -30q100 0 161.5 135t61.5 301l-6 92q-18 115 -65.5 204t-104.5 128t-123.5 48t-149.5 13t-208 4l-98 -2 q-14 0 -47 -2t-52 -2h-31h-24q-20 4 -29 4l-112 25q-72 18 -72 129q0 90 62.5 149.5t206 90t288.5 30.5q180 0 315 -22q76 -10 127.5 -24.5t81.5 -35.5q57 -33 88 -79t31 -97q0 -57 -37 -99t-96 -42q104 -59 172 -168t84 -232l12 -139v-47q0 -55 -2 -81.5t-14 -92.5 q-6 -49 -14.5 -87t-20.5 -69q-16 -51 -64.5 -123.5t-117 -121t-121.5 -60.5q-33 -6 -49.5 -8t-52.5 -2q-113 0 -191 39t-78 131q0 23 51.5 67t53.5 70q0 27 -43 45.5t-103 18.5q-70 0 -116 -16.5t-46 -53.5q0 -14 59.5 -56t59.5 -79q0 -63 -35.5 -102t-113.5 -52l-94 -10 q-115 0 -212.5 80t-123.5 170l-39 166q-12 74 -13 155zM365 1389q0 -49 41 -50h112l119 2h112.5t90.5 -4q41 0 63.5 -2t81.5 -12q-18 31 -18 47q0 12 14 35l23 37l-113 26q-41 8 -96.5 14.5t-110.5 6.5q-31 0 -64.5 -2t-68.5 -8q-72 -6 -115 -23q-41 -12 -59 -31 q-12 -16 -12 -36zM1085 1372q0 -49 58 -49q49 0 49 57q0 49 -57 50q-49 0 -50 -58z" />
<glyph unicode="&#xf7;" horiz-adv-x="1372" d="M37 434q0 45 6 104.5t20 141.5q27 152 193 299q102 92 150 125q76 51 135 51q20 20 59 36.5t85 29t93 18.5t101 6q123 0 204 -26q86 -25 146 -91q61 -59 82.5 -131t21.5 -166h-295q-217 0 -341 -53t-152 -149q-23 -96 -23 -127q0 -98 55.5 -192.5t163.5 -131.5 q14 -4 45 -9t54 -7l147 -2h344v-553h-1026v205h848v192h-211l-92 -2h-92l-142 14q-39 4 -64.5 10.5t-55.5 24.5q-43 20 -81 48t-81 73q-76 82 -94 172q-8 43 -12.5 79t-4.5 69q0 184 99.5 301.5t238.5 136.5q-33 6 -47 24.5t-18 51.5q-90 -25 -182.5 -129.5t-120.5 -188.5 l-33 -145q-8 -63 -10 -78v-49q0 -98 26 -170h-53q-37 0 -60 4q-27 59 -26 184zM727 1081q35 -12 35 -69q0 -25 -8 -41l395 -2q0 72 -84 110.5t-188 38.5q-102 0 -150 -37z" />
<glyph unicode="&#xf8;" horiz-adv-x="1533" d="M59 518q0 166 88.5 281.5t212.5 130.5q-51 33 -51 96l13 76q12 63 160.5 101t324.5 38q119 0 225.5 -25.5t168 -81t88 -114.5t26.5 -135l-2 -49h-35h-31h-24h-25h-78l-80 2h-24q-287 0 -478.5 -55.5t-191.5 -256.5q0 -197 96.5 -264t198.5 -90q45 -8 105.5 -14t121.5 -6 h84l66 12l123 24q43 10 88 21.5t94 26.5v-111l-80 -92q86 -10 125 -60.5t39 -109.5q0 -29 -24.5 -91.5t-200.5 -117.5q-80 -25 -181.5 -39t-209.5 -14q-328 0 -521.5 93t-193.5 304h137q0 -133 188.5 -180t395.5 -47q129 0 198.5 22.5t90 39.5t30.5 44q6 31 -7 56.5 t-48 50.5l74 77l-205 -41q-55 -8 -124 -14t-128 -6q-94 0 -189 14q-102 12 -219.5 83t-158.5 169q-33 98 -43 148zM567 1087q43 -31 43 -77q0 -23 -16 -39l559 -2q0 51 -56.5 89t-141.5 55t-152 17q-72 0 -141.5 -12t-94.5 -31z" />
<glyph unicode="&#xf9;" horiz-adv-x="1474" d="M29 518q0 84 43 179.5t135 111.5q-49 0 -84 33q-33 37 -33 94q0 63 44 110.5t110.5 69t183.5 21.5q92 0 164 -17q78 -12 138.5 -50t98.5 -120q20 -41 30.5 -80t10.5 -84l-4 -45l-65 -2h-62h-37h-30h-31h-25h-86l-81 2q-86 0 -138.5 -38.5t-52.5 -116.5q0 -141 114.5 -222 t327.5 -81q221 0 375 147.5t154 360.5q0 115 -53.5 229.5t-114.5 144.5q-53 31 -152 45q-47 6 -128 10.5t-199 4.5l-82 -2h-80h-37h-29q-20 4 -30 4q-39 0 -90.5 14t-81.5 53q-8 12 -15 27q-12 29 -12 57q0 41 18.5 84t65.5 84q41 41 178 72t281 31q172 0 319.5 -25 t213 -62.5t93.5 -84.5q31 -43 31 -95q0 -51 -34 -84.5t-91 -33.5q86 -51 140.5 -138.5t76.5 -195.5q8 -43 14.5 -92t6.5 -80q0 -53 -6.5 -107.5t-20.5 -113.5q-25 -109 -83 -209.5t-154.5 -175t-175 -102t-171.5 -40.5q-59 -6 -82.5 -8t-74.5 -2q-129 0 -385 67.5 t-256 450.5zM340 1004q47 -12 47 -78q0 -45 -27 -52h324q0 68 -86 104t-182 36q-53 0 -76 -10zM356 1409q0 -45 41 -51h140l143 2l170 -2q41 0 61.5 -2t65.5 -13q-18 31 -19 46q0 12 15 34l22 39q-14 6 -55 14.5t-78 15.5t-79 11t-101 4h-84q-37 -6 -83 -10t-87 -20 q-43 -12 -57.5 -27.5t-14.5 -40.5zM1077 1393q0 -49 58 -50q18 0 34 17q11 14 15 39q0 27 -17 37q-12 12 -41 12q-18 0 -34 -16q-10 -14 -15 -39z" />
<glyph unicode="&#xfa;" horiz-adv-x="1474" d="M29 518q0 80 52 179.5t126 111.5q-47 0 -77 32.5t-30 94.5q0 63 42 110.5t103.5 68t184.5 20.5q102 0 176 -17q78 -12 131.5 -54t93 -121t39.5 -159l-4 -43l-65 -2h-62h-37h-30h-31h-25h-86l-81 2q-86 0 -138.5 -38.5t-52.5 -116.5q0 -143 117 -225t334 -82 q231 0 375.5 148t144.5 364q0 115 -41 204q-37 92 -91.5 134t-171 63.5t-347.5 21.5l-86 -2h-82h-68q-39 0 -70.5 8.5t-50.5 12.5q-45 12 -74 49q-27 41 -26 86q0 41 18.5 84t63.5 83t182 70.5t281 30.5q74 0 147.5 -6t153.5 -20q150 -25 205 -62t116 -116q31 -39 47.5 -77 t16.5 -79h-92l-48 6q-55 90 -136 143.5t-304 53.5h-84q-141 0 -196.5 -6.5t-103.5 -23.5t-48 -48q0 -20 14.5 -34.5t40.5 -18.5h332h129q70 0 204 -35t200 -103q68 -63 106 -137q41 -68 55 -160l15 -149q0 -109 -25 -222.5t-83 -213t-154.5 -175t-175 -103t-171.5 -40.5 q-59 -6 -82.5 -8t-74.5 -2q-129 0 -385 67.5t-256 450.5zM340 1010q51 -12 51 -74q0 -55 -31 -62h306q-25 70 -106 108t-163 38q-39 0 -57 -10z" />
<glyph unicode="&#xfb;" horiz-adv-x="1490" d="M25 487q0 141 51 245t143 136q-31 12 -49 45q-8 16 -12 30.5t-4 35.5q0 80 49 123l63 53l66 19l74 14l49 4q25 0 146.5 -31t176.5 -223v-188h-360q-92 -29 -119 -45.5t-55.5 -66.5t-28.5 -122q0 -68 30.5 -121t80.5 -76q49 -18 92 -18q74 0 138.5 44t64.5 104l2 133l4 82 h194l2 -33v-35v-64v-48t5.5 -51t49.5 -82t136 -52h33l55 16q37 8 71.5 53.5t55.5 114.5l33 135q10 68 10 144q0 98 -23 180q-10 45 -29.5 88t-53 91t-85 76t-125.5 28q-72 6 -160.5 10t-201.5 4l-86 -2h-82h-68q-39 0 -70.5 8t-49.5 12q-45 12 -74 50q-27 41 -27 86 q0 41 18.5 84t63.5 82.5t182.5 70.5t280.5 31q74 0 147.5 -6t153.5 -21q152 -25 208 -62.5t118.5 -112.5t62.5 -152h-143q-55 90 -136 143t-305 53h-83q-141 0 -196.5 -6t-104 -23.5t-48.5 -48.5q0 -20 14.5 -34.5t41.5 -18.5h331q113 0 198 -10t173 -37 q160 -43 227.5 -160.5t88 -248.5t20.5 -289v-23q0 -90 -10 -156.5t-42 -150.5t-94.5 -150.5t-149.5 -102.5t-169 -36h-45q-23 6 -48.5 10.5t-57.5 26.5q-37 18 -60 47q-8 10 -19.5 31.5t-21.5 44.5q-27 -49 -57 -84q-23 -29 -68 -45l-90 -25q-33 -6 -47 -8t-47 -2 q-49 0 -98.5 12.5t-158 91t-136.5 298.5zM381 1057q25 -25 33 -53l4 -37q0 -33 -23 -56h207q0 37 -7 58.5t-27.5 41t-63.5 33t-92 13.5h-31z" />
<glyph unicode="&#xfc;" horiz-adv-x="1490" d="M33 420v26q0 57 8 117t27 121q37 119 149 174q-33 27 -49 62.5t-16 70.5t12 63.5t47 60.5t51 38l88 12l82 9l29 2h37l123 -33q102 -25 159 -219v-191h-360q-70 -18 -94.5 -32.5t-58.5 -65.5t-34 -123q0 -78 37 -139.5t90 -73.5l76 -8q45 0 75 8t62 33q59 43 60 106l6 215 h192l3 -137q0 -109 49 -170q51 -57 143 -57h33l53 16q37 10 74 56.5t62.5 137.5t25.5 208q0 96 -23.5 200.5t-72.5 184.5q-45 84 -175.5 113.5t-402.5 29.5l-82 -2h-80h-37h-30q-20 4 -31 4q-18 0 -49 6t-72 17q-76 18 -76 126q0 43 18.5 84t62.5 84t181.5 74t280.5 31 q78 0 155 -6t160 -21q152 -25 214.5 -59.5t91 -78.5t28.5 -87q0 -53 -36.5 -91t-100.5 -48q117 -63 187.5 -205t70.5 -412v-26q0 -45 -2 -86t-8 -80q0 -43 -9.5 -81t-29.5 -91q-31 -82 -91.5 -147.5t-150.5 -106.5q-86 -35 -176 -35q-92 0 -158.5 37t-99.5 125 q-33 -57 -56.5 -84t-86.5 -56q-57 -23 -144 -22q-53 0 -105 12.5t-120.5 55.5t-130.5 145q-55 102 -55 209zM375 1419q0 -45 41 -51h139l143 2l170 -2q41 0 61.5 -2t65.5 -12q-18 29 -18 53q0 28 37 63l-113 27q-41 8 -96 14.5t-111 6.5q-31 0 -64.5 -2.5t-68.5 -8.5 q-72 -6 -115 -22q-45 -12 -58 -26.5t-13 -39.5zM383 1042q23 -23 33 -55l4 -35q0 -33 -23 -55h205q0 35 -8 57q-6 27 -29 43q-18 18 -61 31.5t-90 13.5h-31zM1096 1403q0 -23 15 -36t40 -13q20 0 34.5 16t14.5 39q0 18 -16 35q-14 10 -39 14q-18 0 -35 -16q-10 -14 -14 -39z " />
<glyph unicode="&#xfd;" horiz-adv-x="1509" d="M23 528q0 123 44 211t154 138q-47 33 -65 57q-14 29 -15 78q0 18 1 37.5t10 46.5q16 45 70 93t181 48q156 0 234 -71.5t98 -184.5q12 86 47 132t90 87l60 29l65 20q41 47 41 92q0 41 -31.5 72t-64.5 37l-78 8l-135 2h-59q-70 0 -107 -7t-88 -31.5t-51 -90.5q0 -35 18 -65 h-137q-31 43 -31 110q0 45 19.5 95.5t82 92.5t150.5 56q45 6 88 10t91 4q76 0 137 -2t110 -8q45 0 81 -11t65 -32q49 -31 69.5 -65.5t20.5 -77.5q0 -39 -14 -74q45 39 57 70l14 55h84l103 2h24q0 -72 -40 -124t-88 -82t-109.5 -43t-94.5 -25q82 0 155 -38t91.5 -100.5 t18.5 -103.5q0 -47 -17 -80q-12 -33 -51 -57q125 -100 125 -279v-47l-19 -104q-10 -70 -76.5 -166.5t-164.5 -147.5q-47 -25 -80 -38t-62 -21l-141 -25q-51 -6 -93 -10t-81 -4l-106 6l-101 12q-16 2 -43.5 8.5t-74 19.5t-80 27.5t-86.5 45.5q-84 47 -149.5 149.5 t-65.5 263.5zM205 596q0 -162 153.5 -238.5t352.5 -76.5q229 0 389 70.5t160 226.5l4 32q0 31 -9.5 54.5t-37.5 48.5l-66 -19q-25 -6 -35 -8t-37 -2l-78 8q-53 10 -93 27.5t-93 71.5h-78q-307 0 -419.5 -37t-112.5 -158zM387 1083q41 -57 41 -100q0 -37 -31 -61h209 q0 84 -84 129q-59 35 -112 34q-14 0 -23 -2zM897 954q0 -55 47 -90q25 -16 51.5 -24.5t63.5 -8.5q63 0 107 29t44 88q0 53 -44 83t-87 30l-35 2q-61 0 -104 -25.5t-43 -83.5z" />
<glyph unicode="&#xfe;" horiz-adv-x="1495" d="M27 522q0 57 3 83t16 112t175 160q-94 41 -94 137q0 74 81 148.5t195 74.5q147 0 229.5 -75t102.5 -181q18 90 47 129q29 45 72 74l35 26l43 23v176h-64v231h193v-65l29 45q23 27 65 27q59 0 84 -7q25 -2 47.5 -40.5t22.5 -114.5q0 -78 -20.5 -107.5t-62.5 -44t-75 -14.5 q-55 0 -84 24v-102h43q20 0 31 4l33 15l51 36l51 47q14 18 27 48h24h25h65l66 2h18q0 -59 -31 -97q-29 -29 -69 -57q-35 -20 -76 -33l-74 -18l78 -41q33 -35 49 -84q4 -12 9.5 -38t7.5 -42q0 -41 -16.5 -81t-57.5 -64q129 -104 129 -299v-47l-18 -111q-12 -76 -78 -156 q-61 -80 -158 -125q-16 -8 -82 -34q-47 -20 -61 -25l-115 -25l-102 -14l-74 -2l-127 4l-107 6q-27 0 -53 4t-74 17q-76 18 -161.5 69.5t-149 148.5t-63.5 273zM205 596q0 -162 153.5 -238.5t352.5 -76.5q229 0 389 70.5t160 226.5l4 32q0 31 -9.5 54.5t-37.5 48.5l-66 -19 q-25 -6 -35 -8t-37 -2l-73 8q-51 6 -80 21.5t-84 70.5l-60 2l-45 5q-307 0 -419.5 -37t-112.5 -158zM387 1083q41 -25 41 -90q0 -47 -31 -71h209q0 84 -84 129q-59 35 -112 34q-14 0 -23 -2zM897 954q0 -55 47 -90q25 -16 51.5 -24.5t63.5 -8.5q63 0 107 29t44 88 q0 53 -44 83t-87 30l-35 2q-61 0 -104 -25.5t-43 -83.5zM1065 1446q16 -25 53 -25q49 1 49 52q0 47 -51 47h-51v-74z" />
<glyph unicode="&#xff;" horiz-adv-x="1179" d="M23 487q0 184 97 302t240 137q-35 6 -53 32q-14 29 -14 58q0 25 4 37l31 69q25 47 122 83t226 36q121 0 204 -24.5t146.5 -91t87 -131t23.5 -163.5l-146 -2h-153q-219 0 -344 -54t-148.5 -150.5t-23.5 -132.5q0 -113 58 -205t185 -121l72 -10h41h459v-557h-1014v204h825 l-2 191l-248 4h-190q-39 0 -60.5 3t-60.5 13q-43 6 -106.5 37t-143.5 116t-98 175q-8 47 -12 79t-4 66zM526 1077q14 -6 24.5 -27.5t10.5 -45.5q0 -20 -8 -37l399 4q0 68 -86 106.5t-184 38.5q-104 0 -156 -39z" />
<glyph unicode="&#x152;" horiz-adv-x="0" d="M-1323 -145l27 -15q18 -10 69 -10q35 0 187 33q61 14 106 23.5t93 17.5t104 8q98 0 231 -21l211 -43v373l205 160v-784h-201q-49 0 -219 34q-76 16 -134 25.5t-93 9.5q-51 0 -203 -35q-72 -16 -124 -25t-87 -9l-123 2h-49v256z" />
<glyph unicode="&#x153;" horiz-adv-x="0" d="M-1292 -145l983 -2v385l198 133v-750l-1181 2v232z" />
<glyph unicode="&#x178;" horiz-adv-x="1650" d="M53 340v152l258 307q-57 -47 -116 -47q-80 0 -107 57q-23 57 -22 111l6 71q6 31 30.5 80t103.5 98.5t165 49.5q68 0 82 -3.5t26.5 -7.5t38 -15t47.5 -30q27 -16 43 -39q76 57 164 89t250 32q201 0 342 -100.5t177 -222t46 -197.5l10 -127l-2 -63q0 -37 -20.5 -182.5 t-132 -225.5t-193.5 -102q-35 -8 -79 -14.5t-85 -6.5v152q27 0 52.5 2t48.5 8q47 12 97 56t76.5 125t26.5 167v25q0 12 -4 45l-14 86q-6 51 -53 125q-43 74 -105.5 111.5t-128.5 49.5q-61 8 -87.5 9.5t-43.5 1.5q-102 0 -169.5 -13.5t-96.5 -42.5q406 0 438.5 -213 t32.5 -258q0 -53 -7 -100t-26.5 -106.5t-66.5 -111.5t-111.5 -89t-142.5 -37q-47 0 -74 8t-65 37q-29 27 -48 53l-28 74q-25 -82 -72 -123q-43 -43 -135 -43h-29q-100 0 -159.5 65.5t-59.5 163.5q0 55 21 109h-99zM162 446l35 -4h32l35 -2l-4 -37q0 -55 28.5 -88.5 t90.5 -33.5q74 0 103.5 66.5t29.5 182.5h162q0 -129 23.5 -189t97.5 -60q76 0 121 59.5t45 163.5q0 35 -2.5 55.5t-13.5 71.5t-53 99t-110.5 62.5t-150.5 14.5l-76 -2l-55 -6zM209 981l16 2h13q47 0 71.5 -31.5t24.5 -83.5q0 -43 -19 -73l39 61l39 55l43 52l51 53 q0 18 -16 35q-12 16 -40 25t-66 9q-35 0 -66 -10q-33 -6 -54.5 -29.5t-35.5 -64.5zM334 1286q0 74 43 149.5t122 125t179 67.5q47 6 103.5 10t125.5 4q123 0 213 -22q92 -18 137.5 -60t51.5 -53l30 -43q33 -53 45.5 -103t12.5 -126h-150q-4 35 -7 43t-6 14t-18.5 31 t-40 46.5t-67.5 37.5l-72 25q-35 12 -121 12l-86 2l-59 2l-57 -6q-23 -4 -60 -21l-65 -26q-23 -12 -45 -37l-39 -51q-18 -25 -19 -72h-149z" />
<glyph unicode="&#x2c6;" horiz-adv-x="1681" d="M27 590q0 66 24.5 209t160.5 288.5t302 145.5h62.5t62.5 -7t100 -32q63 -18 80 -39q20 -20 68 -88l53 -88l14 -76l11 -55l-13 -82l-407 2q-33 -6 -47.5 -22.5t-28.5 -49t-14 -71.5l6 -68q6 -33 24.5 -77t61.5 -85q41 -35 106 -69q61 -29 105.5 -36t122.5 -7h67h39h27 q18 4 24 4q33 6 100.5 37.5t108.5 59.5t86 90.5t68.5 139t23.5 156.5q0 152 -75 254q-23 -39 -75 -81t-89 -48l-45 -4h-15q-80 0 -143 52t-93 106.5t-30 115.5q0 37 13.5 84t13.5 74q0 23 -13 59l-10 64l-86 88l86 115q233 -104 395 -231.5t242 -264.5t105.5 -226t25.5 -177 q0 -55 -13 -176t-101 -256.5t-205 -197t-223.5 -88t-221.5 -26.5q-121 0 -237 33q-211 61 -311.5 215t-100.5 281v81q6 31 8 46q10 55 31 98q14 35 27 53q4 8 26 35q29 45 80 76q-63 0 -92 -7.5t-63 -44.5q-29 -35 -52 -88l-26 -96q0 -154 12 -247t66 -175h-148 q-14 39 -24.5 76t-22.5 90q-6 41 -10 78t-4 80zM561 920l98 2l127 2q0 14 -22 43l-41 61l-68 27l-41 10q-10 0 -10 -10q10 -33 14 -64q0 -47 -57 -71zM1016 1253q0 -59 20.5 -91t50.5 -62l52 -8q39 0 56 22t17 57l-4 29l-8 29l-61 59q-31 31 -66 51l-39 -43q-18 -23 -18 -43 z" />
<glyph unicode="&#x2dc;" horiz-adv-x="1484" d="M39 664l6 114q6 63 25.5 130t97.5 157q33 33 82 59q18 10 41.5 16.5t46.5 6.5q55 0 101 -25.5t64.5 -57.5t24.5 -60l9 -52l2 -34q0 -29 -9 -52l-8 -41l-2 -49q0 -43 63.5 -72.5t149.5 -29.5q84 0 136.5 50t52.5 110l-7 34q-10 -51 -58 -74.5t-97 -23.5q-25 0 -47.5 2 t-42.5 8q-35 12 -59.5 35t-45.5 59q-10 31 -14 68q0 70 18.5 112t59.5 76q37 37 143 37q72 0 185.5 -49t113.5 -301q0 -84 -37 -168q-37 -76 -91 -111.5t-111.5 -49t-112.5 -13.5q-78 0 -149.5 20.5t-135.5 94.5q-31 35 -47 80t-16 100q0 35 3 48t13 40l19 55q0 18 -17.5 37 t-38.5 19q-29 0 -59 -33q-25 -31 -37 -80l-14 -74l-4 -51l2 -49q0 -16 25.5 -113.5t159.5 -191.5t304 -94q145 0 265 64.5t186.5 189.5t66.5 292q0 168 -62.5 295t-173 200t-259.5 73q-197 0 -325 -61.5t-192 -174.5h-161q6 49 32 94q14 25 26.5 42.5t41.5 54.5 q41 49 107.5 89t142.5 68.5t166 38.5l166 8h51l127 -14q96 -8 223 -96t184.5 -198.5t81.5 -233.5q10 -53 16.5 -115t6.5 -123v-78q-6 -37 -8 -55q0 -33 -8.5 -68.5t-28.5 -101.5q-25 -90 -72 -166t-107.5 -130t-174 -116.5t-304.5 -62.5q-172 0 -331.5 65.5t-237.5 175 t-105.5 219t-27.5 206.5zM682 956q0 -23 15.5 -43t47.5 -20q23 0 44.5 15t21.5 50q0 18 -13.5 41t-49.5 23q-20 0 -39 -12q-27 -20 -27 -54z" />
<glyph unicode="&#x2000;" horiz-adv-x="1023" />
<glyph unicode="&#x2001;" horiz-adv-x="2046" />
<glyph unicode="&#x2002;" horiz-adv-x="1023" />
<glyph unicode="&#x2003;" horiz-adv-x="2046" />
<glyph unicode="&#x2004;" horiz-adv-x="682" />
<glyph unicode="&#x2005;" horiz-adv-x="511" />
<glyph unicode="&#x2006;" horiz-adv-x="341" />
<glyph unicode="&#x2007;" horiz-adv-x="341" />
<glyph unicode="&#x2008;" horiz-adv-x="255" />
<glyph unicode="&#x2009;" horiz-adv-x="409" />
<glyph unicode="&#x200a;" horiz-adv-x="113" />
<glyph unicode="&#x2010;" horiz-adv-x="817" d="M174 455v196h455v-196h-455z" />
<glyph unicode="&#x2011;" horiz-adv-x="817" d="M174 455v196h455v-196h-455z" />
<glyph unicode="&#x2012;" horiz-adv-x="817" d="M174 455v196h455v-196h-455z" />
<glyph unicode="&#x2013;" horiz-adv-x="1548" d="M37 539v24q0 90 36 179t160 149q-47 33 -62 61.5t-15 77.5q0 84 80.5 148.5t187.5 64.5q160 0 246 -67.5t106 -174.5q12 78 37 115l47 58l45 34l27 19v182h-64v231h193v-65l29 45q23 27 65 27q59 0 84 -7q25 -2 47.5 -40.5t22.5 -114.5q0 -78 -20.5 -107.5t-62.5 -44 t-75 -14.5q-55 0 -84 24v-100h68q47 0 80.5 17.5t56.5 44.5l28 41q10 12 23 51l12 63h25h24h66l66 2h18q0 -115 -49 -172t-121 -78q33 -18 46 -32.5t31.5 -62.5t18.5 -101t-18.5 -99.5t-63.5 -66.5q135 -86 135 -299q0 -51 -18 -146.5t-92 -184.5t-177.5 -132t-166.5 -59 l-113 -21l-98 -10l-43 -2l-125 8l-135 8q-39 0 -58.5 4t-70.5 19q-78 25 -166 74t-150.5 162.5t-62.5 267.5zM246 602q0 -178 143 -252q72 -33 167 -51t212 -18q233 0 378.5 83.5t145.5 253.5q0 135 -77.5 174t-260.5 39l-88 -2h-92q-309 0 -418.5 -40.5t-109.5 -186.5z M387 1118q49 -29 49 -90q0 -43 -28 -57h186q0 45 -9.5 71.5t-33.5 44.5q-49 37 -117 37zM954 971h291l6 33q0 57 -45 75l-65 21l-39 4q-72 0 -115 -37q-33 -33 -33 -96zM1065 1446q16 -25 53 -25q49 1 49 52q0 47 -51 47h-51v-74z" />
<glyph unicode="&#x2014;" horiz-adv-x="0" d="M-973 1712q0 90 41 165t125 124q39 20 85 32.5t95 12.5q96 0 179 -27.5t124 -81.5q33 -45 54 -116q12 -65 12 -135q-6 -47 -49 -125q-41 -68 -86 -97h-101q59 31 85 93.5t26 121.5q0 37 -35 123t-211 86q-98 0 -159 -53q-66 -49 -66 -141q0 -31 7 -64t50 -64.5t99 -31.5 q-43 6 -64.5 29.5t-21.5 56.5t10 61.5t39 59.5q25 31 98 31q45 0 86 -21q74 -49 74 -137q0 -55 -45 -103q-47 -43 -96 -55l-84 -10q-70 0 -130.5 24.5t-100.5 94t-40 147.5zM-682 1636q0 -14 10 -30q6 -16 41 -17q14 0 30.5 11t16.5 42q0 12 -9 30t-42 18l-24 -7 q-23 -12 -23 -47z" />
<glyph unicode="&#x2018;" horiz-adv-x="1546" d="M37 539v24q0 90 36 179t160 149q-47 33 -62 61.5t-15 77.5q0 84 80.5 148.5t187.5 64.5q113 0 173 -25.5t93 -101.5v25v24v66l-2 51q0 49 29 64l59 20h252v-113h-94q-33 -4 -46.5 -14t-17.5 -39l-2 -39v-51q39 80 116 106.5t185 26.5q98 0 172 -37t101.5 -94t27.5 -106 q0 -47 -22.5 -90.5t-69.5 -65.5q135 -86 135 -299q0 -51 -18 -146.5t-92 -184.5t-177.5 -132t-166.5 -59l-137 -23l-50 -4l2 -135h-186l-2 131l-141 14q-39 0 -58.5 4t-70.5 19q-78 25 -166 74t-150.5 162.5t-62.5 267.5zM244 565q0 -141 117.5 -213.5t314.5 -72.5l6 59 l2 70v94h-172v157h172l-2 170q-238 0 -330 -44t-100 -121zM387 1118q49 -29 49 -90q0 -43 -28 -57h186q0 45 -9.5 71.5t-33.5 44.5q-49 37 -117 37zM868 346l2 -65q201 0 319 79.5t118 214.5l-13 103q-8 86 -101 118.5t-325 32.5l2 -170h201v-157h-201l-2 -70v-86zM954 971 h291l6 35q0 47 -37 69l-75 33h-25q-78 0 -122 -38t-38 -99z" />
<glyph unicode="&#x2019;" horiz-adv-x="835" d="M53 1446q0 88 49.5 137t124.5 49q63 0 108.5 -51.5t45.5 -112.5t-39 -100t-92 -39l-35 6l25 -75l51 -89q-94 0 -166 88.5t-72 186.5zM446 1446q0 88 49.5 137t125.5 49q63 0 108 -51.5t45 -112.5t-39 -100t-92 -39l-35 6l25 -75l51 -89q-94 0 -166 88.5t-72 186.5z" />
<glyph unicode="&#x201a;" d="M53 -20v1107h172v170h1106v-1105h-170v-172h-1108zM289 205h993v993h-993v-993z" />
<glyph unicode="&#x201c;" horiz-adv-x="2074" d="M35 127q0 74 18.5 137.5t77.5 114.5l111 100q-39 31 -76 107q-33 78 -33 166q0 33 8.5 83t26.5 109q37 123 176 210t313 87q121 0 211 -31q88 -27 133 -84q70 25 99.5 69t29.5 85l-2 33l-6 20h178l-2 51l2 58q4 35 34 91t124 107.5t201 51.5q55 0 92 -4.5t78 -18.5 q72 -20 119 -74q41 -47 59 -108q8 -29 12 -56.5t4 -68.5q0 -43 -30.5 -105.5t-75.5 -89.5l-47 21l-33 16q37 18 56.5 62.5t19.5 83.5q0 25 -2 39t-15.5 57t-83 73.5t-186.5 30.5q-94 0 -158.5 -57t-64.5 -145v-22.5t8 -39.5q6 -39 41 -68.5t84 -29.5l25 2q-70 29 -70 98 q0 29 12.5 60.5t40.5 54.5q27 27 98 27q41 0 82 -19q63 -45 64 -115v-20q-6 -37 -21 -57l-26 -27q170 0 230.5 -183.5t60.5 -410.5q0 -113 -25 -221.5t-57 -171.5q-31 -68 -70 -107q-33 -37 -80 -61q-37 -18 -88 -29l-80 -6q-61 0 -123.5 13.5t-107.5 78.5q-41 66 -41 189 h59l70 2h24q0 -49 4.5 -66.5t23 -33t42.5 -25.5l55 -8q33 0 88 20q59 18 98.5 171t39.5 345q-10 92 -41 154q-29 68 -105 67q-49 0 -69 -57q-16 -59 -17 -154v-61l2 -55h-174v39l2 51q0 135 -28 186q-25 53 -76 53q-59 0 -78 -88q-6 -43 -10 -86t-4 -88q0 -223 -99.5 -418.5 t-264.5 -214t-206 -18.5q-82 0 -170 18.5t-151 57.5l-96 51l-50 14q-20 0 -44.5 -24.5t-30.5 -57.5l-2 -53h-113l-2 68zM184 264l64 23q37 12 82 12l45 -2q16 0 39 -14q8 -2 20 -5.5t66 -11.5l127 -6q55 0 81.5 2t94.5 14q102 14 188 119t86 226l2 45q0 170 -89 244.5 t-171 99.5q-33 8 -79 14t-87 6q-68 0 -118 -13t-95 -46t-80.5 -86.5t-35.5 -108.5v-26q0 -92 42 -160t138 -68q-25 18 -37 45q-10 31 -10 64q0 41 10 69q4 14 11 28.5t24 37.5q25 31 68.5 49.5t99.5 18.5l30 -3l60 -8q41 0 84 -63.5t43 -149.5v-24q0 -72 -40 -122t-104 -87 q-33 -16 -70.5 -24.5t-92.5 -8.5q-70 0 -131.5 15.5t-98.5 46.5zM584 623q0 -35 24.5 -65t61.5 -30t62.5 29t25.5 66t-26.5 63.5t-61.5 26.5q-37 0 -61.5 -25.5t-24.5 -64.5zM1118 1053q18 -25 30.5 -44.5t22.5 -43.5l29 -86q0 135 50 211.5t136 76.5l-26 23l-31 41 q-18 -49 -51 -76l-72 -47zM1495 1114q20 -27 41 -70q8 -18 12 -35.5t4 -41.5q11 67 58 149q-31 -10 -64 -10q-29 0 -51 8zM1597 1296q0 -14 11.5 -30.5t42.5 -16.5q12 0 29.5 9t17.5 42q0 12 -10.5 29t-42.5 19l-25 -7q-23 -12 -23 -45z" />
<glyph unicode="&#x201d;" horiz-adv-x="2074" d="M35 127q0 74 18.5 137.5t77.5 114.5l111 100q-39 31 -76 107q-33 78 -33 166q0 33 8.5 83t26.5 109q37 123 176 210t313 87h35l-6 47q0 80 50 155t174 135t380 60q137 0 233.5 -10t174.5 -35q143 -43 190 -114q49 -68 49 -146q0 -37 -11 -72.5t-32 -58.5l-43 -39 q109 -70 145 -228.5t36 -336.5q0 -113 -25 -221.5t-57 -171.5q-31 -68 -70 -107q-33 -37 -80 -61q-37 -18 -88 -29l-80 -6q-61 0 -123.5 13.5t-107.5 78.5q-41 66 -41 189h59l70 2h24q0 -49 4.5 -66.5t23 -33t42.5 -25.5l55 -8q33 0 88 20q59 18 98.5 171t39.5 345 q-10 92 -41 154q-29 68 -105 67q-49 0 -69 -57q-16 -59 -17 -154v-61l2 -55h-174v39l2 51q0 135 -28 186q-25 53 -76 53q-59 0 -78 -88q-6 -43 -10 -86t-4 -88q0 -223 -99.5 -418.5t-264.5 -214t-206 -18.5q-82 0 -170 18.5t-151 57.5l-96 51l-50 14q-20 0 -44.5 -24.5 t-30.5 -57.5l-2 -53h-113l-2 68zM184 264l64 23q37 12 82 12l45 -2q16 0 39 -14q8 -2 20 -5.5t66 -11.5l127 -6q55 0 81.5 2t94.5 14q102 14 188 119t86 226l2 45q0 170 -89 244.5t-171 99.5q-33 8 -79 14t-87 6q-68 0 -118 -13t-95 -46t-80.5 -86.5t-35.5 -108.5v-26 q0 -92 42 -160t138 -68q-25 18 -37 45q-10 31 -10 64q0 41 10 69q4 14 11 28.5t24 37.5q25 31 68.5 49.5t99.5 18.5l30 -3l60 -8q41 0 84 -63.5t43 -149.5v-24q0 -72 -40 -122t-104 -87q-33 -16 -70.5 -24.5t-92.5 -8.5q-70 0 -131.5 15.5t-98.5 46.5zM584 623 q0 -35 24.5 -65t61.5 -30t62.5 29t25.5 66t-26.5 63.5t-61.5 26.5q-37 0 -61.5 -25.5t-24.5 -64.5zM821 1219q127 -27 180 -93q72 25 100.5 69t28.5 89l-2 33l-6 20l49 -4h89h75h41l4 -30q0 -23 -2 -35.5t-14 -38t-70 -68.5l-86 -55l-90 -53q18 -25 30.5 -44.5t22.5 -43.5 l29 -86q0 135 50 211.5t136 76.5q68 0 111 -60t43 -140q0 74 36 128t73 60q-115 12 -140 78q-12 33 -16 51.5t-6 42.5q0 68 37 111l-45 10l-58 2l-45 -2h-45h-91t-79 -4q-51 0 -141 -27q-78 -18 -146 -69q-29 -20 -41 -54t-12 -75zM1597 1337q0 -41 29 -69q33 -27 74 -27 t69.5 25.5t28.5 70.5q0 37 -28.5 66t-69.5 29q-45 0 -74 -29q-29 -25 -29 -66z" />
<glyph unicode="&#x201e;" d="M53 -20v1107h172v170h1106v-1105h-170v-172h-1108zM289 205h993v993h-993v-993z" />
<glyph unicode="&#x2022;" horiz-adv-x="1454" d="M31 573q0 41 2 87.5t9 114t35.5 149.5t73 144t87.5 91t161 70h211v-144h-94q-51 0 -80.5 -7t-84 -42t-87.5 -100q-12 -25 -23.5 -57.5t-17.5 -59.5l-10 -80l-2 -51l6 -102q6 -45 25.5 -99.5t44.5 -83.5l69 -63q18 -14 43 -29.5t46.5 -22.5t40 -11.5t42.5 -4.5 q55 0 101.5 22.5t78 54.5t48 79t16.5 90q0 61 -17.5 97t-66.5 36h-18l-13 -106l-131 -4l2 184l2 102q0 47 42 152.5t122 185.5t238 80l51 -2q-35 14 -59 51q-20 41 -21 74q0 37 21 55l-35 7l-98 4h-80l-66 2q-51 0 -75.5 -3t-36 -5.5t-51.5 -13.5t-74 -30q-12 -6 -27.5 -18 t-28.5 -29l-41 -59q-12 -29 -12 -82h-170l-2 51q0 90 42 165t72.5 107.5t99.5 63.5t175.5 43t261.5 12q141 0 209 -8q33 0 69 -7t74 -21q68 -23 108 -52.5t66.5 -86t26.5 -105.5q0 -61 -29.5 -109.5t-84.5 -74.5q74 -49 137 -181.5t63 -267.5v-47v-37v-31v-24q0 -82 -6 -131 t-37 -171t-148.5 -203t-277.5 -81l-94 6v133l78 15l63 30q-27 20 -45 70q-14 57 -14 100q0 80 23.5 124t55.5 74t60 36l55 6q47 0 91 -19v29q0 59 -4.5 88t-12.5 55.5t-30 77.5q-33 88 -119 119t-135 31h-29.5t-41.5 -7t-60.5 -23.5t-63.5 -61.5q-29 -45 -29 -84 q80 0 136.5 -38t70.5 -85q4 -12 8 -31.5t13 -73.5l8 -71v-23q0 -53 -6 -84l-45 -143q-37 -113 -136.5 -178.5t-220.5 -65.5q-68 0 -91 3t-60 14q-63 16 -141 70t-121 123t-60 142l-16 121zM133 -82l10 78h148q-8 -23 -8 -45q0 -88 148.5 -125t301.5 -37q147 0 294 51 t147 142l-3 22l-6 25h148q26 -52 26 -105q0 -150 -175 -256t-437 -106q-276 0 -435 97t-159 259zM1038 1350q0 -29 25 -54q23 -18 57 -22q33 0 56.5 21.5t23.5 54.5q0 29 -21.5 50t-58.5 25q-33 0 -57.5 -22.5t-24.5 -52.5zM1061 352q0 -31 18.5 -57.5t44.5 -26.5 q18 0 41 25q19 24 19 59t-16.5 59.5t-43.5 24.5q-23 0 -45 -24q-18 -25 -18 -60z" />
<glyph unicode="&#x2026;" d="M37 434q0 49 6 107.5t23 142.5q27 156 198 317q82 78 153.5 114t135.5 36q47 47 137 72q41 10 88 16t101 6q123 0 204 -26q86 -25 146 -91q61 -59 82.5 -130.5t21.5 -166.5h-295q-217 0 -342 -53t-150.5 -148t-25.5 -138q0 -98 54.5 -180.5t152.5 -118.5q104 -33 193 -33 l59 4l88 14q29 4 57.5 12.5t61.5 21.5t63.5 29.5t65.5 41.5v-140l-55 -106h82.5t52.5 -4v454h-68v240h197v-65q31 53 45 61q10 10 49 10h37q37 0 54 -7t36 -32q12 -18 18 -53l6 -66q0 -78 -20 -109.5t-59 -45.5q-18 -6 -37 -10t-41 -4q-53 0 -82 24v-448q16 -12 18 -29 l13 -78q0 -111 -105.5 -169t-185.5 -66l-96 -11l-33 -2l-43 2l-78 9v102q121 0 211 20q96 18 96 78q0 43 -28.5 72t-100.5 45l-39 -2h-26h-37h-17l64 108q-29 -10 -96.5 -26.5t-109.5 -22.5t-66.5 -8t-77.5 -2q-96 0 -174 13.5t-142.5 44t-141.5 112.5t-95 172 q-8 43 -12.5 79t-4.5 69q0 184 99.5 301.5t238.5 136.5q-33 6 -47 24.5t-18 51.5q-90 -25 -182.5 -129.5t-120.5 -188.5l-33 -145q-8 -63 -10 -78v-49q0 -98 26 -170h-53q-37 0 -60 4q-27 59 -26 184zM727 1081q35 -12 35 -69q0 -25 -8 -41l395 -2q0 72 -84 110.5t-188 38.5 q-102 0 -150 -37zM1528 535q14 -27 51 -27q51 0 51 53q0 20 -15.5 32.5t-35.5 12.5h-51v-71z" />
<glyph unicode="&#x202f;" horiz-adv-x="409" />
<glyph unicode="&#x2039;" horiz-adv-x="1165" d="M53 287l418 422l-377 385l117 114l387 -385l389 391l119 -112l-397 -397l407 -414l-119 -113l-407 408l-422 -418z" />
<glyph unicode="&#x203a;" horiz-adv-x="993" d="M51 434v117h885v-117h-885zM387 233q0 43 27.5 76t81.5 33q51 0 79 -35q31 -31 31 -76t-25.5 -76.5t-80.5 -31.5q-49 0 -81 31.5t-32 78.5zM387 760q0 43 27.5 75.5t81.5 32.5q51 0 79 -34q31 -31 31 -76t-25.5 -77t-80.5 -32q-49 0 -81 32t-32 79z" />
<glyph unicode="&#x205f;" horiz-adv-x="511" />
<glyph unicode="&#x2122;" horiz-adv-x="2379" d="M49 950q0 100 70.5 180t171.5 80l41 2l35 2q23 0 45 -2t43 -8q41 -6 69 -35q57 -41 94 -110q90 80 249 129t251 49q143 0 246 -12q100 -8 162 -56q47 29 125 52q33 8 74.5 14t74.5 6q131 0 207 -19.5t136.5 -80t84 -119.5t23.5 -125l-2 -35l-2 -26l-269 2 q-262 0 -399 -54.5t-137 -287.5q0 -109 63 -179q29 -31 60.5 -54t72.5 -42.5t77 -29t67 -9.5l47 -2h459v-557h-1014v205h825l-2 190l-248 5h-190q-39 0 -60.5 3t-60.5 13q-43 6 -106.5 36.5t-147.5 119.5q-35 39 -56.5 83t-31.5 91q-6 37 -10 74.5t-4 56.5q0 164 86 276.5 t213 134.5q-23 16 -35 39q-6 18 -6 58q-29 10 -78 20l-121 8q-176 0 -344 -37.5t-213 -101.5q211 0 314.5 -74.5t123.5 -199.5q6 -41 13.5 -92.5t7.5 -88.5q0 -51 -8 -86q-4 -31 -9.5 -50t-19.5 -64q-20 -72 -70.5 -134.5t-125 -86t-115.5 -23.5q-61 0 -102.5 29.5 t-61.5 62.5l-37 78q-18 -70 -68.5 -112t-119.5 -48q-106 0 -178 74t-72 170l4 37l-97 2v201l220 266l-54 -8q-47 0 -85 22.5t-68 69.5q-27 53 -27 108zM172 446q4 -4 12.5 -6t26.5 -2l65 2l17 -2l6 -6l-10 -59q0 -39 24.5 -65.5t83.5 -26.5q86 0 105.5 59t19.5 190h162 q0 -141 16.5 -192t87.5 -51h29q72 0 114 57.5t42 151.5l-2 59q0 20 -13.5 71.5t-57.5 95.5t-109 56h-207h-97zM211 979l43 6q49 0 70.5 -35t21.5 -82q0 -51 -22 -73l153 182q0 16 -9 30.5t-29.5 34t-40 25.5t-68.5 6q-88 0 -119 -94zM1667 1087q41 -16 41 -59q0 -23 -18 -53 l378 -2q6 51 -91 95t-203 44q-70 0 -107 -25z" />
<glyph unicode="&#xe000;" horiz-adv-x="1003" d="M0 0v1004h1004v-1004h-1004z" />
</font>
</defs>
</svg>
