<?xml version="1.0" standalone="no"?>
<!DOCTYPE svg PUBLIC "-//W3C//DTD SVG 1.1//EN" "http://www.w3.org/Graphics/SVG/1.1/DTD/svg11.dtd" >
<svg xmlns="http://www.w3.org/2000/svg">
<metadata></metadata>
<defs>
<font id="fmbindumathix" horiz-adv-x="1363" >
<font-face units-per-em="2048" ascent="1638" descent="-410" />
<missing-glyph horiz-adv-x="737" />
<glyph horiz-adv-x="2048" />
<glyph horiz-adv-x="2048" />
<glyph unicode="&#xd;" horiz-adv-x="737" />
<glyph unicode=" "  horiz-adv-x="737" />
<glyph unicode="&#x09;" horiz-adv-x="737" />
<glyph unicode="&#xa0;" horiz-adv-x="737" />
<glyph unicode="!" horiz-adv-x="802" d="M18 731q0 106 35 191q45 106 125 106q11 0 23 -2l-2 -57q-12 6 -23 6q-43 0 -72 -84q-27 -76 -26 -164q0 -82 33 -152q39 -86 102 -86q43 0 71.5 29t30.5 68t-28.5 68.5t-61.5 19.5q-25 113 -2 205q41 166 213 165q154 0 228 -167q61 -137 61 -363q0 -203 -78 -334 q-111 -184 -291 -184q-199 0 -270 88q-39 47 -39 127q0 59 21 102h96q-49 -53 -49 -114q0 -37 18 -72q45 -84 164 -76q125 8 201 189q55 133 55 272q0 178 -46 317.5t-108 139.5q-80 0 -118 -101q-25 -61 -7 -149q37 0 66 -31t35 -74q10 -74 -29 -118q-51 -59 -123 -62 q-96 -4 -153 82q-51 76 -52 215z" />
<glyph unicode="&#x22;" horiz-adv-x="552" d="M141 102q12 88 117 88q39 0 70 -18q57 -35 57 -121q0 -27 -6 -59q-10 -49 -56.5 -110.5t-101.5 -92.5h-67q41 27 86 88q47 70 49 115q-16 -4 -33 -4q-51 0 -87 31.5t-28 82.5z" />
<glyph unicode="#" horiz-adv-x="442" d="M25 242q0 70 45 123q55 66 143 65q70 0 123 -45q66 -55 65 -143q0 -70 -45 -123q-55 -66 -143 -66q-70 0 -123 45q-66 55 -65 144zM25 733q0 70 45 123q55 66 143 66q70 0 123 -45q66 -55 65 -144q0 -70 -45 -123q-55 -66 -143 -65q-70 0 -123 45q-66 55 -65 143zM88 240 q0 -63 47 -101q35 -27 78 -26q63 0 102 49q27 35 27 78q0 61 -47 100q-35 27 -80 27q-63 -1 -100 -48q-27 -35 -27 -79zM88 731q0 -63 47 -100q35 -27 78 -27q63 0 102 49q27 35 27 78q0 61 -47 100q-35 27 -80 27q-63 0 -100 -47q-27 -35 -27 -80z" />
<glyph unicode="$" horiz-adv-x="1026" d="M221 -6l502 1468h68l-502 -1468h-68z" />
<glyph unicode="%" horiz-adv-x="16" d="M-1239 -8h49q14 -76 127 -148q123 -78 322 -82q301 -6 454 129q59 53 78 142q20 102 -24 164l32 28q55 -43 56 -172q0 -86 -25 -147q-37 -88 -145 -174q-156 -123 -445 -107q-211 12 -346 129q-108 95 -133 238z" />
<glyph unicode="&#x26;" horiz-adv-x="737" d="M86 -49q285 313 283 721q-2 225 -65.5 387t-217.5 325h57q371 -258 373 -716q2 -223 -115 -430q-104 -184 -258 -287h-57z" />
<glyph unicode="'" horiz-adv-x="552" d="M154 96q0 35 18 62q31 47 90 47q35 0 62 -19q47 -31 47 -90q0 -33 -17 -59q-31 -49 -92 -49q-33 0 -61 18q-47 31 -47 90z" />
<glyph unicode="(" horiz-adv-x="589" d="M201 258q0 43 30.5 72.5t73.5 29.5q57 0 86 -45q16 -27 17 -57q0 -43 -30 -72.5t-73 -29.5t-73.5 29.5t-30.5 72.5zM201 707q0 43 30.5 72.5t73.5 29.5q57 0 86 -45q16 -27 17 -57q0 -43 -30 -73t-73 -30t-73.5 30t-30.5 73z" />
<glyph unicode=")" horiz-adv-x="778" d="M90 1118q0 61 66 62q39 0 61 -25q27 -35 82 -96q12 -10 74 -58q2 55 -11 113q-4 16 -24 55q-16 31 -16 64q-1 80 65 80t64 -82q-2 -33 -17 -64q-18 -39 -22 -55q-14 -61 -17 -111q25 14 78 64q18 29 80 92q25 20 59 21q68 0 68 -62q0 -37 -31 -59q-23 -16 -62.5 -21.5 t-76.5 -11.5q-43 -8 -102 -39q39 -25 102 -37q41 -6 82 -14t64.5 -28.5t23.5 -55.5q0 -66 -64 -66q-33 0 -59 25q-16 14 -38.5 46t-41.5 48q-31 29 -80 60q-2 -45 9 -99q4 -23 24 -65q18 -35 19 -62q0 -78 -62 -82q-61 -2 -70 78q-4 33 13 68q23 51 26 67q8 31 17 93 q-47 -18 -80 -60q-25 -35 -94 -100q-20 -12 -43 -13q-63 0 -64 60q0 45 39 67q25 14 59.5 18.5t67.5 9.5t107 40q-25 14 -89 37q-51 2 -149 35q-37 23 -37 63z" />
<glyph unicode="*" horiz-adv-x="1392" d="M23 541q0 225 96 358q102 141 287 141q193 0 262 -157q68 158 278 157q164 0 263.5 -137t101.5 -375q2 -283 -187 -426q-139 -106 -372 -102v53q215 6 319 88q68 53 107 156q35 90 34 178q0 176 -68.5 282.5t-193.5 119.5q-98 10 -170 -43q-78 -53 -78 -148v-352h-69v348 q0 88 -63.5 140t-168.5 52q-285 0 -284 -366q0 -225 114.5 -342t354.5 -113v-55q-276 0 -410 131q-154 152 -153 412z" />
<glyph unicode="+" horiz-adv-x="16" d="M-645 -252q-4 47 35 86t110 47h-133v56q86 43 221 71h-155q82 4 149 21q59 14 94 34h181v-55q-92 0 -154.5 -15.5t-179.5 -45.5h332v-62h-160q-84 0 -147.5 -29.5t-63.5 -64.5q0 -51 154 -55q82 -2 139 22.5t59 57.5h64q6 -111 -115 -174q-61 -33 -180 -33q-98 0 -166 33 q-76 39 -84 106z" />
<glyph unicode="," horiz-adv-x="1359" d="M20 385q-2 274 175 461q184 195 493 194q281 0 450 -162.5t169 -381.5q0 -205 -119 -346q-125 -147 -332 -148q-186 0 -295.5 88t-118.5 238q-12 193 144 282h-160v101h453v-101h-123q-92 0 -152.5 -54t-60.5 -138q0 -20 4 -41q16 -86 106 -156q72 -55 230 -55 q129 0 229 82q113 96 113 254q0 225 -148 352q-61 53 -162 86q-106 37 -200 33q-244 -10 -410 -205q-100 -119 -104 -393q-4 -258 151.5 -423t395.5 -177q156 -8 287.5 63.5t185.5 198.5h65q-57 -180 -229 -266q-147 -76 -361 -74q-293 2 -475 174q-197 186 -201 514z" />
<glyph unicode="-" horiz-adv-x="716" d="M72 461v133h522v-133h-522z" />
<glyph unicode="." horiz-adv-x="1531" d="M45 532q8 268 217 426q109 82 217 82h78v-53h-82q-135 0 -242 -137q-96 -125 -98 -248q-2 -190 84 -305q92 -123 268 -133q307 -18 328 250q6 66 -34 129t-105 63q-72 -2 -115 -61q-31 -43 -24 -107h-62q-2 152 2 199q14 127 76 211q152 207 422 192q207 -10 344 -160.5 t135 -359.5q-4 -252 -164 -391t-422 -129v53q45 0 144 15q260 72 303 307q10 59 10 110q0 86 -31 158q-109 250 -389 250q-139 0 -237 -64q-119 -78 -140 -235q55 59 140 65q102 8 170.5 -70.5t70.5 -195.5q4 -182 -108.5 -287.5t-313.5 -105.5q-203 0 -326.5 148.5 t-115.5 383.5z" />
<glyph unicode="/" horiz-adv-x="1900" d="M16 504q-4 178 86 303q76 104 240 199q78 41 209 120q108 76 141 127q-55 10 -55 72q0 27 12 43q27 35 70 35q33 0 62.5 -19.5t29.5 -64.5q0 -33 -16 -62q-25 -45 -125 -116q-92 -66 -174 -105q27 4 59 4q102 0 213 -34q121 -37 188 -101q174 -162 174 -391 q0 -236 -167 -385q-135 -119 -345 -133q-291 -18 -466 164q-129 135 -136 344zM100 563q0 -27 4 -55q20 -158 152 -256q125 -94 295 -94q176 0 309 90q143 100 168 270q4 31 4 60q0 174 -135 290.5t-319 116.5q-195 0 -336.5 -121t-141.5 -301zM958 1257v123h795v-102 q-221 -170 -352 -352q-145 -203 -158 -396q-10 -166 59.5 -264t202.5 -98q150 0 213 108q23 39 23 103q0 86 -39 129h61q61 -74 62 -193q0 -131 -72 -213q-94 -106 -256 -106q-39 0 -76 8q-264 55 -264 404q0 63 10 133q33 219 201 438q123 156 283 278h-693z" />
<glyph unicode="0" horiz-adv-x="970" d="M86 629q-2 229 88 411q115 227 322 228q211 0 321 -228q84 -176 84 -411q0 -233 -88 -410q-111 -225 -321 -227q-213 -2 -322 225q-82 176 -84 412zM274 629q0 -268 48 -416q53 -170 165 -170q88 0 162 127q59 102 60 430q0 279 -45 438q-51 182 -172 181 q-113 -2 -170 -168q-48 -133 -48 -422z" />
<glyph unicode="1" horiz-adv-x="745" d="M68 1069v55q86 0 170.5 30.5t160.5 96.5h47v-1097q0 -53 38 -69.5t167 -16.5v-62h-573v62q119 0 155 14q45 18 46 72v858q0 37 -25 48t-66 11z" />
<glyph unicode="2" horiz-adv-x="946" d="M63 10v56q59 74 199 237q66 74 223 242q102 109 154 207q45 88 47 186q2 129 -59.5 186.5t-173.5 59.5q-90 2 -158 -33q-106 -55 -96 -147q4 -31 30 -43q61 -27 76 -37q39 -27 39 -70q0 -49 -27.5 -83t-76.5 -34q-70 0 -109 58q-35 51 -35 123q0 158 123 247 q109 80 273 82q170 2 272 -82q109 -90 110 -256q0 -76 -43 -174q-37 -82 -167 -188q-72 -53 -228 -180q-90 -80 -198 -191h411q88 0 127 47q47 55 49 174h58l-33 -387h-787z" />
<glyph unicode="3" horiz-adv-x="917" d="M47 274q0 160 119 164q109 2 113 -104q2 -51 -52 -98q-18 -14 -38.5 -31t-16.5 -39q10 -49 72.5 -85t163.5 -36q106 0 184 92q68 80 67 217q0 184 -94 248q-53 37 -133 39q-57 2 -76 -4q-80 0 -80 31q0 23 20.5 30t98.5 9q147 2 194.5 61t47.5 184t-55 185 q-68 72 -191 71q-49 0 -86 -16q-70 -31 -72 -102q-2 -29 35 -60t41 -55q2 -14 2 -27q0 -90 -104 -94q-43 -2 -76 32t-33 95q0 115 82 197q94 94 273 90q156 -2 252 -76q104 -82 104 -234q0 -204 -238 -284q276 -66 279 -320q2 -176 -129 -276q-119 -88 -301 -90 q-158 -2 -262 73q-111 80 -111 213z" />
<glyph unicode="4" horiz-adv-x="987" d="M51 324v102l590 825h64v-829h213v-94h-213v-166q0 -59 16 -74.5t100 -15.5h64v-62h-527v62q129 0 152 6q33 10 33 78v168h-492zM127 422h416v575z" />
<glyph unicode="5" horiz-adv-x="942" d="M66 266q0 61 34.5 110.5t96.5 49.5q43 0 71.5 -29.5t28.5 -74.5q0 -35 -16 -64q-2 -4 -48 -35q-37 -25 -40 -57q-4 -47 58 -89t150 -42q137 0 217 123q70 104 70 250q0 166 -74 249q-82 92 -184 95q-109 2 -199 -62q-10 -68 -16 -86q-14 -45 -47 -49q-51 -8 -51 49 q0 12 14 41q18 37 23 51q14 43 29.5 134t17.5 423h43q123 -51 291 -51q186 0 282 64l14 -13q-63 -217 -337 -217q-90 0 -234 29q-4 -57 -16 -168q-8 -74 -13 -145q139 68 256 59q174 -14 273 -111q111 -109 110 -292q0 -203 -121.5 -314.5t-326.5 -113.5q-137 -2 -242 71 q-115 82 -114 215z" />
<glyph unicode="6" horiz-adv-x="966" d="M66 553q0 307 135 502q125 180 366 196q113 8 187 -45q90 -66 90 -164q0 -123 -99 -127q-45 -2 -71.5 26t-18.5 69q2 10 15.5 36.5t13.5 47.5q0 16 -8 36q-29 68 -117 68q-133 0 -218 -124t-89 -470q115 162 297 166q139 2 239.5 -87t102.5 -273t-106.5 -306t-297.5 -124 q-227 -2 -333 182q-88 147 -88 391zM262 377q0 -145 53 -238q61 -106 174 -106q111 0 170 125q45 96 46 219q0 115 -48 203q-33 61 -55 79q-43 39 -123 39q-94 0 -157 -102q-60 -94 -60 -219z" />
<glyph unicode="7" horiz-adv-x="880" d="M59 821l50 426q49 -6 313 -6h405v-59q-49 -102 -147 -320q-66 -154 -96 -262q-51 -182 -47 -338q4 -162 -24 -228.5t-97 -56.5q-92 14 -99 127q-4 84 56 244q133 356 348 733h-453q-66 0 -90 -28q-29 -43 -49 -154l-14 -78h-56z" />
<glyph unicode="8" horiz-adv-x="946" d="M53 297q0 215 264 321q-207 92 -208 295q-2 150 102 244t256 96q154 2 253 -78.5t101 -199.5q2 -82 -59 -162q-55 -72 -133 -113q133 -55 188 -120q68 -82 70 -222q2 -180 -137 -284q-123 -92 -310 -94q-160 -2 -266 75q-121 88 -121 242zM195 297q-2 -129 61 -191 q72 -70 195 -71q131 -2 219 67.5t90 198.5q0 59 -30 112.5t-75 73.5q-71 33 -284 111q-63 -37 -118.5 -100.5t-57.5 -200.5zM233 981q0 -102 76 -152q59 -38 254 -106q61 43 94 88q39 55 41 154q2 131 -61 190q-55 51 -180 51q-84 0 -154 -59.5t-70 -165.5z" />
<glyph unicode="9" horiz-adv-x="966" d="M63 823q-2 184 109 310q106 119 295 120q227 2 334 -182q88 -147 88 -391q0 -307 -135 -502q-125 -180 -367 -196q-113 -8 -186 45q-90 66 -90 163q0 123 98 127q45 2 71.5 -25.5t18.5 -68.5q-2 -10 -15.5 -36.5t-13.5 -47.5q0 -16 9 -37q29 -68 116 -67q133 0 218 124 t89 470q-115 -162 -296 -166q-139 -2 -239.5 87t-103.5 273zM250 856q0 -115 47 -203q33 -61 55 -80q43 -39 123 -38q94 0 158 102q59 94 59 219q0 145 -53 238q-61 106 -174 106q-111 0 -170 -125q-45 -96 -45 -219z" />
<glyph unicode=":" horiz-adv-x="1290" d="M29 520q0 172 112 289q125 131 342 137q45 2 111 -16v-53q-53 18 -109 16q-164 -8 -272 -125q-96 -104 -86 -256q12 -180 168 -272q133 -78 332 -76q207 2 355 142t159 341q12 236 -88 408q-33 -53 -98.5 -90t-139.5 -37q-113 0 -203 92q-29 29 -102 170q-51 96 -119 96 q-43 0 -100 -29v58q131 57 301 57q268 0 426 -158q98 -98 154.5 -247.5t56.5 -302.5q0 -299 -154 -480q-158 -186 -432 -192q-293 -6 -450 135q-164 150 -164 393zM463 1311q61 -27 119 -123q61 -102 102 -127q49 -29 107 -29q137 0 188 127q-41 57 -139 111q-88 47 -275 47 q-59 0 -102 -6z" />
<glyph unicode=";" horiz-adv-x="1527" d="M23 393v74q76 96 194 209q41 39 148 131q27 25 38 38t13 38q4 47 -29 76.5t-90 29.5q-113 0 -150 -90q43 6 74 -22.5t31 -69.5q0 -37 -28.5 -59.5t-67.5 -22.5q-41 0 -67 33t-26 80q0 94 78 151q70 53 166 51q152 -2 180 -141q184 141 443 141q262 0 428 -213 q104 -135 104 -344q0 -213 -143 -352q-133 -129 -420 -125v57q27 -2 53 -2q160 0 246 93q102 109 109 274q8 215 -158 358q-129 111 -281 119q-238 12 -358 -71q260 12 393 -132q117 -125 117 -280q0 -182 -152 -316q-76 -66 -163 -88q-68 -18 -185 -18q-305 0 -401 152 q-35 55 -35 110q0 43 22 86q4 6 18.5 20.5t12.5 22.5q-6 25 -39 25q-35 0 -75 -23zM100 473q45 6 74 -10.5t29 -42.5q0 -14 -10 -29q-25 -35 -25 -63q0 -43 49 -84q66 -55 154 -70q47 -8 157 -6q164 4 248 68.5t113 144.5q20 57 20 108q0 106 -82 191q-100 102 -254 102 q-72 0 -139 -24.5t-164 -112.5q-55 -49 -170 -172z" />
<glyph unicode="&#x3c;" horiz-adv-x="1318" d="M20 281q0 -260 197 -437q100 -90 225 -120q88 -23 256 -25q274 -2 471 180q109 100 121 297l-61 -2q6 -109 -62 -199q-168 -219 -454 -200q-291 18 -428 260q-49 86 -70 227q-14 98 8 203q2 -72 29 -127q61 -127 190 -193q123 -63 283 -59q246 6 377 170q55 68 76 141 q14 49 24 166h-61q0 -131 -43 -211q-115 -215 -365 -192q-291 27 -379 289q-29 84 -22 167q14 39 75.5 69t127.5 30h665q12 127 -60.5 226t-189.5 99q-172 0 -229 -125q-57 131 -217 127q-154 -4 -242 -112q-61 -76 -65 -232q-150 -129 -172 -338q-4 -41 -5 -79zM334 750 q-8 88 47 155.5t135 69.5q76 2 123 -59.5t41 -143.5h-213q-86 0 -133 -22zM750 772q-8 86 57 150.5t151 56.5q76 -6 120 -64.5t50 -142.5h-378z" />
<glyph unicode="=" horiz-adv-x="16" d="M-733 -63q14 91 90 118l2 -53q-31 -23 -18 -72q25 -102 217 -102q78 0 137 27.5t76 66.5q31 76 0 117h49q20 -47 20 -102q0 -47 -16 -87q-61 -147 -277 -153q-66 -2 -133 22q-82 29 -116 80q-41 59 -31 138z" />
<glyph unicode="&#x3e;" horiz-adv-x="1376" d="M-2 717v55h596q-8 123 -62.5 170t-166.5 47q-129 0 -154 -37q39 2 63.5 -27.5t22.5 -70.5q-4 -78 -94 -78q-47 0 -75 32t-24 85q6 76 91 121q70 37 198 28q156 -10 219 -104q47 -70 43 -215h-270q-98 0 -180 -80t-82 -192q0 -18 2 -37q14 -109 82 -172q80 -78 186 -78 q164 0 164 90q0 25 -77 64.5t-77 99.5q0 10 3 22q8 45 96 72q76 25 170 25q246 0 272 -97q4 -14 4 -26q0 -53 -88 -95.5t-88 -64.5q-2 -90 189 -90q143 0 219 100q45 59 51 150q8 121 -70 215t-194 94h-279q-10 164 66.5 237.5t191.5 79.5q227 12 291 -120q16 -37 16 -84 q0 -111 -65 -140q51 -39 87 -123t36 -176q0 -176 -101 -288q-104 -119 -264 -113q-113 4 -186 55q-82 57 -80 154q2 76 74.5 127t72.5 74q0 82 -155 81q-152 0 -152 -81q0 -23 63.5 -74t65.5 -127q2 -100 -68.5 -155.5t-183.5 -55.5q-162 0 -263 105.5t-101 289.5 q0 256 182 328h-217zM748 772h229q37 0 113 -16q49 27 49 86q0 12 -2 26q-16 117 -187 117q-196 0 -202 -213z" />
<glyph unicode="?" horiz-adv-x="1900" d="M16 504q-4 178 86 303q76 104 240 199q78 41 209 120q108 76 141 127q-55 10 -55 72q0 27 12 43q27 35 70 35q33 0 62.5 -19.5t29.5 -64.5q0 -33 -16 -62q-25 -45 -125 -116q-92 -66 -174 -105q27 4 59 4q102 0 213 -34q121 -37 188 -101q174 -162 174 -391 q0 -236 -167 -385q-135 -119 -345 -133q-291 -18 -466 164q-129 135 -136 344zM100 563q0 -27 4 -55q20 -158 152 -256q125 -94 295 -94q176 0 309 90q143 100 168 270q4 31 4 60q0 174 -135 290.5t-319 116.5q-195 0 -336.5 -121t-141.5 -301zM958 1257v123h795v-102 l-483 -137h477v-107q-154 -82 -293 -198q-166 -139 -207 -322q-10 -45 -10 -86q0 -119 74.5 -189.5t193.5 -70.5q150 0 213 108q23 39 23 103q0 86 -39 129h61q61 -74 62 -193q0 -131 -72 -213q-92 -106 -256 -106q-39 0 -76 8q-197 41 -252 232q-33 115 -4 262 q37 184 207 340q102 94 242 182h-555v115l407 122h-508z" />
<glyph unicode="@" horiz-adv-x="770" d="M45 1057q0 111 88 182q98 80 254 80q145 0 238 -78q96 -84 96 -227q0 -111 -74 -213q-29 -39 -100 -101q-86 -70 -109 -94q-39 -43 -55 -96q-12 -39 -10 -80q2 -88 2 -82h-60v45q-2 39 -2 58q0 111 41 176q49 55 142 192q49 98 49 205q0 111 -47 168q-55 66 -140 74 q-78 6 -129 -31q-41 -31 -41 -74q0 -20 13.5 -40.5t27.5 -39.5q25 -33 27 -63q2 -41 -26.5 -75t-73.5 -32q-111 4 -111 146zM242 102q0 43 29.5 76t78.5 33q43 0 76 -29.5t33 -79.5q0 -43 -30 -75.5t-79 -32.5q-43 0 -75.5 29.5t-32.5 78.5z" />
<glyph unicode="A" horiz-adv-x="8" d="M-424 1456q16 25 47 42.5t55 12.5q33 -6 33 -88v-235q23 -31 62 -86v145q55 -30 114 -30h4q82 0 141.5 49t59.5 118q0 80 -44 137.5t-128 59.5h-12q-93 0 -146 -57q-13 51 -69 51q-11 0 -23 -2q-66 -10 -94 -53v-64zM-227 1307v145q0 63 90 64q25 0 43 -11q41 -27 41 -99 v-13q-4 -76 -58 -103q-25 -12 -49 -12q-36 0 -67 29z" />
<glyph unicode="B" horiz-adv-x="1183" d="M16 504v15q0 168 86 288q76 104 240 199q78 41 209 120q108 76 141 127q-55 10 -55 72q0 27 12 43q27 35 70 35q33 0 62.5 -19.5t29.5 -64.5q0 -33 -16 -62q-25 -45 -125 -116q-92 -66 -174 -105q27 4 59 4q102 0 213 -34q121 -37 188 -101q174 -162 174 -391 q0 -236 -167 -385q-135 -119 -345 -133q-26 -2 -51 -2q-255 0 -415 166q-129 135 -136 344zM100 563q0 -27 4 -55q20 -158 152 -256q125 -94 295 -94q176 0 309 90q143 100 168 270q4 31 4 60q0 174 -135 290.5t-319 116.5q-195 0 -336.5 -121t-141.5 -301zM129 1237 q0 37 14 70q47 116 170 116h2q37 0 70 -14q117 -47 117 -172q0 -37 -15 -70q-47 -116 -170 -116h-2q-37 0 -69 14q-117 47 -117 172zM197 1237q0 -49 35.5 -84t82.5 -35q49 0 84 36t35 83q0 49 -36 84t-83 35q-49 0 -83.5 -36t-34.5 -83zM811 1212q47 117 172 117 q37 0 70 -14q116 -47 116 -170v-2q0 -37 -14 -70q-47 -117 -172 -117q-37 0 -70 15q-116 47 -116 170q0 38 14 71zM864 1143q0 -49 36 -84t83 -35q49 0 84 36t35 83q0 49 -36 84t-83 35q-49 0 -84 -36t-35 -83z" />
<glyph unicode="C" horiz-adv-x="1040" d="M20 348v84q35 70 164 221q53 63 217 217q10 10 11 25q0 33 -43 65q-38 28 -91 27h-14q-45 -4 -93 -44t-62 -87q20 12 43 12q31 0 53 -26.5t22 -59.5q0 -35 -25.5 -57.5t-62.5 -22.5q-33 0 -55 19q-43 33 -43 100q0 82 64.5 146.5t146.5 72.5q18 2 34 1q143 0 187 -123 q175 122 428 122h4q178 0 336 -122q-37 -39 -98 -119q-96 109 -232 137q-55 12 -114 12q-178 0 -289 -76h7q235 0 376 -139q129 -129 145 -332q2 -23 2 -46q0 -126 -57 -224q-76 -131 -219 -131q-195 2 -225 106q-35 -106 -238 -106q-96 0 -162.5 63.5t-70.5 149.5 q-1 11 -1 22q0 44 13 82q4 12 14 31t10 25q0 12 -20 12q-29 0 -62 -37zM96 442q35 8 62 9q51 0 51 -31q0 -18 -21 -37q-38 -32 -38 -83q0 -48 20 -73q53 -63 154 -63q186 0 186 248v18h55q0 -13 -1 -24q0 -128 40 -182q43 -60 146 -60q88 0 145 94q48 75 48 164q0 10 -1 20 q-8 139 -88 236.5t-215 130.5q-39 8 -92 8q-117 0 -165 -46t-134 -136q-111 -123 -152 -193z" />
<glyph unicode="D" horiz-adv-x="700" d="M23 303v7q-1 145 77 236q80 93 213 101q14 1 27 0q66 0 113 -16q6 53 6 94q-4 266 -150 266h-3q-118 0 -181 -67q8 1 15 1q30 1 50 -21q24 -26 25 -64q0 -70 -88 -70q-29 0 -47 14q-35 27 -35 76q0 25 10 45q66 137 279 137q135 0 217 -104q78 -99 78 -244v-14 q-2 -102 -25 -219q-27 -129 -33 -246q-1 -14 -1 -27q0 -96 38 -178h-86q-59 20 -102 72q-16 -29 -55 -55q-45 -27 -91 -29h-10q-102 0 -169 76q-70 80 -72 229zM94 326v-10q0 -138 56 -205q45 -54 111 -54h7q37 2 79 34t56 83q-3 21 -3 47q0 50 10 123q16 123 39 229 q-31 18 -107 23h-10q-90 0 -158 -66q-78 -76 -80 -204z" />
<glyph unicode="E" horiz-adv-x="749" d="M-2 885l2 112h631v-73l-414 -152h406v-72q-169 -36 -314 -114q-174 -92 -174 -238q0 -20 4 -43q16 -72 86 -112q57 -33 127 -33h15q88 4 133 24q63 29 92 105q12 31 12 73q0 66 -29 125h54q17 -29 31 -101q10 -56 11 -91q0 -10 -1 -19q-14 -147 -121 -225 q-75 -55 -188 -55h-15q-150 4 -236.5 77.5t-86.5 211.5q0 39 8 84q16 98 135 190q113 88 229 117h-389v80l359 129h-367z" />
<glyph unicode="F" horiz-adv-x="1019" d="M23 393v74q76 96 194 209q41 39 148 131q27 25 38 38t13 38v10q0 41 -29 67q-33 30 -90 29q-113 0 -150 -90q7 1 15 1q34 0 59 -24q31 -28 31 -69q0 -37 -28.5 -59.5t-67.5 -22.5q-41 0 -67 33t-26 80q0 94 78 151q67 51 159 51h7q152 -2 180 -141q184 141 443 141 q203 0 358 -147q-78 -39 -139 -107q-129 111 -281 119q-30 2 -58 2q-195 0 -300 -73q20 1 39 1q231 0 354 -133q117 -125 117 -280q0 -182 -152 -316q-76 -66 -163 -88q-68 -18 -185 -18q-305 0 -401 152q-35 55 -35 110q0 43 22 86q4 6 18.5 20.5t12.5 22.5q-6 25 -39 25 q-35 0 -75 -23zM100 473q12 2 23 2q30 -1 51 -13q29 -16 29 -42q0 -14 -10 -29q-25 -35 -25 -63q0 -43 49 -84q66 -55 154 -70q38 -6 116 -6h41q164 4 248 68.5t113 144.5q20 57 20 108q0 106 -82 191q-100 102 -254 102q-72 0 -139 -24.5t-164 -112.5q-55 -49 -170 -172z " />
<glyph unicode="G" d="M37 475q2 117 57 225q51 100 122 148.5t126 64.5q43 14 129 21h9q30 0 138 -8v-60q-68 16 -110 17q-111 -2 -183.5 -36t-134 -120t-61.5 -231q0 -135 59 -226q72 -104 203 -104q98 0 164 63.5t66 176.5v159h61v-155q0 -113 65.5 -178.5t170.5 -67.5h3q131 0 214 160 q69 132 69 293v22q-4 219 -119 416q-33 -53 -98 -90t-139 -37q-113 0 -203 92q-29 29 -102 170q-51 96 -119 96q-43 0 -100 -29v58q131 57 301 57q268 0 426 -158q102 -102 170 -262q69 -165 73 -325v-24q0 -228 -73 -392q-96 -209 -287 -211h-13q-121 0 -182 37 q-55 33 -90 115q-63 -152 -258 -152q-176 0 -270 129q-84 114 -84 326v20zM496 1311q61 -27 118 -123q61 -102 103 -127q49 -29 106 -29q138 0 189 127q-41 57 -140 111q-88 47 -274 47q-59 0 -102 -6z" />
<glyph unicode="H" horiz-adv-x="1015" d="M20 864q12 78 73 127q56 45 128 45h12q82 -4 135.5 -65.5t57.5 -147.5v-9q0 -82 -66 -177q-66 -90 -131 -178q-70 -102 -86 -135q-47 -92 -49 -193q55 94 156 94q53 0 163.5 -36.5t164.5 -36.5q37 0 69 12q129 47 160 180q4 20 4 41q0 76 -70 150q-23 25 -139.5 117.5 t-122.5 195.5v9q1 76 61 128q64 55 152 55t149.5 -58t61.5 -146q0 -47 -25.5 -82t-70.5 -35q-18 0 -39 6q-57 18 -57 84q0 37 26.5 61.5t63.5 24.5q10 0 22 -2q-32 86 -130 86h-9q-55 -2 -95 -38t-40 -89q0 -70 62.5 -120t125.5 -97q109 -88 133 -119q61 -76 68 -197 q1 -10 1 -20q0 -116 -86 -201q-93 -92 -226 -98q-13 -1 -25 -1q-100 0 -180 44q-61 39 -123 76q-37 17 -71 17q-29 0 -56 -13q-37 -18 -78 -107h-61q-6 43 -6 87.5t6 89.5q16 113 80 215q70 94 137 186q55 78 69 100q31 55 33 109v13q0 58 -32 106q-36 53 -95 53 q-115 0 -131 -107q-2 -14 -2 -27q0 -75 68 -112h-115q-27 49 -27 103q0 16 2 32z" />
<glyph unicode="I" horiz-adv-x="1331" d="M20 430q0 141 96.5 240.5t243.5 99.5h207v7q0 99 -55 157q-49 49 -123 53q-19 1 -37 1q-132 0 -182 -52q39 0 64.5 -25.5t25.5 -60.5q0 -42 -35 -64q-27 -17 -60 -17q-9 0 -18 1q-80 12 -79 90q0 100 102 150q65 31 159 31q13 0 27 -1q150 -6 219 -88q53 -61 54 -233 h-254q-109 0 -185.5 -73t-76.5 -171q0 -25 6 -51q29 -113 139 -182q123 -78 395 -78q457 0 514 260q6 27 7 53q0 115 -89 189q-131 -62 -304 -62h-5q100 -10 144 -26q82 -29 84 -101v-5q0 -157 -359 -157q-139 0 -235 37q-119 45 -119 131q0 135 301 148q315 12 403 80 q-41 8 -65 8h-266q0 176 53 235q76 84 217 86h13q111 0 167 -32q90 -53 103 -150q1 -11 1 -22q0 -82 -81 -131q133 -109 133 -304q0 -190 -178 -307q-164 -106 -443 -106q-311 0 -470 119.5t-159 322.5zM365 487q0 -57 92 -90q72 -24 167 -24h21q285 4 285 96 q0 104 -301 104q-264 0 -264 -86zM723 770h229q51 0 86 -10q49 33 52 92v5q0 59 -46 94q-48 36 -122 36q-100 1 -152 -59q-48 -55 -47 -144v-14z" />
<glyph unicode="J" horiz-adv-x="1011" d="M41 487q0 63 10 123h60q0 -57 82 -90q23 -8 53 -8q66 0 119 37q123 86 147 203q6 25 6 51q0 74 -43 125q-41 49 -108 49h-5q-125 -4 -165 -131q25 8 45 8q41 0 63.5 -26.5t22.5 -59.5q0 -35 -24.5 -57.5t-61.5 -22.5q-55 0 -83 42q-23 35 -23 84q0 11 1 22q8 88 71.5 144 t151.5 56q86 0 146.5 -50t71.5 -138q154 188 380 188q80 0 171.5 -29.5t134.5 -70.5q-88 -70 -88 -124v-7q-92 100 -302 100q-215 0 -303 -172q29 6 64 6q78 0 155.5 -32.5t118.5 -81.5q84 -98 84 -236q0 -195 -159 -309q-121 -86 -304 -86q-332 0 -446 266q-43 98 -43 227z M94 524v-18q0 -71 27 -152q31 -92 80 -139q92 -86 278 -86q135 0 244 64q123 74 137 200q2 20 2 41q0 90 -40 155.5t-103 84.5q-47 14 -101 14q-66 0 -81 -26q-45 -74 -140 -154q-53 -47 -151 -47q-117 0 -152 63z" />
<glyph unicode="K" horiz-adv-x="1904" d="M2 27v73l176 248q-100 105 -100 250v16q8 217 192 338q125 82 355 82l180 275h72l-195 -283q74 -2 141 -27q61 -23 113 -57q59 90 176 90q123 0 186 -102q74 98 224 98q301 0 301 -532q0 -217 -82 -353q-93 -155 -266 -155h-2q-293 0 -293 284h57v-13q0 -79 46 -139 q50 -66 128 -65q131 0 199 148q55 121 55 301q0 444 -174 454h-11q-62 0 -104 -41q-45 -45 -45 -110v-234h-61v236q0 66 -47 114t-113 48q-82 0 -129 -70q164 -168 164 -422q0 -221 -168 -364q-151 -129 -355 -129h-24q-139 6 -238 34q-53 14 -194 74q-20 8 -43 8 q-72 0 -121 -75zM104 156q8 2 19 2q49 0 141 -43q138 -64 295 -63q25 0 51 1q176 12 285 152q102 131 102 315q0 170 -86 291q-92 127 -260 162l-401 -617q113 -86 233 -86q94 0 170 43q86 49 109 133q-47 -59 -133 -59q-25 0 -54 6q-47 8 -85.5 57.5t-38.5 108.5 q0 39 16 74q47 104 156 104q94 1 152 -61q56 -59 56 -152v-6q-2 -137 -104 -219q-86 -72 -209 -82q-15 -1 -30 -1q-131 0 -271 95zM129 602q0 -115 80 -205l375 580q-20 2 -43 2q-109 0 -205 -49q-109 -55 -162 -158q-45 -86 -45 -170zM508 563q0 -68 55 -102q31 -20 70 -21 q68 0 102 56q20 31 21 67q0 66 -58 103q-31 20 -67 20q-68 0 -103 -55q-20 -31 -20 -68z" />
<glyph unicode="L" d="M29 496q0 225 133 378q141 164 368 164q145 0 252 -84q113 -90 113 -229q0 -29 -6 -59q-12 -72 -123 -144q-78 -49 -86 -57q-49 -43 -59 -103q-8 -48 -8 -91.5t8 -82.5q23 59 94 60q31 0 97.5 -22.5t107.5 -22.5q35 0 65 12q96 41 156 176q58 131 58 316q0 18 -1 36 q-4 119 -55 253t-129 212q-135 133 -389 133q-172 0 -301 -75q-137 -80 -181 -222h-65q18 156 192 267q145 92 353 92q176 0 278 -39q119 -45 215 -166q184 -229 184 -545q0 -250 -110 -446q-115 -204 -275 -204q-9 0 -18 1q-72 4 -129 66q-10 12 -35 55q-16 31 -35 35 q-6 1 -11 1q-38 0 -38 -77q0 -35 10 -78h-75q-23 74 -29 152q-12 -70 -67.5 -116t-135.5 -46q-150 0 -241 164q-82 143 -82 336zM113 397q11 66 85 108q67 38 135 38h13q59 -4 117 -45q65 -47 88 -117q20 102 108 156q68 41 91 61q41 39 41 89q0 90 -99 136q-80 39 -200 39 q-147 0 -247 -90t-126 -229q-6 -33 -6 -146zM154 303q0 -70 48 -117t115 -47q70 0 117 48.5t47 113.5q0 70 -49 118t-117 48q-70 0 -115.5 -48t-45.5 -116z" />
<glyph unicode="M" horiz-adv-x="1290" d="M41 434v5q0 122 91 211q93 91 249 91h250q-10 119 -82 168q-53 37 -189 37q-111 0 -153 -37h5q36 1 58 -27q21 -25 22 -57q0 -5 -1 -10q-8 -66 -90 -70h-6q-40 0 -72 27q-35 29 -35 72q0 25 12 49q45 90 176 111q34 4 90 4h40q178 -4 249 -109q49 -72 50 -164 q0 -25 -5 -49h-299q-262 0 -262 -231q0 -146 162 -228q129 -63 297 -63h29q207 6 355 144t159 339q1 25 1 50q0 205 -89 358q-33 -53 -98.5 -90t-139.5 -37q-113 0 -203 92q-29 29 -102 170q-51 96 -119 96q-43 0 -100 -29v58q131 57 301 57q268 0 426 -158 q98 -98 154.5 -247.5t56.5 -302.5q0 -299 -154 -480q-158 -186 -432 -192h-25q-277 0 -430 131q-145 125 -147 311zM463 1311q61 -27 119 -123q61 -102 102 -127q49 -29 107 -29q137 0 188 127q-41 57 -139 111q-88 47 -275 47q-59 0 -102 -6z" />
<glyph unicode="N" horiz-adv-x="1550" d="M-31 606v119h488q4 27 4 51q0 178 -137 199q-20 4 -39 4q-74 0 -119 -59q5 1 10 1q34 0 58 -24q28 -27 28 -63t-26 -60q-24 -22 -60 -22h-6q-89 4 -89 101q0 8 1 17q6 74 70.5 122t146.5 48q100 0 162 -73q55 -68 63 -172v-10q0 -40 -14 -113h-113q-76 0 -150.5 -67.5 t-76.5 -149.5v-5q0 -125 96 -204q98 -80 246 -82h9q141 0 241 59q117 70 127 199q1 9 1 17q0 57 -35 112q-40 63 -105 63q-72 -2 -115 -61q-26 -36 -26 -87q0 -10 1 -20h-61q0 8 -2 54v59q0 190 80 297q137 180 368 184h5q200 0 338 -154q138 -153 137 -360v-6 q-4 -252 -164 -391q-149 -130 -387 -130q-17 0 -35 1v53q117 4 180 21q92 25 160 90q123 117 123 285q0 90 -37 198q-82 246 -391 246q-285 0 -322 -291q55 59 139 66q9 1 18 1q90 0 153 -72q69 -79 71 -196v-10q0 -171 -133 -279q-137 -112 -342 -112q-197 0 -307 96 q-119 104 -119 297v19q6 176 160 260h-127q-63 0 -146 -66z" />
<glyph unicode="O" d="M33 475q2 309 188 461q115 94 287 104q10 1 22 0q59 0 154 -16v-61q-67 24 -153 24h-19q-221 -6 -340 -196q-66 -104 -66 -271q0 -147 66 -244q75 -110 216 -110h3q98 0 164 63.5t66 176.5v159h61v-155q0 -113 65.5 -178.5t170.5 -67.5h3q129 0 212 160q72 141 71 315 q0 305 -98 483q-123 223 -438 234h-27q-157 0 -281 -64q-143 -74 -196 -211h-62q47 143 164 222q154 102 398 102q334 0 491 -225q143 -206 143 -552v-10q-2 -248 -77 -411q-96 -205 -287 -207h-13q-122 0 -182 37q-55 33 -90 115q-63 -152 -258 -152q-176 0 -270 129 q-88 120 -88 336v10z" />
<glyph unicode="P" horiz-adv-x="1331" d="M20 430q0 141 96.5 240.5t243.5 99.5h207v7q0 99 -55 157q-49 49 -123 53q-19 1 -37 1q-132 0 -182 -52q39 0 64.5 -25.5t25.5 -60.5q0 -42 -35 -64q-27 -17 -60 -17q-9 0 -18 1q-80 12 -79 90q0 100 102 150q65 31 159 31q13 0 27 -1q150 -6 219 -88q53 -61 54 -233 h-254q-109 0 -185.5 -73t-76.5 -171q0 -25 6 -51q29 -113 139 -182q123 -78 395 -78q457 0 514 260q6 29 7 55q0 18 -4 37l-3 19q-10 -35 -55 -68q-55 -39 -121 -39q-35 0 -67 10q-88 29 -123 144q-14 47 -15 137h-122q0 176 56 238.5t138 76.5q42 7 71 7q20 0 34 -3 q16 12 159 99q88 53 90 100q-14 -4 -28 -4q-70 0 -70 61q0 72 76 78h12q71 0 88 -65q6 -23 6 -43q0 -92 -104 -152q-55 -29 -141 -80q41 -10 65 -26q80 -53 107 -152q10 -35 10 -88q0 -100 -23 -141q33 -68 39 -80q20 -59 21 -144q0 -190 -178 -307q-164 -106 -443 -106 q-311 0 -470 119.5t-159 322.5zM723 770h65q2 55 30 113.5t77 103.5q-76 -3 -126 -63q-46 -56 -46 -140v-14zM848 719q0 -72 4 -94q18 -98 88 -129q23 -10 49 -11q49 0 92 37t54 84q-10 43 -69.5 78t-117.5 35h-100zM850 770h121q51 0 113.5 -29.5t76.5 -62.5q10 41 10 88 q-2 133 -88 186q-35 23 -69 23q-57 0 -105 -55q-53 -59 -59 -150z" />
<glyph unicode="Q" horiz-adv-x="8" d="M-1276 -217q0 74 44 125t116 65l26 -32q-104 -31 -104 -117q0 -43 36 -76t101 -33q18 0 37 2q49 6 125 37q92 39 182 76q84 33 224 33q121 0 194 -27q68 -25 123 -74v484q37 51 66 155v-776h-109q-55 66 -129 96q-53 23 -133 23q-147 0 -252 -55q-168 -88 -311 -88 q-59 0 -105 16q-131 49 -131 166z" />
<glyph unicode="R" horiz-adv-x="2015" d="M33 389q0 213 149 324q80 59 224 59h188q-8 123 -62.5 170t-166.5 47q-129 0 -154 -37h5q36 0 58 -28q23 -27 24 -64q0 -3 -1 -6q-4 -78 -94 -78q-47 0 -75 32q-24 28 -24 72v13q6 76 91 121q56 30 150 30q23 0 48 -2q156 -10 219 -104q43 -65 43 -193v-22h-286 q-96 0 -171 -78t-75 -190q0 -20 2 -41q14 -109 82 -172q80 -78 186 -78q245 0 245 238q0 16 -1 34h65q-1 -18 -1 -35q0 -237 260 -237q143 0 219 100q45 59 51 150q1 11 1 22q0 107 -71 193q-78 94 -194 94h-279q-1 19 -1 37q-1 136 67 200q76 74 192 80q19 1 37 1 q196 0 254 -121q16 -37 16 -84q0 -111 -65 -140q51 -39 87 -123t36 -176q0 -176 -100.5 -288.5t-264.5 -112.5q-207 0 -274 139q-76 -141 -275 -141q-162 0 -263 105.5t-101 289.5zM748 772h229q37 0 113 -16q49 27 49 86q0 12 -2 26q-16 117 -187 117q-196 0 -202 -213z M1346 303v7q0 145 78 236q80 93 212 101q14 1 27 0q66 0 113 -16q6 53 6 94q-4 266 -150 266h-3q-118 0 -181 -67q8 1 15 1q31 1 51 -21q24 -26 24 -64q0 -70 -88 -70q-29 0 -47 14q-35 27 -35 76q0 25 10 45q66 137 279 137q135 0 217 -104q78 -99 78 -244v-14 q-2 -102 -25 -219q-27 -129 -33 -246q-1 -14 -1 -27q0 -96 38 -178h-86q-59 20 -102 72q-16 -29 -55 -55q-45 -27 -91 -29h-10q-102 0 -169 76q-70 80 -72 229zM1417 326v-10q0 -138 56 -205q45 -54 111 -54h7q37 2 79 34t56 83q-3 21 -3 47q0 50 10 123q16 123 39 229 q-31 18 -107 23h-10q-90 0 -158 -66q-78 -76 -80 -204z" />
<glyph unicode="S" horiz-adv-x="8" d="M-1272 1182v10q0 174 195 258q129 55 332 55q305 0 419 -51q188 -86 187 -272q-2 -88 -78 -142q-68 -45 -166 -49h-16q-90 0 -156 43q-78 51 -78 135q0 117 117 156q-88 10 -234 10q-453 0 -448 -164q2 -106 172 -137v-43h-7q-87 0 -157 45q-80 55 -82 146zM-571 1176 q0 -63 59 -101q49 -31 115 -31q164 0 184 105q2 11 2 21q0 48 -47 87q-53 41 -127 43h-8q-71 0 -123 -32q-55 -34 -55 -92z" />
<glyph unicode="T" horiz-adv-x="1382" d="M12 514q0 237 111 391q94 131 237 131q123 0 136 -121v-10q0 -40 -28 -92q-32 -59 -32 -94q0 -14 2 -27q25 -131 205 -131q195 0 238 156q8 27 8 55q0 76 -41 135q2 -16 2 -33q0 -76 -49 -116q-47 -38 -114 -37h-7q-68 2 -116 53q-44 47 -44 109v10q2 63 54.5 107 t117.5 44q119 0 195 -88q70 -82 69 -200q0 -133 -88 -216t-223 -83q-125 0 -203 61q-83 65 -83 175q0 12 1 24q2 39 41 100q29 49 29 81v7q-10 78 -86 78h-8q-92 -4 -161 -114.5t-79 -254.5q-2 -29 -2 -57q0 -81 18 -145q24 -86 101 -160q88 -86 188 -88h10q213 0 214 166 v67h69v-61q0 -173 195 -173q17 0 35 1q172 12 245 207q41 111 43 270v12q0 221 -73 361q-156 295 -482 299h-12q-155 0 -278 -51q-152 -61 -220 -187h-63q10 20 37 62q68 92 170 149q134 76 355 76h22q305 -6 470 -214t171 -495v-31q0 -262 -95 -440q-98 -183 -287 -183 q-13 0 -26 1q-41 2 -121 18q-88 37 -114 111q-35 -86 -158 -119q-40 -11 -97 -11q-16 0 -34 1q-135 6 -242 117q-123 129 -123 397zM584 885q0 -43 31.5 -75t74.5 -32q45 0 80 35q27 27 27 68q0 45 -29 77.5t-76 32.5q-51 0 -79.5 -32.5t-28.5 -73.5z" />
<glyph unicode="U" horiz-adv-x="1382" d="M20 598q10 178 103.5 308t236.5 130q55 0 94.5 -31.5t41.5 -89.5v-6q0 -41 -27 -77q-29 -38 -29 -66q0 -10 2 -25q10 -47 78 -75q61 -27 135 -27q158 0 215 121q12 27 13 63q0 59 -29 86q4 -18 4 -37q0 -74 -53 -114q-48 -37 -112 -37h-13q-68 2 -116 53q-44 47 -44 109 v10q2 63 54.5 107t117.5 44q115 0 186.5 -71.5t71.5 -169.5q0 -115 -89 -183.5t-208 -68.5q-117 1 -205 59q-83 55 -83 135v9q3 51 35 93q31 40 30 60q0 77 -86 76h-8q-92 -4 -158.5 -113.5t-77.5 -255.5q-2 -28 -2 -55q0 -81 18 -147q24 -86 99 -160q86 -86 186 -88h14 q71 0 103 18q27 16 27 47q0 9 -2 19q-6 33 -90 61q-74 26 -74 81q0 107 266 108q262 0 266 -97v-7q0 -57 -63 -81q-76 -27 -84 -59q-2 -7 -2 -14q0 -36 43 -56q44 -21 100 -21q9 0 19 1q172 12 245 207q41 111 43 270v12q0 221 -73 361q-156 295 -482 299h-12 q-155 0 -278 -51q-152 -61 -220 -187h-63q10 20 37 62q68 92 170 149q134 76 355 76h22q305 -6 470 -214t171 -495v-29q0 -265 -103 -442q-96 -166 -305 -182q-12 -1 -24 -1q-85 0 -145 50q-68 57 -68 146q0 29 8 57q12 43 73 72q52 25 52 56q0 39 -36 52q-34 12 -116 12 q-150 0 -156 -59q-2 -31 58 -59q70 -33 84 -72q10 -31 10 -68q0 -78 -47 -129q-57 -61 -164 -61q-27 0 -53 4q-133 16 -230 117q-129 134 -129 410q0 35 2 71zM584 885q0 -43 31.5 -75t74.5 -32q45 0 80 35q27 27 27 68q0 45 -29 77.5t-76 32.5q-51 0 -79.5 -32.5 t-28.5 -73.5z" />
<glyph unicode="V" horiz-adv-x="1382" d="M0 711v61h608q-8 94 -39 131q-57 70 -145 84q-31 5 -60 5q-58 0 -108 -19q55 -47 55 -96q0 -37 -30.5 -61.5t-77.5 -27.5h-5q-38 0 -67 30q-31 32 -31 69q0 12 4 22q16 45 37 63.5t80 47.5q43 20 182 20q141 0 213 -98q66 -88 68 -231h-293q-92 0 -196 -88 q-72 -63 -72 -182v-19q6 -112 89 -190q74 -69 169 -69q12 0 25 1q104 8 153 39q70 43 70 139v150h69v-144q0 -185 196 -185q17 0 34 1q172 12 246 207q39 106 43 270v15q0 211 -111 403q-33 -55 -98.5 -94t-141.5 -39q-115 0 -204 94q-29 29 -103 170q-51 96 -119 96 q-43 0 -100 -29v58q131 57 301 57q268 0 426 -158q106 -106 174 -260q74 -166 74 -323v-8q-2 -293 -90 -441q-55 -92 -143 -139q-81 -43 -163 -43h-14q-41 2 -121 18q-88 37 -114 111q-35 -86 -158 -119q-44 -10 -109 -10h-22q-162 6 -258 114.5t-96 276.5q0 147 98 252 q47 51 98 68h-223zM512 1311q61 -27 119 -123q61 -102 102 -127q49 -29 107 -29q137 0 188 127q-41 57 -139 111q-88 47 -275 47q-59 0 -102 -6z" />
<glyph unicode="W" horiz-adv-x="1359" d="M16 242q0 264 197 417q137 106 397 107h465q-33 100 -107.5 152.5t-254.5 68.5q-33 2 -68 2q-133 0 -231 -31q49 -25 49 -84q0 -45 -30 -74.5t-75 -29.5q-23 0 -47 8q-64 22 -64 85q0 14 3 30q27 152 395 152q29 0 60 -1q399 -12 450 -331h-520q-217 0 -334 -154 q-96 -126 -96 -302v-7q2 -205 141 -363q143 -164 346 -166h10q405 0 510 308q10 31 11 59q0 76 -43 105h106q6 -33 6 -68q0 -170 -112 -289q-199 -209 -488 -209q-299 0 -479 146q-197 160 -197 469z" />
<glyph unicode="X" horiz-adv-x="1382" d="M6 391q0 154 119 248q80 64 207 65q19 0 39 -2q131 -8 153 -8q66 0 94.5 22.5t28.5 74.5q0 66 -39 114q-66 84 -250 84q-45 0 -77 -8q65 -44 65 -121q0 -59 -36 -103t-95 -50q-16 -2 -31 -2q-75 0 -118 43q-37 41 -37 100q0 25 6 41q31 86 145 131q52 21 150 21 q25 0 53 -1q199 -8 268 -86q63 -72 64 -157q0 -49 -23 -95q-33 -63 -147 -63q-14 0 -142 10q-24 2 -46 2q-98 0 -154 -37q-101 -67 -101 -181v-11q6 -112 89 -190q74 -69 169 -69q12 0 25 1q104 8 154 39q70 43 69 139v150h70v-144q0 -185 195 -186q16 0 34 2 q172 12 246 207q41 111 43 270v12q0 221 -74 361q-156 295 -481 299h-12q-155 0 -279 -51q-152 -61 -219 -187h-63q10 20 36 62q68 92 170 149q128 72 353 72h24q309 -6 471 -211q168 -211 170 -494v-23q0 -270 -92 -448q-92 -183 -288 -183q-13 0 -27 1q-41 2 -121 18 q-88 37 -115 111q-35 -86 -157 -119q-44 -10 -109 -10h-23q-162 6 -258 114.5t-96 276.5zM96 854q0 -37 28 -64.5t64 -27.5q37 0 65 27.5t28 64.5t-28 64.5t-65 27.5t-64.5 -27.5t-27.5 -64.5z" />
<glyph unicode="Y" horiz-adv-x="1531" d="M45 532q8 268 217 426q109 82 217 82h78v-53h-82q-135 0 -242 -137q-96 -125 -98 -248v-9q0 -184 84 -296q92 -123 268 -133q19 -1 38 -1q270 0 290 251q1 9 1 17q0 57 -35 112q-40 63 -105 63q-72 -2 -115 -61q-25 -35 -25 -84q0 -11 1 -23h-62q-1 51 -1 90q0 78 3 109 q14 127 76 211q142 193 386 193q18 0 36 -1q207 -10 344 -160q135 -149 135 -354v-6q-4 -252 -164 -391q-149 -130 -387 -130q-17 0 -35 1v53q43 2 136 15q16 20 16 41q0 20 -23 53q-31 45 -39 67q-16 39 -16 78q0 68 49 131q50 66 143 66q17 0 35 -2q117 -14 154 -111 q10 53 10 84q0 66 -39 168q-92 250 -389 250q-139 0 -237 -64q-119 -78 -140 -235q55 59 140 65q9 1 19 1q89 0 151 -72q69 -78 71 -195v-12q0 -174 -109 -275q-112 -106 -313 -106q-203 0 -327 148q-115 140 -115 356v28zM1042 268q0 -35 19 -67q22 -39 22 -83 q0 -14 -2 -28q109 41 164 111q33 41 53 98q-10 109 -114 109q-57 0 -99.5 -41t-42.5 -99z" />
<glyph unicode="Z" horiz-adv-x="573" d="M197 1399q12 88 116 88q39 0 70 -19q57 -35 57 -120q0 -27 -6 -60q-10 -49 -56 -110.5t-102 -92.5h-67q41 27 87 92.5t48 110.5q-16 -4 -33 -4q-51 0 -87 32q-29 26 -28 65q0 9 1 18z" />
<glyph unicode="[" horiz-adv-x="2379" d="M33 582q6 152 65 268q68 133 185 170q90 29 139 -16q51 33 104 36q172 16 222 -122q109 76 264 108q70 14 168 14q221 0 342 -75q18 14 75 43q76 29 267 32q246 4 340 -94q88 -92 86 -229h-418q-137 0 -241.5 -89t-104.5 -216q0 -174 102.5 -265.5t290.5 -91.5 q274 0 397 74v-59q-20 -14 -102 -39q-72 -23 -154 -29q-131 -10 -178 -25q-80 -27 -86 -90q-6 -70 57.5 -109.5t182.5 -39.5q41 0 90 6q147 16 213 117q14 20 14 49q0 53 -45 90h70q41 -35 41 -92q0 -39 -21 -74q-84 -137 -334 -158q-35 -2 -71 -2q-156 0 -260 39 q-133 51 -134 150q0 115 107 143q-117 6 -238 98q-129 98 -129 271q0 184 123 290.5t324 106.5h442q-14 80 -62 133t-126 72q-51 12 -158 12q-236 0 -311 -57q35 0 55.5 -26.5t20.5 -63.5q0 -92 -95 -92q-10 0 -22 2q-78 14 -78 90q0 45 29 78q-115 61 -291 67 q-229 8 -408 -115q240 2 383 -139q129 -129 146 -332q12 -154 -56 -270q-76 -131 -219 -131q-195 2 -225 106q-35 -106 -238 -106q-96 0 -162.5 63.5t-70.5 149.5q-4 57 12 104q4 12 14.5 31t10.5 25q0 12 -21 12q-29 0 -61 -37v84q35 70 164 221q53 63 217 217q10 10 10 25 q0 33 -43 64.5t-104 27.5q-45 -4 -93.5 -44t-62.5 -87q20 12 43 12q31 0 53.5 -26.5t22.5 -59.5q0 -35 -25.5 -57.5t-62.5 -22.5q-33 0 -56 19q-43 33 -43 100q1 76 60 142q-35 18 -106.5 -10.5t-123.5 -147.5q-47 -111 -51 -240q-8 -360 148 -553h-74q-150 211 -135 570z M371 442q35 8 61 9q51 0 51 -31q0 -18 -20 -37q-39 -33 -39 -86q0 -45 20 -70q53 -63 154 -63q193 0 186 266h56q-4 -147 39 -206.5t145 -59.5q88 0 145 94q53 84 48 184q-8 139 -88 236.5t-216 130.5q-39 8 -92 8q-117 0 -165 -46t-134 -136q-110 -123 -151 -193z" />
<glyph unicode="\" horiz-adv-x="1339" d="M31 500q0 -139 41 -267q47 -152 139 -221h78q-203 168 -195 529q4 131 66.5 248.5t158.5 150.5q90 31 138 -6q-14 -16 -21 -49q-8 -45 22.5 -80t76.5 -35q39 0 65.5 27.5t26.5 66.5q0 72 -62 90q82 35 244 35q106 0 158 -12q78 -18 126 -71.5t62 -133.5h-442 q-201 0 -324 -106.5t-123 -290.5q0 -172 129 -271q94 -72 238 -98q76 -14 160 -14q113 0 213 26l-123 -122h82q66 47 153 47q109 0 111 -88q2 -78 -76 -131.5t-180 -53.5q-53 0 -101 17v-56q106 -29 211 -14q123 16 209 89t84 175q0 33 -26 72q-29 47 -74 61q-35 10 -74 11 q-88 0 -151 -45l209 208h-72q-86 -68 -139 -92q-88 -41 -203 -41q-188 0 -290.5 91.5t-102.5 265.5q0 127 104.5 216t241.5 89h418q2 137 -87 229q-94 98 -339 94q-150 -2 -222 -24q-39 -12 -65 -35q-23 23 -86 27q-55 2 -92 -9q-264 -80 -293 -442q-2 -27 -2 -57z" />
<glyph unicode="]" horiz-adv-x="1425" d="M61 774q6 168 134 318q121 143 272 143q82 0 137 -49q66 -59 66 -168q0 -160 -111 -309q-121 -162 -274 -162q-98 0 -160 55q-68 63 -64 172zM193 723q-2 -117 122 -121q117 -4 217 154q90 139 91 264q0 156 -123 156q-92 0 -203 -183q-102 -168 -104 -270zM307 -10 l733 1270h80l-727 -1270h-86zM754 213q6 168 133 317q121 143 272 144q82 0 137 -49q66 -59 66 -168q0 -160 -111 -310q-121 -162 -274 -161q-98 0 -160 55q-68 63 -63 172zM885 162q-2 -117 123 -121q117 -4 217 154q90 139 90 264q0 155 -123 155q-92 0 -203 -182 q-102 -168 -104 -270z" />
<glyph unicode="^" horiz-adv-x="737" d="M205 668q2 458 373 716h57q-154 -164 -217.5 -325.5t-65.5 -386.5q-2 -408 283 -721h-57q-154 102 -259 287q-117 207 -114 430z" />
<glyph unicode="_" horiz-adv-x="8" d="M-1040 1257q0 133 120 187q88 39 267 39q352 0 325 -258q-10 -106 -84 -160h-80q23 14 54 57q39 53 45 99q12 106 -70 163q-72 49 -190 50q-258 0 -258 -172q0 -137 215 -160q-97 27 -97 125q0 133 156 133q152 0 152 -148q0 -72 -58 -112q-47 -37 -119 -43 q-41 -4 -79 -4q-299 0 -299 204zM-721 1225q0 -39 26.5 -68t67.5 -24q74 8 76 75q4 90 -88 90q-31 0 -56.5 -20.5t-25.5 -52.5z" />
<glyph unicode="`" horiz-adv-x="225" d="M33 582q6 152 65 268q68 133 185 170q27 8 57 8q88 0 135 -72l-47 -34q-43 47 -90 47q-25 0 -68 -17q-74 -29 -125 -147q-47 -111 -51 -240q-8 -360 148 -553h-74q-150 211 -135 570z" />
<glyph unicode="a" horiz-adv-x="8" d="M-514 1343q38 61 80 61q5 0 10 -1q33 -6 33 -86v-318q37 -8 61 -22v170q27 -37 119 -37q78 0 139.5 46t61.5 122q0 182 -172 197q-13 1 -26 1q-85 0 -132 -59q-13 51 -69 51q-11 0 -23 -2q-59 -10 -82 -57v-66zM-330 1235v88q0 35 28 60.5t60 25.5q35 0 64 -37 q23 -31 22 -86q0 -90 -57 -110q-16 -6 -33 -7q-84 0 -84 66z" />
<glyph unicode="b" horiz-adv-x="1245" d="M29 591q0 214 172 337q159 112 397 112h4q242 0 403.5 -143t161.5 -373q0 -184 -106.5 -315t-286.5 -172h10q77 0 131 -29q68 -36 68 -102v-4q-4 -106 -129 -166q-104 -47 -252 -47q-160 0 -260 53q-113 59 -113 176v8q2 76 50 123h69q-51 -49 -57 -119q-1 -7 -1 -14 q0 -74 79 -119q74 -41 182 -41q25 0 47 2q225 23 225 140q0 51 -55 79q-47 23 -113 23h-188v53h34q202 0 310 45q271 114 271 375q0 15 -1 31q-10 176 -163 282q-134 95 -311 95h-25q-174 -6 -297 -86q-137 -88 -146 -238q-1 -12 -1 -24q0 -137 85 -225q92 -95 244 -95 q160 0 250 127q33 47 37 127q-34 -141 -194 -141h-13q-72 2 -122 58t-52 124v5q1 85 63 139t144 53h6q96 -4 164 -80q61 -70 61 -158q0 -145 -106 -229q-96 -76 -250 -78h-7q-181 0 -292 100q-127 115 -127 331zM436 512q0 -57 41 -96t98 -39t96.5 41t39.5 98t-41 96t-99 39 q-57 0 -96 -41t-39 -98z" />
<glyph unicode="c" horiz-adv-x="1331" d="M20 430q0 141 96.5 240.5t243.5 99.5h207v7q0 99 -55 157q-49 49 -123 53q-19 1 -37 1q-132 0 -182 -52q39 0 64.5 -25.5t25.5 -60.5q0 -42 -35 -64q-27 -17 -60 -17q-9 0 -18 1q-80 12 -79 90q0 100 102 150q65 31 159 31q13 0 27 -1q150 -6 219 -88q53 -61 54 -233 h-254q-109 0 -185.5 -73t-76.5 -171q0 -25 6 -51q29 -113 139 -182q123 -78 395 -78q457 0 514 260q6 27 7 53q0 98 -70 170t-174 72h-266q0 176 53 235q74 84 217 86q25 0 35 -2q23 20 153 99q88 53 90 100q-14 -4 -28 -4q-70 0 -70 61q0 72 76 78h12q71 0 88 -65 q6 -23 6 -43q0 -92 -104 -152q-43 -20 -148 -78q37 0 76 -22q94 -54 94 -146q0 -50 -32 -93q-30 -40 -74 -46q162 -115 162 -326q0 -190 -178 -307q-164 -106 -443 -106q-311 0 -470 119.5t-159 322.5zM723 770h209q-47 37 -47 102q0 72 47 115h-13q-97 -1 -147 -57 t-49 -146v-14zM946 872q0 -49 39 -79q29 -23 66 -23q49 0 79 39q20 27 21 61q0 53 -39 82q-27 20 -63 21q-49 0 -80 -37q-23 -27 -23 -64z" />
<glyph unicode="d" horiz-adv-x="634" d="M-18 240h45q4 -68 45 -117q49 -59 137 -60q96 0 149 160q41 125 41 289q0 172 -37 295q-51 158 -149 158q-155 0 -188 -172h-43q-2 88 66.5 165.5t162.5 77.5q180 0 276 -174q82 -145 82 -354q0 -199 -88 -344q-102 -166 -272 -166q-102 0 -167 68q-60 64 -60 159v15z " />
<glyph unicode="e" horiz-adv-x="749" d="M-2 885v112h631v-73q-66 -31 -162 -82q-102 -66 -123 -82q-80 -57 -135 -129q-84 -109 -84 -236q0 -39 8 -76q37 -159 232 -159h2q178 0 225 129q12 31 12 73q0 66 -29 125h54q17 -29 31 -101q10 -56 11 -91q0 -10 -1 -19q-14 -147 -121 -225q-75 -55 -188 -55h-15 q-150 4 -238 89t-88 241q0 45 9 96q23 147 172 287q55 51 137 106t123 70h-463z" />
<glyph unicode="f" horiz-adv-x="1073" d="M12 512q0 279 215 434q135 98 334 98q139 0 251 -63t159 -178h-60q-43 96 -145 149q-92 47 -205 47q-168 0 -293 -94q-170 -130 -170 -367q0 -165 133 -280q109 -94 310 -94q291 0 370 225q16 45 17 92q0 111 -80 199q-74 82 -168 92q96 -70 96 -199q0 -37 -12 -69 q-59 -160 -225 -162h-5q-101 0 -172 72q-73 75 -73 180q0 94 78.5 161.5t187.5 69.5h14q215 0 328 -116q109 -113 109 -279q0 -195 -125 -309q-131 -121 -340 -121q-131 0 -213 29q-90 33 -176 121q-139 141 -140 362zM348 582q0 -104 88 -158q45 -27 96 -27q104 0 158 88 q27 45 27 97q0 104 -88 157q-45 27 -97 27q-104 0 -157 -88q-27 -45 -27 -96z" />
<glyph unicode="g" horiz-adv-x="1290" d="M25 537q0 201 122 342q129 150 336 157q23 1 43 1q86 0 121 -21v-53q-41 21 -126 21q-17 0 -36 -1q-176 -6 -281 -134q-94 -114 -94 -263q0 -18 1 -37q12 -184 172 -291q137 -94 328 -94h16q207 4 355 143t159 340q1 30 1 60q0 212 -77 348q-143 248 -416 264 q-26 2 -50 2q-170 0 -298 -72q-135 -74 -178 -192h-57q33 143 204 235q154 84 337 84h24q250 -8 403 -170q195 -205 195 -542q0 -299 -154 -480q-158 -186 -432 -192h-24q-275 0 -426 135q-168 152 -168 410z" />
<glyph unicode="h" horiz-adv-x="1372" d="M23 479q0 233 135 398q92 113 215 145q61 16 127 16q72 0 118 -22v-55q-36 26 -116 26h-6q-184 0 -299 -162q-101 -143 -101 -327v-11q4 -152 87 -243.5t218 -91.5q106 0 170 60t64 173v88h57v-88q0 -111 76 -174q70 -59 186 -59q147 0 211 96q49 72 56 145q2 18 2 36 q0 123 -86 206q-90 86 -226 86h-272q-4 28 -4 54q0 80 37 145q71 122 261 122h3q100 0 151 -16q74 -25 121 -98q27 -41 27 -103q0 -96 -61 -125q137 -108 137 -321q0 -129 -72 -234q-101 -149 -283 -149h-2q-229 0 -280 141q-53 -141 -285 -141q-176 0 -271 130t-95 353z M700 772h250h7q79 0 126 -22q45 29 45 96q0 35 -18 65q-45 74 -178 74q-225 0 -232 -213z" />
<glyph unicode="i" horiz-adv-x="1376" d="M-41 717v55h635q-8 123 -62.5 170t-166.5 47q-129 0 -154 -37h5q36 0 58 -28q23 -27 24 -64q0 -3 -1 -6q-4 -78 -94 -78q-47 0 -75 32q-24 28 -24 72v13q6 76 91 121q56 30 150 30q23 0 48 -2q156 -10 219 -104q43 -65 43 -193v-22h-270q-98 0 -180 -80t-82 -192 q0 -18 2 -37q14 -109 82 -172q80 -78 186 -78q245 0 245 238q0 16 -1 34h65q-1 -18 -1 -35q0 -237 260 -237q143 0 219 100q45 59 51 150q1 11 1 22q0 107 -71 193q-78 94 -194 94h-279q-1 19 -1 37q-1 136 67 200q76 74 192 80q19 1 37 1q196 0 254 -121q16 -37 16 -84 q0 -111 -65 -140q51 -39 87 -123t36 -176q0 -176 -100.5 -288.5t-264.5 -112.5q-207 0 -274 139q-76 -141 -275 -141q-162 0 -263 105.5t-101 289.5q0 256 182 328h-256zM748 772h229q37 0 113 -16q49 27 49 86q0 12 -2 26q-16 117 -187 117q-196 0 -202 -213z" />
<glyph unicode="j" horiz-adv-x="1314" d="M25 430q0 145 95 244.5t253 99.5h258q-6 115 -82 168q-53 37 -189 37q-110 0 -153 -37h5q36 0 58 -28q22 -25 22 -56q0 -5 -1 -10q-8 -66 -90 -70h-6q-39 0 -72 27q-35 29 -35 72q0 25 12 49q45 90 176 110q34 4 90 4h40q178 -4 249 -108q49 -72 50 -164q0 -25 -5 -49 h-290q-131 0 -211 -70q-74 -64 -74 -158q0 -16 2 -32q16 -123 143 -215q113 -80 357 -80q115 0 233 53q106 49 166 119q131 154 131 395q0 248 -119 402q-149 192 -429 192h-3q-193 0 -327 -88q-102 -66 -156 -180h-66q45 125 164 213q149 110 383 110h4q322 0 481.5 -213 t159.5 -520t-165.5 -481t-452.5 -174q-272 0 -420 98q-80 53 -131 141q-55 96 -55 199z" />
<glyph unicode="k" horiz-adv-x="1519" d="M41 487q0 -129 43 -227q115 -266 446 -266q182 0 304 86q159 114 159 307q0 139 -84 238q-41 49 -118.5 81.5t-155.5 32.5q-35 0 -64 -6q88 172 306 172q45 0 98 -8q193 -27 276 -192q49 -94 49 -230q0 -221 -116 -328q-102 -94 -273 -94q-23 0 -43 2v-57h19 q218 0 354 90q217 143 217 404q0 258 -178 428q-122 116 -319 116h-3q-227 0 -380 -188q-10 88 -71 138t-147 50q-88 0 -151.5 -56t-71.5 -144q-1 -11 -1 -22q0 -50 22 -84q28 -42 84 -42q37 0 61.5 22.5t24.5 57.5q0 33 -22.5 59.5t-63.5 26.5q-20 0 -45 -8q16 53 39 78 q43 51 126 53h5q66 0 108 -49q43 -51 43 -125q0 -27 -6 -51q-25 -117 -147 -203q-53 -37 -119 -37q-31 0 -53 8q-82 33 -82 90h-60q-10 -59 -10 -123zM94 524q35 -63 152 -63q98 0 151 47q94 80 140 154q15 26 76 26h5q53 0 101 -14q63 -18 103 -84t40 -156 q0 -145 -123 -231q-109 -74 -260 -74q-186 0 -278 86q-49 47 -80 139q-27 81 -27 152v18z" />
<glyph unicode="l" horiz-adv-x="1544" d="M20 348v84q35 70 164 221q53 63 217 217q10 10 11 25q0 33 -43 65q-38 28 -91 27h-14q-45 -4 -93 -44t-62 -87q20 12 43 12q31 0 53 -26.5t22 -59.5q0 -35 -25.5 -57.5t-62.5 -22.5q-33 0 -55 19q-43 33 -43 100q0 82 64.5 146.5t146.5 72.5q18 2 34 1q143 0 187 -123 q109 76 264 108q53 10 168 14h17q229 0 391 -153q166 -159 167 -391q0 -11 -1 -21q-6 -205 -127 -338q-129 -139 -336 -139q-39 0 -82 6v53q33 -6 63 -6q145 0 232 129q69 104 69 237q0 22 -2 44q-14 184 -117.5 314t-267.5 161q-53 10 -110 10q-184 0 -293 -74h7 q235 0 376 -139q129 -129 145 -332q2 -23 2 -46q0 -126 -57 -224q-76 -131 -219 -131q-195 2 -225 106q-35 -106 -238 -106q-96 0 -162.5 63.5t-70.5 149.5q-1 11 -1 22q0 44 13 82q4 12 14 31t10 25q0 12 -20 12q-29 0 -62 -37zM96 442q35 8 62 9q51 0 51 -31 q0 -18 -21 -37q-38 -32 -38 -83q0 -48 20 -73q53 -63 154 -63q186 0 186 248v18h55q0 -13 -1 -24q0 -128 40 -182q43 -60 146 -60q88 0 145 94q48 75 48 164q0 10 -1 20q-8 139 -88 236.5t-215 130.5q-39 8 -92 8q-117 0 -165 -46t-134 -136q-111 -123 -152 -193z" />
<glyph unicode="m" horiz-adv-x="1359" d="M33 430q0 141 96 240.5t244 99.5h207v7q0 99 -56 157q-49 49 -123 53q-19 1 -37 1q-132 0 -182 -52q39 0 64.5 -25.5t25.5 -60.5q0 -42 -34 -64q-27 -17 -60 -17q-9 0 -18 1q-80 12 -80 90q0 100 102 150q65 31 159 31q14 0 28 -1q150 -6 219 -88q53 -61 53 -233h-254 q-109 0 -185.5 -73t-76.5 -171q0 -25 6 -51q29 -113 139 -182q123 -78 396 -78q457 0 514 260q6 27 6 53q0 98 -69.5 170t-174.5 72h-266q0 176 53 235q76 84 217 86h13q111 0 167 -32q90 -53 103 -150q1 -11 1 -22q0 -82 -81 -131q133 -109 133 -304q0 -190 -178 -307 q-164 -106 -442 -106q-311 0 -470 119.5t-159 322.5zM735 770h230q51 0 86 -10q49 33 51 92v5q0 59 -45 94q-47 36 -123 36q-100 1 -152 -59q-48 -55 -47 -144v-14z" />
<glyph unicode="n" d="M29 496q0 225 133 378q141 164 368 164q145 0 252 -84q113 -90 113 -229q0 -29 -6 -59q-12 -72 -123 -144q-86 -55 -90 -57q-49 -43 -51 -103v-12q-1 -93 61 -140q56 -43 142 -43q14 0 28 1q184 14 283 235q59 133 59 340q0 117 -52 252t-132 213q-135 133 -389 133 q-172 0 -301 -75q-137 -80 -181 -222h-65q18 156 192 267q145 92 353 92q178 0 276 -37q117 -43 213 -164q188 -233 188 -549q0 -256 -106 -440q-121 -209 -326 -213h-20q-133 0 -203 51q-57 44 -90 107q-12 -70 -67.5 -116t-135.5 -46q-150 0 -241 164q-82 143 -82 336z M113 397q11 66 85 108q67 38 135 38h13q59 -4 117 -45q65 -47 88 -117q20 102 108 156q68 41 91 61q41 39 41 89q0 90 -99 136q-80 39 -200 39q-147 0 -247 -90t-126 -229q-6 -33 -6 -146zM154 303q0 -70 48 -117t115 -47q70 0 117 48.5t47 113.5q0 70 -49 118t-117 48 q-70 0 -115.5 -48t-45.5 -116z" />
<glyph unicode="o" horiz-adv-x="1095" d="M33 375q0 184 123 290.5t323 106.5h441q-10 74 -66 125q-98 92 -279 92q-235 0 -311 -57q35 0 55.5 -26.5t20.5 -63.5q0 -39 -25.5 -65.5t-66.5 -26.5q-47 0 -76 34q-22 26 -22 60q0 10 2 22q14 92 139 142q76 29 266 32h17q218 0 317 -100q90 -92 92 -223h-418 q-137 0 -241.5 -89t-104.5 -216q0 -174 102.5 -265.5t290.5 -91.5q274 0 398 74v-59q-20 -14 -103 -39q-74 -23 -155 -31q-201 -18 -220 -131q-1 -8 -1 -15q0 -52 61 -90q70 -44 192 -43q37 0 78 5q147 16 213 116q14 20 15 47q0 39 -25 72h74q16 -29 16 -70q0 -43 -20 -75 q-84 -137 -334 -158q-35 -2 -72 -2q-156 0 -260 39q-133 51 -133 149q0 106 117 150q-160 10 -290 109.5t-130 271.5z" />
<glyph unicode="p" horiz-adv-x="1331" d="M-31 645v121h682q-4 121 -82 176q-53 37 -188 37q-111 0 -154 -37h5q36 0 58 -28q22 -25 22 -56q0 -5 -1 -10q-8 -66 -90 -70h-6q-39 0 -71 27q-35 29 -35 72q0 25 12 49q45 90 176 110q34 4 89 4h40q178 -4 250 -108q49 -74 49 -168q0 -27 -4 -53h-186q-53 0 -177 -47 q-68 -27 -118 -78q-63 -63 -64 -131q0 -125 127 -211q119 -80 344 -80q115 0 234 53q106 49 166 119q131 154 131 395q0 248 -119 402q-149 192 -429 192h-3q-193 0 -328 -88q-102 -66 -156 -180h-65q45 125 164 213q149 110 383 110h4q322 0 481.5 -213t159.5 -520 t-166 -481t-453 -174q-283 0 -432 110q-167 123 -167 307q0 12 1 25q6 94 80 164q41 37 205 115h-207q-41 0 -90 -21.5t-72 -46.5z" />
<glyph unicode="q" horiz-adv-x="8" d="M-1266 -201q0 98 60 146h67q-47 -43 -47 -95q0 -88 146 -88h872v492q27 41 66 164v-793h-1002q-141 0 -160 142q-2 16 -2 32z" />
<glyph unicode="r" horiz-adv-x="1183" d="M16 504v15q0 168 86 288q76 104 240 199q78 41 209 120q108 76 141 127q-55 10 -55 72q0 27 12 43q27 35 70 35q33 0 62.5 -19.5t29.5 -64.5q0 -33 -16 -62q-25 -45 -125 -116q-92 -66 -174 -105q27 4 59 4q102 0 213 -34q121 -37 188 -101q174 -162 174 -391 q0 -236 -167 -385q-135 -119 -345 -133q-26 -2 -51 -2q-255 0 -415 166q-129 135 -136 344zM100 563q0 -27 4 -55q20 -158 152 -256q125 -94 295 -94q176 0 309 90q143 100 168 270q4 31 4 60q0 174 -135 290.5t-319 116.5q-195 0 -336.5 -121t-141.5 -301z" />
<glyph unicode="s" horiz-adv-x="8" d="M-1260 1182v11q0 176 195 257q133 55 377 55q231 0 366 -59q188 -84 187 -264q-2 -90 -68.5 -138.5t-175.5 -52.5v47q171 19 171 122q0 7 -1 14q-10 88 -182 129q-123 32 -291 32h-10q-182 0 -312 -30q-176 -41 -182 -134v-9q0 -97 172 -128v-43h-7q-87 0 -157 45 q-80 55 -82 146z" />
<glyph unicode="t" horiz-adv-x="1290" d="M-20 678v55h651q-6 123 -82 176q-53 37 -189 37q-111 0 -153 -37h5q36 1 58 -27q21 -25 22 -57q0 -5 -1 -10q-8 -66 -90 -70h-6q-40 0 -72 27q-35 29 -35 72q0 25 12 49q45 90 176 111q34 4 90 4h40q178 -4 249 -109q49 -72 50 -172q0 -25 -5 -49h-288q-127 0 -202 -62 q-71 -58 -71 -155v-10q4 -143 164 -224q127 -63 295 -63h29q207 6 355 144t159 339q1 25 1 50q0 205 -89 358q-33 -53 -98.5 -90t-139.5 -37q-113 0 -203 92q-29 29 -102 170q-51 96 -119 96q-43 0 -100 -29v58q131 57 301 57q268 0 426 -158q98 -98 154.5 -247.5 t56.5 -302.5q0 -299 -154 -480q-158 -186 -432 -192h-25q-277 0 -430 131q-147 127 -147 311q0 186 162 244h-223zM463 1311q61 -27 119 -123q61 -102 102 -127q49 -29 107 -29q137 0 188 127q-41 57 -139 111q-88 47 -275 47q-59 0 -102 -6z" />
<glyph unicode="u" horiz-adv-x="1331" d="M25 561q0 186 79 322q92 152 248 153q117 0 140 -118q1 -8 1 -16q0 -40 -32 -93q-41 -70 -41 -107q0 -78 61.5 -130t141.5 -60q14 -2 28 -1q75 0 137 45q72 54 89 144q4 27 4 50q0 59 -37 118q-8 -66 -58 -108q-47 -40 -108 -39h-6q-68 4 -116 54q-44 46 -44 108v10 q2 63 53 106t119 45h5q122 0 196 -102q65 -90 65 -211v-18q-4 -135 -97 -231q-88 -90 -207 -89h-15q-129 7 -213 97q-75 81 -75 195q0 14 1 28q4 39 45 102q33 51 33 83v7q-10 78 -90 78h-4q-86 -2 -148.5 -106.5t-62.5 -235.5q0 -199 157 -340q152 -133 357 -137h16 q223 0 379 166q156 168 156 401q0 223 -154 396t-373 176h-10q-160 0 -283 -60q-135 -65 -194 -186h-70q49 143 211 223q150 76 342 76q273 0 447 -207q173 -205 172 -499v-7q-2 -293 -171 -472t-452 -179q-268 0 -440 147q-182 158 -182 422zM573 887q0 -43 33 -76t76 -33 t76 33t33 76t-33 75.5t-76 32.5t-76 -32.5t-33 -75.5z" />
<glyph unicode="v" horiz-adv-x="1382" d="M-31 711v61h623q-8 80 -43 131q-47 68 -146 84q-31 5 -60 5q-58 0 -107 -19q55 -35 55 -90q0 -95 -103 -95h-6q-50 2 -78 39q-24 31 -23 67q0 8 1 15q10 78 117 113q61 21 130 21q26 0 54 -3q152 -14 215.5 -100t65.5 -229h-285q-121 0 -202 -85q-75 -79 -75 -188v-16 q6 -112 88 -186q80 -73 189 -72h6q223 4 223 178v150h70v-144q0 -185 202 -185q13 0 27 1q172 10 246 207q41 111 43 270v12q0 221 -74 361q-156 295 -481 299h-12q-155 0 -279 -51q-152 -61 -219 -187h-63q10 20 36 62q68 92 170 149q128 72 353 72h24q309 -6 471 -211 q168 -211 170 -494v-23q0 -275 -92 -448q-96 -183 -289 -183q-13 0 -26 1q-41 2 -121 18q-88 37 -115 111q-35 -86 -157 -119q-44 -10 -109 -10h-23q-162 6 -258 114.5t-96 276.5q0 154 98 252q53 53 99 68h-234z" />
<glyph unicode="w" horiz-adv-x="1257" d="M25 406q2 166 127 266q117 94 286 94h258q-25 184 -164 217q-53 12 -104 12q-86 0 -166 -37q69 -31 69 -90q0 -12 -3 -24q-15 -75 -91 -75q-7 0 -16 1q-90 8 -90 87v7q8 176 314 176h14q135 -2 214 -86t81 -233h-230q-129 -1 -225 -99q-94 -96 -94 -211q0 -147 97 -243 q95 -94 255 -111q52 -5 107.5 -5t113.5 5v703q0 131 62.5 205.5t154.5 74.5h160v-57q-30 8 -54 8q-43 0 -65 -26q-12 -14 -12 -29q0 -27 76 -103.5t80 -136.5q1 -12 1 -24q-1 -86 -53 -142q-60 -64 -161 -65q-82 0 -111 31v-430q203 33 303 163v-127q-125 -61 -303 -90v-352 h-78v346q-71 -10 -156 -10q-75 0 -159 8q-195 18 -311 117q-127 104 -127 280v5zM856 551q22 -16 47 -16q15 0 31 6q59 20 86 102q10 29 10 62q0 53 -41 157q-25 63 -24 78q0 27 24 49q-20 -10 -41.5 -21.5t-46.5 -39.5q-45 -53 -45 -166v-211z" />
<glyph unicode="x" horiz-adv-x="892" d="M18 401q0 172 125 291q115 109 275 109q172 0 291 -125q111 -115 110 -277q0 -172 -125 -288q-115 -109 -274 -109q-174 0 -293 125q-109 115 -109 274zM106 455q0 -123 97 -217q76 -74 221 -74q123 0 199 65q98 86 108 193q1 15 1 30q0 106 -74 198q-85 104 -240 104 q-102 -1 -176 -52q-135 -92 -136 -247z" />
<glyph unicode="y" horiz-adv-x="1531" d="M20 446q6 170 148 267q84 57 192 57h82q0 180 -139 205q-18 4 -37 4q-78 0 -127 -66q5 1 10 1q33 0 58 -24q29 -26 29 -63t-27 -61q-25 -21 -60 -21h-6q-87 4 -87 102q0 8 1 17q6 76 73 127t151 51q98 0 161 -75q57 -70 62 -172v-14q0 -33 -8 -64h-152 q-92 0 -161.5 -62.5t-80.5 -150.5q-1 -13 -1 -26q0 -114 109 -206q122 -104 277 -108h17q136 0 235 59q119 70 129 199q1 9 1 17q0 57 -35 112q-39 63 -105 63q-72 -2 -115 -61q-25 -35 -25 -84q0 -11 1 -23h-62q0 8 -2 54v59q0 190 80 297q137 180 369 184h5 q200 0 337 -154q137 -153 137 -360v-6q-4 -252 -164 -391q-149 -130 -387 -130q-17 0 -35 1v53q117 4 181 21q92 25 159 90q123 117 123 285q0 90 -37 198q-82 246 -391 246q-285 0 -321 -291q55 59 139 66q9 1 18 1q90 0 153 -72q69 -79 71 -196v-10q0 -171 -133 -279 q-138 -112 -343 -112q-209 0 -337 115q-130 117 -130 316v15z" />
<glyph unicode="z" horiz-adv-x="573" d="M109 1348q0 86 57 120q31 18 70 19q104 0 116 -88q1 -9 1 -18q-1 -39 -29 -65q-36 -32 -86 -32q-16 0 -33 4q2 -45 48 -110.5t87 -92.5h-68q-55 31 -101 92.5t-56 110.5q-6 33 -6 60z" />
<glyph unicode="{" horiz-adv-x="2256" d="M51 594q12 188 124 316t284 128h334v-59q-197 4 -312 -96q-145 -127 -139 -334q6 -193 141 -313q53 -47 125 -64q45 -8 142 -8q129 0 215 63q96 70 108 195q6 68 -23.5 120t-91.5 68q-25 6 -47 6q-59 0 -103 -43t-44 -102q0 -16 4 -33h-59q-8 45 -9 105q0 190 82 303 q145 201 385 194q131 -2 240 -71q25 20 70 39q76 29 266 32q246 4 340 -94q88 -92 86 -229h-418q-137 0 -240.5 -89t-103.5 -216q0 -174 102.5 -265.5t290.5 -91.5q274 0 398 74v-59q-20 -14 -103 -39q-74 -23 -156 -31q-201 -18 -219 -131q-10 -61 59.5 -104.5t192.5 -43.5 q37 0 78 5q147 16 213 116q14 20 14 47q0 39 -24 72h74q16 -29 16 -70q0 -43 -21 -75q-84 -137 -333 -158q-35 -2 -72 -2q-156 0 -260 39q-133 51 -133 149q0 106 116 150q-160 10 -289.5 109.5t-129.5 271.5q0 184 125 293q119 104 319 104h442q-14 80 -62 133t-126 72 q-51 12 -158 12q-236 0 -311 -57q35 0 55.5 -26.5t20.5 -63.5q0 -92 -94 -92q-43 0 -71 27.5t-28 70.5q0 39 25 74q-90 66 -219 61q-145 -4 -254 -113q-100 -100 -115 -247q66 55 143 55q27 0 58 -6q180 -33 200 -283q12 -143 -90 -257t-247 -130q-41 -4 -121 -2 q-125 2 -201 41q-68 35 -139 125q-119 147 -113 393q4 127 74 244q63 109 153 166q-23 4 -45 4q-141 0 -231 -125q-82 -109 -90 -262q-12 -213 49 -385q31 -86 94 -189h-74q-84 117 -122 281q-29 117 -17 301z" />
<glyph unicode="|" horiz-adv-x="1306" d="M31 500q0 31 2 57q29 362 293 442q37 10 92 9q63 -4 86 -27q27 23 65 35q72 23 222 24q246 4 339 -94q88 -92 87 -229h-418q-137 0 -241.5 -89t-104.5 -216q0 -174 102 -265.5t291 -91.5q274 0 397 74v-59q-20 -14 -102 -39q-74 -23 -156 -31q-201 -18 -219 -131 q-10 -61 59.5 -104.5t192.5 -43.5q37 0 78 5q147 16 213 116q14 20 14 47q0 39 -25 72h74q16 -29 17 -70q0 -43 -21 -75q-84 -137 -334 -158q-35 -2 -71 -2q-156 0 -261 39q-133 51 -133 149q0 106 117 150q-160 10 -290 109.5t-130 271.5q0 184 123 290.5t324 106.5h442 q-14 80 -62.5 133t-125.5 72q-51 12 -158 12q-162 0 -244 -35q61 -18 62 -90q0 -39 -27 -66.5t-65 -27.5q-45 0 -76 35t-23 80q2 16 21 49q-47 37 -138 6q-96 -33 -158.5 -150.5t-66.5 -248.5q-8 -360 195 -529h-78q-92 70 -139 221q-41 127 -41 267z" />
<glyph unicode="}" horiz-adv-x="716" d="M72 285v100h522v-100h-522zM72 461v100h522v-100h-522z" />
<glyph unicode="~" horiz-adv-x="1622" d="M33 582q6 152 65 268q68 133 185 170q31 10 73 6q51 -2 76 -25q27 16 62 25q66 16 155 14q143 -4 213 -98q61 -84 68 -231h-289q-109 0 -201 -88q-78 -74 -71 -201q6 -113 89 -190.5t193 -67.5q104 8 154 39q70 43 69 139v150h70v-144q0 -201 230 -184q172 12 245 207 q41 111 43 270q2 229 -73 373q-156 295 -482 299q-162 2 -291 -51q-152 -61 -219 -187h-63q10 20 37 62q68 92 170 149q135 76 377 72q309 -6 471 -211q168 -211 170 -494q2 -272 -91.5 -468.5t-316.5 -184.5q-41 2 -121 18q-88 37 -115 111q-35 -86 -157 -119 q-51 -12 -131 -10q-162 6 -258.5 114.5t-96.5 276.5q0 147 99 252q47 51 98 68h-211v61h604q-8 80 -47 131q-55 74 -145 84t-166 -14q53 -35 53 -86q0 -41 -30.5 -71t-77.5 -28q-43 2 -73 32t-30 69q0 41 31 72q-33 23 -107 -7t-125 -149q-47 -111 -51 -240 q-8 -360 148 -553h-74q-150 211 -135 570z" />
<glyph horiz-adv-x="860" />
<glyph unicode="&#xa0;" horiz-adv-x="122" d="M37 715v354h289v-354h-289z" />
<glyph unicode="&#xa1;" horiz-adv-x="270" d="M51 68q0 31 22.5 52t51.5 21q31 0 52.5 -22.5t21.5 -50.5q0 -31 -22.5 -52.5t-51.5 -21.5q-31 0 -52.5 22.5t-21.5 51.5z" />
<glyph unicode="&#xa2;" horiz-adv-x="1306" d="M31 500q0 31 2 57q29 362 293 442q88 27 161 -8q8 6 33 15q-86 12 -149 69q-68 66 -70 158q-6 184 195 268q123 51 290 51q176 0 293 -51q188 -84 187 -268q-2 -164 -211 -229q43 -16 78 -56q94 -102 84 -231h-418q-137 0 -241.5 -89t-104.5 -216q0 -174 102 -265.5 t291 -91.5q274 0 397 74v-59q-20 -14 -102 -39q-74 -23 -156 -31q-201 -18 -219 -131q-10 -61 59.5 -104.5t192.5 -43.5q37 0 78 5q147 16 213 116q14 20 14 47q0 39 -25 72h74q16 -29 17 -70q0 -43 -21 -75q-84 -137 -334 -158q-35 -2 -71 -2q-156 0 -261 39 q-133 51 -133 149q0 106 117 150q-160 10 -290 109.5t-130 271.5q0 184 123 290.5t324 106.5h442q-14 80 -62.5 133t-125.5 72q-51 12 -158 12q-236 0 -311 -57q35 0 55 -26.5t20 -63.5q0 -39 -25.5 -65.5t-66.5 -26.5q-47 0 -75.5 34.5t-20.5 81.5t41 80q-35 18 -107 -6 q-96 -33 -158.5 -150.5t-66.5 -248.5q-8 -360 195 -529h-78q-92 70 -139 221q-41 127 -41 267zM377 1223q-4 -68 53 -121q76 -68 215 -66q10 0 70 2q53 2 76 2q129 0 165 -6q90 4 167 58.5t69 132.5q-18 164 -410 164q-393 0 -405 -166z" />
<glyph unicode="&#xa3;" horiz-adv-x="1306" d="M31 500q0 31 2 57q29 362 293 442q88 27 161 -8q8 6 33 15q-86 12 -149 69q-68 66 -70 158q-6 184 195 268q123 51 290 51q176 0 293 -51q188 -84 187 -268q-2 -94 -70 -151.5t-182 -59.5q63 -14 119 -74q94 -102 84 -231h-418q-137 0 -241.5 -89t-104.5 -216 q0 -174 102 -265.5t291 -91.5q274 0 397 74v-59q-20 -14 -102 -39q-74 -23 -156 -31q-201 -18 -219 -131q-10 -61 59.5 -104.5t192.5 -43.5q37 0 78 5q147 16 213 116q14 20 14 47q0 39 -25 72h74q16 -29 17 -70q0 -43 -21 -75q-84 -137 -334 -158q-35 -2 -71 -2 q-156 0 -261 39q-133 51 -133 149q0 106 117 150q-160 10 -290 109.5t-130 271.5q0 184 123 290.5t324 106.5h442q-14 80 -62.5 133t-125.5 72q-51 12 -158 12q-236 0 -311 -57q35 0 55 -26.5t20 -63.5q0 -39 -25.5 -65.5t-66.5 -26.5q-47 0 -75.5 34.5t-20.5 81.5t41 80 q-35 18 -107 -6q-96 -33 -158.5 -150.5t-66.5 -248.5q-8 -360 195 -529h-78q-92 70 -139 221q-41 127 -41 267zM377 1223q-4 -68 53 -121q76 -68 215 -66q10 0 70 2q53 2 76 2q121 0 165 -6q-72 14 -120 53q-64 54 -64 134q0 117 117 155q-82 10 -158 10q-154 0 -248 -40 q-100 -43 -106 -123zM836 1200q8 -49 57 -83t115 -38q74 -4 125 30t61 91q10 63 -45 106.5t-129 45.5q-86 2 -137 -37q-59 -41 -47 -115z" />
<glyph unicode="&#xa4;" horiz-adv-x="524" d="M51 -8h420v-43h-420v43z" />
<glyph unicode="&#xa5;" horiz-adv-x="1095" d="M33 375q0 184 123 290.5t323 106.5h443q-14 80 -62.5 133t-126.5 72q-51 12 -158 12q-236 0 -311 -57q35 0 55.5 -26.5t20.5 -63.5q0 -39 -25.5 -65.5t-66.5 -26.5q-47 0 -76 34.5t-20 81.5q14 92 139 142q76 29 266 32q246 4 340 -94q88 -92 86 -229h-418 q-137 0 -241.5 -89t-104.5 -216q0 -174 102.5 -266.5t290.5 -94.5q266 -2 416 86v-512h-108q-66 88 -140 111q-35 10 -75 10q-90 0 -197 -49q-184 -86 -258 -86q-92 0 -151.5 52t-59.5 142q0 76 41 121t78 54h100q-66 -14 -107.5 -56.5t-27.5 -97.5q18 -66 108 -66 q31 0 60 11q70 29 139 59q106 41 168 53q31 6 74 6q119 0 188 -41q62 -37 103 -86v281q-164 -51 -332 -53q-180 -2 -287 24q-96 25 -182 90q-129 98 -129 271z" />
<glyph unicode="&#xa6;" horiz-adv-x="552" d="M141 102q12 88 117 88q39 0 70 -18q57 -35 57 -121q0 -27 -6 -59q-10 -49 -56.5 -110.5t-101.5 -92.5h-67q41 27 86 88q47 70 49 115q-16 -4 -33 -4q-51 0 -87 31.5t-28 82.5zM152 502q0 43 30.5 72.5t73.5 29.5q57 0 86 -45q16 -27 16 -57q0 -43 -29.5 -73t-72.5 -30 t-73.5 30t-30.5 73z" />
<glyph unicode="&#xa7;" horiz-adv-x="1095" d="M33 375q0 184 123 290.5t323 106.5h443q-14 80 -62.5 133t-126.5 72q-51 12 -158 12q-236 0 -311 -57q35 0 55.5 -26.5t20.5 -63.5q0 -39 -25.5 -65.5t-66.5 -26.5q-47 0 -76 34.5t-20 81.5q16 96 135 140q-86 12 -150 69q-68 66 -69 158q-6 184 194 268q123 51 291 51 q176 0 293 -51q188 -84 186 -268q-4 -201 -252 -211q63 -14 119 -74q94 -102 84 -231h-418q-137 0 -241.5 -89t-104.5 -216q0 -172 103.5 -264.5t289.5 -92.5q274 0 398 74v-59q-20 -14 -103 -39q-74 -23 -155 -31q-201 -18 -220 -131q-10 -61 60 -104.5t192 -43.5 q37 0 78 5q147 16 213 116q14 20 15 47q0 39 -25 72h74q16 -29 16 -70q0 -43 -20 -75q-84 -137 -334 -158q-35 -2 -72 -2q-156 0 -260 39q-133 51 -133 149q0 106 117 150q-160 10 -290 109.5t-130 271.5zM143 1223q-4 -68 54 -121q76 -68 215 -66q10 0 69 2q53 2 76 2 q121 0 166 -6q-72 14 -121 53q-63 54 -63 134q0 117 116 155q-82 10 -157 10q-154 0 -248 -40q-100 -43 -107 -123zM602 1200q8 -49 57.5 -83t114.5 -38q74 -4 125 30t62 91q10 63 -45.5 106.5t-129.5 45.5q-86 2 -137 -37q-59 -41 -47 -115z" />
<glyph unicode="&#xa8;" horiz-adv-x="1327" d="M33 455q-2 236 160 401q184 188 491 184q287 -4 446 -166q135 -137 136 -335q0 -156 -78 -263q-121 -164 -336 -163q-188 0 -288.5 86t-92.5 227q6 123 119 184h-168v101h452v-101h-147q-55 0 -95 -34.5t-46 -83.5q-14 -100 63 -160q72 -55 230 -56q115 0 196 66 q92 72 105 195q2 27 2 49q0 150 -113 266q-53 55 -156.5 90t-201.5 31q-256 -10 -402 -193q-106 -131 -100 -340q6 -217 178 -367.5t406 -131.5q121 10 233 71q104 57 141 123h66v-510h-1002q-141 0 -159 142q-2 16 -2 32q0 98 59 146h68q-47 -43 -47 -95q0 -88 145 -88h872 v279q-164 -150 -405 -164q-295 -16 -502 131q-223 162 -227 447z" />
<glyph unicode="&#xa9;" horiz-adv-x="1372" d="M23 479q0 233 135 398q92 113 215 145q61 16 127 16q72 0 118 -22v-55q-37 27 -122 26q-184 0 -299 -162q-104 -147 -101 -338q4 -152 87 -243.5t218 -91.5q106 0 170 60t64 173v88h57v-88q0 -111 76 -174q70 -59 186 -59q147 0 211 96q49 72 56 145q14 147 -84 242 q-90 86 -226 86h-272q-16 113 33 199q72 123 264 122q100 0 151 -16q74 -25 121 -98q27 -41 27 -103q0 -96 -61 -125q137 -108 137 -321q0 -129 -72 -234q-102 -150 -285 -149q-229 0 -280 141q-53 -141 -285 -141q-176 0 -271 130t-95 353zM344 1257q0 133 121 187 q88 39 266 39q352 0 326 -258q-10 -106 -84 -160h-80q23 14 53 57q39 53 45 99q12 106 -69 163q-72 49 -191 50q-258 0 -258 -172q0 -137 215 -160q-96 27 -96 125q0 133 156 133q152 0 151 -148q0 -72 -57 -112q-47 -37 -119 -43q-41 -4 -80 -4q-299 0 -299 204zM664 1225 q0 -39 26.5 -68t67.5 -24q74 8 76 75q3 90 -89 90q-31 0 -56 -20.5t-25 -52.5zM700 772h250q84 1 133 -22q45 29 45 96q0 35 -18 65q-45 74 -178 74q-225 0 -232 -213z" />
<glyph unicode="&#xaa;" horiz-adv-x="1306" d="M31 500q0 31 2 57q29 362 293 442q37 10 92 9q63 -4 86 -27q27 23 65 35q72 23 222 24q246 4 339 -94q88 -92 87 -229h-418q-135 0 -234.5 -88t-107.5 -217q-10 -164 98.5 -261.5t294.5 -99.5q266 -2 416 86v-512h-109q-66 88 -139 111q-35 10 -76 10q-90 0 -197 -49 q-184 -86 -258 -86q-92 0 -151.5 52t-59.5 142q0 76 41 121t78 54h101q-66 -14 -108 -56.5t-28 -97.5q18 -66 109 -66q31 0 59 11q70 29 140 59q106 41 168 53q31 6 73 6q119 0 189 -41q41 -25 55 -34q23 -18 47 -52v281q-164 -51 -332 -53q-180 -2 -286 24q-96 25 -183 90 q-129 98 -129 271q0 184 122 290.5t321 106.5h442q-14 80 -62.5 133t-125.5 72q-51 12 -158 12q-162 0 -244 -35q61 -18 62 -90q0 -39 -27 -66.5t-65 -27.5q-45 0 -76 35t-23 80q2 16 21 49q-47 37 -138 6q-96 -33 -158.5 -150.5t-66.5 -248.5q-8 -360 195 -529h-78 q-92 70 -139 221q-41 127 -41 267z" />
<glyph unicode="&#xab;" horiz-adv-x="970" d="M61 223l357 363l-336 329l82 84l330 -337l333 329l82 -78l-336 -342l349 -342l-86 -84l-344 347l-353 -349z" />
<glyph unicode="&#xac;" horiz-adv-x="808" d="M29 455v102h309v307h121v-307h311v-102h-311v-299h-121v299h-309z" />
<glyph unicode="&#xad;" horiz-adv-x="716" d="M72 461v133h522v-133h-522z" />
<glyph unicode="&#xae;" horiz-adv-x="2330" d="M20 348v84q35 70 164 221q53 63 217 217q10 10 11 25q0 33 -43 64.5t-105 27.5q-45 -4 -93 -44t-62 -87q20 12 43 12q31 0 53 -26.5t22 -59.5q0 -35 -25.5 -57.5t-62.5 -22.5q-33 0 -55 19q-43 33 -43 100q0 82 64.5 146.5t146.5 72.5q172 16 221 -122q141 70 285 100 q37 8 262 22q53 4 190 -4q154 -8 232 -24q137 -29 213 -70v-61q-80 18 -176 16q-223 -6 -328 -145q-74 -98 -74 -234q0 -39 6 -80q18 -121 86 -192q74 -80 193 -80q98 0 163.5 63.5t65.5 176.5v159h62v-155q0 -113 65.5 -178.5t169.5 -67.5q131 -2 215 160q72 141 72 315 q0 305 -98 483q-123 223 -439 234q-170 6 -307 -63.5t-188 -190.5h-62q39 123 156 201q154 102 397 102q334 0 492 -225q145 -209 143 -562q-2 -248 -78 -411q-96 -205 -286 -207q-131 -2 -195 37q-55 33 -90 115q-63 -152 -258 -152q-176 0 -270 129q-41 57 -64 137 q-20 -119 -90 -192.5t-176 -73.5q-195 2 -225 106q-35 -106 -238 -106q-96 0 -162.5 63.5t-70.5 149.5q-4 57 12 104q4 12 14 31t10 25q0 12 -20 12q-29 0 -62 -37zM96 442q35 8 62 9q51 0 51 -31q0 -18 -21 -37q-39 -33 -38 -86q0 -45 20 -70q53 -63 154 -63q193 0 186 266 h55q-4 -147 39 -206.5t146 -59.5q88 0 145 94q53 84 47 184q-8 139 -88 236.5t-215 130.5q-39 8 -92 8q-117 0 -165 -46t-134 -136q-111 -123 -152 -193zM508 872q381 0 500 -327q41 350 393 409q-98 27 -373 29q-135 2 -305 -37q-160 -37 -215 -74z" />
<glyph unicode="&#xaf;" horiz-adv-x="2330" d="M20 348v84q35 70 164 221q53 63 217 217q10 10 11 25q0 33 -43 64.5t-105 27.5q-45 -4 -93 -44t-62 -87q20 12 43 12q31 0 53 -26.5t22 -59.5q0 -35 -25.5 -57.5t-62.5 -22.5q-33 0 -55 19q-43 33 -43 100q0 82 64.5 146.5t146.5 72.5q172 16 221 -122q96 55 262 92 q135 31 285 30q457 0 635 -98v-61q-80 18 -176 16q-223 -6 -328 -145q-74 -98 -74 -234q0 -39 6 -80q18 -121 86 -192q74 -80 193 -80q98 0 163.5 63.5t65.5 176.5v159h62v-155q0 -113 65.5 -178.5t169.5 -67.5q131 -2 215 160q72 141 72 315q0 283 -154 410q-76 63 -215 63 h-501q-217 0 -218 135q0 147 189 203q123 37 362 37q530 0 557 -217q6 -57 -22.5 -107.5t-83.5 -68.5q182 -164 180 -476q-2 -248 -78 -411q-96 -205 -286 -207q-131 -2 -195 37q-55 33 -90 115q-63 -152 -258 -152q-176 0 -270 129q-41 57 -64 137q-20 -119 -90 -192.5 t-176 -73.5q-195 2 -225 106q-35 -106 -238 -106q-96 0 -162.5 63.5t-70.5 149.5q-4 57 12 104q4 12 14 31t10 25q0 12 -20 12q-29 0 -62 -37zM96 442q35 8 62 9q51 0 51 -31q0 -18 -21 -37q-39 -33 -38 -86q0 -45 20 -70q53 -63 154 -63q193 0 186 266h55 q-4 -147 39 -206.5t146 -59.5q88 0 145 94q53 84 47 184q-8 139 -88 236.5t-215 130.5q-39 8 -92 8q-117 0 -165 -46t-134 -136q-111 -123 -152 -193zM508 872q381 0 500 -327q41 350 393 409q-98 27 -373 29q-135 2 -305 -37q-160 -37 -215 -74zM1176 1249q-8 -76 112 -75 h565q72 0 146 -25q82 0 100 41q4 12 4 22q0 47 -80 88q-63 34 -139 46q-123 20 -340 14q-356 -10 -368 -111z" />
<glyph unicode="&#xb0;" horiz-adv-x="2330" d="M20 348v84q35 70 164 221q53 63 217 217q10 10 11 25q0 33 -43 64.5t-105 27.5q-45 -4 -93 -44t-62 -87q20 12 43 12q31 0 53 -26.5t22 -59.5q0 -35 -25.5 -57.5t-62.5 -22.5q-33 0 -55 19q-43 33 -43 100q0 82 64.5 146.5t146.5 72.5q172 16 221 -122q96 55 262 92 q135 31 285 30q457 0 635 -98v-61q-80 18 -176 16q-223 -6 -328 -145q-74 -98 -74 -234q0 -39 6 -80q18 -121 86 -192q74 -80 193 -80q98 0 163.5 63.5t65.5 176.5v159h62v-155q0 -113 65.5 -178.5t169.5 -67.5q131 -2 215 160q72 141 72 315q0 283 -154 410q-76 63 -215 63 h-501q-217 0 -218 135q0 147 189 203q123 37 362 37q530 0 557 -217q6 -57 -22.5 -107.5t-83.5 -68.5q182 -164 180 -476q-2 -248 -78 -411q-96 -205 -286 -207q-131 -2 -195 37q-55 33 -90 115q-63 -152 -258 -152q-176 0 -270 129q-41 57 -64 137q-20 -119 -90 -192.5 t-176 -73.5q-195 2 -225 106q-35 -106 -238 -106q-96 0 -162.5 63.5t-70.5 149.5q-4 57 12 104q4 12 14 31t10 25q0 12 -20 12q-29 0 -62 -37zM96 442q35 8 62 9q51 0 51 -31q0 -18 -21 -37q-39 -33 -38 -86q0 -45 20 -70q53 -63 154 -63q193 0 186 266h55 q-4 -147 39 -206.5t146 -59.5q88 0 145 94q53 84 47 184q-8 139 -88 236.5t-215 130.5q-39 8 -92 8q-117 0 -165 -46t-134 -136q-111 -123 -152 -193zM508 872q381 0 500 -327q41 350 393 409q-98 27 -373 29q-135 2 -305 -37q-160 -37 -215 -74zM1176 1249q-8 -76 112 -75 h512q-31 33 -33 88q-2 53 39 92q-86 12 -262 6q-356 -10 -368 -111zM1843 1262q0 -70 101 -99q39 -12 71 -12q61 0 80 41q8 16 8 31q0 63 -94 96q-39 14 -76 14q-90 1 -90 -71z" />
<glyph unicode="&#xb1;" horiz-adv-x="1740" d="M33 375q0 184 123 290.5t323 106.5h441q-10 74 -66 125q-98 92 -279 92q-235 0 -311 -57q35 0 55.5 -26.5t20.5 -63.5q0 -39 -25.5 -65.5t-66.5 -26.5q-47 0 -76 34.5t-20 81.5q14 92 139 142q76 29 266 32q231 4 334 -100q90 -92 92 -223h-418q-137 0 -241.5 -89 t-104.5 -216q0 -174 102.5 -265.5t290.5 -91.5q274 0 398 74v-59q-20 -14 -103 -39q-74 -23 -155 -31q-201 -18 -220 -131q-10 -61 60 -104.5t192 -43.5q37 0 78 5q147 16 213 116q14 20 15 47q0 39 -25 72h74q16 -29 16 -70q0 -43 -20 -75q-84 -137 -334 -158 q-35 -2 -72 -2q-156 0 -260 39q-133 51 -133 149q0 106 117 150q-160 10 -290 109.5t-130 271.5zM1006 918l2 112h630v-74q-66 -31 -161 -82q-111 -72 -123 -79q-81 -60 -144 -140q-94 -119 -94 -254q0 -115 70.5 -180t187.5 -61q178 4 225 129q12 31 13 73q0 66 -29 125h53 q18 -29 31.5 -101.5t9.5 -109.5q-14 -147 -121 -225q-80 -59 -202 -55q-150 4 -238 91t-88 243q0 45 8 96q27 166 174 315q51 51 134 106.5t126 70.5h-464z" />
<glyph unicode="&#xb2;" horiz-adv-x="1073" d="M18 463q0 186 123 321q139 156 351 156q186 0 321 -123q156 -139 156 -350q0 -186 -123 -322q-139 -156 -350 -155q-186 0 -322 123q-156 139 -156 350z" />
<glyph unicode="&#xb3;" horiz-adv-x="1306" d="M27 678l362 -268l-141 -424l366 258l369 -258l-145 424l366 268h-452l-138 422l-141 -422h-446z" />
<glyph unicode="&#xb4;" horiz-adv-x="1382" d="M16 508q0 39 4 74q16 168 103 278q102 131 237 131q55 0 96.5 -33.5t39.5 -87.5q-2 -29 -33 -66.5t-31 -76.5q0 -18 6 -43q12 -49 74.5 -86t130.5 -37q193 0 242 123q14 33 14 70q0 82 -51 133q8 -29 8 -56q0 -72 -53 -114.5t-123 -40.5q-68 2 -116 53t-44 119 q2 63 54.5 107t117.5 44q100 0 166 -45q102 -70 103 -213q0 -31 -7 -61q-16 -100 -101 -161.5t-208 -61.5q-154 0 -233 102q-53 68 -50 148q2 57 33 96t35 57q8 39 -15.5 59.5t-78.5 18.5q-88 -4 -158 -107q-66 -94 -82 -217q-12 -96 17 -202q23 -86 100 -160 q88 -86 188 -88q223 -4 224 166v67h69v-61q0 -188 230 -172q172 12 245 207q53 143 41 305q-20 246 -139 352q-129 117 -428 123q-141 4 -315 -47q-35 -10 -142 -62q-94 -47 -157 -57v94q43 -6 112 15q55 18 88 36q-76 43 -75 127q0 123 176 183q135 47 338 47 q532 0 553 -246q8 -96 -95 -158q143 -145 177 -391q8 -55 8 -110q0 -221 -97 -400q-104 -195 -313 -182q-41 2 -121 18q-88 37 -114 111q-35 -86 -158 -119q-51 -14 -131 -10q-141 6 -242 117q-119 131 -119 391zM244 1214q-4 -33 53 -63q162 51 346 51q279 0 426 -94 q68 29 68 76q0 37 -41.5 71t-96.5 50q-164 45 -381 38q-137 -4 -239 -32q-129 -35 -135 -97zM584 840q0 -43 31.5 -75t74.5 -32q45 0 80 35q27 27 27 68q0 45 -29 77.5t-76 32.5q-51 0 -79.5 -32.5t-28.5 -73.5z" />
<glyph unicode="&#xb6;" horiz-adv-x="540" d="M35 2v637q0 344 270 328q111 -6 158 -125q10 -27 10 -70q0 -78 -33 -127q-51 -72 -176 -72q-45 0 -86 13v53q18 -4 37 -4q51 0 88 27.5t37 76.5q0 96 -96 97q-143 0 -144 -201v-633h-65z" />
<glyph unicode="&#xb7;" horiz-adv-x="540" d="M25 236q0 29 6 57h61q-8 -57 36 -98t110 -45q41 -2 81 18q55 29 58 88q2 96 -148 166q-92 43 -135 93t-55 136q-4 33 -4 64q0 115 61 182q72 78 209 70q111 -6 158 -125q10 -25 10 -64q0 -80 -37 -129q-53 -70 -155 -69q-37 0 -74 10t-90 49q-2 -55 57 -104 q35 -29 124 -75t116 -71q59 -53 59 -168q0 -57 -16 -92q-57 -133 -205 -133q-18 0 -37 2q-90 10 -143 84q-47 66 -47 154zM125 776q0 -63 55 -108q41 -33 94 -33q70 0 111 53q27 35 27 80q0 82 -68 125q-35 23 -78 22q-90 1 -127 -75q-14 -33 -14 -64z" />
<glyph unicode="&#xb8;" horiz-adv-x="593" d="M59 4v55h88q66 0 66 54v776q0 70 -61 69h-93v54h299v-901q0 -51 60 -52h114v-55h-473zM197 1221q0 33 23.5 60.5t64.5 27.5q33 0 57 -21q31 -27 31 -67q0 -33 -21 -58q-27 -31 -67 -30q-33 0 -58 20q-31 27 -30 68z" />
<glyph unicode="&#xb9;" horiz-adv-x="1056" d="M41 952v58h489v-58h-149q-37 0 -25 -43l207 -737l211 709q6 23 -3 47t-28 24h-120v58h383v-58h-82q-39 0 -52 -37l-286 -919h-127l-287 919q-12 37 -47 37h-84z" />
<glyph unicode="&#xba;" horiz-adv-x="1148" d="M47 0v59h64q51 0 88 50l284 383l-286 415q-31 45 -70 45h-80v58h471v-58h-100q-14 0 -21 -20q-4 -23 6 -39l185 -277l215 277q8 10 8 22q0 37 -39 37h-162v58h484v-58h-72q-53 0 -78 -30l-303 -394l305 -438q20 -31 72 -31h76v-59h-484v59h105q37 0 37 35q0 8 -4 15 l-205 288l-213 -288q-10 -14 -6 -31q6 -18 24 -19h170v-59h-471z" />
<glyph unicode="&#xbb;" horiz-adv-x="593" d="M57 -2v80h86q70 0 70 69v1151q0 29 -19.5 51.5t-52.5 22.5h-84v82h473v-82h-94q-63 0 -63 -74v-1146q0 -29 18.5 -51.5t46.5 -22.5h92v-80h-473z" />
<glyph unicode="&#xbc;" horiz-adv-x="983" d="M8 1378v76h486v-76h-115q-57 0 -43 -75l182 -1035l227 1024q2 10 3 21q0 66 -62 65h-104v76h391v-76h-60q-25 0 -50 -23.5t-32 -51.5l-286 -1311h-156l-250 1311q-6 29 -27.5 52t-41.5 23h-62z" />
<glyph unicode="&#xbd;" horiz-adv-x="1101" d="M23 -6v76h57q53 0 82 55l309 584l-274 606q-31 68 -93 67h-61v72h492v-72h-119q-35 0 -35 -34q0 -14 6 -29l186 -424l218 412q6 12 6 22q0 53 -60 53h-119v72h439v-72h-70q-59 0 -100 -75l-269 -504l297 -660q33 -74 91 -73h63v-76h-537v76h125q25 0 50.5 15t25.5 36 q0 4 -2 10l-217 479l-248 -471q-6 -12 -6 -22q0 -47 57 -47h127v-76h-421z" />
<glyph unicode="&#xbe;" horiz-adv-x="1183" d="M-20 1337v66q23 47 81 57q76 12 93 -49q53 68 157 57q172 -14 172 -196q0 -76 -61.5 -122t-138.5 -46q-92 0 -119 37v-264q-35 -35 -62 -70v504q0 80 -32 86q-47 8 -90 -60zM16 504q-4 178 86 303q76 104 240 199q78 41 209 120q108 76 141 127q-55 10 -55 72q0 27 12 43 q27 35 70 35q33 0 62.5 -19.5t29.5 -64.5q0 -33 -16 -62q-25 -45 -125 -116q-92 -66 -174 -105q27 4 59 4q102 0 213 -34q121 -37 188 -101q174 -162 174 -391q0 -236 -167 -385q-135 -119 -345 -133q-291 -18 -466 164q-129 135 -136 344zM100 563q0 -27 4 -55 q20 -158 152 -256q125 -94 295 -94q176 0 309 90q143 100 168 270q4 31 4 60q0 174 -135 290.5t-319 116.5q-195 0 -336.5 -121t-141.5 -301zM164 1229q0 -66 84 -66q43 0 66.5 30t23.5 87q0 84 -57 115q-12 8 -29 8q-33 0 -60.5 -25.5t-27.5 -60.5v-88z" />
<glyph unicode="&#xbf;" horiz-adv-x="1572" d="M33 428q-6 57 2 154q12 137 82.5 240.5t185.5 140.5q80 26 137 -7q18 14 54 29q59 25 194 23q178 -4 250 -109q49 -72 49 -164q0 -25 -4 -49h-299q-264 0 -262 -235q2 -143 162 -224q139 -70 325 -63q207 6 355.5 144t158.5 339q12 236 -88 408q-33 -53 -98.5 -90 t-138.5 -37q-113 0 -203 92q-29 29 -102 170q-51 96 -119 96q-43 0 -101 -29v58q131 57 301 57q268 0 426 -158q98 -98 154.5 -247.5t56.5 -302.5q0 -299 -153 -480q-158 -186 -432 -192q-295 -6 -455 131q-145 125 -147 311q-2 125 91 216t249 91h249q-10 119 -82 168 q-53 37 -188 37q-100 0 -141 -28q31 2 55.5 -32t15.5 -71q-12 -66 -90 -70q-43 -2 -77.5 27t-34.5 72q0 29 18 59q-106 16 -194 -100q-74 -100 -82 -248q-6 -113 16 -211q18 -78 86 -194q45 -78 121 -138h-78q-90 53 -168 205q-41 80 -57 211zM745 1311q61 -27 119 -123 q61 -102 103 -127q49 -29 106 -29q138 0 189 127q-41 57 -140 111q-88 47 -274 47q-59 0 -103 -6z" />
<glyph unicode="&#xc0;" d="M37 475q2 117 57 225q51 100 122 148.5t126 64.5q43 14 129 21q18 2 147 -8v-60q-68 16 -110 17q-111 -2 -183.5 -36t-134 -120t-61.5 -231q0 -135 59 -226q72 -104 203 -104q98 0 164 63.5t66 176.5v159h61v-155q0 -113 65.5 -178.5t170.5 -67.5q133 -2 217 160 q74 141 69 315q-4 219 -119 416q-33 -53 -98 -90t-139 -37q-113 0 -203 92q-29 29 -102 170q-51 96 -119 96q-43 0 -100 -29v58q131 57 301 57q268 0 426 -158q102 -102 170 -262q69 -165 73 -325q4 -244 -73 -416q-96 -209 -287 -211q-131 -2 -195 37q-55 33 -90 115 q-63 -152 -258 -152q-176 0 -270 129q-88 119 -84 346zM98 1272q0 25 4 49q23 133 183 201q133 57 323 57q494 0 522 -207q12 -96 -96 -143l-51 41q25 4 52.5 24.5t27.5 48.5q0 14 -8 29q-63 104 -441 105q-139 0 -256 -43q-164 -59 -163 -177q0 -80 55 -122.5t137 -42.5 q100 0 172 63l27 -49q-80 -74 -221 -74q-41 0 -76 8q-190 47 -191 232zM496 1311q61 -27 118 -123q61 -102 103 -127q49 -29 106 -29q138 0 189 127q-41 57 -140 111q-88 47 -274 47q-59 0 -102 -6z" />
<glyph unicode="&#xc1;" d="M37 475q2 117 57 225q51 100 122 148.5t126 64.5q43 14 129 21q18 2 147 -8v-60q-68 16 -110 17q-111 -2 -183.5 -36t-134 -120t-61.5 -231q0 -135 59 -226q72 -104 203 -104q98 0 164 63.5t66 176.5v159h61v-155q0 -113 65.5 -178.5t170.5 -67.5q133 -2 217 160 q74 141 69 315q-4 219 -119 416q-33 -53 -98 -90t-139 -37q-113 0 -203 92q-29 29 -102 170q-51 96 -119 96q-43 0 -100 -29v58q127 57 297 57q96 0 184 -22q-10 33 -4 59q10 49 39 53q-92 14 -222 15q-139 0 -256 -43q-164 -59 -163 -177q0 -80 55 -121.5t137 -41.5 q98 0 170 59q2 -8 25 -51q-80 -70 -217 -70q-41 0 -76 8q-190 47 -191 232q0 25 4 49q23 133 183 201q133 57 323 57q498 0 523 -207q14 -113 -105 -137l21 -21q102 -102 170 -262q70 -166 73 -325q4 -244 -73 -416q-96 -209 -287 -211q-131 -2 -195 37q-55 33 -90 115 q-63 -152 -258 -152q-176 0 -270 129q-88 119 -84 346zM496 1311q61 -27 118 -123q61 -102 103 -127q49 -29 106 -29q138 0 189 127q-41 57 -140 111q-88 47 -274 47q-59 0 -102 -6zM868 1384q0 -35 47 -69q37 -27 82 -27q70 0 70 58q0 39 -45 65.5t-88 26.5q-66 0 -66 -54z " />
<glyph unicode="&#xc2;" horiz-adv-x="1331" d="M20 430q0 141 96.5 240.5t243.5 99.5h207q2 104 -55 164q-49 49 -123 53q-162 8 -219 -51q39 0 64.5 -25.5t25.5 -60.5q0 -43 -35 -64.5t-78 -15.5q-80 12 -79 90q0 100 102 150q31 14 88 24q-43 29 -68 56q-53 61 -55 143q-6 186 184 268q117 51 277 51q168 0 278 -51 q180 -84 179 -268q-2 -111 -117 -193q25 0 33 -2q23 20 153 99q88 53 90 100q-14 -4 -28 -4q-68 0 -70 57q-2 76 76 82q82 6 100 -65q6 -23 6 -43q0 -92 -104 -152q-43 -20 -148 -78q37 0 76 -22q113 -63 113 -246q0 -100 -23 -141q33 -68 39 -80q21 -60 21 -144 q0 -190 -178 -307q-164 -106 -443 -106q-311 0 -470 119.5t-159 322.5zM113 475q0 -25 6 -51q29 -113 139 -182q123 -78 395 -78q240 0 371 78q118 69 143 182q6 29 7 55q0 18 -4 37l-3 19q-10 -35 -55 -68q-55 -39 -121 -39q-35 0 -67 10q-88 29 -123 144q-14 47 -15 137 h-122q0 176 53 235q20 23 59 52q-168 45 -190 178q-4 18 -4 37q0 117 71 165q-8 0 -24 3h-37q-373 0 -385 -166q-4 -68 51 -121q45 -43 176 -70q88 -18 141.5 -80.5t53.5 -232.5h-254q-109 0 -185.5 -73t-76.5 -171zM649 1223q0 -82 64 -131q43 -33 100 -33q86 0 133 63 q33 43 33 99q0 84 -66 133q-45 33 -100 32q-82 0 -131 -63q-33 -43 -33 -100zM723 770h65q2 55 30 113.5t77 103.5q-76 -2 -126 -62.5t-46 -154.5zM848 719q0 -72 4 -94q18 -98 88 -129q23 -10 49 -11q49 0 92 37t54 84q-10 43 -69.5 78t-117.5 35h-100zM850 770h121 q51 0 113.5 -29.5t76.5 -62.5q10 41 10 88q-2 133 -88 186q-35 23 -69 23q-57 0 -105 -55q-53 -59 -59 -150z" />
<glyph unicode="&#xc3;" horiz-adv-x="1032" d="M25 6h897l-451 897z" />
<glyph unicode="&#xc4;" d="M16 975v108q18 -4 41 -4q82 0 144 37q-66 53 -66 139q0 125 184 187q141 45 349 45q532 0 553 -246q8 -96 -95 -158q168 -170 177 -395q12 -303 -106 -499.5t-300 -184.5q-72 4 -129 66q-10 12 -35 55q-16 31 -35 35q-49 12 -49 -76q0 -35 10 -78h-75q-23 74 -29 152 q-12 -70 -67.5 -116t-135.5 -46q-150 0 -241 164q-82 143 -82 336q0 221 135 360t366 139q150 0 252 -73q113 -80 113 -215q0 -29 -6 -60q-10 -59 -123 -131q-43 -27 -86 -55q-49 -39 -59 -99q-16 -96 0 -174q23 59 94 60q31 0 97.5 -22.5t107.5 -22.5q35 0 65 12 q41 16 87 67.5t69 108.5q31 78 43 117q20 74 22 156q8 238 -135 364q-129 117 -428 123q-166 4 -338 -55q-29 -10 -127 -64q-76 -41 -162 -57zM113 397q12 66 85.5 108t147.5 38q59 -4 117 -45q65 -47 88 -117q18 94 108 149q84 51 91 56q43 37 41 88q-4 145 -299 145 q-322 0 -373 -276q-6 -33 -6 -146zM154 303q0 -70 48 -117t115 -47q70 0 117 48.5t47 113.5q0 70 -49 118t-117 48q-70 0 -115.5 -48t-45.5 -116zM233 1212q-6 -33 33 -73q158 63 377 63q279 0 426 -94q68 29 68 76q0 37 -41.5 71t-96.5 50q-164 45 -381 38 q-137 -4 -243 -32q-131 -37 -142 -99z" />
<glyph unicode="&#xc5;" d="M29 496q0 221 135 360t366 139q150 0 252 -73q113 -80 113 -215q0 -29 -6 -60q-10 -59 -123 -131q-43 -27 -86 -55q-49 -39 -59 -99q-16 -96 0 -174q23 59 94 60q31 0 97.5 -22.5t107.5 -22.5q35 0 65 12q41 16 87 67.5t69 108.5q33 84 43 117q20 76 22 156 q4 276 -135 385q-82 63 -235 63h-502q-217 0 -217 135q0 147 188 203q123 37 363 37q530 0 557 -217q14 -127 -109 -160q176 -160 187 -422q10 -305 -107 -500.5t-299 -183.5q-72 4 -129 66q-10 12 -35 55q-16 31 -35 35q-49 12 -49 -76q0 -35 10 -78h-75q-23 74 -29 152 q-12 -70 -67.5 -116t-135.5 -46q-150 0 -241 164q-82 143 -82 336zM113 397q12 66 85.5 108t147.5 38q59 -4 117 -45q65 -47 88 -117q18 94 108 149q84 51 91 56q43 37 41 88q-4 145 -299 145q-322 0 -373 -276q-6 -33 -6 -146zM154 303q0 -70 48 -117t115 -47 q70 0 117 48.5t47 113.5q0 70 -49 118t-117 48q-70 0 -115.5 -48t-45.5 -116zM205 1249q-8 -76 112 -75h566q72 0 145 -25q82 0 100 41q4 12 5 22q0 47 -80 88q-64 34 -140 46q-123 20 -340 14q-356 -10 -368 -111z" />
<glyph unicode="&#xc6;" horiz-adv-x="1310" d="M33 455q-12 244 143 401q184 188 492 184q287 -4 446 -166q141 -145 133 -335q-6 -137 -92 -248q-115 -145 -321 -146q-176 0 -267 101q-80 88 -71 217q2 45 29.5 90t60.5 57h-180v101h452v-101h-147q-59 0 -89 -34.5t-30 -75.5q0 -80 59 -131q72 -63 207 -64 q96 0 182 57q96 68 115 175q6 35 6 69q0 135 -108 246q-53 55 -156.5 90t-202.5 31q-276 -12 -401 -193q-90 -127 -84 -303q6 -201 175 -341t400 -122q127 10 229.5 55.5t137.5 106.5h66v-551h-109q-98 49 -217 82q-70 20 -158 21q-98 0 -174 -25q-82 -31 -164 -63 q-94 -35 -164 -27q-139 14 -168 154q-4 20 -4 40q0 61 35 105q53 66 135 65l45 -57q-23 10 -55 6q-37 -2 -57 -22q-37 -37 -25 -88q14 -63 105 -64q25 0 51 8q104 35 211 68q121 35 217 35q111 0 237 -33q59 -23 193 -68v320q-152 -117 -393 -131q-295 -16 -496 108 q-217 137 -229 396z" />
<glyph unicode="&#xc7;" d="M29 496q0 221 135 360t366 139q150 0 252 -73q113 -80 113 -215q0 -29 -6 -60q-10 -59 -123 -131q-43 -27 -86 -55q-49 -39 -59 -99q-16 -96 0 -174q23 59 94 60q31 0 97.5 -22.5t107.5 -22.5q35 0 65 12q41 16 87 67.5t69 108.5q33 84 43 117q20 76 22 156 q4 276 -135 385q-82 63 -235 63h-502q-217 0 -217 135q0 147 186 203q123 37 365 37q535 0 561 -217q14 -127 -109 -160q172 -162 183 -422q10 -305 -107 -500.5t-299 -183.5q-72 4 -129 66q-10 12 -35 55q-16 31 -35 35q-49 12 -49 -76q0 -35 10 -78h-75q-23 74 -29 152 q-12 -70 -67.5 -116t-135.5 -46q-150 0 -241 164q-82 143 -82 336zM113 397q12 66 85.5 108t147.5 38q59 -4 117 -45q65 -47 88 -117q18 94 108 149q84 51 91 56q43 37 41 88q-4 145 -299 145q-322 0 -373 -276q-6 -33 -6 -146zM154 303q0 -70 48 -117t115 -47 q70 0 117 48.5t47 113.5q0 70 -49 118t-117 48q-70 0 -115.5 -48t-45.5 -116zM205 1249q-8 -76 112 -75h504q-27 35 -30 43q-10 18 -13 43q-4 59 37 94q-144 8 -242 6q-356 -10 -368 -111zM854 1266q0 -70 100 -99q39 -12 72 -12q61 0 80 41q8 16 8 31q0 63 -94 96 q-39 14 -76 14q-90 1 -90 -71z" />
<glyph unicode="&#xc8;" horiz-adv-x="1095" d="M33 375q0 184 123 290.5t323 106.5h443q-14 80 -62.5 133t-126.5 72q-51 12 -158 12q-236 0 -311 -57q35 0 55.5 -26.5t20.5 -63.5q0 -39 -25.5 -65.5t-66.5 -26.5q-47 0 -76 34.5t-20 81.5q16 96 135 140q-86 12 -150 69q-68 66 -69 158q-6 184 194 268q123 51 291 51 q176 0 293 -51q188 -84 186 -268q-2 -164 -211 -229q43 -16 78 -56q94 -102 84 -231h-418q-137 0 -241.5 -89t-104.5 -216q0 -172 103.5 -264.5t289.5 -92.5q274 0 398 74v-59q-20 -14 -103 -39q-74 -23 -155 -31q-201 -18 -220 -131q-10 -61 60 -104.5t192 -43.5q37 0 78 5 q147 16 213 116q14 20 15 47q0 39 -25 72h74q16 -29 16 -70q0 -43 -20 -75q-84 -137 -334 -158q-35 -2 -72 -2q-156 0 -260 39q-133 51 -133 149q0 106 117 150q-160 10 -290 109.5t-130 271.5zM143 1223q-4 -68 54 -121q76 -68 215 -66q10 0 69 2q53 2 76 2q129 0 166 -6 q90 4 166.5 58.5t68.5 132.5q-18 164 -409 164q-393 0 -406 -166z" />
<glyph unicode="&#xc9;" horiz-adv-x="1347" d="M-31 621v120h682q-4 121 -82 177q-53 37 -188 36q-111 0 -154 -36q39 2 63.5 -28t20.5 -67q-8 -66 -90 -69q-43 -2 -77.5 26.5t-34.5 71.5q0 25 12 49q45 90 176 111q45 6 129 4q178 -4 250 -109q49 -74 49 -168q0 -27 -4 -53h-189q-127 0 -227 -59q-113 -68 -112 -172 q0 -123 118 -211q100 -76 348 -76q209 0 379 147q53 47 99 142q49 111 49 215q0 236 -135 356q-129 115 -428 123q-139 4 -291 -37q-45 -12 -139.5 -59t-155.5 -60v109q43 -6 98 10q39 10 78 23q-33 25 -33 98q0 61 19 90q106 162 465 162q526 0 548 -250q10 -121 -77 -186 q72 -82 103.5 -158t43.5 -201q4 -31 4 -63q0 -145 -56 -283.5t-136 -202.5q-190 -152 -447 -151q-295 0 -428 110q-145 121 -145 283q0 27 4 53q25 176 233 248l-180 2q-41 0 -90 -20.5t-72 -46.5zM270 1151q113 51 353 51q299 0 458 -110q47 27 47 67q0 43 -45 86.5 t-104 59.5q-160 45 -340 38q-262 -8 -336 -86q-41 -45 -33 -106z" />
<glyph unicode="&#xca;" horiz-adv-x="1331" d="M20 430q0 141 96.5 240.5t243.5 99.5h207q2 104 -55 164q-49 49 -123 53q-162 8 -219 -51q39 0 64.5 -25.5t25.5 -60.5q0 -43 -35 -64.5t-78 -15.5q-80 12 -79 90q0 100 102 150q74 35 186 30q150 -6 219 -88q53 -61 54 -233h-254q-109 0 -185.5 -73t-76.5 -171 q0 -25 6 -51q29 -113 139 -182q123 -78 395 -78q457 0 514 260q6 27 7 53q0 98 -70 170t-174 72h-266v590q0 80 -33 86q-47 8 -90 -60v66q23 47 82 57q76 12 92 -49q53 68 157 57q172 -14 172 -196q0 -76 -61 -122t-139 -46q-92 0 -119 37v-176q78 77 209 77q27 0 35 -2 q23 20 153 99q88 53 90 100q-14 -4 -28 -4q-68 0 -70 57q-2 76 76 82q82 6 100 -65q6 -23 6 -43q0 -92 -104 -152q-43 -20 -148 -78q37 0 76 -22q96 -55 94 -150q-2 -49 -32.5 -89t-73.5 -46q162 -115 162 -326q0 -190 -178 -307q-164 -106 -443 -106q-311 0 -470 119.5 t-159 322.5zM723 770h209q-47 37 -47 102q0 72 47 115q-106 4 -159.5 -56.5t-49.5 -160.5zM725 1227q0 -66 84 -66q43 0 66.5 30t23.5 87q0 84 -57 115q-12 8 -29 8q-33 0 -60.5 -25.5t-27.5 -60.5v-88zM946 872q0 -49 39 -79q29 -23 66 -23q49 0 79 39q20 27 21 61 q0 53 -39 82q-27 20 -63 21q-49 0 -80 -37q-23 -27 -23 -64z" />
<glyph unicode="&#xcb;" horiz-adv-x="2383" d="M20 348v84q35 70 164 221q53 63 217 217q10 10 11 25q0 33 -43 64.5t-105 27.5q-45 -4 -93 -44t-62 -87q20 12 43 12q31 0 53 -26.5t22 -59.5q0 -35 -25.5 -57.5t-62.5 -22.5q-33 0 -55 19q-43 33 -43 100q0 82 64.5 146.5t146.5 72.5q172 16 221 -122q176 123 432 122 q141 0 260 -71q27 27 58 41q76 35 186 30q150 -6 219 -88q53 -61 53 -233h-254q-109 0 -185.5 -73t-76.5 -171q0 -25 6 -51q29 -113 140 -182q123 -78 395 -78q457 0 514 260q6 27 6 53q0 115 -88 189q-133 -63 -309 -62q100 -10 143 -26q82 -29 84 -101q6 -162 -358 -162 q-139 0 -236 37q-119 45 -119 131q0 135 302 148q315 12 403 80q-41 8 -66 8h-266q0 176 53 235q76 84 218 86q121 2 180 -32q90 -53 102 -150q12 -98 -80 -153q133 -109 133 -304q0 -190 -178 -307q-164 -106 -442 -106q-311 0 -470 119.5t-159 322.5q0 141 96.5 240.5 t243.5 99.5h207q2 104 -55 164q-49 49 -123 53q-162 8 -219 -51q39 0 64.5 -25.5t25.5 -60.5q0 -43 -35 -65.5t-78 -14.5q-24 4 -57 29q-96 109 -232 137q-55 12 -114 12q-178 0 -289 -76q240 2 383 -139q129 -129 145 -332q12 -154 -55 -270q-76 -131 -219 -131 q-195 2 -225 106q-35 -106 -238 -106q-96 0 -162.5 63.5t-70.5 149.5q-4 57 12 104q4 12 14 31t10 25q0 12 -20 12q-29 0 -62 -37zM96 442q35 8 62 9q51 0 51 -31q0 -18 -21 -37q-39 -33 -38 -86q0 -45 20 -70q53 -63 154 -63q193 0 186 266h55q-4 -147 39 -206.5t146 -59.5 q88 0 145 94q53 84 47 184q-8 139 -88 236.5t-215 130.5q-39 8 -92 8q-117 0 -165 -46t-134 -136q-111 -123 -152 -193zM1417 487q0 -57 92 -90q80 -27 189 -24q285 4 284 96q0 104 -301 104q-264 0 -264 -86zM1776 770h229q51 0 86 -10q49 33 51 92q2 63 -45 99t-123 36 q-100 0 -151 -59.5t-47 -157.5z" />
<glyph unicode="&#xcc;" horiz-adv-x="1814" d="M33 582q0 119 16 223q29 176 146 311q129 145 305 168q45 6 86 6q193 0 227 -106q10 -29 10 -54q0 -66 -69 -129q27 -12 59 -49q53 -61 53 -233h-254q-109 0 -185.5 -73t-76.5 -171q0 -25 6 -51q29 -113 140 -182q123 -78 395 -78q457 0 514 260q6 27 6 53 q0 98 -69.5 170t-174.5 72h-266q0 176 53 235q8 10 56 47q-68 49 -68 125q0 29 10 58q39 106 228 106q41 0 86 -6q176 -23 305 -168q117 -135 145 -311q16 -104 17 -223q0 -154 -29 -269q-80 -313 -246 -313q-100 0 -133 90q-174 -102 -438 -102q-246 0 -400 78q-8 4 -45 24 q-33 -90 -133 -90q-168 0 -248 313q-29 115 -28 269zM96 641q-4 -104 2 -166q14 -137 58 -248q18 31 28 45q23 27 49 37q16 6 41 8q-16 39 -16 113q0 141 96.5 240.5t243.5 99.5h207q2 104 -55 164q-49 49 -123 53q-162 8 -219 -51q39 0 64.5 -25.5t25.5 -60.5 q0 -43 -35 -64.5t-78 -15.5q-80 12 -80 90q0 100 103 150q53 25 188 30q31 2 109 -14q25 33 -3 88q-33 68 -155 68q-152 0 -273 -109q-113 -102 -155 -254q-16 -61 -23 -178zM199 164q0 -41 28.5 -72t71.5 -31q41 0 71.5 31t30.5 72t-29.5 71.5t-72.5 30.5 q-41 0 -70.5 -29.5t-29.5 -72.5zM961 770h229q51 0 86 -10q49 33 51 92q2 63 -45 99t-123 36q-100 0 -151 -59.5t-47 -157.5zM1038 1069q0 -29 21 -43q57 14 123 14q113 1 170 -32q90 -53 102 -150q12 -98 -80 -153q133 -109 133 -304q0 -47 -10 -84q18 -2 35 -8 q47 -18 76 -67q41 88 55 264q4 57 -6 177t-27 183q-37 133 -151.5 223.5t-259.5 92.5q-109 2 -166 -66q-14 -16 -15 -47zM1362 164q0 -41 28.5 -72t71.5 -31q41 0 72 31t31 72t-30 71.5t-73 30.5q-41 0 -70.5 -29.5t-29.5 -72.5z" />
<glyph unicode="&#xcd;" horiz-adv-x="1183" d="M16 504q-6 266 213 428q-45 12 -63 18q-30 14 -55 39q-45 45 -45 107q0 137 180 247q129 80 248 80q125 0 188 -94q27 -39 27 -92q0 -57 -27 -96q109 72 141 121q-55 10 -55 71q0 27 12 43q27 35 70 35q33 0 62.5 -19.5t29.5 -64.5q0 -33 -16 -61q-27 -51 -127 -119 q-106 -72 -213 -107q256 -29 370 -135q174 -162 174 -391q0 -236 -167 -385q-135 -119 -345 -133q-291 -18 -466 164q-129 135 -136 344zM100 563q0 -27 4 -55q20 -158 152 -256q125 -94 295 -94q176 0 309 90q143 100 168 270q4 31 4 60q0 174 -135 290.5t-319 116.5 q-195 0 -336.5 -121t-141.5 -301zM156 1065q0 -43 47 -76q29 -20 76 -22q33 18 94 41q37 12 110 39q-88 22 -121 88q-37 74 -2 137q-12 0 -45 -19q-160 -92 -159 -188zM406 1210q0 -66 53 -100q31 -20 67 -20q66 0 101 53q20 31 20 67q0 66 -53 101q-31 20 -68 20 q-65 0 -100 -53q-20 -31 -20 -68z" />
<glyph unicode="&#xce;" horiz-adv-x="1382" d="M0 711v61h608q-8 94 -39 131q-57 70 -145 84q-94 14 -168 -14q55 -47 55 -96q0 -37 -30.5 -61.5t-77.5 -27.5q-41 -2 -72 30t-31 69q0 12 4 22q16 45 37 63.5t80 47.5q43 20 182 20q141 0 213 -98q66 -88 68 -231h-293q-92 0 -196 -88q-78 -68 -72 -201q6 -113 89 -190.5 t194 -67.5q104 8 153 39q70 43 70 139v150h69v-144q0 -201 230 -184q172 12 246 207q39 106 43 270q4 219 -111 418q-33 -55 -98.5 -94t-141.5 -39q-115 0 -204 94q-29 29 -103 170q-51 96 -119 96q-43 0 -100 -29v58q131 57 301 57q268 0 426 -158q106 -106 174 -260 q76 -170 74 -331q-2 -293 -90 -441q-55 -92 -142.5 -139t-177.5 -43q-41 2 -121 18q-88 37 -114 111q-35 -86 -158 -119q-51 -12 -131 -10q-162 6 -258 114.5t-96 276.5q0 147 98 252q47 51 98 68h-223zM96 1307q0 25 4 49q23 133 183 200q133 57 323 58q494 0 522 -207 q12 -96 -96 -143l-51 41q25 4 52.5 24.5t27.5 48.5q0 14 -8 29q-63 104 -441 104q-139 0 -256 -43q-164 -59 -163 -176q0 -80 55 -123t137 -43q100 1 172 64l27 -49q-80 -74 -222 -74q-41 0 -75 8q-190 47 -191 232zM512 1311q61 -27 119 -123q61 -102 102 -127 q49 -29 107 -29q137 0 188 127q-41 57 -139 111q-88 47 -275 47q-59 0 -102 -6z" />
<glyph unicode="&#xcf;" horiz-adv-x="2539" d="M33 582q0 119 16 223q29 176 146 311q129 145 305 168q45 6 86 6q193 0 227 -106q10 -29 10 -54q0 -66 -69 -129q27 -12 59 -49q53 -61 53 -233h-254q-109 0 -185.5 -73t-76.5 -171q0 -25 6 -51q29 -113 140 -182q123 -78 395 -78q457 0 514 260q6 27 6 53 q0 98 -69.5 170t-174.5 72h-266q0 176 53 235q8 10 56 47q-68 49 -68 125q0 29 10 58q39 106 228 106q41 0 86 -6q176 -23 305 -168q117 -135 145 -311q16 -104 17 -223q0 -154 -29 -269q-80 -313 -246 -313q-100 0 -133 90q-174 -102 -438 -102q-246 0 -400 78q-8 4 -45 24 q-33 -90 -133 -90q-168 0 -248 313q-29 115 -28 269zM96 641q-4 -104 2 -166q14 -137 58 -248q18 31 28 45q23 27 49 37q16 6 41 8q-16 39 -16 113q0 141 96.5 240.5t243.5 99.5h207q2 104 -55 164q-49 49 -123 53q-162 8 -219 -51q39 0 64.5 -25.5t25.5 -60.5 q0 -43 -35 -64.5t-78 -15.5q-80 12 -80 90q0 100 103 150q53 25 188 30q31 2 109 -14q25 33 -3 88q-33 68 -155 68q-152 0 -273 -109q-113 -102 -155 -254q-16 -61 -23 -178zM199 164q0 -41 28.5 -72t71.5 -31q41 0 71.5 31t30.5 72t-29.5 71.5t-72.5 30.5 q-41 0 -70.5 -29.5t-29.5 -72.5zM961 770h229q51 0 86 -10q49 33 51 92q2 63 -45 99t-123 36q-100 0 -151 -59.5t-47 -157.5zM1038 1069q0 -29 21 -43q57 14 123 14q113 1 170 -32q90 -53 102 -150q12 -98 -80 -153q133 -109 133 -304q0 -47 -10 -84q18 -2 35 -8 q47 -18 76 -67q41 88 55 264q4 57 -6 177t-27 183q-37 133 -151.5 223.5t-259.5 92.5q-109 2 -166 -66q-14 -16 -15 -47zM1362 164q0 -41 28.5 -72t71.5 -31q41 0 72 31t31 72t-30 71.5t-73 30.5q-41 0 -70.5 -29.5t-29.5 -72.5zM1763 731q0 106 35 191q45 106 125 106 q11 0 23 -2l-2 -57q-12 6 -23 6q-43 0 -72 -84q-27 -76 -26 -164q0 -82 32 -152q39 -86 103 -86q43 0 71.5 29t30.5 68t-28.5 68.5t-61.5 19.5q-25 113 -2 205q41 166 213 165q154 0 227 -167q61 -137 62 -363q0 -203 -78 -334q-111 -184 -291 -184q-199 0 -270 88 q-39 47 -39 127q0 59 20 102h97q-49 -53 -49 -114q0 -37 18 -72q45 -84 164 -76q125 8 201 189q55 133 55 272q0 178 -46 317.5t-108 139.5q-80 0 -119 -101q-25 -61 -6 -149q37 0 66 -31t35 -74q10 -74 -29 -118q-51 -59 -123 -62q-96 -4 -153 82q-51 76 -52 215z" />
<glyph unicode="&#xd0;" horiz-adv-x="1382" d="M0 711v61h608q-8 94 -39 131q-57 70 -145 84q-94 14 -168 -14q55 -47 55 -96q0 -37 -30.5 -61.5t-77.5 -27.5q-41 -2 -72 30t-31 69q0 12 4 22q16 45 37 63.5t80 47.5q43 20 182 20q141 0 213 -98q66 -88 68 -231h-293q-92 0 -196 -88q-78 -68 -72 -201q6 -113 89 -190.5 t194 -67.5q104 8 153 39q70 43 70 139v150h69v-144q0 -201 230 -184q172 12 246 207q39 106 43 270q4 219 -111 418q-33 -55 -98.5 -94t-141.5 -39q-115 0 -204 94q-29 29 -103 170q-51 96 -119 96q-43 0 -100 -29v58q125 55 301 55q92 0 180 -18q-25 41 -16 78q10 49 39 53 q-92 14 -221 14q-139 0 -256 -43q-164 -59 -164 -176q0 -80 55 -122t137 -42q98 0 170 60q2 -8 25 -52q-80 -70 -217 -69q-41 0 -76 8q-190 47 -191 231q0 25 5 49q23 133 182 201q133 57 323 57q498 0 523 -206q6 -53 -27 -94.5t-88 -45.5q29 -25 43 -39q106 -106 174 -260 q76 -170 74 -331q-2 -293 -90 -441q-55 -92 -142.5 -139t-177.5 -43q-41 2 -121 18q-88 37 -114 111q-35 -86 -158 -119q-51 -12 -131 -10q-162 6 -258 114.5t-96 276.5q0 147 98 252q47 51 98 68h-223zM512 1311q61 -27 119 -123q61 -102 102 -127q49 -29 107 -29 q137 0 188 127q-41 57 -139 111q-88 47 -275 47q-59 0 -102 -6zM872 1405q0 -35 48 -70q37 -27 81 -26q70 0 70 57q0 39 -45 65.5t-88 26.5q-66 0 -66 -53z" />
<glyph unicode="&#xd1;" horiz-adv-x="1347" d="M-31 649v92h682q-4 121 -82 177q-53 37 -188 36q-111 0 -154 -36q39 2 63.5 -28t20.5 -67q-8 -66 -90 -69q-43 -2 -77.5 26.5t-34.5 71.5q0 25 12 49q45 90 176 111q45 6 129 4q178 -4 250 -109q49 -74 49 -168q0 -27 -4 -53h-193q-119 0 -227 -59q-125 -70 -127 -170 q-2 -125 119 -211q115 -82 354 -82q117 0 236 51q113 49 170 117q123 146 139 336q10 113 -25 213q-37 109 -112 168q-82 63 -236 63h-502q-217 0 -217 135q0 147 189 203q123 37 362 37q530 0 557 -217q14 -127 -108 -160q184 -166 186 -418q2 -199 -45 -325 q-39 -113 -133 -207q-166 -168 -457 -168q-272 0 -420 98q-184 123 -182 324q2 164 246 272h-207q-66 0 -119 -37zM188 1249q-8 -76 113 -75h565q72 0 146 -25q82 0 100 41q4 12 4 22q0 47 -80 88q-63 34 -139 46q-123 20 -340 14q-356 -10 -369 -111z" />
<glyph unicode="&#xd2;" horiz-adv-x="1290" d="M29 520q0 172 112 289q125 131 342 137q45 2 111 -16v-53q-53 18 -109 16q-164 -8 -272 -125q-96 -104 -86 -256q12 -180 168 -272q133 -78 332 -76q207 2 355 142t159 341q12 236 -88 408q-33 -53 -98.5 -90t-139.5 -37q-113 0 -203 92q-29 29 -102 170q-51 96 -119 96 q-43 0 -100 -29v58q129 57 299 57q100 0 186 -24q-14 35 -8 61q10 49 39 53q-92 14 -221 15q-139 0 -256 -43q-164 -59 -164 -177q0 -80 55 -121.5t137 -41.5q98 0 170 59q2 -8 25 -51q-80 -70 -217 -70q-41 0 -76 8q-190 47 -190 232q0 25 4 49q23 133 182 201 q133 57 324 57q498 0 522 -207q6 -49 -23.5 -89t-81.5 -50q9 -9 21 -19q98 -98 154.5 -247.5t56.5 -302.5q0 -299 -154 -480q-158 -186 -432 -192q-293 -6 -450 135q-164 150 -164 393zM463 1311q61 -27 119 -123q61 -102 102 -127q49 -29 107 -29q137 0 188 127 q-41 57 -139 111q-88 47 -275 47q-59 0 -102 -6zM836 1384q0 -35 47 -69q37 -27 82 -27q70 0 69 58q0 39 -45 65.5t-88 26.5q-66 0 -65 -54z" />
<glyph unicode="&#xd3;" horiz-adv-x="1290" d="M29 520q0 172 112 289q125 131 342 137q45 2 111 -16v-53q-53 18 -109 16q-164 -8 -272 -125q-96 -104 -86 -256q12 -180 168 -272q133 -78 332 -76q207 2 355 142t159 341q12 236 -88 408q-33 -53 -98.5 -90t-139.5 -37q-113 0 -203 92q-29 29 -102 170q-51 96 -119 96 q-43 0 -100 -29v58q131 57 301 57q268 0 426 -158q98 -98 154.5 -247.5t56.5 -302.5q0 -299 -154 -480q-158 -186 -432 -192q-293 -6 -450 135q-164 150 -164 393zM63 1272q0 25 5 49q23 133 182 201q133 57 323 57q494 0 523 -207q12 -96 -97 -143l-51 41q25 4 52.5 24.5 t27.5 48.5q0 14 -8 29q-63 104 -440 105q-139 0 -256 -43q-164 -59 -164 -177q0 -80 55 -122.5t137 -42.5q100 0 172 63l27 -49q-80 -74 -221 -74q-41 0 -76 8q-190 47 -191 232zM463 1311q61 -27 119 -123q61 -102 102 -127q49 -29 107 -29q137 0 188 127q-41 57 -139 111 q-88 47 -275 47q-59 0 -102 -6z" />
<glyph unicode="&#xd4;" horiz-adv-x="1331" d="M20 430q0 141 96.5 240.5t243.5 99.5h207q2 104 -55 164q-49 49 -123 53q-162 8 -219 -51q39 0 64.5 -25.5t25.5 -60.5q0 -43 -35 -64.5t-78 -15.5q-80 12 -79 90q0 100 102 150q31 14 88 24q-43 29 -68 56q-53 61 -55 143q-6 186 184 268q117 51 277 51q168 0 278 -51 q180 -84 179 -268q-2 -111 -117 -193q25 0 33 -2q23 20 153 99q88 53 90 100q-14 -4 -28 -4q-68 0 -70 57q-2 76 76 82q82 6 100 -65q6 -23 6 -43q0 -92 -104 -152q-43 -20 -148 -78q37 0 76 -22q96 -55 94 -150q-2 -49 -32.5 -89t-73.5 -46q162 -115 162 -326 q0 -190 -178 -307q-164 -106 -443 -106q-311 0 -470 119.5t-159 322.5zM113 475q0 -25 6 -51q29 -113 139 -182q123 -78 395 -78q457 0 514 260q6 27 7 53q0 98 -70 170t-174 72h-266q0 176 53 235q20 23 59 52q-167 45 -190 178q-4 18 -4 37q0 117 71 165q-8 0 -30 3h-31 q-373 0 -385 -166q-4 -68 51 -121q45 -43 176 -70q88 -18 141.5 -80.5t53.5 -232.5h-254q-109 0 -185.5 -73t-76.5 -171zM649 1223q0 -82 64 -131q43 -33 100 -33q86 0 133 63q33 43 33 99q0 84 -66 133q-45 33 -100 32q-82 0 -131 -63q-33 -43 -33 -100zM723 770h209 q-47 37 -47 102q0 72 47 115q-106 4 -159.5 -56.5t-49.5 -160.5zM946 872q0 -49 39 -79q29 -23 66 -23q49 0 79 39q20 27 21 61q0 53 -39 82q-27 20 -63 21q-49 0 -80 -37q-23 -27 -23 -64z" />
<glyph unicode="&#xd5;" horiz-adv-x="1730" d="M51 594q12 188 124 316t284 128h334v-59q-197 4 -312 -96q-145 -127 -139 -334q6 -193 141 -313q53 -47 125 -64q45 -8 142 -8q129 0 215 63q96 70 108 195q6 68 -23.5 120t-91.5 68q-25 6 -47 6q-59 0 -103 -43t-44 -102q0 -16 4 -33h-59q0 20 -2 72q-2 43 -2 68 q0 164 77 268q147 201 385 194q227 -6 367 -206q94 -137 94 -336q0 -188 -108 -322q-147 -178 -439 -172v62q129 -2 203 26q94 35 148 125q66 115 65 252q0 31 -2 66q-8 123 -90 222t-193 126q-74 18 -141 18q-129 0 -206 -69.5t-95 -204.5q78 51 148 51q25 0 53 -6 q180 -37 200 -283q12 -143 -90 -257t-247 -130q-41 -4 -121 -2q-125 2 -201 41q-68 35 -139 125q-119 147 -113 393q4 127 74 244q63 109 153 166q-23 4 -45 4q-141 0 -231 -125q-82 -109 -90 -262q-12 -213 49 -385q31 -87 94 -189h-74q-84 117 -122 281q-29 117 -17 301z " />
<glyph unicode="&#xd6;" horiz-adv-x="1347" d="M-31 653v88h682q-4 121 -82 177q-53 37 -188 36q-111 0 -154 -36q39 2 63.5 -28t20.5 -67q-8 -66 -90 -69q-43 -2 -77.5 26.5t-34.5 71.5q0 25 12 49q45 90 176 111q45 6 129 4q178 -4 250 -109q49 -74 49 -168q0 -27 -4 -53h-207q-127 0 -231 -63q-119 -72 -109 -174 q14 -133 152 -216q115 -70 321 -69q117 0 236 51q113 49 170 117q123 145 139 336q10 113 -25 213q-37 109 -112 168q-82 63 -236 63h-502q-217 0 -217 135q0 147 189 203q122 37 362 37q530 0 557 -217q14 -127 -108 -160q184 -166 186 -418q2 -199 -45 -325 q-39 -113 -133 -207q-166 -168 -457 -168q-272 0 -420 98q-193 127 -180 328q10 170 232 268h-168q-88 0 -146 -33zM188 1249q-8 -76 113 -75h504q-27 35 -31 43q-10 18 -12 43q-4 59 37 94q-143 8 -242 6q-356 -10 -369 -111zM838 1266q0 -70 100 -99q39 -12 72 -12 q61 0 80 41q8 16 8 31q0 63 -94 96q-39 14 -76 14q-90 1 -90 -71z" />
<glyph unicode="&#xd7;" horiz-adv-x="2301" d="M51 594q-12 -184 17 -301q39 -164 122 -281h74q-63 102 -94 189q-61 172 -49 385q8 154 90 262q90 125 231 125q23 0 45 -4q-90 -57 -153 -166q-70 -117 -74 -244q-6 -246 113 -393q72 -90 139 -125q76 -39 201 -41q184 -4 284 63q190 127 174 326q-20 250 -200 283 q-31 6 -58 6q-78 0 -143 -55q14 147 115 247q109 109 254 113q129 4 219 -61q-25 -35 -25 -74q0 -43 28 -70.5t71 -27.5q94 0 94 92q0 37 -20.5 63.5t-55.5 26.5q76 57 311 57q106 0 158 -12q78 -18 126 -71.5t62 -133.5h-442q-201 0 -319 -104q-125 -109 -125 -293 q0 -172 129 -271q94 -72 237 -98q76 -14 160 -14q113 0 213 26l-123 -122h82q66 47 154 47q109 0 110 -88q2 -78 -75.5 -131.5t-180.5 -53.5q-53 0 -100 17v-56q106 -29 211 -14q123 16 209 89t84 175q0 33 -27 72q-29 47 -74 61q-35 10 -73 11q-88 0 -152 -45l209 208h-72 q-86 -68 -139 -92q-88 -41 -203 -41q-393 0 -395 348q0 129 103.5 221.5t242.5 92.5h418q2 137 -86 229q-94 98 -340 94q-98 -2 -137 -6q-76 -6 -129 -26q-45 -18 -70 -39q-109 70 -240 71q-240 6 -385 -194q-82 -113 -82 -303q0 -59 9 -105h59q-4 16 -4 33q0 59 44 102 t103 43q23 0 47 -6q61 -16 91 -68.5t24 -119.5q-12 -125 -108 -195q-86 -63 -215 -63q-96 0 -142 8q-72 16 -125 64q-135 121 -141 313q-6 207 139 334q115 100 312 96v59h-334q-172 0 -284 -128t-124 -316z" />
<glyph unicode="&#xd8;" horiz-adv-x="2420" d="M33 582q6 152 65 268q68 133 185 170q90 29 139 -16q51 33 104 36q172 16 222 -122q109 76 264 108q70 14 168 14q221 0 342 -75q18 14 75 43q76 29 267 32q246 4 340 -94q88 -92 86 -229h-418q-139 0 -242.5 -92.5t-103.5 -221.5q0 -348 393 -348q115 0 203 41 q53 25 139 92h72l-209 -208q63 45 151 45q39 0 74 -11q45 -14 74 -61q27 -39 26 -72q2 -102 -84 -175t-208 -89q-104 -14 -211 14v56q47 -16 100 -17q102 0 180 53.5t76 131.5q-2 88 -111 88q-88 0 -153 -47h-82l123 122q-100 -27 -213 -26q-84 0 -160 14q-143 27 -238 98 q-129 98 -129 271q0 184 123 290.5t324 106.5h442q-14 80 -62 133t-126 72q-51 12 -158 12q-236 0 -311 -57q35 0 55.5 -26.5t20.5 -63.5q0 -92 -95 -92q-10 0 -22 2q-78 14 -78 90q0 45 29 78q-115 61 -291 67q-229 8 -408 -115q240 2 383 -139q129 -129 146 -332 q12 -154 -56 -270q-76 -131 -219 -131q-195 2 -225 106q-35 -106 -238 -106q-96 0 -162.5 63.5t-70.5 149.5q-4 57 12 104q4 12 14.5 31t10.5 25q0 12 -21 12q-29 0 -61 -37v84q35 70 164 221q53 63 217 217q10 10 10 25q0 33 -43 64.5t-104 27.5q-45 -4 -93.5 -44 t-62.5 -87q20 12 43 12q31 0 53.5 -26.5t22.5 -59.5q0 -35 -25.5 -57.5t-62.5 -22.5q-33 0 -56 19q-43 33 -43 100q0 76 60 142q-35 18 -106.5 -10.5t-123.5 -147.5q-47 -111 -51 -240q-8 -360 148 -553h-74q-150 211 -135 570zM371 442q35 8 61 9q51 0 51 -31 q0 -18 -20 -37q-39 -33 -39 -86q0 -45 20 -70q53 -63 154 -63q193 0 186 266h56q-4 -147 39 -206.5t145 -59.5q88 0 145 94q53 84 48 184q-8 139 -88 236.5t-216 130.5q-39 8 -92 8q-117 0 -165 -46t-134 -136q-110 -123 -151 -193z" />
<glyph unicode="&#xd9;" horiz-adv-x="1382" d="M18 383q12 123 107 182q115 72 246 64t153 -8q66 0 94.5 22.5t28.5 73.5q0 66 -39 114q-66 84 -250 84q-45 0 -77 -8q66 -45 65 -123q0 -57 -36 -101t-95 -50q-98 -10 -149 41q-37 41 -37 100q0 25 6 41q31 86 145 131q66 27 203 21q199 -8 268 -86q63 -72 64 -158 q0 -49 -23 -94q-33 -63 -147 -64q-14 0 -142 10q-129 10 -200 -34q-80 -51 -88 -140q-8 -106 76.5 -175.5t193.5 -61.5q223 14 223 178v150h70v-144q0 -201 229 -184q172 12 246 207q41 109 43 196q6 240 -74 373q-66 109 -221 168q-129 47 -268 47q-180 0 -299 -35 q-162 -47 -281 -172v68q37 37 76 67q-57 45 -57 129q0 123 127 199t442 76q76 0 150 -6q182 -16 299.5 -116.5t117.5 -225.5q0 -72 -41 -135q127 -170 125 -424q-2 -221 -92 -398q-98 -195 -315 -182q-41 2 -121 18q-88 37 -115 111q-35 -86 -157 -119q-51 -12 -132 -10 q-162 6 -256 113q-100 113 -86 270zM96 780q0 -37 28 -64.5t64 -27.5q37 0 65 27.5t28 64.5t-28 64.5t-65 27.5t-64.5 -27.5t-27.5 -64.5zM152 1163q0 -30 20 -53q199 96 457 96q315 0 501 -170q12 41 13 62q0 33 -37 86q-59 84 -217 131q-129 37 -262 37q-109 0 -230 -26 t-183 -63.5t-62 -99.5z" />
<glyph unicode="&#xda;" horiz-adv-x="1290" d="M41 434q-2 125 91 216t249 91h250q-10 119 -82 168q-53 37 -189 37q-111 0 -153 -37q39 2 63.5 -27.5t20.5 -66.5q-8 -66 -90 -70q-43 -2 -78 27t-35 72q0 25 12 49q45 90 176 111q45 6 130 4q178 -4 249 -109q49 -72 50 -164q0 -25 -5 -49h-299q-264 0 -262 -235 q2 -143 162 -224q139 -70 326 -63q207 6 355 144t159 339q12 236 -88 408q-33 -53 -98.5 -90t-139.5 -37q-113 0 -203 92q-29 29 -102 170q-51 96 -119 96q-43 0 -100 -29v58q129 57 297 57q96 0 186 -22q-27 45 -18 82q10 49 39 53q-92 14 -222 14q-139 0 -256 -43 q-164 -59 -163 -176q0 -80 55 -122t137 -42q98 0 170 60q2 -8 25 -52q-80 -70 -217 -69q-41 0 -76 8q-190 47 -191 231q0 25 4 49q23 133 183 201q133 57 323 58q498 0 523 -207q6 -55 -28 -94t-91 -48q18 -14 47 -39q98 -98 154.5 -247.5t56.5 -302.5q0 -299 -154 -480 q-158 -186 -432 -192q-295 -6 -455 131q-145 125 -147 311zM463 1311q61 -27 119 -123q61 -102 102 -127q49 -29 107 -29q137 0 188 127q-41 57 -139 111q-88 47 -275 47q-59 0 -102 -6zM823 1407q0 -35 47 -70q37 -27 82 -26q70 0 70 57q0 39 -45 65.5t-88 26.5 q-66 0 -66 -53z" />
<glyph unicode="&#xdb;" horiz-adv-x="2064" d="M-18 903q10 -6 34.5 -8t36.5 -8v-430q0 -20 25 -23q12 0 26 17v440l123 -2q39 0 78 43t39 82v434q0 41 -36 82t-77 41h-182l2 -637h-35q-33 0 -34 -31zM104 934v594h125q23 0 42.5 -25.5t23.5 -54.5v-434q0 -31 -25.5 -55.5t-56.5 -24.5h-109zM170 106v254h96 q33 -8 33 -24v-94q-6 -31 -27 -31h-61v-105h-41zM213 246h45v73h-45v-73zM313 106h138v254h-39v-219h-56v219h-43v-254zM332 66v-254h119v41h-74v65h72v37h-72v76h76v35h-121zM389 551q0 -61 41 -95t105 -36q57 -2 100 33t43 92v1007q0 18 -25 21q-25 0 -24 -25l2 -1003 q0 -80 -94 -80q-49 0 -74 21.5t-25 58.5v1007q0 18 -24 21q-25 0 -25 -25v-997zM475 106h129v148h-88v70h86v36h-127v-143h86v-74h-86v-37zM477 66v-254h41v120l64 -120h45l-78 139l74 115h-48l-55 -91v91h-43zM625 106v254h43v-108h59v108h41v-254h-41v111h-61v-111h-41z M639 -188l61 254h39l68 -254h-47l-17 69h-45l-14 -69h-45zM698 -244v-155h43v155h-43zM707 -84h30l-16 78zM721 1006q0 -68 57 -97q18 -10 111 -30q68 -14 82 -45q2 -4 10 -33q0 -27 2 -43q0 -31 -1 -44.5t-5 -35.5q0 -59 4 -88q0 -123 -102 -127q-43 -2 -71 23.5t-28 66.5 v129q-6 14 -20 16q-18 0 -25 -24q0 -16 -4 -56q0 -94 27 -139q35 -57 123 -59q147 -2 147 196q0 27 -2 39v95q0 45 -6 94q-4 39 -23 51q-45 33 -136 49.5t-91 40.5l2 467q0 41 32 63.5t73 22.5q90 2 98 -74q4 -45 16 -137l35 2v72q0 180 -154 180q-59 0 -105 -34t-46 -91 v-450zM774 -244h146v-155h-144v26h94v35h-96v94zM788 106v254h97q33 -8 33 -24v-94q-6 -31 -27 -31h-62v-105h-41zM817 66h41l62 -164v164h38v-254h-40l-60 157v-157h-41v254zM821 -268v-47h49v47h-49zM831 246h46v73h-46v-73zM905 106l62 254h39l67 -254h-47l-16 70h-45 l-15 -70h-45zM954 -244h146v-155h-144v26h95v35h-97v94zM969 -188l61 254h39l68 -254h-47l-17 69h-45l-14 -69h-45zM973 211h31l-17 78zM987 899l74 -12v-430q0 -20 24 -23q16 0 25 17v438h186v-432q0 -20 25 -23q17 1 25 17v1101q0 18 -25 21q-25 0 -25 -25v-614h-188 l2 618q0 18 -25 21q-18 0 -24 -33l-4 -606q-51 0 -70 -10v-25zM1001 -268v-47h50v47h-50zM1036 -84h31l-16 78zM1085 106v254h41l62 -163v163h39v-254h-41l-60 158v-158h-41zM1112 66l62 -140v-114h40v116l62 138h-43l-39 -93l-39 93h-43zM1137 -244h139v-155h-139v155z M1182 -268v-39h49v39h-49zM1182 -334v-39h49v39h-49zM1239 106l61 254h39l68 -254h-47l-17 70h-45l-14 -70h-45zM1239 -188l61 254h39l68 -254h-47l-17 69h-45l-14 -69h-45zM1307 -84h30l-16 78zM1307 211h30l-16 78zM1315 903q10 -6 34.5 -8t36.5 -8v-430q0 -20 25 -23 q12 0 27 17v440l123 -2q39 0 77.5 43t38.5 82v434q0 41 -35.5 82t-76.5 41h-183l2 -637h-34q-31 0 -35 -31zM1421 66v-254h41v120l64 -120h45l-78 139l74 115h-47l-56 -91v91h-43zM1421 106v254h41l62 -163v163h39v-254h-41l-60 158v-158h-41zM1438 934v594h125 q23 0 42 -25.5t23 -54.5v-434q0 -31 -25.5 -55.5t-56.5 -24.5h-108zM1581 106v254h109q27 0 28 -28v-197q0 -23 -22 -29h-115zM1585 -188l62 254h39l67 -254h-47l-16 69h-45l-15 -69h-45zM1620 139h57v185h-57v-185zM1653 -84h30l-16 78zM1653 903q10 -6 34.5 -8t36.5 -8 v-430q0 -20 25 -23q12 0 27 17v438h190v-432q0 -20 25 -23q16 1 24 17v1007q0 57 -41 90t-100 35q-74 2 -103.5 -27.5t-46.5 -107.5l-2 -514h-34q-31 0 -35 -31zM1722 106l62 254h39l67 -254h-47l-16 70h-45l-15 -70h-45zM1774 936v520q0 78 98 82q35 2 63.5 -18.5 t28.5 -61.5v-522h-190zM1790 211h31l-17 78z" />
<glyph unicode="&#xdc;" horiz-adv-x="1290" d="M14 975v98q43 -8 172 51q-72 47 -71 131q0 125 176 185q137 47 340 47q508 0 528 -246q8 -96 -94 -158q164 -166 172 -391q12 -307 -158 -508q-158 -186 -436 -192q-293 -6 -450 135q-168 152 -168 410q0 197 122.5 327.5t331.5 139.5q121 6 164 -21v-53q-49 25 -162 20 q-178 -6 -280.5 -118.5t-89.5 -282.5q12 -184 172 -291q143 -98 344 -94q213 4 366.5 153.5t151.5 354.5q-2 133 -32 212t-103 144q-131 117 -404 123q-147 4 -315 -45q-45 -12 -146 -72q-92 -53 -131 -59zM211 1219q-6 -35 33 -76q145 59 362 59q254 0 402 -94q68 29 67 76 q0 37 -41 71t-96 50q-162 45 -356 38q-352 -10 -371 -124z" />
<glyph unicode="&#xdd;" horiz-adv-x="1290" d="M41 434q-2 125 91 216t249 91h250q-10 119 -82 168q-53 37 -189 37q-111 0 -153 -37q39 2 63.5 -27.5t20.5 -66.5q-8 -66 -90 -70q-43 -2 -78 27t-35 72q0 25 12 49q45 90 176 111q45 6 130 4q178 -4 249 -109q49 -72 50 -164q0 -25 -5 -49h-299q-264 0 -262 -235 q2 -143 162 -224q140 -69 326 -63q207 6 355 144t159 339q12 236 -88 408q-33 -53 -98.5 -90t-139.5 -37q-113 0 -203 92q-29 29 -102 170q-51 96 -119 96q-43 0 -100 -29v58q131 57 301 57q268 0 426 -158q98 -98 154.5 -247.5t56.5 -302.5q0 -299 -154 -480 q-158 -186 -432 -192q-295 -6 -455 131q-145 125 -147 311zM55 1292q0 25 4 49q23 133 183 201q133 57 323 57q494 0 522 -206q12 -96 -96 -144l-51 41q25 4 52.5 24.5t27.5 49.5q0 14 -8 29q-63 104 -441 104q-139 0 -256 -43q-164 -59 -163 -176q0 -80 55 -123t137 -43 q100 1 172 64l27 -50q-80 -74 -221 -73q-41 0 -76 8q-190 47 -191 231zM463 1311q61 -27 119 -123q61 -102 102 -127q49 -29 107 -29q137 0 188 127q-41 57 -139 111q-88 47 -275 47q-59 0 -102 -6z" />
<glyph unicode="&#xde;" horiz-adv-x="1101" d="M33 375q0 -172 129 -271q94 -72 237 -98q76 -14 160 -14q113 0 213 26l-123 -122h82q66 47 154 47q109 0 110 -88q2 -78 -75.5 -131.5t-180.5 -53.5q-53 0 -100 17v-56q106 -29 211 -14q123 16 209 89t84 175q0 33 -27 72q-29 47 -74 61q-35 10 -73 11q-88 0 -152 -45 l209 208h-72q-86 -68 -139 -92q-88 -41 -203 -41q-188 0 -290.5 91.5t-102.5 265.5q0 127 104.5 216t241.5 89h418q2 137 -86 229q-94 98 -340 94q-98 -2 -137 -6q-76 -6 -129 -26q-125 -49 -139 -142q-8 -47 20.5 -81.5t75.5 -34.5q41 0 66.5 26.5t25.5 65.5 q0 37 -20.5 63.5t-55.5 26.5q76 57 311 57q106 0 158 -12q78 -18 126 -71.5t63 -133.5h-443q-201 0 -323.5 -106.5t-122.5 -290.5z" />
<glyph unicode="&#xdf;" horiz-adv-x="1183" d="M16 504q-6 266 213 428q-45 12 -63 18q-30 14 -55 39q-45 45 -45 107q0 137 180 247q129 80 248 80q125 0 188 -94q27 -39 27 -92q0 -57 -27 -96q109 72 141 121q-55 10 -55 71q0 27 12 43q27 35 70 35q33 0 62.5 -19.5t29.5 -64.5q0 -33 -16 -61q-27 -51 -127 -119 q-106 -72 -213 -107q256 -29 370 -135q174 -162 174 -391q0 -236 -167 -385q-135 -119 -345 -133q-291 -18 -466 164q-129 135 -136 344zM100 563q0 -27 4 -55q20 -158 152 -256q125 -94 295 -94q176 0 309 90q143 100 168 270q4 31 4 60q0 174 -135 290.5t-319 116.5 q-195 0 -336.5 -121t-141.5 -301zM156 1065q0 -43 47 -76q29 -20 76 -22q33 18 94 41q37 12 110 39q87 32 148 65q23 49 22 80q0 31 -14 65q-27 68 -109 68q-88 0 -215 -72q-160 -92 -159 -188z" />
<glyph unicode="&#xe0;" horiz-adv-x="1290" d="M25 537q0 197 122.5 327.5t331.5 139.5q121 6 164 -21v-53q-49 25 -162 20q-178 -6 -280.5 -118.5t-89.5 -282.5q12 -184 172 -291q143 -98 344 -94q213 4 366.5 153.5t151.5 354.5q-2 274 -135 377q-82 63 -236 63h-477q-217 0 -217 135q0 147 188 203q123 37 363 37 q506 0 532 -217q14 -127 -108 -160q182 -164 186 -418q2 -182 -41 -305q-35 -102 -121 -203q-158 -186 -436 -192q-293 -6 -450 135q-168 152 -168 410zM168 1249q-8 -76 113 -75h503q-27 35 -30 43q-10 18 -13 43q-4 59 37 94q-82 12 -241 6q-358 -16 -369 -111zM817 1266 q0 -70 101 -99q39 -12 71 -12q61 0 80 41q8 16 8 31q0 63 -94 96q-39 14 -76 14q-90 1 -90 -71z" />
<glyph unicode="&#xe1;" horiz-adv-x="1290" d="M25 537q0 197 122.5 327.5t331.5 139.5q121 6 164 -21v-53q-49 25 -162 20q-178 -6 -280.5 -118.5t-89.5 -282.5q12 -184 172 -291q143 -98 344 -94q213 4 366.5 153.5t151.5 354.5q-2 274 -135 377q-82 63 -236 63h-477q-217 0 -217 135q0 147 188 203q123 37 363 37 q506 0 532 -217q14 -127 -108 -160q182 -164 186 -418q2 -182 -41 -305q-35 -102 -121 -203q-158 -186 -436 -192q-293 -6 -450 135q-168 152 -168 410zM168 1249q-8 -76 113 -75h540q72 0 146 -25q82 0 100 41q4 12 4 22q0 47 -80 88q-63 34 -139 46q-119 20 -315 14 q-356 -10 -369 -111z" />
<glyph unicode="&#xe2;" horiz-adv-x="1382" d="M-31 674v61h623q-8 80 -43 131q-47 68 -146 84q-94 14 -167 -14q55 -35 55 -90q0 -98 -109 -94q-49 2 -77.5 38.5t-22.5 81.5q10 78 117 113q84 29 184 19q152 -14 215.5 -100.5t65.5 -229.5h-285q-121 0 -205 -88q-68 -72 -68 -172q0 -106 83 -179t196 -71 q223 4 223 178v150h70v-144q0 -197 229 -184q172 10 246 207q41 111 43 270q2 262 -137 387q-129 117 -428 123q-158 4 -307 -27q-51 -10 -163 -66.5t-141 -60.5v103q94 4 199 51q-59 12 -76 66q-8 27 -8 51q0 119 178 176q137 43 342 43q532 0 553 -246q8 -96 -94 -158 q164 -168 178 -430q14 -270 -90 -467.5t-317 -185.5q-41 2 -121 18q-88 37 -115 111q-35 -86 -157 -119q-51 -12 -132 -10q-162 6 -256 112.5t-90 278.5q2 127 90 215q53 53 99 68h-234zM238 1227q-4 -31 43 -58q164 37 346 35q287 -4 430 -96q68 29 67 76q0 37 -41 70.5 t-96 50.5q-164 44 -385 38q-350 -10 -364 -116z" />
<glyph unicode="&#xe3;" horiz-adv-x="1382" d="M-31 674v61h623q-8 80 -43 131q-47 68 -146 84q-94 14 -167 -14q55 -35 55 -90q0 -98 -109 -94q-49 2 -77.5 38.5t-22.5 81.5q10 78 117 113q84 29 184 19q152 -14 215.5 -100.5t65.5 -229.5h-285q-121 0 -205 -88q-68 -72 -68 -172q0 -106 83 -179t196 -71 q223 4 223 178v150h70v-144q0 -197 229 -184q172 10 246 207q45 121 45 297q0 272 -139 381q-80 63 -236 63h-534q-217 0 -217 135q0 240 583 240q530 0 557 -217q14 -127 -108 -160q180 -162 190 -426q12 -301 -92 -498.5t-317 -185.5q-41 2 -121 18q-88 37 -115 111 q-35 -86 -157 -119q-51 -12 -132 -10q-162 6 -256 112.5t-90 278.5q2 127 90 215q53 53 99 68h-234zM160 1249q-8 -76 112 -75h541q-27 35 -31 43q-10 18 -12 43q-4 59 37 94q-160 10 -279 6q-356 -10 -368 -111zM846 1266q0 -70 100 -99q39 -12 72 -12q61 0 80 41 q8 16 8 31q0 63 -94 96q-39 14 -76 14q-90 1 -90 -71z" />
<glyph unicode="&#xe4;" horiz-adv-x="1382" d="M-31 674v61h623q-8 80 -43 131q-47 68 -146 84q-94 14 -167 -14q55 -35 55 -90q0 -98 -109 -94q-49 2 -77.5 38.5t-22.5 81.5q10 78 117 113q84 29 184 19q152 -14 215.5 -100.5t65.5 -229.5h-285q-121 0 -205 -88q-68 -72 -68 -172q0 -106 83 -179t196 -71 q223 4 223 178v150h70v-144q0 -197 229 -184q172 10 246 207q45 121 45 297q0 272 -139 381q-80 63 -236 63h-534q-217 0 -217 135q0 240 583 240q530 0 557 -217q14 -127 -108 -160q180 -162 190 -426q12 -301 -92 -498.5t-317 -185.5q-41 2 -121 18q-88 37 -115 111 q-35 -86 -157 -119q-51 -12 -132 -10q-162 6 -256 112.5t-90 278.5q2 127 90 215q53 53 99 68h-234zM160 1249q-8 -76 112 -75h598q72 0 146 -25q82 0 100 41q4 12 4 22q0 47 -80 88q-63 34 -139 46q-127 23 -373 14q-356 -10 -368 -111z" />
<glyph unicode="&#xe5;" horiz-adv-x="1601" d="M33 582q14 319 248 393q82 27 129 -10q72 53 219 39q152 -14 215 -100.5t65 -229.5h-284q-121 0 -205 -88q-68 -72 -68 -172q0 -106 83 -179t196 -71q223 4 223 178v150h70v-144q0 -197 229 -184q172 10 246 207q41 111 43 270q2 262 -137 387q-129 117 -428 123 q-154 4 -310 -29q-49 -10 -161.5 -62t-145.5 -56v104q37 -2 113 14q68 14 92 27q-55 16 -70 63q-8 29 -8 56q0 117 176 174q137 45 338 45q532 0 553 -246q8 -96 -94 -158q164 -168 178 -430q14 -270 -90.5 -467.5t-317.5 -185.5q-41 2 -120 18q-88 37 -115 111 q-35 -86 -158 -119q-51 -12 -131 -10q-162 6 -256 112.5t-90 278.5q2 127 90 215q53 53 99 68h-248v61h637q-8 80 -43 131q-47 68 -146 84q-94 14 -168 -14q55 -35 56 -90q0 -98 -109 -94q-51 2 -81 38.5t-19 81.5q6 27 26 48q-51 3 -92 -13q-74 -31 -119 -124t-49 -218 q-8 -360 148 -553h-74q-150 211 -135 570zM485 1219q-2 -18 12.5 -29.5t28.5 -22.5q147 39 351 37q283 -4 426 -96q68 29 67 76q0 37 -41 71t-96 50q-164 45 -381 38q-350 -10 -367 -124z" />
<glyph unicode="&#xe6;" horiz-adv-x="405" d="M90 98q0 49 37 82q31 27 72 27q49 0 82 -37q27 -31 26 -72q0 -49 -33.5 -78.5t-74.5 -29.5q-49 0 -82 37q-27 31 -27 71zM90 1161q0 154 109 154q102 0 102 -152q0 -84 -14 -157q-14 -92 -39 -248q-16 -98 -21 -269q-2 -61 0 -163h-59q2 104 0 163q-4 115 -23 273 q0 2 -34 217q-20 127 -21 182z" />
<glyph unicode="&#xe7;" horiz-adv-x="1601" d="M33 582q14 319 248 393q27 8 65 6q43 -2 62 -14q27 20 100 32q68 8 121 5q152 -14 215 -100.5t65 -229.5h-284q-121 0 -205 -88q-68 -72 -68 -172q0 -106 83 -179t196 -71q223 4 223 178v150h70v-144q0 -197 229 -184q172 10 246 207q45 121 45 297q0 272 -139 381 q-80 63 -236 63h-534q-205 0 -216 135q-16 240 582 240q530 0 557 -217q14 -127 -108 -160q180 -162 190 -426q12 -301 -92.5 -498.5t-317.5 -185.5q-41 2 -120 18q-88 37 -115 111q-35 -86 -158 -119q-51 -12 -131 -10q-162 6 -256 112.5t-90 278.5q2 127 90 215 q53 53 99 68h-248v61h637q-8 80 -43 131q-47 68 -146 84q-94 14 -168 -14q55 -35 56 -90q0 -98 -109 -94q-78 2 -98 73q-16 57 20 95q-43 4 -88 -15q-76 -31 -120 -123t-48 -217q-8 -360 148 -553h-74q-150 211 -135 570zM406 1249q-8 -76 112 -75h598q72 0 146 -25 q82 0 100 41q4 12 4 22q0 47 -80 88q-63 33 -139 46q-127 22 -373 14q-356 -10 -368 -111z" />
<glyph unicode="&#xe8;" d="M23 973v102q37 -6 104 15q59 18 88 34q-53 23 -68 82q-6 27 -6 49q0 125 178 187q137 45 340 45q532 0 553 -246q8 -96 -94 -158q160 -168 180 -399q6 -63 7 -123q0 -248 -93 -399q-98 -160 -278 -162q-131 -2 -195 37q-55 33 -90 115q-63 -152 -258 -152 q-176 0 -268 127t-90 348q4 276 184 416q115 88 279 102q100 8 188 -10v-61q-16 10 -79.5 16t-94.5 2q-227 -25 -330 -190q-55 -90 -55 -226q0 -41 4 -86q31 -272 262 -272q98 0 164 63.5t66 176.5v159h61v-155q0 -113 65.5 -178.5t170.5 -67.5q137 -2 221 149 q79 145 69 342q-12 254 -143 372t-430 124q-156 4 -332 -51q-37 -12 -141 -68q-94 -51 -139 -59zM236 1217q-8 -49 40 -70q143 55 359 55q279 0 426 -94q68 29 67 76q0 37 -41 71t-96 50q-164 45 -381 38q-137 -4 -237 -30q-127 -35 -137 -96z" />
<glyph unicode="&#xe9;" horiz-adv-x="1601" d="M33 582q14 319 248 393q27 8 65 6q43 -2 62 -14q27 20 100 32q68 8 121 5q152 -14 215 -100.5t65 -229.5h-284q-121 0 -205 -88q-68 -72 -68 -172q0 -106 83 -179t196 -71q223 4 223 178v150h70v-144q0 -197 229 -184q172 10 246 207q45 121 45 297q0 272 -139 381 q-80 63 -236 63h-534q-207 0 -218 135q-16 240 584 240q530 0 557 -217q14 -127 -108 -160q180 -162 190 -426q12 -301 -92.5 -498.5t-317.5 -185.5q-41 2 -120 18q-88 37 -115 111q-35 -86 -158 -119q-51 -12 -131 -10q-162 6 -256 112.5t-90 278.5q2 127 90 215 q53 53 99 68h-240v61h629q-8 80 -43 131q-47 68 -146 84q-94 14 -168 -14q55 -35 56 -90q0 -98 -109 -94q-78 2 -98 73q-17 58 20 95q-43 4 -88 -15q-76 -31 -120 -123t-48 -217q-8 -360 148 -553h-74q-150 211 -135 570zM406 1249q-8 -76 112 -75h557q-27 35 -31 43 q-10 18 -12 43q-4 59 37 94q-162 10 -295 6q-356 -10 -368 -111zM1108 1266q0 -70 100 -99q39 -12 72 -12q61 0 80 41q8 16 8 31q0 63 -94 96q-39 14 -76 14q-90 1 -90 -71z" />
<glyph unicode="&#xea;" d="M33 475q4 276 184 416q115 88 279 102q100 8 188 -10v-61q-16 10 -79.5 16t-94.5 2q-227 -25 -330 -190q-55 -90 -55 -226q0 -41 4 -86q31 -272 262 -272q98 0 164 63.5t66 176.5v159h61v-155q0 -113 65.5 -178.5t170.5 -67.5q137 -2 219 151q75 144 71 355 q-4 272 -141 379q-82 63 -236 63h-501q-217 0 -217 135q0 147 188 203q123 37 363 37q530 0 557 -217q14 -127 -109 -160q176 -158 186 -418q27 -686 -364 -692q-131 -2 -195 37q-55 33 -90 115q-63 -152 -258 -152q-176 0 -268 127t-90 348zM201 1249q-8 -76 112 -75h566 q72 0 145 -25q82 0 100 41q4 12 4 22q0 47 -79 88q-64 34 -140 46q-123 20 -340 14q-356 -10 -368 -111z" />
<glyph unicode="&#xeb;" d="M33 475q4 276 184 416q115 88 279 102q100 8 188 -10v-61q-16 10 -79.5 16t-94.5 2q-227 -25 -330 -190q-55 -90 -55 -226q0 -41 4 -86q31 -272 262 -272q98 0 164 63.5t66 176.5v159h61v-155q0 -113 65.5 -178.5t170.5 -67.5q137 -2 219 151q75 144 71 355 q-4 272 -141 379q-82 63 -236 63h-501q-217 0 -217 135q0 147 188 203q123 37 363 37q530 0 557 -217q14 -127 -109 -160q176 -158 186 -418q27 -686 -364 -692q-131 -2 -195 37q-55 33 -90 115q-63 -152 -258 -152q-176 0 -268 127t-90 348zM201 1249q-8 -76 112 -75h508 q-27 35 -30 43q-10 18 -13 43q-4 63 37 94q-104 10 -246 6q-356 -10 -368 -111zM854 1266q0 -70 100 -99q39 -12 72 -12q61 0 80 41q8 16 8 31q0 63 -94 96q-39 14 -76 14q-90 1 -90 -71z" />
<glyph unicode="&#xec;" d="M29 496q0 221 136 363t365 142q152 0 252 -69q113 -78 113 -213q0 -35 -6 -70q-14 -72 -123 -139q-45 -27 -90 -51q-49 -37 -51 -97q-4 -102 61.5 -152t169.5 -42q203 16 293 227q51 121 53 277q4 268 -135 377q-82 63 -236 63h-501q-217 0 -217 135q0 147 188 203 q123 37 363 37q530 0 557 -217q14 -127 -109 -160q172 -156 186 -418q16 -309 -98 -495q-115 -193 -332 -197q-147 -4 -223 51q-57 43 -90 107q-12 -70 -67.5 -116t-135.5 -46q-150 0 -241 164q-82 143 -82 336zM113 397q12 66 85.5 108t147.5 38q59 -4 117 -45 q65 -47 88 -117q18 94 108 143q111 61 111 148q0 154 -278 153q-152 0 -250.5 -73.5t-122.5 -208.5q-6 -33 -6 -146zM154 303q0 -70 48 -117t115 -47q70 0 117 48.5t47 113.5q0 70 -49 118t-117 48q-70 0 -115.5 -48t-45.5 -116zM201 1249q-8 -76 112 -75h566q72 0 145 -25 q82 0 100 41q4 12 4 22q0 47 -79 88q-64 34 -140 46q-123 20 -340 14q-356 -10 -368 -111z" />
<glyph unicode="&#xed;" d="M29 496q0 221 136 363t365 142q152 0 252 -69q113 -78 113 -213q0 -35 -6 -70q-14 -72 -123 -139q-45 -27 -90 -51q-49 -37 -51 -97q-4 -102 61.5 -152t169.5 -42q199 14 293 227q59 133 59 289q0 74 -12 133q-27 121 -129 211q-129 117 -428 123q-156 4 -344 -55 q-37 -12 -137 -62q-90 -45 -129 -53v92q115 8 186 51q-49 23 -65 86q-6 25 -7 47q0 127 179 185q135 45 342 45q532 0 553 -246q8 -96 -95 -158q158 -162 176 -391q4 -43 5 -84q0 -260 -117 -428q-119 -176 -318 -180q-147 -4 -223 51q-57 43 -90 107q-12 -70 -67.5 -116 t-135.5 -46q-150 0 -241 164q-82 143 -82 336zM113 397q12 66 85.5 108t147.5 38q59 -4 117 -45q65 -47 88 -117q18 94 108 143q111 61 111 148q0 154 -278 153q-152 0 -250.5 -73.5t-122.5 -208.5q-6 -33 -6 -146zM154 303q0 -70 48 -117t115 -47q70 0 117 48.5t47 113.5 q0 70 -49 118t-117 48q-70 0 -115.5 -48t-45.5 -116zM242 1219q-8 -51 34 -74q147 57 363 57q279 0 426 -94q68 29 68 76q0 37 -41.5 71t-96.5 50q-164 45 -381 38q-354 -10 -372 -124z" />
<glyph unicode="&#xee;" d="M29 496q0 221 136 363t365 142q152 0 252 -69q113 -78 113 -213q0 -35 -6 -70q-14 -72 -123 -139q-45 -27 -90 -51q-49 -37 -51 -97q-4 -102 61.5 -152t169.5 -42q203 16 293 227q51 121 53 277q4 268 -135 377q-82 63 -236 63h-501q-217 0 -217 135q0 147 188 203 q123 37 363 37q530 0 557 -217q14 -127 -109 -160q172 -156 186 -418q16 -309 -98 -495q-115 -193 -332 -197q-147 -4 -223 51q-57 43 -90 107q-12 -70 -67.5 -116t-135.5 -46q-150 0 -241 164q-82 143 -82 336zM113 397q12 66 85.5 108t147.5 38q59 -4 117 -45 q65 -47 88 -117q18 94 108 143q111 61 111 148q0 154 -278 153q-152 0 -250.5 -73.5t-122.5 -208.5q-6 -33 -6 -146zM154 303q0 -70 48 -117t115 -47q70 0 117 48.5t47 113.5q0 70 -49 118t-117 48q-70 0 -115.5 -48t-45.5 -116zM201 1249q-8 -76 112 -75h508q-27 35 -30 43 q-10 18 -13 43q-4 66 37 94q-80 10 -246 6q-356 -10 -368 -111zM854 1266q0 -70 100 -99q39 -12 72 -12q61 0 80 41q8 16 8 31q0 63 -94 96q-39 14 -76 14q-90 1 -90 -71z" />
<glyph unicode="&#xef;" horiz-adv-x="1402" d="M25 979v100q41 -2 108.5 15.5t91.5 31.5q-66 33 -78 86q-6 23 -6 45q0 123 183 185q139 45 344 45q532 0 553 -246q8 -96 -95 -158q169 -170 177 -391q12 -305 -162 -502.5t-457 -197.5q-268 0 -440 147q-182 158 -183 422q0 170 80 291q92 137 248 139q117 0 139 -119 q8 -43 -26 -108q-37 -72 -37 -107q0 -68 53 -104.5t141 -40.5q84 -4 153 33t93 104q14 43 15 80q0 53 -33 109q-2 -70 -54.5 -118t-123.5 -44q-68 2 -116 53t-44 119q2 63 53 106t119 45q127 2 202.5 -99t63.5 -232q-12 -123 -104 -202t-215 -73q-127 6 -207 72 q-90 76 -80 203q4 39 45 102q37 57 33 90q-10 80 -94 78q-86 -2 -146.5 -94t-60.5 -217q0 -201 157 -334q145 -123 353 -129q225 -8 387 155q152 154 151 353q0 236 -132 354.5t-431 124.5q-156 4 -324 -47q-39 -12 -145 -66q-98 -49 -149 -59zM240 1214q-6 -35 57 -65 q147 53 346 53q279 0 426 -94q68 29 68 76q0 37 -41.5 71t-96.5 50q-164 45 -381 38q-137 -4 -239 -32q-129 -35 -139 -97zM610 842q0 -43 33 -76t76 -33t75.5 33t32.5 76t-32.5 75.5t-75.5 32.5t-76 -32.5t-33 -75.5z" />
<glyph unicode="&#xf0;" horiz-adv-x="1331" d="M20 430q0 141 96.5 240.5t243.5 99.5h207q2 104 -55 164q-49 49 -123 53q-162 8 -219 -51q39 0 64.5 -25.5t25.5 -60.5q0 -43 -35 -64.5t-78 -15.5q-80 12 -79 90q0 100 102 150q31 14 88 24q-43 29 -68 56q-53 61 -55 143q-6 186 184 268q117 51 277 51q168 0 278 -51 q180 -84 179 -268q-2 -111 -117 -193q25 0 33 -2q23 20 153 99q88 53 90 100q-14 -4 -28 -4q-68 0 -70 57q-2 76 76 82q82 6 100 -65q6 -23 6 -43q0 -92 -104 -152q-43 -20 -148 -78q37 0 76 -22q96 -55 94 -150q-2 -49 -32.5 -89t-73.5 -46q162 -115 162 -326 q0 -190 -178 -307q-164 -106 -443 -106q-311 0 -470 119.5t-159 322.5zM113 475q0 -25 6 -51q29 -113 139 -182q123 -78 395 -78q457 0 514 260q6 27 7 53q0 98 -70 170t-174 72h-266q0 176 53 235q20 23 59 52q217 96 205 219q-16 164 -389 164t-385 -166q-4 -68 51 -121 q45 -43 176 -70q88 -18 141.5 -80.5t53.5 -232.5h-254q-109 0 -185.5 -73t-76.5 -171zM723 770h209q-47 37 -47 102q0 72 47 115q-106 4 -159.5 -56.5t-49.5 -160.5zM946 872q0 -49 39 -79q29 -23 66 -23q49 0 79 39q20 27 21 61q0 53 -39 82q-27 20 -63 21q-49 0 -80 -37 q-23 -27 -23 -64z" />
<glyph unicode="&#xf1;" horiz-adv-x="1402" d="M61 561q0 170 80 291q92 137 248 139q117 0 139 -119q8 -43 -26 -108q-37 -72 -37 -107q0 -68 53 -104.5t141 -40.5q84 -4 153 33t93 104q14 43 15 80q0 53 -33 109q-2 -70 -54.5 -118t-123.5 -44q-68 2 -116 53t-44 119q2 63 53 106t119 45q127 2 202.5 -99t63.5 -232 q-12 -123 -104 -202t-215 -73q-127 6 -207 72q-90 76 -80 203q4 39 45 102q37 57 33 90q-10 80 -94 78q-86 -2 -146.5 -94t-60.5 -217q0 -201 157 -334q145 -123 353 -129q225 -8 387 155q152 154 151 353q0 273 -135 377q-82 63 -235 63h-502q-217 0 -217 135 q0 147 188 203q123 37 363 37q530 0 557 -217q14 -127 -109 -160q176 -158 187 -418q12 -305 -162 -502.5t-457 -197.5q-268 0 -440 147q-182 158 -183 422zM205 1249q-8 -76 112 -75h566q72 0 145 -25q82 0 100 41q4 12 5 22q0 47 -80 88q-64 34 -140 46q-123 20 -340 14 q-356 -10 -368 -111zM610 842q0 -43 33 -76t76 -33t75.5 33t32.5 76t-32.5 75.5t-75.5 32.5t-76 -32.5t-33 -75.5z" />
<glyph unicode="&#xf2;" horiz-adv-x="1382" d="M20 578q8 150 105.5 273.5t234.5 127.5q55 2 96.5 -31t39.5 -90q0 -37 -28 -62.5t-28 -50.5q0 -10 2 -24q10 -45 76 -74t137 -29q158 0 215 121q10 20 11 47q0 53 -35 86q4 -20 4 -38q0 -70 -51 -108t-119 -34q-59 2 -102 43t-46 101q-4 66 45.5 112.5t114.5 46.5 q119 0 187.5 -57t68.5 -160q0 -27 -6 -57q-14 -78 -96 -134.5t-193 -56.5q-115 0 -201.5 58.5t-86.5 144.5q0 47 31.5 79t33.5 40t2 16q0 61 -96 54q-88 -6 -157.5 -98.5t-78.5 -229.5q-6 -98 17.5 -183t97.5 -159q86 -86 186 -88q82 -2 117 18.5t25 65.5q-6 33 -90 55 q-76 20 -74 78q4 104 266 104t266 -96q4 -63 -63 -82q-76 -20 -84 -53q-10 -45 41 -69.5t119 -20.5q168 12 241 211q59 156 49 293q-16 248 -144 362.5t-427 120.5q-147 4 -317 -47q-45 -14 -152.5 -63.5t-148.5 -61.5v94q106 -4 196 51q-78 43 -78 131q0 123 181 185 q139 47 344 47q532 0 553 -246q8 -96 -95 -158q154 -156 181 -407q4 -45 4 -88q0 -227 -105 -406q-98 -166 -305 -182q-100 -8 -168.5 49t-68.5 146q0 29 8 57q12 45 73 65q53 20 52 52q-2 39 -36 51t-116 12q-150 0 -156 -59q-2 -29 60 -51q68 -29 82 -68q10 -31 10 -68 q0 -78 -47 -129q-57 -61 -164 -61q-27 0 -53 4q-133 16 -230 117q-143 152 -127 461zM248 1219q-6 -43 43 -70q156 53 352 53q279 0 426 -94q68 29 68 76q0 37 -41.5 71t-96.5 50q-164 45 -381 38q-352 -10 -370 -124zM602 844q0 -37 26.5 -63.5t63.5 -26.5t63.5 26.5 t26.5 63.5t-26.5 63.5t-63.5 26.5t-63.5 -26.5t-26.5 -63.5z" />
<glyph unicode="&#xf3;" horiz-adv-x="1402" d="M61 561q0 170 80 291q92 137 248 139q117 0 139 -119q8 -43 -26 -108q-37 -72 -37 -107q0 -68 53 -104.5t141 -40.5q84 -4 153 33t93 104q14 43 15 80q0 53 -33 109q-2 -70 -54.5 -118t-123.5 -44q-68 2 -116 53t-44 119q2 63 53 106t119 45q127 2 202.5 -99t63.5 -232 q-12 -123 -104 -202t-215 -73q-127 6 -207 72q-90 76 -80 203q4 39 45 102q37 57 33 90q-10 80 -94 78q-86 -2 -146.5 -94t-60.5 -217q0 -201 157 -334q145 -123 353 -129q229 -8 379.5 139.5t158.5 368.5q10 264 -135 377q-82 63 -235 63h-502q-217 0 -217 135 q0 147 188 203q123 37 363 37q530 0 557 -217q14 -127 -109 -160q176 -158 187 -418q12 -305 -162 -502.5t-457 -197.5q-268 0 -440 147q-182 158 -183 422zM205 1249q-8 -76 112 -75h504q-27 35 -30 43q-10 18 -13 43q-4 59 37 94q-141 8 -242 6q-356 -10 -368 -111z M610 842q0 -43 33 -76t76 -33t75.5 33t32.5 76t-32.5 75.5t-75.5 32.5t-76 -32.5t-33 -75.5zM854 1266q0 -70 100 -99q39 -12 72 -12q61 0 80 41q8 16 8 31q0 63 -94 96q-39 14 -76 14q-90 1 -90 -71z" />
<glyph unicode="&#xf4;" horiz-adv-x="1382" d="M20 578q8 150 105.5 273.5t234.5 127.5q55 2 96.5 -31t39.5 -90q0 -37 -28 -62.5t-28 -50.5q0 -10 2 -24q10 -45 76 -74t137 -29q158 0 215 121q10 20 11 47q0 53 -35 86q4 -20 4 -38q0 -70 -51 -108t-119 -34q-59 2 -102 43t-46 101q-4 66 45.5 112.5t114.5 46.5 q119 0 187.5 -57t68.5 -160q0 -27 -6 -57q-14 -78 -96 -134.5t-193 -56.5q-115 0 -201.5 58.5t-86.5 144.5q0 47 31.5 79t33.5 40t2 16q0 61 -96 54q-88 -6 -157.5 -98.5t-78.5 -229.5q-6 -98 17.5 -183t97.5 -159q86 -86 186 -88q82 -2 117 18.5t25 65.5q-6 33 -90 55 q-76 20 -74 78q4 104 266 104t266 -96q4 -63 -63 -82q-76 -20 -84 -53q-10 -45 41 -69.5t119 -20.5q168 12 241 211q55 150 49 297q-12 274 -143 377q-82 63 -235 63h-502q-217 0 -217 135q0 147 188 203q123 37 363 37q530 0 557 -217q14 -127 -109 -160q176 -158 191 -422 q18 -305 -101 -506q-98 -166 -305 -182q-100 -8 -168.5 49t-68.5 146q0 29 8 57q12 45 73 65q53 20 52 52q-2 39 -36 51t-116 12q-150 0 -156 -59q-2 -29 60 -51q68 -29 82 -68q10 -31 10 -68q0 -78 -47 -129q-57 -61 -164 -61q-27 0 -53 4q-133 16 -230 117 q-143 152 -127 461zM205 1249q-8 -76 112 -75h566q72 0 145 -25q82 0 100 41q4 12 5 22q0 47 -80 88q-64 34 -140 46q-123 20 -340 14q-356 -10 -368 -111zM602 844q0 -37 26.5 -63.5t63.5 -26.5t63.5 26.5t26.5 63.5t-26.5 63.5t-63.5 26.5t-63.5 -26.5t-26.5 -63.5z" />
<glyph unicode="&#xf5;" horiz-adv-x="1314" d="M10 993v92q117 8 178 45q-59 23 -73 80q-6 27 -6 50q0 125 174 182q131 45 335 45q532 0 553 -246q8 -96 -94 -158q156 -158 168 -391q8 -152 -33 -291q-43 -145 -127 -233q-168 -176 -454 -176q-272 0 -420 98q-80 53 -131 141q-55 96 -55 199q0 137 108 223 q104 80 256 80h242q-10 119 -82 168q-53 37 -189 37q-111 0 -153 -37q39 2 63.5 -27.5t20.5 -66.5q-8 -66 -90 -70q-43 -2 -78 27t-35 72q0 25 12 49q45 90 176 110q45 6 130 4q178 -4 249 -108q49 -72 50 -164q0 -25 -5 -49h-286q-129 0 -205 -62.5t-74 -156.5 q2 -115 109 -197q90 -70 215 -88q70 -10 168 -10q115 0 233 53q106 49 166 119q131 154 131 336q0 236 -132 354.5t-431 124.5q-147 4 -318 -47q-43 -12 -139 -60q-88 -43 -127 -51zM205 1219q-6 -51 49 -68q150 51 340 51q279 0 426 -94q68 29 67 76q0 37 -41 71t-96 50 q-164 45 -381 38q-348 -10 -364 -124z" />
<glyph unicode="&#xf6;" horiz-adv-x="1382" d="M20 578q8 150 105.5 273.5t234.5 127.5q55 2 96.5 -31t39.5 -90q0 -37 -28 -62.5t-28 -50.5q0 -10 2 -24q10 -45 76 -74t137 -29q158 0 215 121q10 20 11 47q0 53 -35 86q4 -20 4 -38q0 -70 -51 -108t-119 -34q-59 2 -102 43t-46 101q-4 66 45.5 112.5t114.5 46.5 q119 0 187.5 -57t68.5 -160q0 -27 -6 -57q-14 -78 -96 -134.5t-193 -56.5q-115 0 -201.5 58.5t-86.5 144.5q0 47 31.5 79t33.5 40t2 16q0 61 -96 54q-88 -6 -157.5 -98.5t-78.5 -229.5q-6 -98 17.5 -183t97.5 -159q86 -86 186 -88q82 -2 117 18.5t25 65.5q-6 33 -90 55 q-76 20 -74 78q4 104 266 104t266 -96q4 -63 -63 -82q-76 -20 -84 -53q-10 -45 41 -69.5t119 -20.5q168 12 241 211q55 150 49 297q-12 274 -143 377q-82 63 -235 63h-502q-217 0 -217 135q0 147 188 203q123 37 363 37q530 0 557 -217q14 -127 -109 -160q176 -158 191 -422 q18 -305 -101 -506q-98 -166 -305 -182q-100 -8 -168.5 49t-68.5 146q0 29 8 57q12 45 73 65q53 20 52 52q-2 39 -36 51t-116 12q-150 0 -156 -59q-2 -29 60 -51q68 -29 82 -68q10 -31 10 -68q0 -78 -47 -129q-57 -61 -164 -61q-27 0 -53 4q-133 16 -230 117 q-143 152 -127 461zM205 1249q-8 -76 112 -75h504q-27 35 -30 43q-10 18 -13 43q-4 66 37 94q-127 10 -242 6q-356 -10 -368 -111zM602 844q0 -37 26.5 -63.5t63.5 -26.5t63.5 26.5t26.5 63.5t-26.5 63.5t-63.5 26.5t-63.5 -26.5t-26.5 -63.5zM854 1266q0 -70 100 -99 q39 -12 72 -12q61 0 80 41q8 16 8 31q0 63 -94 96q-39 14 -76 14q-90 1 -90 -71z" />
<glyph unicode="&#xf7;" horiz-adv-x="1306" d="M31 500q0 31 2 57q29 362 293 442q37 10 92 9q63 -4 86 -27q27 23 65 35q72 23 222 24q246 4 339 -94q88 -92 87 -229h-418q-135 0 -234.5 -88t-107.5 -217q-10 -164 98.5 -261.5t294.5 -99.5q266 -2 416 86v-512h-785q-141 0 -159 142q-2 16 -3 32q0 98 60 146h67 q-47 -43 -47 -95q0 -88 146 -88h655v281q-164 -51 -332 -53q-180 -2 -286 24q-96 25 -183 90q-129 98 -129 271q0 184 122 290.5t321 106.5h442q-14 80 -62.5 133t-125.5 72q-51 12 -158 12q-162 0 -244 -35q61 -18 62 -90q0 -39 -27 -66.5t-65 -27.5q-45 0 -76 35t-23 80 q2 16 21 49q-47 37 -138 6q-96 -33 -158.5 -150.5t-66.5 -248.5q-8 -360 195 -529h-78q-92 70 -139 221q-41 127 -41 267z" />
<glyph unicode="&#xf8;" horiz-adv-x="1095" d="M33 375q0 184 123 290.5t323 106.5h443q-14 80 -62.5 133t-126.5 72q-51 12 -158 12q-236 0 -311 -57q35 0 55.5 -26.5t20.5 -63.5q0 -39 -25.5 -65.5t-66.5 -26.5q-47 0 -76 34.5t-20 81.5q14 92 139 142q76 29 266 32q246 4 340 -94q88 -92 86 -229h-418 q-137 0 -241.5 -89t-104.5 -216q0 -174 102.5 -265.5t290.5 -91.5q236 0 398 140v-62q-51 -51 -113 -84q82 -10 126 -52t44 -116q0 -137 -193 -211q-151 -59 -305 -51q-205 10 -336 86q-100 57 -143 156q-37 82 -16 151h45q-4 -49 20 -94q31 -55 144 -102q131 -53 295 -54 q174 0 284 56q74 37 92 94q18 61 -34 80q-51 18 -117 -19q-39 -27 -119 -65v57l70 37q-201 -27 -352.5 4t-239.5 98q-129 98 -129 271z" />
<glyph unicode="&#xf9;" horiz-adv-x="1314" d="M25 430q0 137 108 223q104 80 256 80h242q-10 119 -82 168q-53 37 -189 37q-111 0 -153 -37q39 2 63.5 -27.5t20.5 -66.5q-8 -66 -90 -70q-43 -2 -78 27t-35 72q0 25 12 49q45 90 176 110q45 6 130 4q178 -4 249 -108q49 -72 50 -164q0 -25 -5 -49h-286 q-129 0 -205 -62.5t-74 -156.5q2 -115 109 -197q90 -70 215 -88q70 -10 168 -10q117 0 235 53q109 49 168 119q119 139 131 340q16 258 -131 373q-82 63 -235 63h-502q-217 0 -217 135q0 147 188 203q123 37 363 37q530 0 557 -217q14 -127 -109 -160q168 -152 178 -418 q6 -170 -51 -323q-49 -127 -121 -201q-172 -176 -450 -176q-272 0 -420 98q-80 53 -131 141q-55 96 -55 199zM164 1249q-8 -76 112 -75h521q-27 35 -31 43q-10 18 -12 43q-4 61 37 94q-100 10 -259 6q-356 -10 -368 -111zM829 1266q0 -70 101 -99q39 -12 71 -12q61 0 80 41 q8 16 9 31q0 63 -95 96q-39 14 -75 14q-91 1 -91 -71z" />
<glyph unicode="&#xfa;" horiz-adv-x="1314" d="M25 430q0 137 108 223q104 80 256 80h242q-10 119 -82 168q-53 37 -189 37q-111 0 -153 -37q39 2 63.5 -27.5t20.5 -66.5q-8 -66 -90 -70q-43 -2 -78 27t-35 72q0 25 12 49q45 90 176 110q45 6 130 4q178 -4 249 -108q49 -72 50 -164q0 -25 -5 -49h-286 q-129 0 -205 -62.5t-74 -156.5q2 -115 109 -197q90 -70 215 -88q70 -10 168 -10q117 0 235 53q109 49 168 119q119 139 131 340q16 258 -131 373q-82 63 -235 63h-502q-217 0 -217 135q0 147 188 203q123 37 363 37q530 0 557 -217q14 -127 -109 -160q168 -152 178 -418 q6 -170 -51 -323q-49 -127 -121 -201q-172 -176 -450 -176q-272 0 -420 98q-80 53 -131 141q-55 96 -55 199zM164 1249q-8 -76 112 -75h566q72 0 145 -25q82 0 100 41q4 12 5 22q0 47 -80 88q-64 34 -140 46q-123 20 -340 14q-356 -10 -368 -111z" />
<glyph unicode="&#xfb;" horiz-adv-x="2379" d="M33 582q6 152 65 268q68 133 185 170q90 29 139 -16q51 33 104 36q172 16 222 -122q109 76 264 108q70 14 168 14q221 0 342 -75q18 14 75 43q76 29 267 32q246 4 340 -94q88 -92 86 -229h-418q-137 0 -241.5 -89t-104.5 -216q0 -174 102.5 -266.5t290.5 -94.5 q266 -2 416 86v-512h-785q-141 0 -159 142q-2 16 -2 32q0 98 59 146h68q-47 -43 -48 -95q0 -88 146 -88h655v281q-164 -51 -332 -53q-180 -2 -286 24q-96 25 -183 90q-129 98 -129 271q0 184 123 290.5t324 106.5h442q-14 80 -62 133t-126 72q-51 12 -158 12 q-236 0 -311 -57q35 0 55.5 -26.5t20.5 -63.5q0 -92 -95 -92q-10 0 -22 2q-78 14 -78 90q0 45 29 78q-115 61 -291 67q-229 8 -408 -115q240 2 383 -139q129 -129 146 -332q12 -154 -56 -270q-76 -131 -219 -131q-195 2 -225 106q-35 -106 -238 -106q-96 0 -162.5 63.5 t-70.5 149.5q-4 57 12 104q4 12 14.5 31t10.5 25q0 12 -21 12q-29 0 -61 -37v84q35 70 164 221q53 63 217 217q10 10 10 25q0 33 -43 64.5t-104 27.5q-45 -4 -93.5 -44t-62.5 -87q20 12 43 12q31 0 53.5 -26.5t22.5 -59.5q0 -35 -25.5 -57.5t-62.5 -22.5q-33 0 -56 19 q-43 33 -43 100q0 76 60 142q-35 18 -106.5 -10.5t-123.5 -147.5q-47 -111 -51 -240q-8 -360 148 -553h-74q-150 211 -135 570zM371 442q35 8 61 9q51 0 51 -31q0 -18 -20 -37q-39 -33 -39 -86q0 -45 20 -70q53 -63 154 -63q193 0 186 266h56q-4 -147 39 -206.5t145 -59.5 q88 0 145 94q53 84 48 184q-8 139 -88 236.5t-216 130.5q-39 8 -92 8q-117 0 -165 -46t-134 -136q-110 -123 -151 -193z" />
<glyph unicode="&#xfc;" horiz-adv-x="2379" d="M33 582q6 152 65 268q68 133 185 170q90 29 139 -16q51 33 104 36q172 16 222 -122q109 76 264 108q70 14 168 14q221 0 342 -75q18 14 75 43q76 29 267 32q246 4 340 -94q88 -92 86 -229h-418q-137 0 -241.5 -89t-104.5 -216q0 -174 102.5 -266.5t290.5 -94.5 q266 -2 416 86v-512h-109q-66 88 -139 111q-35 10 -76 10q-90 0 -196 -49q-184 -86 -259 -86q-92 0 -151 52t-59 142q0 76 40.5 121t77.5 54h101q-66 -14 -108 -56.5t-27 -97.5q18 -66 108 -66q31 0 59 11q70 29 140 59q106 41 168 53q31 6 73 6q119 0 189 -41 q61 -37 102 -86v281q-164 -51 -332 -53q-180 -2 -286 24q-96 25 -183 90q-129 98 -129 271q0 184 123 290.5t324 106.5h442q-14 80 -62 133t-126 72q-51 12 -158 12q-236 0 -311 -57q35 0 55.5 -26.5t20.5 -63.5q0 -92 -95 -92q-10 0 -22 2q-78 14 -78 90q0 45 29 78 q-115 61 -291 67q-229 8 -408 -115q240 2 383 -139q129 -129 146 -332q12 -154 -56 -270q-76 -131 -219 -131q-195 2 -225 106q-35 -106 -238 -106q-96 0 -162.5 63.5t-70.5 149.5q-4 57 12 104q4 12 14.5 31t10.5 25q0 12 -21 12q-29 0 -61 -37v84q35 70 164 221 q53 63 217 217q10 10 10 25q0 33 -43 64.5t-104 27.5q-45 -4 -93.5 -44t-62.5 -87q20 12 43 12q31 0 53.5 -26.5t22.5 -59.5q0 -35 -25.5 -57.5t-62.5 -22.5q-33 0 -56 19q-43 33 -43 100q0 76 60 142q-35 18 -106.5 -10.5t-123.5 -147.5q-47 -111 -51 -240 q-8 -360 148 -553h-74q-150 211 -135 570zM371 442q35 8 61 9q51 0 51 -31q0 -18 -20 -37q-39 -33 -39 -86q0 -45 20 -70q53 -63 154 -63q193 0 186 266h56q-4 -147 39 -206.5t145 -59.5q88 0 145 94q53 84 48 184q-8 139 -88 236.5t-216 130.5q-39 8 -92 8q-117 0 -165 -46 t-134 -136q-110 -123 -151 -193z" />
<glyph unicode="&#xfd;" horiz-adv-x="1331" d="M20 430q0 141 96.5 240.5t243.5 99.5h207q2 104 -55 164q-49 49 -123 53q-162 8 -219 -51q39 0 64.5 -25.5t25.5 -60.5q0 -43 -35 -64.5t-78 -15.5q-80 12 -79 90q0 100 102 150q31 14 88 24q-43 29 -68 56q-53 61 -55 143q-6 186 184 268q117 51 277 51q168 0 278 -51 q180 -84 179 -268q-2 -111 -117 -193q25 0 33 -2q23 20 153 99q88 53 90 100q-14 -4 -28 -4q-68 0 -70 57q-2 76 76 82q82 6 100 -65q6 -23 6 -43q0 -92 -104 -152q-43 -20 -148 -78q37 0 76 -22q113 -63 113 -246q0 -100 -23 -141q33 -68 39 -80q21 -60 21 -144 q0 -190 -178 -307q-164 -106 -443 -106q-311 0 -470 119.5t-159 322.5zM113 475q0 -25 6 -51q29 -113 139 -182q123 -78 395 -78q240 0 371 78q118 69 143 182q6 29 7 55q0 18 -4 37l-3 19q-10 -35 -55 -68q-55 -39 -121 -39q-35 0 -67 10q-88 29 -123 144q-14 47 -15 137 h-122q0 176 53 235q20 23 59 52q217 96 205 219q-16 164 -389 164t-385 -166q-4 -68 51 -121q45 -43 176 -70q88 -18 141.5 -80.5t53.5 -232.5h-254q-109 0 -185.5 -73t-76.5 -171zM723 770h65q2 55 30 113.5t77 103.5q-76 -2 -126 -62.5t-46 -154.5zM848 719q0 -72 4 -94 q18 -98 88 -129q23 -10 49 -11q49 0 92 37t54 84q-10 43 -69.5 78t-117.5 35h-100zM850 770h121q51 0 113.5 -29.5t76.5 -62.5q10 41 10 88q-2 133 -88 186q-35 23 -69 23q-57 0 -105 -55q-53 -59 -59 -150z" />
<glyph unicode="&#xfe;" horiz-adv-x="1331" d="M20 430q0 141 96.5 240.5t243.5 99.5h207q2 104 -55 164q-49 49 -123 53q-162 8 -219 -51q39 0 64.5 -25.5t25.5 -60.5q0 -43 -35 -64.5t-78 -15.5q-80 12 -79 90q0 100 102 150q74 35 186 30q150 -6 219 -88q53 -61 54 -233h-254q-109 0 -185.5 -73t-76.5 -171 q0 -25 6 -51q29 -113 139 -182q123 -78 395 -78q457 0 514 260q6 29 7 55q0 18 -4 37l-3 19q-10 -35 -55 -68q-55 -39 -121 -39q-35 0 -67 10q-88 29 -123 144q-14 47 -15 137h-124v590q0 80 -33 86q-47 8 -90 -60v66q23 47 82 57q76 12 92 -49q53 68 157 57 q172 -14 172 -196q0 -76 -61 -122t-139 -46q-92 0 -119 37v-176q57 57 135 71q72 12 105 4q16 12 159 99q88 53 90 100q-14 -4 -28 -4q-68 0 -70 57q-2 76 76 82q82 6 100 -65q6 -23 6 -43q0 -92 -104 -152q-55 -29 -141 -80q41 -10 65 -26q80 -53 107 -152q10 -35 10 -88 q0 -100 -23 -141q33 -68 39 -80q20 -59 21 -144q0 -190 -178 -307q-164 -106 -443 -106q-311 0 -470 119.5t-159 322.5zM723 770h65q2 55 30 113.5t77 103.5q-76 -2 -126 -62.5t-46 -154.5zM723 1227q0 -66 84 -66q43 0 66.5 30t23.5 87q0 84 -57 115q-12 8 -29 8 q-33 0 -60.5 -25.5t-27.5 -60.5v-88zM848 719q0 -72 4 -94q18 -98 88 -129q23 -10 49 -11q49 0 92 37t54 84q-10 43 -69.5 78t-117.5 35h-100zM850 770h121q51 0 113.5 -29.5t76.5 -62.5q10 41 10 88q-2 133 -88 186q-35 23 -69 23q-57 0 -105 -55q-53 -59 -59 -150z" />
<glyph unicode="&#xff;" horiz-adv-x="1095" d="M33 375q0 184 123 290.5t323 106.5h443q-14 80 -62.5 133t-126.5 72q-51 12 -158 12q-236 0 -311 -57q35 0 55.5 -26.5t20.5 -63.5q0 -39 -25.5 -65.5t-66.5 -26.5q-47 0 -76 34.5t-20 81.5q14 92 139 142q76 29 266 32q246 4 340 -94q88 -92 86 -229h-418 q-137 0 -241.5 -89t-104.5 -216q0 -174 102.5 -266.5t290.5 -94.5q266 -2 416 86v-512h-784q-141 0 -160 142q-2 16 -2 32q0 98 59 146h68q-47 -43 -47 -95q0 -88 145 -88h656v281q-164 -51 -332 -53q-180 -2 -287 24q-96 25 -182 90q-129 98 -129 271z" />
<glyph unicode="&#x152;" horiz-adv-x="1904" d="M2 27v73l176 248q-106 111 -100 266q8 217 192 338q125 82 355 82l180 275h72l-195 -283q74 -2 141 -27q61 -23 113 -57q12 16 35 41q-109 45 -111 135q-2 104 146 160q119 43 288 41q176 -2 297 -45q154 -55 154 -168q0 -88 -82 -119q160 -111 160 -491q0 -217 -82 -353 q-94 -156 -268 -155q-293 0 -293 284h57q-4 -86 46 -151.5t128 -65.5q131 0 199 148q55 121 55 301q0 444 -174 454q-70 4 -115 -41t-45 -110v-234h-61v236q0 66 -47 114t-113 48q-82 0 -129 -70q164 -168 164 -422q0 -221 -168 -364q-160 -137 -379 -129q-139 6 -238 34 q-53 14 -194 74q-20 8 -43 8q-72 0 -121 -75zM104 156q8 2 19 2q49 0 141 -43q160 -74 346 -62q176 12 285 152q102 131 102 315q0 170 -86 291q-92 127 -260 162l-401 -617q113 -86 233 -86q94 0 170 43q86 49 109 133q-47 -59 -133 -59q-25 0 -54 6q-47 8 -85.5 57.5 t-38.5 108.5q0 39 16 74q47 104 156 104q94 0 152 -61.5t56 -157.5q-2 -137 -104 -219q-86 -72 -209 -82q-145 -12 -301 94zM129 602q0 -115 80 -205l375 580q-20 2 -43 2q-109 0 -205 -49q-109 -55 -162 -158q-45 -86 -45 -170zM508 563q0 -68 55 -102q31 -20 70 -21 q68 0 102 56q20 31 21 67q0 66 -58 103q-31 20 -67 20q-68 0 -103 -55q-20 -31 -20 -68zM950 1102q-2 -49 58 -94q45 25 104 24q123 0 186 -102q49 66 119 86q-41 31 -47 82q-6 63 43 106q-45 8 -123 8q-338 -4 -340 -110zM1440 1106q-2 -41 37 -68q33 -25 79 -24 q102 0 115 71q8 45 -30 73t-93 28q-106 0 -108 -80z" />
<glyph unicode="&#x153;" horiz-adv-x="1015" d="M20 864q12 78 73 127t140 45q82 -4 135.5 -65.5t57.5 -147.5t-66 -186q-66 -90 -131 -178q-70 -102 -86 -135q-47 -92 -49 -193q55 94 156 94q53 0 163.5 -36.5t164.5 -36.5q37 0 69 12q129 47 160 180q4 20 4 41q0 76 -70 150q-23 25 -139.5 117.5t-122.5 195.5 q-4 82 60.5 137t152.5 55t149.5 -58t61.5 -146q0 -47 -25.5 -82t-70.5 -35q-18 0 -39 6q-57 18 -57 84q0 37 26.5 61.5t63.5 24.5q10 0 22 -2q-33 90 -139 86q-55 -2 -95 -38t-40 -89q0 -70 62.5 -120t125.5 -97q109 -88 133 -119q61 -76 68 -197q8 -129 -85 -221t-226 -98 q-115 -6 -205 43q-61 39 -123 76q-70 31 -127 4q-37 -18 -78 -107h-61q-12 86 0 177q16 113 80 215q70 94 137 186q55 78 69 100q31 55 33 109q4 66 -31.5 119t-95.5 53q-115 0 -131 -107q-14 -96 66 -139h-115q-35 63 -25 135zM143 1257q0 133 121 187q88 39 266 39 q352 0 326 -258q-10 -106 -84 -160h-80q23 14 53 57q39 53 46 99q12 106 -70 163q-72 49 -191 50q-258 0 -258 -172q0 -137 215 -160q-96 27 -96 125q0 133 156 133q152 0 151 -148q0 -72 -57 -112q-47 -37 -119 -43q-41 -4 -80 -4q-299 0 -299 204zM463 1225 q0 -39 26.5 -68t67.5 -24q74 8 76 75q4 90 -88 90q-31 0 -56.5 -20.5t-25.5 -52.5z" />
<glyph unicode="&#x178;" horiz-adv-x="540" d="M49 1137q0 78 49 137q66 80 168 80q78 0 137 -49q80 -66 80 -168q0 -78 -49 -138q-66 -80 -168 -79q-78 0 -137 49q-80 66 -80 168zM127 1157q0 -84 74 -121q31 -16 63 -16q84 0 121 74q16 31 16 63q0 84 -73 121q-31 16 -64 16q-84 1 -121 -73q-16 -31 -16 -64z" />
<glyph unicode="&#x2c6;" horiz-adv-x="2080" d="M41 487q0 63 10 123h60q0 -57 82 -90q23 -8 53 -8q66 0 119 37q123 86 147 203q6 25 6 51q0 74 -43 125t-113 49q-125 -4 -165 -131q25 8 45 8q41 0 63.5 -26.5t22.5 -59.5q0 -35 -24.5 -57.5t-61.5 -22.5q-55 0 -83 42t-22 106q8 88 71.5 144t151.5 56q86 0 146.5 -50 t71.5 -138q154 188 380 188q168 0 265 -71q31 25 75 43q76 29 267 32q246 4 340 -94q88 -92 86 -229h-418q-137 0 -241.5 -89t-104.5 -216q0 -174 102.5 -265.5t290.5 -91.5q115 0 203 41q53 25 139 92h72l-209 -208q63 45 157 45q164 0 168 -144q2 -102 -84 -175t-208 -89 q-104 -14 -211 14v56q47 -16 100 -17q102 0 180 53.5t76 131.5q-2 88 -111 88q-88 0 -153 -47h-82l123 122q-100 -27 -213 -26q-84 0 -160 14q-143 27 -238 98q-129 98 -129 271q0 184 123 290.5t324 106.5h442q-14 80 -62 133t-126 72q-51 12 -158 12q-236 0 -311 -57 q35 0 55.5 -26.5t20.5 -63.5q0 -39 -26 -65.5t-67 -26.5q-76 0 -92 67q-70 63 -188 80q-53 8 -101 8q-215 0 -303 -172q29 6 64 6q78 0 155.5 -32.5t118.5 -81.5q84 -98 84 -236q0 -195 -159 -309q-121 -86 -304 -86q-332 0 -446 266q-43 98 -43 227zM94 524q-4 -78 27 -170 t80 -139q92 -86 278 -86q135 0 244 64q123 74 137 200q2 20 2 41q0 90 -40 155.5t-103 84.5q-47 14 -101 14q-66 0 -81 -26q-45 -74 -140 -154q-53 -47 -151 -47q-117 0 -152 63z" />
<glyph unicode="&#x2dc;" horiz-adv-x="753" d="M115 1399q12 88 116 88q39 0 70 -19q57 -35 57 -120q0 -27 -6 -60q-10 -49 -56 -110.5t-101 -92.5h-68q41 27 87 92.5t48 110.5q-16 -4 -33 -4q-51 0 -86.5 32t-27.5 83zM397 1399q12 88 117 88q39 0 70 -19q57 -35 57 -120q0 -27 -6 -60q-10 -49 -56.5 -110.5 t-101.5 -92.5h-67q41 27 87 92.5t48 110.5q-16 -4 -33 -4q-51 0 -87 32t-28 83z" />
<glyph unicode="&#x2000;" horiz-adv-x="807" />
<glyph unicode="&#x2001;" horiz-adv-x="1614" />
<glyph unicode="&#x2002;" horiz-adv-x="807" />
<glyph unicode="&#x2003;" horiz-adv-x="1614" />
<glyph unicode="&#x2004;" horiz-adv-x="538" />
<glyph unicode="&#x2005;" horiz-adv-x="403" />
<glyph unicode="&#x2006;" horiz-adv-x="269" />
<glyph unicode="&#x2007;" horiz-adv-x="269" />
<glyph unicode="&#x2008;" horiz-adv-x="201" />
<glyph unicode="&#x2009;" horiz-adv-x="322" />
<glyph unicode="&#x200a;" horiz-adv-x="89" />
<glyph unicode="&#x2010;" horiz-adv-x="716" d="M72 461v133h522v-133h-522z" />
<glyph unicode="&#x2011;" horiz-adv-x="716" d="M72 461v133h522v-133h-522z" />
<glyph unicode="&#x2012;" horiz-adv-x="716" d="M72 461v133h522v-133h-522z" />
<glyph unicode="&#x2013;" horiz-adv-x="8" d="M-950 1364q0 225 313 225q281 0 264 -258q-6 -115 -57 -160h-84q16 12 42 60.5t30 95.5q10 104 -50 162q-53 51 -145 51q-209 0 -209 -172q0 -137 174 -160q-78 27 -78 125q0 133 125 133t125 -147q0 -139 -143 -156q-31 -4 -59 -4q-248 0 -248 205zM-684 1331 q0 -100 70 -92q45 6 47 72q1 94 -60 94q-57 0 -57 -74z" />
<glyph unicode="&#x2014;" horiz-adv-x="753" d="M109 1348q0 86 57 120q31 18 70 19q104 0 116 -88q8 -51 -27.5 -83t-86.5 -32q-16 0 -33 4q2 -45 48 -110.5t87 -92.5h-68q-55 31 -101 92.5t-56 110.5q-6 33 -6 60zM391 1348q0 86 58 120q31 18 69 19q105 0 117 -88q8 -51 -28 -83t-87 -32q-16 0 -33 4 q2 -45 48.5 -110.5t87.5 -92.5h-68q-55 31 -101 92.5t-57 110.5q-6 33 -6 60z" />
<glyph unicode="&#x2018;" horiz-adv-x="8" d="M-1225 1272q0 25 4 49q23 133 183 201q133 57 323 57q494 0 522 -207q12 -96 -96 -143l-51 41q25 4 52.5 24.5t27.5 48.5q0 14 -8 29q-63 104 -441 105q-139 0 -256 -43q-164 -59 -163 -177q0 -80 55 -122.5t137 -42.5q100 0 172 63l27 -49q-80 -74 -221 -74q-41 0 -76 8 q-190 47 -191 232z" />
<glyph unicode="&#x2019;" horiz-adv-x="8" d="M-1221 1272q0 25 4 49q23 133 183 201q133 57 323 57q498 0 523 -207q8 -61 -31 -100t-103 -39q-49 0 -100 24.5t-79.5 68.5t-20.5 83q10 49 39 53q-92 14 -222 15q-139 0 -256 -43q-164 -59 -163 -177q0 -80 55 -121.5t137 -41.5q98 0 170 59q2 -8 25 -51 q-80 -70 -217 -70q-41 0 -76 8q-190 47 -191 232zM-455 1384q0 -35 47 -69q37 -27 82 -27q70 0 70 58q0 39 -45 65.5t-88 26.5q-66 0 -66 -54z" />
<glyph unicode="&#x201a;" horiz-adv-x="1904" d="M2 27v73l176 248q-106 111 -100 266q8 217 192 338q125 82 355 82l180 275h72l-195 -283q74 -2 141 -27q61 -23 113 -57q12 16 35 41q-109 45 -111 135q-2 104 146 160q119 43 288 41q176 -2 297 -45q154 -55 154 -168q0 -78 -82 -119q160 -111 160 -491q0 -217 -82 -353 q-94 -156 -268 -155q-293 0 -293 284h57q-4 -86 46 -151.5t128 -65.5q131 0 199 148q55 121 55 301q0 444 -174 454q-70 4 -115 -41t-45 -110v-234h-61v236q0 66 -47 114t-113 48q-82 0 -129 -70q164 -168 164 -422q0 -221 -168 -364q-160 -137 -379 -129q-139 6 -238 34 q-53 14 -194 74q-20 8 -43 8q-72 0 -121 -75zM104 156q8 2 19 2q49 0 141 -43q160 -74 346 -62q176 12 285 152q102 131 102 315q0 170 -86 291q-92 127 -260 162l-401 -617q113 -86 233 -86q94 0 170 43q86 49 109 133q-47 -59 -133 -59q-25 0 -54 6q-47 8 -85.5 57.5 t-38.5 108.5q0 39 16 74q47 104 156 104q94 0 152 -61.5t56 -157.5q-2 -137 -104 -219q-86 -72 -209 -82q-145 -12 -301 94zM129 602q0 -115 80 -205l375 580q-20 2 -43 2q-109 0 -205 -49q-109 -55 -162 -158q-45 -86 -45 -170zM508 563q0 -68 55 -102q31 -20 70 -21 q68 0 102 56q20 31 21 67q0 66 -58 103q-31 20 -67 20q-68 0 -103 -55q-20 -31 -20 -68zM950 1102q-2 -49 58 -94q45 24 104 24q123 0 186 -102q74 98 224 98q51 0 98 -18q49 33 51 69q6 88 -129 117q-78 18 -252 16q-338 -2 -340 -110z" />
<glyph unicode="&#x201c;" horiz-adv-x="1904" d="M2 27v73l176 248q-106 111 -100 266q8 217 192 338q125 82 355 82l180 275h72l-195 -283q74 -2 141 -27q61 -23 113 -57q59 90 176 90q123 0 186 -102q74 98 224 98q301 0 301 -532q0 -217 -82 -353q-94 -156 -268 -155q-293 0 -293 284h57q-4 -86 46 -151.5t128 -65.5 q131 0 199 148q55 121 55 301q0 444 -174 454q-70 4 -115 -41t-45 -110v-234h-61v236q0 66 -47 114t-113 48q-82 0 -129 -70q164 -168 164 -422q0 -221 -168 -364q-160 -137 -379 -129q-139 6 -238 34q-53 14 -194 74q-20 8 -43 8q-72 0 -121 -75zM104 156q8 2 19 2 q49 0 141 -43q160 -74 346 -62q176 12 285 152q102 131 102 315q0 170 -86 291q-92 127 -260 162l-401 -617q113 -86 233 -86q94 0 170 43q86 49 109 133q-47 -59 -133 -59q-25 0 -54 6q-47 8 -85.5 57.5t-38.5 108.5q0 39 16 74q47 104 156 104q94 0 152 -61.5t56 -157.5 q-2 -137 -104 -219q-86 -72 -209 -82q-145 -12 -301 94zM129 602q0 -115 80 -205l375 580q-20 2 -43 2q-109 0 -205 -49q-109 -55 -162 -158q-45 -86 -45 -170zM508 563q0 -68 55 -102q31 -20 70 -21q68 0 102 56q20 31 21 67q0 66 -58 103q-31 20 -67 20q-68 0 -103 -55 q-20 -31 -20 -68zM903 1245q0 133 150 187q111 39 333 38q399 0 400 -223q0 -16 -2 -35q-6 -51 -51 -102q-33 -39 -64 -57h-80q29 14 74 57q53 57 59 102q16 106 -88 162q-90 47 -248 47q-322 0 -321 -172q0 -137 268 -159q-114 30 -114 124q0 133 188 134q184 0 184 -148 q0 -139 -215 -156q-51 -4 -100 -4q-373 0 -373 205zM1288 1212q0 -39 40 -67.5t93 -24.5q39 4 71 24.5t34 51.5q4 98 -121 98q-117 0 -117 -82z" />
<glyph unicode="&#x201d;" horiz-adv-x="1171" d="M31 -2v887h139v135h885v-885h-135v-137h-889zM221 176h793v797h-793v-797z" />
<glyph unicode="&#x201e;" horiz-adv-x="1556" d="M33 582q6 152 65 268q68 133 185 170q25 8 57 8q63 0 98 -33q25 14 45 23q61 25 195 22q178 -4 250 -108q49 -72 49 -164q0 -25 -4 -49h-291q-131 0 -211 -70q-86 -74 -72 -190q16 -123 144 -215q113 -80 356 -80q115 0 234 53q106 49 165 119q131 154 132 395 q0 248 -119 402q-150 193 -432 192q-193 0 -328 -88q-102 -66 -156 -180h-65q45 125 164 213q150 111 387 110q322 0 481.5 -213t159.5 -520t-166 -481t-453 -174q-272 0 -420 98q-80 53 -131 141q-55 96 -55 199q0 145 95 244.5t253 99.5h258q-6 115 -82 168 q-53 37 -188 37q-111 0 -154 -37q39 2 63.5 -27.5t20.5 -66.5q-8 -66 -90 -70q-43 -2 -78 27t-35 72q0 25 13 49q6 10 18 26q-25 16 -55 17q-27 -1 -66 -17q-74 -29 -125 -147q-47 -111 -51 -240q-8 -360 148 -553h-74q-150 211 -135 570z" />
<glyph unicode="&#x2022;" horiz-adv-x="1044" d="M31 0h907v911h-907v-911z" />
<glyph unicode="&#x2026;" horiz-adv-x="2330" d="M23 393v74q76 96 194 209q41 39 148 131q27 25 38 38t13 38q4 47 -29 76.5t-90 29.5q-113 0 -150 -90q43 6 74 -22.5t31 -69.5q0 -37 -28.5 -59.5t-67.5 -22.5q-41 0 -67 33t-26 80q0 94 78 151q70 53 166 51q152 -2 180 -141q184 141 443 141q117 0 235 -59q29 20 66 37 q59 25 194 22q178 -4 250 -108q49 -72 49 -164q0 -25 -4 -49h-290q-131 0 -211 -70q-86 -74 -72 -190q16 -123 143 -215q113 -80 357 -80q115 0 233 53q106 49 166 119q131 154 131 395q0 248 -119 402q-150 193 -432 192q-193 0 -328 -88q-102 -66 -155 -180h-66 q45 125 164 213q150 111 387 110q322 0 481.5 -213t159.5 -520t-166 -481t-452 -174q-272 0 -420 98q-80 53 -131 141q-55 96 -56 199q0 145 95.5 244.5t253.5 99.5h258q-10 119 -82 168q-53 37 -189 37q-111 0 -153 -37q39 2 63.5 -27.5t20.5 -66.5q-8 -68 -90 -70 q-91 -2 -111 76q-94 43 -242 51q-238 12 -358 -71q260 12 393 -132q117 -125 117 -280q0 -182 -152 -316q-76 -66 -163 -88q-68 -18 -185 -18q-305 0 -401 152q-35 55 -35 110q0 43 22 86q4 6 18.5 20.5t12.5 22.5q-6 25 -39 25q-35 0 -75 -23zM100 473q45 6 74 -10.5 t29 -42.5q0 -14 -10 -29q-25 -35 -25 -63q0 -43 49 -84q66 -55 154 -70q47 -8 157 -6q164 4 248 68.5t113 144.5q20 57 20 108q0 106 -82 191q-100 102 -254 102q-72 0 -139 -24.5t-164 -112.5q-55 -49 -170 -172z" />
<glyph unicode="&#x202f;" horiz-adv-x="322" />
<glyph unicode="&#x2039;" horiz-adv-x="1581" d="M23 539q16 317 266 440q129 63 305 61q178 -2 303 -41v-57q-96 12 -168 2q-248 -37 -348 -199q-53 -86 -53 -219q0 -45 6 -88q41 -272 274 -272q98 0 164 63.5t66 176.5v159h61v-155q0 -113 65.5 -178.5t170.5 -67.5q133 -2 219 158q78 145 71 313q-12 303 -153 414 q-82 63 -236 63h-501q-217 0 -218 135q0 147 189 203q123 37 362 37q530 0 557 -217q14 -127 -108 -160q90 -80 143 -221q52 -130 60 -271q14 -236 -74 -411q-102 -205 -295 -207q-131 -2 -195 37q-55 33 -90 115q-63 -152 -258 -152q-176 0 -272 132t-94 339q4 244 145 383 q115 113 301 131q-45 6 -90 6q-182 0 -315 -84q-82 -51 -136 -151q-59 -106 -61 -228q-8 -303 160 -516h-78q-162 219 -145 527zM406 1249q-8 -76 112 -75h565q72 0 146 -25q82 0 100 41q4 12 4 22q0 47 -80 88q-63 34 -139 46q-123 20 -340 14q-356 -10 -368 -111z" />
<glyph unicode="&#x203a;" horiz-adv-x="1531" d="M45 532q8 270 209 422q115 86 233 86h70v-53h-82q-135 0 -242 -137q-96 -125 -98 -248q-2 -195 82 -311q90 -127 262 -127q137 0 226 55q100 66 110 195q6 66 -34 129t-105 63q-72 -2 -115 -61q-31 -43 -24 -107h-62q-2 152 2 199q14 127 76 211q152 207 422 192 q207 -10 344 -160.5t135 -359.5q-4 -252 -164 -391t-422 -129v53q43 2 136 15q16 20 16 41q0 20 -23 53q-31 45 -39 67q-16 39 -16 78q0 68 49 131q59 78 178 64q117 -14 154 -111q10 53 10 84q0 66 -39 168q-92 250 -389 250q-139 0 -237 -64q-119 -78 -140 -235 q55 59 140 65q102 8 170.5 -70.5t70.5 -195.5q4 -182 -108.5 -287.5t-313.5 -105.5q-203 0 -326.5 148.5t-115.5 383.5zM117 -150q0 78 59.5 129.5t136.5 55.5v-43q-53 -6 -85.5 -39t-32.5 -74q0 -29 16 -53q80 -123 547 -123q160 0 299 29q172 37 205 104q16 31 16 60 q0 45 -38 71.5t-87 28.5v43q90 -2 144.5 -53.5t54.5 -126.5q0 -20 -4 -43q-25 -127 -199 -215q-133 -68 -391 -68q-334 0 -455 64q-86 45 -119 79q-47 49 -63 140q-4 18 -4 34zM131 1247q-6 182 195 269q139 59 426 59q276 0 407 -59q188 -86 187 -265q-2 -96 -99 -149 q-80 -43 -186 -43q-98 0 -178 48t-86 124q-6 98 77 164q-37 10 -126 10q-195 0 -340 -31q-205 -45 -203 -137q2 -106 172 -137v-43q-92 -2 -164 45q-80 55 -82 145zM856 1249q0 -68 72 -106q57 -33 131 -33q170 0 170 117q0 76 -80 119q-72 39 -143 38q-86 0 -125 -61 q-25 -39 -25 -74zM1042 268q0 -35 19 -67q29 -51 20 -111q109 41 164 111q33 41 53 98q-10 109 -114 109q-57 0 -99.5 -41t-42.5 -99z" />
<glyph unicode="&#x205f;" horiz-adv-x="403" />
<glyph unicode="&#x2122;" horiz-adv-x="1024" d="M119 610v60q158 25 207 73q57 55 57 209v193q0 201 86 270q76 60 285 62v-50q-141 0 -187 -65q-37 -51 -37 -203v-141q0 -176 -45 -256q-37 -66 -249 -121q186 -41 237 -104q57 -70 57 -261v-155q0 -154 35 -203q43 -59 189 -61v-47h-62q-176 0 -242.5 72.5t-66.5 252.5 v193q0 152 -54.5 207t-209.5 75z" />
<glyph unicode="&#xe000;" horiz-adv-x="798" d="M0 0v799h799v-799h-799z" />
</font>
</defs>
</svg>
